<svg width="90" height="90" viewBox="0 0 48 48" xmlns="http://www.w3.org/2000/svg"><defs><radialGradient id="a" cx="-913.206" cy="598.408" r=".165" gradientTransform="matrix(0 24.7306 28.53 0 -17050.774 22624.432)" gradientUnits="userSpaceOnUse"><stop offset="0" stop-color="#20c6b7"/><stop offset="1" stop-color="#4d9abf"/></radialGradient></defs><path fill="#350f70" d="M13.79 48h-.36a1.71 1.71 0 0 1 .07-3.41c.1 0 .57-.4 1.08-1.71a1.71 1.71 0 0 1 1.91-1.06 1.62 1.62 0 0 1 .85.44 7.84 7.84 0 0 0 3.21 1.67 1.73 1.73 0 0 1 1.25 1.7 1.71 1.71 0 0 1-1.36 1.62 33.42 33.42 0 0 1-6.65.75Z"/><path fill="#c26e62" d="M20.23 45.08a9.15 9.15 0 0 1-3.7-1.95.51.51 0 0 0-.26-.14.52.52 0 0 0-.57.31c-.8 2.05-1.64 2.48-2.2 2.48a.51.51 0 0 0 0 1h.31a32.589 32.589 0 0 0 6.41-.74.5.5 0 0 0 0-1Z"/><path fill="#350f70" d="M33.89 48a33.485 33.485 0 0 1-6.65-.76 1.71 1.71 0 0 1-.11-3.32 7.838 7.838 0 0 0 3.21-1.67 1.66 1.66 0 0 1 .85-.44 1.71 1.71 0 0 1 1.91 1.06c.51 1.29 1 1.68 1.1 1.71a1.71 1.71 0 0 1 0 3.42Z"/><path fill="#c26e62" d="M34.19 45.78c-.56 0-1.4-.43-2.21-2.48a.5.5 0 0 0-.82-.17 9.13 9.13 0 0 1-3.71 1.95.52.52 0 0 0-.37.5.5.5 0 0 0 .41.48 32.504 32.504 0 0 0 6.4.74h.32a.52.52 0 0 0 .49-.52.51.51 0 0 0-.51-.5Z"/><path fill="#350f70" d="M7.06 42.83H7a1.71 1.71 0 0 1-1.14-.52 5.1 5.1 0 0 1-1.51-4.09c.34-4.31 5.73-8.39 6.34-8.84a1.71 1.71 0 0 1 2.26.21 4.55 4.55 0 0 0 1.25.92h.05a1.7 1.7 0 0 1 .766 2.279L15 32.82a1.79 1.79 0 0 1-.59.66 11.4 11.4 0 0 0-2.73 6.83A1.7 1.7 0 0 1 10 41.92h-.34a2.31 2.31 0 0 0-1.44.45 1.71 1.71 0 0 1-1.05.44Z"/><path fill="#e7896e" d="M13.67 31.6a5.81 5.81 0 0 1-1.62-1.19.5.5 0 0 0-.67-.06c-.22.16-5.55 4.13-5.86 8a3.93 3.93 0 0 0 1.18 3.13.53.53 0 0 0 .34.15.5.5 0 0 0 .31-.14 3.53 3.53 0 0 1 2.19-.76H10a.51.51 0 0 0 .51-.48 12.5 12.5 0 0 1 3.17-7.72.47.47 0 0 0 .26-.24.5.5 0 0 0-.225-.67.485.485 0 0 0-.045-.02Z"/><path fill="#350f70" d="M10.45 38.62a1.71 1.71 0 0 1-.65-.13l-.27-.1A2.39 2.39 0 0 0 8 38.25a1.72 1.72 0 0 1-1.14 0l-.17-.07a1.7 1.7 0 0 1-.86-.91A5.12 5.12 0 0 1 6 32.92c2-3.85 8.51-5.54 9.25-5.73a1.71 1.71 0 0 1 2 1.06 4.839 4.839 0 0 0 .82 1.36 1.71 1.71 0 0 1-.14 2.39 1.85 1.85 0 0 1-.8.38A11.36 11.36 0 0 0 12 37.66a1.69 1.69 0 0 1-1.55.96Z"/><path fill="#ffd267" d="M17.2 30.39a5.5 5.5 0 0 1-1-1.72.5.5 0 0 0-.59-.31c-.28.07-6.72 1.68-8.48 5.11A3.88 3.88 0 0 0 7 36.83a.49.49 0 0 0 .25.28.56.56 0 0 0 .34 0 3.54 3.54 0 0 1 2.31.13l.34.13a.5.5 0 0 0 .65-.24 12.51 12.51 0 0 1 5.89-5.91.52.52 0 0 0 .34-.12.51.51 0 0 0 .08-.71Z"/><path fill="#350f70" d="M40.94 42.83h-.1a1.73 1.73 0 0 1-1.05-.45 2.37 2.37 0 0 0-1.45-.45H38a1.7 1.7 0 0 1-1.69-1.61 11.4 11.4 0 0 0-2.73-6.83 1.79 1.79 0 0 1-.59-.66 1.71 1.71 0 0 1 .76-2.29 4.36 4.36 0 0 0 1.24-.92 1.71 1.71 0 0 1 2.26-.21c.61.45 6 4.54 6.34 8.84a5.1 5.1 0 0 1-1.51 4.09 1.71 1.71 0 0 1-1.14.52Z"/><path fill="#e7896e" d="M34.33 31.6A5.81 5.81 0 0 0 36 30.41a.5.5 0 0 1 .67-.06c.22.16 5.55 4.13 5.86 8a3.93 3.93 0 0 1-1.18 3.16.53.53 0 0 1-.34.15h-.05a.5.5 0 0 1-.31-.14 3.53 3.53 0 0 0-2.19-.76h-.36a.51.51 0 0 1-.51-.48 12.5 12.5 0 0 0-3.17-7.72.47.47 0 0 1-.26-.24.5.5 0 0 1 .13-.695.463.463 0 0 1 .04-.025Z"/><path fill="#350f70" d="M37.55 38.62a1.69 1.69 0 0 1-1.54-1 11.36 11.36 0 0 0-5.14-5.26 1.85 1.85 0 0 1-.8-.38 1.71 1.71 0 0 1-.21-2.37 4.65 4.65 0 0 0 .83-1.36 1.71 1.71 0 0 1 2-1.06c.74.19 7.28 1.89 9.25 5.73a5.12 5.12 0 0 1 .18 4.36 1.7 1.7 0 0 1-.86.91l-.16.07a1.74 1.74 0 0 1-1.15 0 2.39 2.39 0 0 0-1.51.14l-.28.1a1.629 1.629 0 0 1-.61.12Z"/><path fill="#ffd267" d="M30.8 30.39a5.5 5.5 0 0 0 1-1.72.5.5 0 0 1 .59-.31c.28.07 6.72 1.68 8.48 5.11a3.88 3.88 0 0 1 .13 3.36.49.49 0 0 1-.25.28h-.05a.56.56 0 0 1-.34 0 3.54 3.54 0 0 0-2.31.13l-.34.13a.5.5 0 0 1-.65-.24 12.51 12.51 0 0 0-5.89-5.91.52.52 0 0 1-.34-.12.51.51 0 0 1-.03-.71Z"/><path fill="#350f70" d="M23.84 47.77a13 13 0 0 1-8.82-3 1.72 1.72 0 0 1-.44-1.88 13.791 13.791 0 0 0 .7-2.49 2.32 2.32 0 0 0-.17-1.79 1.87 1.87 0 0 0-1.32-.5 1.7 1.7 0 0 1-1.6-1.795q.004-.053.01-.105a14.52 14.52 0 0 1 4.52-9 1.7 1.7 0 0 1 2-.19 10.08 10.08 0 0 0 5.12 1.11A10.08 10.08 0 0 0 29 27a1.72 1.72 0 0 1 2 .19 14.52 14.52 0 0 1 4.52 9 1.74 1.74 0 0 1-.39 1.3 1.68 1.68 0 0 1-1.2.61 1.85 1.85 0 0 0-1.32.5 2.36 2.36 0 0 0-.18 1.79 15.663 15.663 0 0 0 .7 2.49 1.7 1.7 0 0 1-.44 1.88 13 13 0 0 1-8.85 3.01Z"/><path fill="#ffd267" d="M34.29 36.33a13.24 13.24 0 0 0-4.12-8.26.51.51 0 0 0-.6-.06 11.21 11.21 0 0 1-5.73 1.28A11.23 11.23 0 0 1 18.11 28a.5.5 0 0 0-.59.06 13.3 13.3 0 0 0-4.13 8.26.47.47 0 0 0 .11.38.52.52 0 0 0 .36.19 2.86 2.86 0 0 1 2.2 1 3.5 3.5 0 0 1 .4 2.76 15.095 15.095 0 0 1-.76 2.69.51.51 0 0 0 .13.56 11.79 11.79 0 0 0 8 2.71 11.77 11.77 0 0 0 8-2.71.49.49 0 0 0 .17-.6 17.01 17.01 0 0 1-.76-2.69 3.51 3.51 0 0 1 .41-2.76 2.84 2.84 0 0 1 2.19-1 .52.52 0 0 0 .36-.19.47.47 0 0 0 .09-.33Z"/><path fill="#e7a960" d="M31.44 41.57a12.11 12.11 0 0 1-7.6 2.35 12.1 12.1 0 0 1-7.59-2.35 15.547 15.547 0 0 1-.55 1.73.51.51 0 0 0 .13.56 11.79 11.79 0 0 0 8 2.71 11.77 11.77 0 0 0 8-2.71.49.49 0 0 0 .17-.56 13.582 13.582 0 0 1-.56-1.73Z"/><path fill="#350f70" d="M23.52 37.33h1.05v9.52h-1.05z"/><path fill="#350f70" d="M24 39.28c-4.14 0-7.38-1.39-7.38-3.17a.31.31 0 0 1 .61 0c0 1.24 2.72 2.57 6.77 2.57s6.77-1.33 6.77-2.57a.3.3 0 1 1 .6 0c-.03 1.78-3.27 3.17-7.37 3.17Z"/><rect width="4.204" height="4.204" x="21.863" y="38.258" fill="#350f70" rx=".843" transform="rotate(-45 23.965 40.36)"/><path fill="url(#a)" d="M24.88 39.736h-.002l-.003-.002-.002-.004v-.006l.082-.502.385.386-.4.17h-.006l-.002-.002a.185.185 0 0 0-.053-.04Zm.558-.03.412.412c.085.086.128.128.144.178l.005.022-.984-.417-.001-.001c-.004-.002-.009-.003-.009-.007s.005-.006.009-.008h.001Zm.545.744a.773.773 0 0 1-.133.152l-.465.464-.6-.125h-.003c-.005-.001-.01-.002-.01-.007a.181.181 0 0 0-.07-.127l-.002-.01v-.001l.113-.694V40.1c.001-.006.002-.012.007-.012a.183.183 0 0 0 .123-.07l.003-.003.01.001 1.026.434Zm-.704.723-.764.764.131-.803v-.005l.007-.004h.001a.195.195 0 0 0 .074-.056.016.016 0 0 1 .01-.006h.003l.538.11Zm-.925.926-.086.086-.951-1.376-.002-.001-.002-.007.002-.004.001-.002.008-.013.002-.003.006-.007h.007l1.054.218.008.003.002.005a.187.187 0 0 0 .11.125v.008l-.002.005-.157.963Zm-.18.18a.398.398 0 0 1-.143.11.212.212 0 0 1-.128 0c-.05-.016-.093-.059-.178-.144l-.955-.956.25-.388.004-.005h.01a.258.258 0 0 0 .174-.008h.008l.003.003.956 1.388Zm-1.497-1.083-.219-.22.433-.184h.004l.007.006.014.02.001.002v.005l-.24.372Zm-.316-.316-.277-.278c-.047-.047-.081-.081-.105-.11l.843.174h.003c.005.002.011.003.011.007s-.006.008-.012.01l-.002.002Zm-.43-.531a.215.215 0 0 1 .01-.053c.015-.05.058-.092.143-.178l.355-.355q.245.356.492.71l.002.012a.298.298 0 0 0-.042.056l-.005.007h-.004l-.95-.2Zm.603-.681.477-.477.354.15.243.103.007.005v.007a.213.213 0 0 0 .056.194c.003.003 0 .008-.003.012l-.002.002-.484.75-.005.006h-.009a.244.244 0 0 0-.057-.008.32.32 0 0 0-.056.007h-.006l-.004-.006-.511-.746Zm.573-.574.618-.618c.085-.086.128-.128.178-.144a.214.214 0 0 1 .128 0c.05.016.092.058.178.144l.133.134-.439.68-.004.006h-.009a.223.223 0 0 0-.204.04h-.01c-.058-.026-.505-.215-.568-.242Zm1.329-.39.405.405-.097.606v.002l-.001.004-.006.003a.192.192 0 0 0-.058.029l-.002.002-.004.002h-.005l-.618-.263c-.005-.002-.01-.004-.01-.008a.234.234 0 0 0-.032-.098c-.003-.004-.007-.01-.004-.015Zm-.418.914.58.246.007.006v.006a.144.144 0 0 0-.003.028v.016c0 .004-.004.006-.008.007l-1.29.55-.006-.001c-.004-.004 0-.008.002-.012l.002-.002.476-.738.001-.001c.003-.005.006-.01.011-.01l.005.001a.22.22 0 0 0 .03.003.215.215 0 0 0 .18-.096l.003-.004Zm-.663.977 1.304-.557.004.002.019.016.003.002.005.006v.003l-.112.687v.002c0 .006-.001.012-.006.012a.184.184 0 0 0-.146.09l-.006.007h-.007l-1.04-.215Z"/><path fill="#350f70" d="M34.19 48c-1.41 0-3.95-.91-5.14-7a5.48 5.48 0 0 1 .95-4.61 5.18 5.18 0 0 1 4.23-1.72 5.18 5.18 0 0 1 4.23 1.72 5.48 5.48 0 0 1 .87 4.61c-1.19 6.09-3.73 7-5.14 7Z"/><path fill="#e7896e" d="M37.49 37.16a4 4 0 0 0-3.3-1.29 4.06 4.06 0 0 0-3.31 1.29 4.29 4.29 0 0 0-.65 3.65c.35 1.8 1.44 6 4 6s3.61-4.19 4-6a4.29 4.29 0 0 0-.74-3.65Z"/><path fill="#f8cfc5" d="M34.19 38.13c-1.78 0-2.23 1.24-2 2.64s.89 3.39 2 3.39 1.71-2 2-3.39-.19-2.64-2-2.64Z"/><path fill="#350f70" d="M13.5 48c-1.41 0-4-.91-5.14-7a5.48 5.48 0 0 1 .9-4.65 5.22 5.22 0 0 1 4.24-1.72 5.2 5.2 0 0 1 4.23 1.72 5.44 5.44 0 0 1 .9 4.65c-1.18 6.09-3.72 7-5.13 7Z"/><path fill="#e7896e" d="M16.8 37.16a4 4 0 0 0-3.3-1.29 4 4 0 0 0-3.31 1.29 4.29 4.29 0 0 0-.65 3.65c.35 1.8 1.44 6 4 6s3.6-4.19 3.95-6a4.29 4.29 0 0 0-.69-3.65Z"/><path fill="#f8cfc5" d="M13.5 38.13c1.77 0 2.23 1.24 2 2.64s-.88 3.39-2 3.39-1.72-2-2-3.39.22-2.64 2-2.64Z"/><circle cx="22.26" cy="45.52" r=".63" fill="#350f70"/><circle cx="12.67" cy="17.02" r="6.42" fill="#350f70"/><path fill="#e7896e" d="M12.67 22.24a5.21 5.21 0 1 0-.02 0Z"/><path fill="#350f70" d="M35.15 23.44A6.42 6.42 0 1 1 41.57 17a6.42 6.42 0 0 1-6.42 6.44Z"/><path fill="#e7896e" d="M35.15 22.24a5.21 5.21 0 1 1 .02 0Z"/><path fill="#350f70" d="M23.84 36.73a23.9 23.9 0 0 1-12.38-3.18C8 31.39 6 28.45 6 25.28s2-6.11 5.46-8.28a23.9 23.9 0 0 1 12.38-3.18A23.93 23.93 0 0 1 36.23 17c3.5 2.16 5.43 5.1 5.43 8.27s-1.93 6.11-5.43 8.27a23.93 23.93 0 0 1-12.39 3.19Z"/><path fill="#d06f52" d="M23.6 37A13.17 13.17 0 0 0 37 24.064v-.004a13.18 13.18 0 0 0-13.4-12.9 13.18 13.18 0 0 0-13.45 12.9A13.219 13.219 0 0 0 23.6 37Z"/><path fill="#350f70" d="M23.6 38.15A14.349 14.349 0 0 1 9 24.06 14.324 14.324 0 0 1 23.6 10a14.386 14.386 0 0 1 14.64 14.1c0 7.78-6.57 14.05-14.64 14.05Z"/><path fill="#e7896e" d="M23.6 35.22c7.4 0 13.4-5.38 13.4-12.03s-6-12-13.44-12-13.45 5.39-13.45 12 6.06 12.03 13.49 12.03Z"/><path fill="#d06f52" d="M19.78 14.57c-5.32 0-9.63.57-9.63 1.27 0 .34 1.08.66 2.82.89a54.99 54.99 0 0 0 6.81.37h6c5.32 0 9.63-.57 9.63-1.26 0-.35-1.08-.67-2.82-.9a57.01 57.01 0 0 0-6.81-.37Z"/><path fill="#f8cfc5" d="M22.24 22.75a4.345 4.345 0 1 0 0 8.69H25a4.35 4.35 0 0 0 .417-8.69q-.208-.01-.417 0Z"/><path fill="#350f70" d="M20.74 23c1.27.34 1.69 1.08 2.86 1.08s1.58-.74 2.85-1.08a3 3 0 0 0-2.85-1.33A3 3 0 0 0 20.74 23Z"/><path fill="#350f70" d="M7.43 25a1.263 1.263 0 0 1-.33-.05 1.19 1.19 0 0 1-.82-1.47c.38-1.41 1-3.23 1.66-5a33.154 33.154 0 0 0 1.77-5.83 1.66 1.66 0 0 1 0-.32C10.16 5.82 16.34.76 23.84.76S37.53 5.82 38 12.29a1.728 1.728 0 0 1 0 .32 33.106 33.106 0 0 0 1.78 5.82c.63 1.77 1.28 3.59 1.66 5a1.201 1.201 0 1 1-2.31.66c-1.4-4.63-7.82-8-15.26-8s-13.87 3.37-15.29 8a1.2 1.2 0 0 1-1.15.91Z"/><path fill="#e54f4f" d="M7.43 23.75c.37-1.37 1-3.15 1.64-4.91.93-2.61 1.84-5.16 1.84-6.23a.902.902 0 0 1 0-.18C11.27 6.6 16.92 2 23.84 2s12.58 4.6 12.92 10.43a1.002 1.002 0 0 1 0 .18c0 1.07.92 3.62 1.85 6.23.62 1.75 1.26 3.54 1.63 4.9-1.53-5-8.3-8.85-16.41-8.85S9 18.7 7.43 23.75Z"/><path fill="#350f70" d="M16.56 13.39V3.48A3.48 3.48 0 0 1 20 0h7.61a3.48 3.48 0 0 1 3.48 3.48v9.91L29.63 13a23.92 23.92 0 0 0-11.57 0Z"/><path fill="#ff5f50" d="M23.84 11.09a24.78 24.78 0 0 1 6.09.75V3.48a2.29 2.29 0 0 0-2.28-2.28H20a2.29 2.29 0 0 0-2.28 2.28v8.36a24.702 24.702 0 0 1 6.12-.75Z"/><path fill="#ffd267" d="M23.84 9.35c1.26 0 2.28-1.36 2.28-3s-1-3-2.28-3-2.28 1.36-2.28 3 1.02 3 2.28 3Z"/><path fill="#d06f52" d="M18.61 22.93a1 1 0 0 1-1-1 .48.48 0 0 0-.48-.48.47.47 0 0 0-.48.46v.02a1 1 0 0 1-2 0 2.44 2.44 0 1 1 4.87 0 1 1 0 0 1-.91 1Z"/><path fill="#350f70" d="M18.61 22.4a.76.76 0 0 1-.76-.75.7.7 0 0 0-.69-.71h-.01a.71.71 0 0 0-.71.71.75.75 0 0 1-1.5 0 2.21 2.21 0 0 1 4.42 0 .76.76 0 0 1-.75.75Z"/><path fill="#d06f52" d="M31.69 22.93a1 1 0 0 1-1-1 .47.47 0 0 0-.46-.48h-.02a.48.48 0 0 0-.48.48 1 1 0 0 1-2 0 2.44 2.44 0 0 1 4.88 0 1 1 0 0 1-.92 1Z"/><path fill="#350f70" d="M31.69 22.4a.75.75 0 0 1-.75-.75.71.71 0 1 0-1.42 0 .75.75 0 0 1-1.5 0 2.21 2.21 0 0 1 4.42 0 .75.75 0 0 1-.75.75ZM25.58 24.06a.46.46 0 0 0-.46.46.53.53 0 0 1-1.06 0c0-.26-.21-1.92-.46-1.92s-.47 1.66-.47 1.92a.53.53 0 0 1-1.06.001v-.001a.47.47 0 0 0-.93 0 1.46 1.46 0 0 0 2.46 1.06 1.42 1.42 0 0 0 1 .4 1.47 1.47 0 0 0 1.46-1.46.46.46 0 0 0-.46-.46h-.02Z"/></svg>
