<svg width="90" height="90" viewBox="0 0 390 361" fill="none" xmlns="http://www.w3.org/2000/svg">
<path d="M132.605 309.94L133.033 310.05H133.475C143.231 310.05 150.102 308.804 154.44 306.273C156.693 304.959 158.396 303.22 159.33 301.029C160.262 298.846 160.276 296.573 159.796 294.461C158.873 290.403 156.006 286.389 152.861 282.969C149.632 279.457 145.725 276.164 142.133 273.552L141.803 273.312L141.428 273.155C132.02 269.21 108.486 256.303 90.8185 236.795C85.8303 231.288 83.2997 223.941 82.5406 215.542C81.7809 207.136 82.8207 197.911 84.7516 188.977C88.6166 171.095 95.9086 155.015 98.3951 150.268C99.3914 148.366 100.47 146.627 101.563 144.867C101.812 144.466 102.062 144.063 102.312 143.658C103.603 141.559 104.93 139.312 105.772 136.995C106.641 134.606 107.061 131.975 106.389 129.144C105.725 126.343 104.086 123.732 101.54 121.186C99.6338 119.28 97.0079 118.431 94.3425 118.249C91.6523 118.066 88.6361 118.532 85.5094 119.554C79.2439 121.601 72.0956 126.019 65.3721 133.021C51.8651 147.088 39.9448 171.692 39.9448 209.449C39.9448 240.376 55.6607 263.625 74.9418 279.982C94.1742 296.299 117.186 305.984 132.605 309.94Z" fill="#C6DBEB" stroke="#350F70" stroke-width="7"/>
<g style="mix-blend-mode:multiply" opacity="0.5">
<path d="M55.0469 209.952C41.6341 237.817 62.4383 267.332 74.517 278.606C85.7665 287.894 100.477 295.264 106.426 297.788L122.11 286.178L106.426 247.812C94.8884 223.582 68.4596 182.086 55.0469 209.952Z" fill="#A8C6DD"/>
</g>
<path d="M139.14 322.283L138.832 322.33L138.537 322.431C135.248 323.55 130.324 325.701 126.146 328.595C124.056 330.044 122.019 331.769 120.475 333.758C118.931 335.749 117.724 338.214 117.724 341.046C117.724 345.19 120.651 347.962 123.691 349.606C126.797 351.285 130.843 352.296 135.06 352.764C143.464 353.698 153.801 352.605 161.241 348.885C165.22 346.895 168.045 343.906 169.162 340.297C170.293 336.642 169.514 332.838 167.201 329.7C162.658 323.534 152.686 320.231 139.14 322.283Z" fill="#350F70" stroke="#350F70" stroke-width="7"/>
<path d="M274.98 322.283L275.289 322.33L275.584 322.431C278.873 323.55 283.797 325.701 287.975 328.595C290.065 330.044 292.102 331.769 293.645 333.758C295.19 335.749 296.397 338.214 296.397 341.046C296.397 345.19 293.469 347.962 290.43 349.606C287.324 351.285 283.278 352.296 279.06 352.764C270.657 353.698 260.32 352.605 252.88 348.885C248.9 346.895 246.076 343.906 244.959 340.297C243.827 336.642 244.607 332.838 246.919 329.7C251.463 323.534 261.435 320.231 274.98 322.283Z" fill="#350F70" stroke="#350F70" stroke-width="7"/>
<path d="M274.373 240.953C265.235 226.525 228.103 209.692 207.061 203.079C186.019 209.692 148.887 226.525 139.749 240.953C137.93 243.826 135.456 247.384 132.651 251.417C117.843 272.71 86.5938 307.238 101.252 323.918C118.686 343.757 139.728 353.977 175.198 334.739H238.923C274.394 353.977 295.436 343.757 312.87 323.918C327.528 307.238 296.28 272.71 281.471 251.417C278.666 247.384 276.192 243.826 274.373 240.953Z" fill="#A8C6DD"/>
<path d="M207.061 203.079L208.11 199.74L207.061 199.41L206.012 199.74L207.061 203.079ZM274.373 240.953L271.416 242.826V242.826L274.373 240.953ZM139.749 240.953L136.792 239.081L139.749 240.953ZM132.651 251.417L129.777 249.419L132.651 251.417ZM101.252 323.918L98.6228 326.228H98.6228L101.252 323.918ZM175.198 334.739V331.239H174.31L173.53 331.663L175.198 334.739ZM238.923 334.739L240.592 331.663L239.812 331.239H238.923V334.739ZM312.87 323.918L310.241 321.607L312.87 323.918ZM281.471 251.417L284.345 249.419L284.345 249.419L281.471 251.417ZM206.012 206.418C216.334 209.662 230.685 215.443 243.557 222.186C249.989 225.555 255.986 229.13 260.899 232.708C265.868 236.327 269.483 239.774 271.416 242.826L277.33 239.081C274.694 234.919 270.24 230.851 265.02 227.049C259.742 223.206 253.428 219.454 246.805 215.985C233.566 209.05 218.83 203.109 208.11 199.74L206.012 206.418ZM142.706 242.826C144.639 239.774 148.254 236.327 153.223 232.708C158.136 229.13 164.133 225.555 170.565 222.186C183.437 215.443 197.788 209.662 208.11 206.418L206.012 199.74C195.292 203.109 180.557 209.05 167.317 215.985C160.694 219.454 154.38 223.206 149.102 227.049C143.882 230.851 139.428 234.919 136.792 239.081L142.706 242.826ZM135.524 253.415C138.313 249.405 140.838 245.776 142.706 242.826L136.792 239.081C135.023 241.875 132.598 245.362 129.777 249.419L135.524 253.415ZM103.881 321.607C101.148 318.497 100.358 314.429 101.333 309.187C102.323 303.861 105.08 297.728 108.922 291.165C116.683 277.905 127.845 264.457 135.524 253.415L129.777 249.419C122.648 259.67 110.781 274.132 102.881 287.629C98.8916 294.444 95.66 301.402 94.4506 307.907C93.2259 314.496 94.0269 320.998 98.6228 326.228L103.881 321.607ZM173.53 331.663C156.269 341.024 143.015 342.957 132.219 340.565C121.377 338.164 112.365 331.262 103.881 321.607L98.6228 326.228C107.573 336.413 117.8 344.541 130.705 347.4C143.656 350.269 158.658 347.692 176.867 337.816L173.53 331.663ZM310.241 321.607C301.757 331.262 292.745 338.164 281.903 340.565C271.107 342.957 257.853 341.024 240.592 331.663L237.255 337.816C255.464 347.692 270.466 350.269 283.417 347.4C296.322 344.541 306.549 336.413 315.499 326.228L310.241 321.607ZM278.598 253.415C286.277 264.457 297.439 277.906 305.2 291.165C309.042 297.728 311.799 303.861 312.789 309.187C313.764 314.429 312.974 318.497 310.241 321.607L315.499 326.228C320.095 320.998 320.896 314.496 319.671 307.907C318.462 301.402 315.23 294.445 311.241 287.629C303.341 274.132 291.474 259.67 284.345 249.419L278.598 253.415ZM271.416 242.826C273.284 245.776 275.809 249.406 278.598 253.415L284.345 249.419C281.524 245.363 279.099 241.875 277.33 239.081L271.416 242.826ZM238.923 331.239H175.198V338.239H238.923V331.239Z" fill="#350F70"/>
<g style="mix-blend-mode:multiply" opacity="0.5">
<path d="M270.636 341.905C300.47 315.567 291.419 273.049 283.164 255.083C274.773 245.06 260.028 250.906 256.629 255.083C271.546 291.676 256.263 314.809 243.832 321.802V351.228C255.486 356.123 266.557 353.268 270.636 351.228L268.596 345.11L270.636 341.905Z" fill="#A8C6DD"/>
</g>
<g style="mix-blend-mode:multiply" opacity="0.5">
<path d="M144.439 341.905C114.605 315.567 123.656 273.049 131.911 255.083C140.302 245.06 155.047 250.906 158.446 255.083C143.529 291.676 158.812 314.809 171.243 321.802V351.228C159.589 356.123 148.518 353.268 144.439 351.228L146.478 345.11L144.439 341.905Z" fill="#A8C6DD"/>
</g>
<path d="M239.388 331.26H176.367C116.73 271.201 164.947 248.361 206.82 248.361C248.692 248.361 264.765 256.82 264.765 283.043C264.765 304.022 247.847 323.929 239.388 331.26Z" fill="#A8C6DD"/>
<path d="M141.726 244.108L141.425 244.467L141.229 244.893C136.588 254.995 131.773 271.841 132.258 289.902C132.742 307.895 138.51 327.349 155.237 342.326L156.28 343.967L154.607 348.988L153.647 351.868L156.362 353.225C161.473 355.781 174.498 359.078 188.204 353.322L190.349 352.421V350.095V318.344V316.297L188.564 315.294C176.863 308.712 160.773 285.719 176.281 247.676L177.065 245.754L175.755 244.145C174.398 242.478 172.226 240.966 169.837 239.792C167.382 238.585 164.413 237.594 161.236 237.144C154.87 236.243 147.257 237.501 141.726 244.108Z" fill="#C6DBEB" stroke="#350F70" stroke-width="7"/>
<path d="M272.395 244.108L272.696 244.467L272.891 244.893C277.533 254.995 282.348 271.841 281.863 289.902C281.379 307.895 275.611 327.349 258.884 342.326L257.84 343.967L259.514 348.988L260.474 351.868L257.759 353.225C252.648 355.781 239.623 359.078 225.917 353.322L223.772 352.421V350.095V318.344V316.297L225.556 315.294C237.257 308.712 253.347 285.719 237.839 247.676L237.056 245.754L238.366 244.145C239.723 242.478 241.895 240.966 244.284 239.792C246.739 238.585 249.708 237.594 252.885 237.144C259.251 236.243 266.863 237.501 272.395 244.108Z" fill="#C6DBEB" stroke="#350F70" stroke-width="7"/>
<path d="M264.586 266.774C263.857 277.847 256.773 287.746 245.313 294.697C233.862 301.643 218.268 305.47 201.257 304.35C184.245 303.23 169.288 297.39 158.847 289.003C148.397 280.609 142.672 269.866 143.402 258.793C144.131 247.721 151.215 237.821 162.675 230.87C174.126 223.925 189.72 220.097 206.731 221.218C223.743 222.338 238.7 228.178 249.141 236.565C259.591 244.959 265.316 255.702 264.586 266.774Z" stroke="white" stroke-width="5.82502"/>
<mask id="path-13-outside-1_1_2474" maskUnits="userSpaceOnUse" x="185.263" y="294.067" width="46.7964" height="46.7964" fill="black">
<rect fill="white" x="185.263" y="294.067" width="46.7964" height="46.7964"/>
<path d="M216.951 312.434L216.938 312.428C216.931 312.425 216.924 312.421 216.918 312.414C216.908 312.402 216.901 312.388 216.897 312.373C216.894 312.357 216.894 312.341 216.897 312.326L217.908 307.966L221.066 311.57L217.452 312.835C217.442 312.838 217.431 312.839 217.421 312.838L217.407 312.837C217.402 312.834 217.398 312.83 217.389 312.82C217.268 312.666 217.119 312.535 216.951 312.434ZM221.872 312.489L225.248 316.341C225.949 317.142 226.301 317.542 226.409 317.986C226.425 318.051 226.438 318.117 226.447 318.184L218.05 313.957C218.045 313.954 218.04 313.952 218.036 313.95C218.002 313.934 217.963 313.915 217.966 313.88C217.968 313.844 218.01 313.83 218.046 313.819L218.057 313.815L221.872 312.489ZM226.223 319.334C226.013 319.672 225.626 320.012 224.97 320.588L220.626 324.394L215.428 322.949L215.4 322.942C215.354 322.931 215.305 322.92 215.308 322.878C215.302 322.659 215.252 322.444 215.159 322.245C215.067 322.047 214.934 321.87 214.77 321.725C214.75 321.702 214.758 321.669 214.767 321.638C214.767 321.634 214.767 321.629 214.769 321.625L216.162 315.605L216.167 315.585C216.175 315.539 216.187 315.485 216.229 315.488C216.443 315.475 216.653 315.42 216.846 315.326C217.038 315.232 217.21 315.1 217.352 314.939C217.361 314.93 217.367 314.92 217.379 314.915C217.409 314.903 217.444 314.92 217.474 314.935L226.222 319.334L226.223 319.334ZM219.627 325.269L212.485 331.529L214.096 324.555L214.099 324.546C214.1 324.536 214.103 324.527 214.106 324.519C214.117 324.497 214.142 324.489 214.166 324.482L214.177 324.478C214.435 324.387 214.668 324.236 214.857 324.038C214.881 324.014 214.91 323.99 214.944 323.988C214.954 323.987 214.963 323.988 214.972 323.99L219.626 325.27L219.627 325.269ZM210.973 332.854L210.168 333.56L202.612 320.941C202.609 320.936 202.606 320.932 202.604 320.927C202.592 320.909 202.579 320.89 202.583 320.87C202.584 320.855 202.595 320.842 202.606 320.832L202.616 320.82C202.644 320.785 202.668 320.749 202.694 320.71L202.715 320.679L202.718 320.676C202.732 320.655 202.746 320.634 202.769 320.623C202.789 320.615 202.816 320.621 202.837 320.627L211.963 323.144C211.988 323.15 212.012 323.162 212.032 323.18C212.043 323.193 212.045 323.206 212.047 323.221C212.095 323.469 212.2 323.703 212.354 323.904C212.508 324.105 212.706 324.268 212.933 324.38C212.958 324.395 212.945 324.423 212.931 324.453C212.924 324.466 212.919 324.48 212.914 324.494C212.751 325.195 211.35 331.226 210.973 332.854ZM209.291 334.327C208.698 334.841 208.351 335.112 207.972 335.205C207.598 335.296 207.206 335.27 206.847 335.131C206.422 334.964 206.071 334.564 205.37 333.763L197.536 324.825L199.95 321.572C199.961 321.556 199.973 321.542 199.99 321.531C200.015 321.515 200.048 321.525 200.075 321.536C200.568 321.721 201.109 321.729 201.608 321.559C201.633 321.552 201.659 321.547 201.677 321.566C201.687 321.575 201.695 321.586 201.702 321.597L209.291 334.328L209.291 334.327ZM196.781 323.963L194.983 321.913L198.889 320.542C198.899 320.539 198.91 320.537 198.92 320.538C198.952 320.54 198.969 320.573 198.984 320.603C199.018 320.664 199.055 320.724 199.094 320.782L199.105 320.798C199.115 320.815 199.106 320.83 199.094 320.844L196.781 323.963L196.781 323.963ZM194.188 321.005L191.915 318.411C191.528 317.97 191.247 317.65 191.055 317.378L198.355 319.4C198.364 319.402 198.373 319.404 198.382 319.406C198.428 319.417 198.477 319.429 198.475 319.472C198.472 319.518 198.415 319.536 198.367 319.551L198.345 319.559L194.188 321.005ZM190.713 316.098C190.731 315.942 190.77 315.789 190.827 315.642C190.994 315.217 191.393 314.866 192.194 314.164L195.514 311.255C196.811 313.431 198.112 315.604 199.417 317.775C199.44 317.81 199.466 317.849 199.435 317.875C199.289 318.016 199.142 318.172 199.034 318.343C199.022 318.366 199.005 318.384 198.984 318.398C198.971 318.405 198.958 318.401 198.944 318.397L198.942 318.397L190.713 316.097L190.713 316.098ZM196.403 310.476L200.864 306.564C201.247 306.762 202.641 307.462 203.886 308.087C204.828 308.561 205.688 308.993 205.958 309.132C205.985 309.145 206.009 309.158 206.02 309.187C206.026 309.204 206.021 309.225 206.016 309.243C205.93 309.541 205.919 309.855 205.985 310.158C206.05 310.462 206.19 310.744 206.392 310.979C206.418 311.009 206.387 311.048 206.361 311.08L206.346 311.099L201.66 317.405C201.648 317.423 201.636 317.439 201.617 317.449C201.594 317.462 201.562 317.453 201.537 317.445C201.374 317.391 201.206 317.357 201.035 317.343C200.882 317.333 200.714 317.35 200.544 317.369L200.543 317.369C200.524 317.371 200.507 317.374 200.493 317.361C200.478 317.347 200.465 317.33 200.454 317.311L196.402 310.476L196.403 310.476ZM201.768 305.774L207.546 300.709C208.347 300.008 208.747 299.657 209.191 299.549C209.564 299.457 209.957 299.483 210.315 299.623C210.741 299.788 211.092 300.189 211.793 300.989L212.891 302.241L208.642 307.959C208.631 307.976 208.617 307.99 208.6 308.001C208.576 308.016 208.544 308.007 208.516 307.996C208.218 307.884 207.898 307.846 207.582 307.885C207.266 307.925 206.964 308.041 206.703 308.223C206.676 308.248 206.64 308.23 206.609 308.214C206.12 307.962 202.313 306.049 201.768 305.774ZM213.656 303.114L216.981 306.909L215.774 312.166L215.773 312.18C215.771 312.192 215.768 312.204 215.763 312.215C215.752 312.233 215.733 312.235 215.714 312.24C215.527 312.283 215.349 312.358 215.187 312.461C215.18 312.465 215.173 312.47 215.167 312.475C215.156 312.486 215.145 312.495 215.128 312.496C215.114 312.496 215.101 312.492 215.088 312.487L209.815 309.824L209.805 309.819C209.771 309.803 209.731 309.783 209.734 309.748C209.722 309.443 209.642 309.145 209.501 308.876C209.478 308.831 209.452 308.784 209.477 308.742L213.656 303.114ZM209.46 310.898L214.404 313.387C214.432 313.402 214.462 313.416 214.472 313.446C214.476 313.463 214.474 313.482 214.468 313.499C214.448 313.572 214.43 313.656 214.424 313.742L214.415 313.885C214.412 313.92 214.375 313.933 214.341 313.945L214.33 313.948C213.502 314.239 202.701 318.027 202.685 318.026C202.669 318.025 202.652 318.023 202.638 318.007C202.612 317.977 202.642 317.939 202.67 317.906C202.674 317.9 202.679 317.894 202.684 317.888L207.29 311.691L207.298 311.681C207.325 311.643 207.356 311.601 207.4 311.604L207.442 311.613C207.536 311.633 207.619 311.65 207.704 311.656C208.338 311.698 208.946 311.428 209.335 310.923C209.344 310.91 209.356 310.898 209.369 310.888C209.396 310.871 209.432 310.883 209.46 310.898ZM203.072 319.079L214.845 314.95C214.845 314.95 214.862 314.951 214.876 314.968C214.935 315.035 214.985 315.08 215.034 315.123L215.058 315.14C215.08 315.155 215.103 315.171 215.103 315.195C215.102 315.205 215.102 315.21 215.1 315.219L213.722 321.18L213.716 321.204C213.707 321.25 213.697 321.303 213.653 321.3C213.39 321.3 213.132 321.365 212.899 321.488C212.667 321.611 212.469 321.788 212.321 322.006L212.315 322.013C212.301 322.033 212.287 322.053 212.265 322.063C212.245 322.071 212.22 322.065 212.2 322.059L203.192 319.574C203.183 319.572 203.082 319.081 203.072 319.079Z"/>
</mask>
<path d="M216.951 312.434L216.938 312.428C216.931 312.425 216.924 312.421 216.918 312.414C216.908 312.402 216.901 312.388 216.897 312.373C216.894 312.357 216.894 312.341 216.897 312.326L217.908 307.966L221.066 311.57L217.452 312.835C217.442 312.838 217.431 312.839 217.421 312.838L217.407 312.837C217.402 312.834 217.398 312.83 217.389 312.82C217.268 312.666 217.119 312.535 216.951 312.434ZM221.872 312.489L225.248 316.341C225.949 317.142 226.301 317.542 226.409 317.986C226.425 318.051 226.438 318.117 226.447 318.184L218.05 313.957C218.045 313.954 218.04 313.952 218.036 313.95C218.002 313.934 217.963 313.915 217.966 313.88C217.968 313.844 218.01 313.83 218.046 313.819L218.057 313.815L221.872 312.489ZM226.223 319.334C226.013 319.672 225.626 320.012 224.97 320.588L220.626 324.394L215.428 322.949L215.4 322.942C215.354 322.931 215.305 322.92 215.308 322.878C215.302 322.659 215.252 322.444 215.159 322.245C215.067 322.047 214.934 321.87 214.77 321.725C214.75 321.702 214.758 321.669 214.767 321.638C214.767 321.634 214.767 321.629 214.769 321.625L216.162 315.605L216.167 315.585C216.175 315.539 216.187 315.485 216.229 315.488C216.443 315.475 216.653 315.42 216.846 315.326C217.038 315.232 217.21 315.1 217.352 314.939C217.361 314.93 217.367 314.92 217.379 314.915C217.409 314.903 217.444 314.92 217.474 314.935L226.222 319.334L226.223 319.334ZM219.627 325.269L212.485 331.529L214.096 324.555L214.099 324.546C214.1 324.536 214.103 324.527 214.106 324.519C214.117 324.497 214.142 324.489 214.166 324.482L214.177 324.478C214.435 324.387 214.668 324.236 214.857 324.038C214.881 324.014 214.91 323.99 214.944 323.988C214.954 323.987 214.963 323.988 214.972 323.99L219.626 325.27L219.627 325.269ZM210.973 332.854L210.168 333.56L202.612 320.941C202.609 320.936 202.606 320.932 202.604 320.927C202.592 320.909 202.579 320.89 202.583 320.87C202.584 320.855 202.595 320.842 202.606 320.832L202.616 320.82C202.644 320.785 202.668 320.749 202.694 320.71L202.715 320.679L202.718 320.676C202.732 320.655 202.746 320.634 202.769 320.623C202.789 320.615 202.816 320.621 202.837 320.627L211.963 323.144C211.988 323.15 212.012 323.162 212.032 323.18C212.043 323.193 212.045 323.206 212.047 323.221C212.095 323.469 212.2 323.703 212.354 323.904C212.508 324.105 212.706 324.268 212.933 324.38C212.958 324.395 212.945 324.423 212.931 324.453C212.924 324.466 212.919 324.48 212.914 324.494C212.751 325.195 211.35 331.226 210.973 332.854ZM209.291 334.327C208.698 334.841 208.351 335.112 207.972 335.205C207.598 335.296 207.206 335.27 206.847 335.131C206.422 334.964 206.071 334.564 205.37 333.763L197.536 324.825L199.95 321.572C199.961 321.556 199.973 321.542 199.99 321.531C200.015 321.515 200.048 321.525 200.075 321.536C200.568 321.721 201.109 321.729 201.608 321.559C201.633 321.552 201.659 321.547 201.677 321.566C201.687 321.575 201.695 321.586 201.702 321.597L209.291 334.328L209.291 334.327ZM196.781 323.963L194.983 321.913L198.889 320.542C198.899 320.539 198.91 320.537 198.92 320.538C198.952 320.54 198.969 320.573 198.984 320.603C199.018 320.664 199.055 320.724 199.094 320.782L199.105 320.798C199.115 320.815 199.106 320.83 199.094 320.844L196.781 323.963L196.781 323.963ZM194.188 321.005L191.915 318.411C191.528 317.97 191.247 317.65 191.055 317.378L198.355 319.4C198.364 319.402 198.373 319.404 198.382 319.406C198.428 319.417 198.477 319.429 198.475 319.472C198.472 319.518 198.415 319.536 198.367 319.551L198.345 319.559L194.188 321.005ZM190.713 316.098C190.731 315.942 190.77 315.789 190.827 315.642C190.994 315.217 191.393 314.866 192.194 314.164L195.514 311.255C196.811 313.431 198.112 315.604 199.417 317.775C199.44 317.81 199.466 317.849 199.435 317.875C199.289 318.016 199.142 318.172 199.034 318.343C199.022 318.366 199.005 318.384 198.984 318.398C198.971 318.405 198.958 318.401 198.944 318.397L198.942 318.397L190.713 316.097L190.713 316.098ZM196.403 310.476L200.864 306.564C201.247 306.762 202.641 307.462 203.886 308.087C204.828 308.561 205.688 308.993 205.958 309.132C205.985 309.145 206.009 309.158 206.02 309.187C206.026 309.204 206.021 309.225 206.016 309.243C205.93 309.541 205.919 309.855 205.985 310.158C206.05 310.462 206.19 310.744 206.392 310.979C206.418 311.009 206.387 311.048 206.361 311.08L206.346 311.099L201.66 317.405C201.648 317.423 201.636 317.439 201.617 317.449C201.594 317.462 201.562 317.453 201.537 317.445C201.374 317.391 201.206 317.357 201.035 317.343C200.882 317.333 200.714 317.35 200.544 317.369L200.543 317.369C200.524 317.371 200.507 317.374 200.493 317.361C200.478 317.347 200.465 317.33 200.454 317.311L196.402 310.476L196.403 310.476ZM201.768 305.774L207.546 300.709C208.347 300.008 208.747 299.657 209.191 299.549C209.564 299.457 209.957 299.483 210.315 299.623C210.741 299.788 211.092 300.189 211.793 300.989L212.891 302.241L208.642 307.959C208.631 307.976 208.617 307.99 208.6 308.001C208.576 308.016 208.544 308.007 208.516 307.996C208.218 307.884 207.898 307.846 207.582 307.885C207.266 307.925 206.964 308.041 206.703 308.223C206.676 308.248 206.64 308.23 206.609 308.214C206.12 307.962 202.313 306.049 201.768 305.774ZM213.656 303.114L216.981 306.909L215.774 312.166L215.773 312.18C215.771 312.192 215.768 312.204 215.763 312.215C215.752 312.233 215.733 312.235 215.714 312.24C215.527 312.283 215.349 312.358 215.187 312.461C215.18 312.465 215.173 312.47 215.167 312.475C215.156 312.486 215.145 312.495 215.128 312.496C215.114 312.496 215.101 312.492 215.088 312.487L209.815 309.824L209.805 309.819C209.771 309.803 209.731 309.783 209.734 309.748C209.722 309.443 209.642 309.145 209.501 308.876C209.478 308.831 209.452 308.784 209.477 308.742L213.656 303.114ZM209.46 310.898L214.404 313.387C214.432 313.402 214.462 313.416 214.472 313.446C214.476 313.463 214.474 313.482 214.468 313.499C214.448 313.572 214.43 313.656 214.424 313.742L214.415 313.885C214.412 313.92 214.375 313.933 214.341 313.945L214.33 313.948C213.502 314.239 202.701 318.027 202.685 318.026C202.669 318.025 202.652 318.023 202.638 318.007C202.612 317.977 202.642 317.939 202.67 317.906C202.674 317.9 202.679 317.894 202.684 317.888L207.29 311.691L207.298 311.681C207.325 311.643 207.356 311.601 207.4 311.604L207.442 311.613C207.536 311.633 207.619 311.65 207.704 311.656C208.338 311.698 208.946 311.428 209.335 310.923C209.344 310.91 209.356 310.898 209.369 310.888C209.396 310.871 209.432 310.883 209.46 310.898ZM203.072 319.079L214.845 314.95C214.845 314.95 214.862 314.951 214.876 314.968C214.935 315.035 214.985 315.08 215.034 315.123L215.058 315.14C215.08 315.155 215.103 315.171 215.103 315.195C215.102 315.205 215.102 315.21 215.1 315.219L213.722 321.18L213.716 321.204C213.707 321.25 213.697 321.303 213.653 321.3C213.39 321.3 213.132 321.365 212.899 321.488C212.667 321.611 212.469 321.788 212.321 322.006L212.315 322.013C212.301 322.033 212.287 322.053 212.265 322.063C212.245 322.071 212.22 322.065 212.2 322.059L203.192 319.574C203.183 319.572 203.082 319.081 203.072 319.079Z" fill="url(#paint0_radial_1_2474)"/>
<path d="M216.951 312.434L216.938 312.428C216.931 312.425 216.924 312.421 216.918 312.414C216.908 312.402 216.901 312.388 216.897 312.373C216.894 312.357 216.894 312.341 216.897 312.326L217.908 307.966L221.066 311.57L217.452 312.835C217.442 312.838 217.431 312.839 217.421 312.838L217.407 312.837C217.402 312.834 217.398 312.83 217.389 312.82C217.268 312.666 217.119 312.535 216.951 312.434ZM221.872 312.489L225.248 316.341C225.949 317.142 226.301 317.542 226.409 317.986C226.425 318.051 226.438 318.117 226.447 318.184L218.05 313.957C218.045 313.954 218.04 313.952 218.036 313.95C218.002 313.934 217.963 313.915 217.966 313.88C217.968 313.844 218.01 313.83 218.046 313.819L218.057 313.815L221.872 312.489ZM226.223 319.334C226.013 319.672 225.626 320.012 224.97 320.588L220.626 324.394L215.428 322.949L215.4 322.942C215.354 322.931 215.305 322.92 215.308 322.878C215.302 322.659 215.252 322.444 215.159 322.245C215.067 322.047 214.934 321.87 214.77 321.725C214.75 321.702 214.758 321.669 214.767 321.638C214.767 321.634 214.767 321.629 214.769 321.625L216.162 315.605L216.167 315.585C216.175 315.539 216.187 315.485 216.229 315.488C216.443 315.475 216.653 315.42 216.846 315.326C217.038 315.232 217.21 315.1 217.352 314.939C217.361 314.93 217.367 314.92 217.379 314.915C217.409 314.903 217.444 314.92 217.474 314.935L226.222 319.334L226.223 319.334ZM219.627 325.269L212.485 331.529L214.096 324.555L214.099 324.546C214.1 324.536 214.103 324.527 214.106 324.519C214.117 324.497 214.142 324.489 214.166 324.482L214.177 324.478C214.435 324.387 214.668 324.236 214.857 324.038C214.881 324.014 214.91 323.99 214.944 323.988C214.954 323.987 214.963 323.988 214.972 323.99L219.626 325.27L219.627 325.269ZM210.973 332.854L210.168 333.56L202.612 320.941C202.609 320.936 202.606 320.932 202.604 320.927C202.592 320.909 202.579 320.89 202.583 320.87C202.584 320.855 202.595 320.842 202.606 320.832L202.616 320.82C202.644 320.785 202.668 320.749 202.694 320.71L202.715 320.679L202.718 320.676C202.732 320.655 202.746 320.634 202.769 320.623C202.789 320.615 202.816 320.621 202.837 320.627L211.963 323.144C211.988 323.15 212.012 323.162 212.032 323.18C212.043 323.193 212.045 323.206 212.047 323.221C212.095 323.469 212.2 323.703 212.354 323.904C212.508 324.105 212.706 324.268 212.933 324.38C212.958 324.395 212.945 324.423 212.931 324.453C212.924 324.466 212.919 324.48 212.914 324.494C212.751 325.195 211.35 331.226 210.973 332.854ZM209.291 334.327C208.698 334.841 208.351 335.112 207.972 335.205C207.598 335.296 207.206 335.27 206.847 335.131C206.422 334.964 206.071 334.564 205.37 333.763L197.536 324.825L199.95 321.572C199.961 321.556 199.973 321.542 199.99 321.531C200.015 321.515 200.048 321.525 200.075 321.536C200.568 321.721 201.109 321.729 201.608 321.559C201.633 321.552 201.659 321.547 201.677 321.566C201.687 321.575 201.695 321.586 201.702 321.597L209.291 334.328L209.291 334.327ZM196.781 323.963L194.983 321.913L198.889 320.542C198.899 320.539 198.91 320.537 198.92 320.538C198.952 320.54 198.969 320.573 198.984 320.603C199.018 320.664 199.055 320.724 199.094 320.782L199.105 320.798C199.115 320.815 199.106 320.83 199.094 320.844L196.781 323.963L196.781 323.963ZM194.188 321.005L191.915 318.411C191.528 317.97 191.247 317.65 191.055 317.378L198.355 319.4C198.364 319.402 198.373 319.404 198.382 319.406C198.428 319.417 198.477 319.429 198.475 319.472C198.472 319.518 198.415 319.536 198.367 319.551L198.345 319.559L194.188 321.005ZM190.713 316.098C190.731 315.942 190.77 315.789 190.827 315.642C190.994 315.217 191.393 314.866 192.194 314.164L195.514 311.255C196.811 313.431 198.112 315.604 199.417 317.775C199.44 317.81 199.466 317.849 199.435 317.875C199.289 318.016 199.142 318.172 199.034 318.343C199.022 318.366 199.005 318.384 198.984 318.398C198.971 318.405 198.958 318.401 198.944 318.397L198.942 318.397L190.713 316.097L190.713 316.098ZM196.403 310.476L200.864 306.564C201.247 306.762 202.641 307.462 203.886 308.087C204.828 308.561 205.688 308.993 205.958 309.132C205.985 309.145 206.009 309.158 206.02 309.187C206.026 309.204 206.021 309.225 206.016 309.243C205.93 309.541 205.919 309.855 205.985 310.158C206.05 310.462 206.19 310.744 206.392 310.979C206.418 311.009 206.387 311.048 206.361 311.08L206.346 311.099L201.66 317.405C201.648 317.423 201.636 317.439 201.617 317.449C201.594 317.462 201.562 317.453 201.537 317.445C201.374 317.391 201.206 317.357 201.035 317.343C200.882 317.333 200.714 317.35 200.544 317.369L200.543 317.369C200.524 317.371 200.507 317.374 200.493 317.361C200.478 317.347 200.465 317.33 200.454 317.311L196.402 310.476L196.403 310.476ZM201.768 305.774L207.546 300.709C208.347 300.008 208.747 299.657 209.191 299.549C209.564 299.457 209.957 299.483 210.315 299.623C210.741 299.788 211.092 300.189 211.793 300.989L212.891 302.241L208.642 307.959C208.631 307.976 208.617 307.99 208.6 308.001C208.576 308.016 208.544 308.007 208.516 307.996C208.218 307.884 207.898 307.846 207.582 307.885C207.266 307.925 206.964 308.041 206.703 308.223C206.676 308.248 206.64 308.23 206.609 308.214C206.12 307.962 202.313 306.049 201.768 305.774ZM213.656 303.114L216.981 306.909L215.774 312.166L215.773 312.18C215.771 312.192 215.768 312.204 215.763 312.215C215.752 312.233 215.733 312.235 215.714 312.24C215.527 312.283 215.349 312.358 215.187 312.461C215.18 312.465 215.173 312.47 215.167 312.475C215.156 312.486 215.145 312.495 215.128 312.496C215.114 312.496 215.101 312.492 215.088 312.487L209.815 309.824L209.805 309.819C209.771 309.803 209.731 309.783 209.734 309.748C209.722 309.443 209.642 309.145 209.501 308.876C209.478 308.831 209.452 308.784 209.477 308.742L213.656 303.114ZM209.46 310.898L214.404 313.387C214.432 313.402 214.462 313.416 214.472 313.446C214.476 313.463 214.474 313.482 214.468 313.499C214.448 313.572 214.43 313.656 214.424 313.742L214.415 313.885C214.412 313.92 214.375 313.933 214.341 313.945L214.33 313.948C213.502 314.239 202.701 318.027 202.685 318.026C202.669 318.025 202.652 318.023 202.638 318.007C202.612 317.977 202.642 317.939 202.67 317.906C202.674 317.9 202.679 317.894 202.684 317.888L207.29 311.691L207.298 311.681C207.325 311.643 207.356 311.601 207.4 311.604L207.442 311.613C207.536 311.633 207.619 311.65 207.704 311.656C208.338 311.698 208.946 311.428 209.335 310.923C209.344 310.91 209.356 310.898 209.369 310.888C209.396 310.871 209.432 310.883 209.46 310.898ZM203.072 319.079L214.845 314.95C214.845 314.95 214.862 314.951 214.876 314.968C214.935 315.035 214.985 315.08 215.034 315.123L215.058 315.14C215.08 315.155 215.103 315.171 215.103 315.195C215.102 315.205 215.102 315.21 215.1 315.219L213.722 321.18L213.716 321.204C213.707 321.25 213.697 321.303 213.653 321.3C213.39 321.3 213.132 321.365 212.899 321.488C212.667 321.611 212.469 321.788 212.321 322.006L212.315 322.013C212.301 322.033 212.287 322.053 212.265 322.063C212.245 322.071 212.22 322.065 212.2 322.059L203.192 319.574C203.183 319.572 203.082 319.081 203.072 319.079Z" stroke="#350F70" stroke-width="7.76669" stroke-linecap="round" stroke-linejoin="round" mask="url(#path-13-outside-1_1_2474)"/>
<g style="mix-blend-mode:multiply" opacity="0.5">
<path d="M308.941 266.335C240.568 307.817 148.378 285.288 110.83 268.839C112.618 280.759 135.075 304.599 210.601 304.599C286.126 304.599 307.63 279.09 308.941 266.335Z" fill="#A8C6DD"/>
</g>
<path d="M313.605 30.2804C290.543 12.5604 254.961 3.70044 207.519 3.70044C160.076 3.70044 123.836 12.5604 100.774 30.2804C73.0988 51.6487 66.5096 83.9616 81.0059 123.571L89.5718 122.529C75.7345 85.004 82.3237 56.1383 108.022 36.8548C129.107 20.6983 162.712 12.3595 207.519 12.3595C252.325 12.3595 285.93 20.6983 307.016 36.8548C332.714 56.6595 339.303 85.004 325.465 122.529L334.031 123.571C348.528 83.9616 341.938 51.6487 313.605 30.2804Z" fill="#350F70" stroke="#350F70" stroke-width="7.17948"/>
<path d="M95.318 158.428C81.3755 193.284 70.0472 219.426 52.6191 211.583C34.3195 203.741 31.7053 168.884 45.6478 134.9C59.5903 100.915 85.7325 79.1295 104.032 87.8436C121.46 94.8149 110.132 124.443 95.318 158.428Z" fill="#350F70"/>
<path d="M85.4432 91.2619L85.5759 91.3248L85.7123 91.3794C88.7099 92.5784 90.2492 94.4395 91.0246 97.06C91.8892 99.9816 91.8549 104.102 90.7702 109.577C88.5966 120.548 82.7328 134.635 76.122 150.501C69.515 166.358 63.8325 179.761 57.8624 188.407C54.8887 192.714 52.1628 195.35 49.6672 196.627C47.457 197.758 45.1923 197.959 42.3581 196.791C36.389 193.906 32.0155 186.26 30.9892 174.253C29.9766 162.405 32.4025 147.486 38.7018 132.368C45.0143 117.218 53.7578 105.058 62.6214 97.7056C71.6539 90.2127 79.6547 88.52 85.4432 91.2619Z" stroke="#350F70" stroke-width="9.49469"/>
<path d="M319.27 161.041C335.827 194.155 348.898 220.297 366.326 210.712C383.755 201.126 383.755 166.27 367.198 133.156C350.641 100.043 323.627 80.8719 306.199 89.586C288.771 99.1715 302.714 127.928 319.27 161.041Z" fill="#350F70"/>
<path d="M384.236 170.874C384.029 183.181 380.114 191.199 374.524 194.336C371.537 195.895 369.19 195.883 366.962 194.99C364.441 193.98 361.606 191.642 358.383 187.6C352.304 179.978 346.221 168.133 338.931 153.94C338.446 152.995 337.955 152.041 337.459 151.076C337.251 150.647 337.043 150.219 336.836 149.793C329.604 134.908 323.182 121.689 320.255 110.99C318.753 105.502 318.321 101.169 318.895 97.8937C319.421 94.8883 320.79 92.7005 323.404 91.0746C328.825 88.1223 336.922 89.2927 346.578 96.175C356.071 102.941 365.856 114.495 373.433 129.228C380.973 143.89 384.439 158.807 384.236 170.874Z" stroke="#350F70" stroke-width="9.49469"/>
<path d="M154.579 93.7779C179.982 88.8077 200.599 88.5027 207.732 88.2727C214.864 88.5027 235.481 88.8077 260.885 93.7779C269.399 86.6446 290.844 71.5498 308.515 68.2366C317.259 76.9805 333.09 100.543 326.463 124.841C341.65 156.135 364.154 226.868 332.676 259.45C319.331 270.495 275.657 292.723 207.732 293.275C139.806 292.723 96.1328 270.495 82.7873 259.45C51.3095 226.868 73.8133 156.135 89 124.841C82.373 100.543 98.204 76.9805 106.948 68.2366C124.62 71.5498 146.065 86.6446 154.579 93.7779Z" fill="#C6DBEB"/>
<path d="M346.625 239.693C250.895 297.772 121.819 266.229 69.2476 243.198C71.751 259.887 103.194 293.266 208.938 293.266C314.682 293.266 344.79 257.551 346.625 239.693Z" fill="#A8C6DD"/>
<path d="M145.647 115.969C147.207 119.481 140.087 125.723 130.041 130.307C119.995 134.891 110.826 141.134 109.168 132.453C107.705 124.65 116.678 119.481 123.799 116.262C133.845 111.678 143.598 111.483 145.647 115.969Z" fill="#A8C6DD"/>
<path d="M265.721 114.302C264.161 117.813 271.281 124.055 281.327 128.639C291.373 133.224 300.542 139.466 302.2 130.785C303.663 122.982 294.689 117.813 287.569 114.594C277.523 110.01 267.769 109.815 265.721 114.302Z" fill="#A8C6DD"/>
<path d="M207.651 182.722C207.651 182.722 196.921 182.488 196.921 186.817C196.921 191.147 202.676 197.115 207.651 197.115C212.625 197.115 218.38 191.03 218.38 186.817C218.38 182.488 207.651 182.722 207.651 182.722Z" fill="#A8C6DD"/>
<path d="M206.902 207.11C202.641 206.892 197.507 205.909 191.717 203.615C171.506 195.64 165.061 241.304 206.355 241.304H206.902C248.087 241.304 241.75 195.64 221.54 203.615C215.75 205.909 210.725 206.892 206.355 207.11H206.902Z" fill="#A8C6DD"/>
<path d="M278.54 222.577C301.003 222.577 319.213 204.367 319.213 181.904C319.213 159.441 301.003 141.232 278.54 141.232C256.077 141.232 237.868 159.441 237.868 181.904C237.868 204.367 256.077 222.577 278.54 222.577Z" fill="#A8C6DD"/>
<path d="M140.253 222.577C162.716 222.577 180.925 204.367 180.925 181.904C180.925 159.441 162.716 141.232 140.253 141.232C117.79 141.232 99.5801 159.441 99.5801 181.904C99.5801 204.367 117.79 222.577 140.253 222.577Z" fill="#A8C6DD"/>
<path d="M277.096 213.799C297.135 213.799 313.38 197.554 313.38 177.515C313.38 157.476 297.135 141.232 277.096 141.232C257.058 141.232 240.813 157.476 240.813 177.515C240.813 197.554 257.058 213.799 277.096 213.799Z" fill="white" stroke="#350F70" stroke-width="5.31368" stroke-miterlimit="10"/>
<path d="M282.169 206.874C299.353 206.874 313.283 192.943 313.283 175.76C313.283 158.576 299.353 144.646 282.169 144.646C264.985 144.646 251.055 158.576 251.055 175.76C251.055 192.943 264.985 206.874 282.169 206.874Z" stroke="#350F70" stroke-width="5.31368" stroke-miterlimit="10"/>
<path d="M282.705 205.118C299.592 205.118 313.282 191.428 313.282 174.54C313.282 157.653 299.592 143.963 282.705 143.963C265.817 143.963 252.127 157.653 252.127 174.54C252.127 191.428 265.817 205.118 282.705 205.118Z" fill="#350F70"/>
<ellipse cx="267.524" cy="155.642" rx="7.32943" ry="4.34299" transform="rotate(-30 267.524 155.642)" fill="white"/>
<ellipse cx="295.76" cy="196.188" rx="3.68685" ry="2.37627" transform="rotate(-45 295.76 196.188)" fill="white"/>
<path d="M94.4982 81.6558L87.7148 124.575C94.3139 118.853 117.509 104.628 127.688 100.436C115.832 91.0951 100.187 84.0509 94.4982 81.6558Z" fill="#EF8582"/>
<path d="M321.078 81.6558L327.862 124.575C321.263 118.853 298.068 104.628 287.889 100.436C299.745 91.0951 315.39 84.0509 321.078 81.6558Z" fill="#EF8582"/>
<path d="M114.257 98.6468L96.0928 83.4075L126.725 100.802L96.0928 117.426L114.257 98.6468Z" fill="#B65F7D"/>
<path d="M301.319 98.6468L319.483 83.4075L288.851 100.802L319.483 117.426L301.319 98.6468Z" fill="#B65F7D"/>
<path d="M91.2119 123.271C107.013 108.836 128.276 100.448 128.276 100.448C114.115 89.7499 103.925 84.3918 97.4738 81.7183" stroke="#350F70" stroke-width="6.37642" stroke-miterlimit="10" stroke-linecap="round" stroke-linejoin="round"/>
<path d="M324.364 123.271C308.563 108.836 287.301 100.448 287.301 100.448C301.461 89.7499 311.651 84.3918 318.102 81.7183" stroke="#350F70" stroke-width="6.37642" stroke-miterlimit="10" stroke-linecap="round" stroke-linejoin="round"/>
<path d="M143.686 112.634C145.247 116.145 138.127 122.388 128.08 126.972C118.034 131.556 108.866 137.799 107.208 129.118C105.745 121.315 114.718 116.145 121.838 112.927C131.884 108.343 141.638 108.148 143.686 112.634Z" fill="#350F70"/>
<path d="M79.0791 204.145L103.99 215.845" stroke="#350F70" stroke-width="9.56463" stroke-miterlimit="10" stroke-linecap="round"/>
<path d="M336.942 204.145L312.031 215.845" stroke="#350F70" stroke-width="9.56463" stroke-miterlimit="10" stroke-linecap="round"/>
<path d="M74.4077 225.681L101.188 228.544" stroke="#350F70" stroke-width="9.56463" stroke-miterlimit="10" stroke-linecap="round"/>
<path d="M341.613 225.681L314.833 228.544" stroke="#350F70" stroke-width="9.56463" stroke-miterlimit="10" stroke-linecap="round"/>
<path d="M267.741 109.914C266.18 113.426 273.3 119.668 283.346 124.252C293.393 128.836 302.561 135.079 304.219 126.398C305.682 118.595 296.709 113.426 289.589 110.207C279.543 105.623 269.789 105.428 267.741 109.914Z" fill="#350F70"/>
<path d="M206.871 204.63C203.068 204.435 198.483 203.557 193.314 201.509C175.27 194.389 169.515 235.159 206.384 235.159H206.871C243.643 235.159 237.986 194.389 219.941 201.509C214.772 203.557 210.285 204.435 206.384 204.63H206.871Z" fill="#350F70"/>
<path d="M207.651 181.027C207.651 181.027 196.922 180.831 196.922 184.44C196.922 188.049 202.677 193.023 207.651 193.023C212.626 193.023 218.38 187.952 218.38 184.44C218.38 180.831 207.651 181.027 207.651 181.027Z" fill="#350F70"/>
<path d="M187.266 199.168C187.266 199.168 184.34 210.482 188.436 211.945C192.533 213.408 196.922 208.239 198.58 203.655C200.141 199.071 187.266 199.168 187.266 199.168Z" fill="white"/>
<path d="M196.476 207.657C191.771 205.57 187.655 205.673 186.258 205.836L186.52 201.98L188.148 200.455L192.482 201.162L198.099 205.01L197.362 206.422L196.476 207.657Z" fill="#DCE1EF"/>
<path d="M226.475 199.168C226.475 199.168 229.401 210.482 225.305 211.945C221.208 213.408 216.819 208.239 215.161 203.655C213.503 199.071 226.475 199.168 226.475 199.168Z" fill="white"/>
<path d="M217.27 207.657C221.975 205.57 226.091 205.673 227.488 205.836L227.226 201.98L225.598 200.455L221.264 201.162L215.647 205.01L216.384 206.422L217.27 207.657Z" fill="#DCE1EF"/>
<path d="M224.428 229.307C228.134 226.576 214.967 222.577 206.677 222.577C197.996 222.577 190.778 225.601 188.632 229.795C188.632 229.795 206.677 242.669 224.428 229.307Z" fill="#E075BC"/>
<path d="M221.002 230.489C223.986 228.29 213.384 225.071 206.709 225.071C199.72 225.071 193.909 227.505 192.182 230.882C192.182 230.882 206.709 241.248 221.002 230.489Z" fill="#C45DAD"/>
<path d="M206.871 204.63C203.068 204.435 198.483 203.557 193.314 201.509C175.27 194.389 169.515 235.159 206.384 235.159H206.871C243.643 235.159 237.986 194.389 219.941 201.509C214.772 203.557 210.285 204.435 206.384 204.63H206.871Z" stroke="#350F70" stroke-width="5.31368" stroke-miterlimit="10"/>
<path d="M140.253 213.799C160.291 213.799 176.536 197.554 176.536 177.515C176.536 157.476 160.291 141.232 140.253 141.232C120.214 141.232 103.969 157.476 103.969 177.515C103.969 197.554 120.214 213.799 140.253 213.799Z" fill="white" stroke="#350F70" stroke-width="5.31368" stroke-miterlimit="10"/>
<path d="M145.325 206.874C162.509 206.874 176.439 192.943 176.439 175.76C176.439 158.576 162.509 144.646 145.325 144.646C128.141 144.646 114.211 158.576 114.211 175.76C114.211 192.943 128.141 206.874 145.325 206.874Z" stroke="#350F70" stroke-width="5.31368" stroke-miterlimit="10"/>
<path d="M145.86 205.118C162.748 205.118 176.438 191.428 176.438 174.54C176.438 157.653 162.748 143.963 145.86 143.963C128.973 143.963 115.283 157.653 115.283 174.54C115.283 191.428 128.973 205.118 145.86 205.118Z" fill="#350F70"/>
<ellipse cx="130.681" cy="155.642" rx="7.32943" ry="4.34299" transform="rotate(-30 130.681 155.642)" fill="white"/>
<ellipse cx="158.916" cy="196.188" rx="3.68685" ry="2.37627" transform="rotate(-45 158.916 196.188)" fill="white"/>
<path d="M190.397 245.754C195.102 248.618 208.624 252.627 225.07 245.754" stroke="#350F70" stroke-width="4.25095" stroke-linecap="round" stroke-linejoin="round"/>
<path d="M154.579 93.7779C179.983 88.8077 200.599 88.5027 207.732 88.2727C214.865 88.5027 235.482 88.8077 260.885 93.7779C269.399 86.6446 290.844 71.5498 308.516 68.2366C317.26 76.9805 333.091 100.543 326.464 124.841C341.651 156.135 368.056 226.868 336.578 259.45C323.233 270.495 275.658 292.723 207.732 293.275C139.807 292.723 92.2319 270.495 78.8864 259.45C47.4087 226.868 73.8139 156.135 89.0006 124.841C82.3735 100.543 98.2046 76.9805 106.949 68.2366C124.62 71.5498 146.065 86.6446 154.579 93.7779Z" stroke="#350F70" stroke-width="8.50189"/>
<g clip-path="url(#clip0_1_2474)">
<path d="M226.202 33.555L200.823 33.1384C200.483 33.1384 200.21 33.3467 200.142 33.6939L199.054 39.943L198.782 41.54L195.175 62.6482C195.107 62.8565 194.971 63.0648 194.767 63.1342C194.563 63.2036 194.359 63.2036 194.155 63.0648C193.134 62.3704 191.773 61.815 190.345 61.5372C186.33 60.8429 182.724 62.3704 182.248 65.0784C181.771 67.7169 184.629 70.4943 188.644 71.1886C192.658 71.883 196.264 70.3554 196.74 67.6475L201.163 42.1649C201.231 41.8178 201.503 41.6095 201.843 41.6095L222.324 41.9566C222.528 41.9566 222.664 42.0261 222.8 42.1649C222.936 42.3038 223.004 42.5121 222.936 42.7204L219.874 60.3568C219.806 60.5651 219.67 60.7734 219.466 60.8429C219.262 60.9123 219.058 60.9123 218.854 60.7734C217.833 60.0791 216.472 59.5236 215.043 59.2459C211.029 58.5515 207.423 60.0791 206.947 62.787C206.47 65.4256 209.328 68.2029 213.342 68.8973C217.357 69.5916 220.963 68.0641 221.439 65.3561L225.454 41.9566L225.726 40.3596L226.747 34.3188C226.747 34.1105 226.747 33.9022 226.61 33.7633C226.61 33.6939 226.406 33.6245 226.202 33.555Z" fill="#D5C9D1"/>
</g>
<g clip-path="url(#clip1_1_2474)">
<path d="M388.979 247.038L370.247 246.749C369.996 246.749 369.795 246.893 369.745 247.134L368.941 251.474L368.74 252.583L366.079 267.241C366.029 267.386 365.928 267.531 365.777 267.579C365.627 267.627 365.476 267.627 365.325 267.531C364.572 267.049 363.568 266.663 362.513 266.47C359.55 265.988 356.888 267.049 356.537 268.929C356.185 270.761 358.295 272.69 361.258 273.172C364.221 273.654 366.882 272.594 367.234 270.713L370.498 253.017C370.548 252.776 370.749 252.631 371 252.631L386.117 252.872C386.268 252.872 386.368 252.921 386.468 253.017C386.569 253.113 386.619 253.258 386.569 253.403L384.309 265.65C384.259 265.795 384.158 265.94 384.008 265.988C383.857 266.036 383.706 266.036 383.556 265.94C382.802 265.457 381.798 265.072 380.743 264.879C377.78 264.397 375.118 265.457 374.767 267.338C374.415 269.17 376.525 271.099 379.488 271.581C382.451 272.063 385.112 271.002 385.464 269.122L388.427 252.872L388.628 251.763L389.381 247.568C389.381 247.424 389.381 247.279 389.281 247.183C389.281 247.134 389.13 247.086 388.979 247.038Z" fill="#D5C9D1"/>
</g>
<g clip-path="url(#clip2_1_2474)">
<path d="M31.9151 71.6863L13.787 71.397C13.544 71.397 13.3496 71.5416 13.301 71.7827L12.5234 76.1224L12.329 77.2314L9.75312 91.8899C9.70451 92.0345 9.60731 92.1792 9.46151 92.2274C9.31571 92.2756 9.16991 92.2756 9.0241 92.1792C8.29509 91.697 7.32308 91.3112 6.30246 91.1184C3.43502 90.6362 0.859177 91.697 0.518972 93.5775C0.178766 95.4098 2.22 97.3385 5.08744 97.8207C7.95489 98.3029 10.5307 97.2421 10.8709 95.3616L14.03 77.6654C14.0786 77.4243 14.273 77.2796 14.516 77.2796L29.1448 77.5207C29.2906 77.5207 29.3878 77.5689 29.485 77.6654C29.5822 77.7618 29.6308 77.9065 29.5822 78.0511L27.3952 90.2986C27.3466 90.4433 27.2494 90.588 27.1036 90.6362C26.9578 90.6844 26.812 90.6844 26.6662 90.5879C25.9372 90.1058 24.9652 89.72 23.9445 89.5271C21.0771 89.045 18.5013 90.1058 18.161 91.9863C17.8208 93.8186 19.8621 95.7473 22.7295 96.2295C25.597 96.7117 28.1728 95.6509 28.513 93.7704L31.3805 77.5207L31.5749 76.4117L32.3039 72.2167C32.3039 72.072 32.3039 71.9274 32.2067 71.8309C32.2067 71.7827 32.0609 71.7345 31.9151 71.6863Z" fill="#D5C9D1"/>
</g>
<defs>
<radialGradient id="paint0_radial_1_2474" cx="0" cy="0" r="1" gradientUnits="userSpaceOnUse" gradientTransform="translate(189.54 315.616) rotate(93.7679) scale(35.7937 41.3252)">
<stop stop-color="#20C6B7"/>
<stop offset="1" stop-color="#4D9ABF"/>
</radialGradient>
<clipPath id="clip0_1_2474">
<rect width="44.6349" height="38.2585" fill="white" transform="translate(182.247 33.1384)"/>
</clipPath>
<clipPath id="clip1_1_2474">
<rect width="32.9448" height="26.5684" fill="white" transform="translate(356.536 246.749)"/>
</clipPath>
<clipPath id="clip2_1_2474">
<rect width="31.8821" height="26.5684" fill="white" transform="translate(0.519531 71.397)"/>
</clipPath>
</defs>
</svg>
