<svg width="90" height="90" viewBox="0 0 343 389" fill="none" xmlns="http://www.w3.org/2000/svg">
<path d="M272.9 248.065L272.209 341.332C272.188 344.036 273.116 346.654 274.842 348.731L283.626 359.354C286.324 362.599 284.015 367.51 279.806 367.51H244.217C241.174 367.51 238.282 366.298 236.124 364.157L223.045 351.046C221.297 349.294 220.174 347.044 219.808 344.599L209.275 272.231L272.9 248.065Z" fill="#03948B" stroke="#350F70" stroke-width="7"/>
<path d="M115.53 246.789V352.625C115.53 354.767 116.178 356.844 117.365 358.618L120.278 362.88C122.242 365.779 125.523 367.51 129.019 367.51H159.407C164.414 367.51 167.349 361.863 164.479 357.753L159.644 350.83C158.393 349.056 157.745 346.935 157.745 344.75V324.089C157.745 324.089 244.678 315.197 227.823 219.508L115.53 246.789Z" fill="#03948B" stroke="#350F70" stroke-width="7"/>
<path d="M138.087 356.28C135.945 356.28 134.205 359.731 134.205 363.967H141.969C141.969 359.711 140.229 356.28 138.087 356.28Z" fill="#00DC9F"/>
<path d="M147.056 356.281C144.914 356.281 143.174 359.731 143.174 363.967H150.937C150.937 359.712 149.197 356.281 147.056 356.281Z" fill="#00DC9F"/>
<path d="M156.024 356.281C153.883 356.281 152.143 359.731 152.143 363.967H159.906C159.906 359.712 158.166 356.281 156.024 356.281Z" fill="#00DC9F"/>
<path d="M271.5 68.2477C272.533 69.0473 273.656 69.8657 274.854 70.6672C280.968 74.7584 289.883 78.9786 298.924 76.6382C299.944 76.374 300.791 75.6638 301.23 74.7051C301.668 73.7463 301.651 72.6411 301.183 71.6964L291.369 51.8819L324.316 58.4516C325.413 58.6705 326.549 58.3513 327.372 57.593C328.195 56.8346 328.606 55.7284 328.477 54.6168L328.025 50.7118C328.025 50.7112 328.025 50.7106 328.025 50.7101C325.366 27.0969 307.196 8.18074 283.741 4.6331C252.167 -0.143452 223.707 24.2031 223.452 56.1813V56.1826C223.408 62.007 223.696 68.2811 224.399 75.0471L224.4 75.0523C228.533 114.229 236.635 184.854 239.926 213.53L236.489 209.031L236.487 209.029C215.776 181.966 183.693 166.096 149.666 166.096C110.067 166.096 73.5716 187.53 54.1989 222.143C54.1983 222.144 54.1976 222.145 54.1969 222.146L53.2513 223.827L53.2485 223.832C51.2377 227.418 46.7677 228.746 43.1382 226.855C43.1376 226.854 43.1369 226.854 43.1363 226.854L13.8544 211.517L13.8526 211.516C8.34117 208.634 2.39382 214.538 5.20296 220.074L5.20553 220.079L26.3993 261.682L26.3994 261.683C41.3474 291.02 71.4488 309.502 104.322 309.502H216.852C233.492 309.502 249.677 303.965 262.851 293.754L262.852 293.754C283.945 277.396 294.831 251.08 291.437 224.581C291.437 224.581 291.437 224.58 291.437 224.579L271.5 68.2477Z" fill="#00DC9F" stroke="#350F70" stroke-width="7" stroke-linecap="round" stroke-linejoin="round"/>
<path d="M276.029 217.279C280.022 249.883 254.663 278.657 221.88 278.657H65.1278C52.1569 278.657 40.0924 272.08 33.035 261.176L19.0713 239.606L29.5171 260.116C43.8693 288.284 72.7679 306.024 104.321 306.024H216.851C232.714 306.024 248.145 300.746 260.706 291.01C280.821 275.411 291.202 250.315 287.964 225.046L266.835 59.3682L255.936 53.7432L276.029 217.279Z" fill="#FBE9C8"/>
<path d="M247.055 293.083H125.509L142.103 306.002H221.336C235.938 306.002 244.566 297.39 247.055 293.083Z" fill="#EFCDAE"/>
<path fill-rule="evenodd" clip-rule="evenodd" d="M189.032 211.577C204.139 210.393 230.095 208.358 246.202 222.521C262.587 236.928 278.383 276.512 286.966 298.218L287.39 298.538C288.271 301.095 290.018 303.254 292.338 304.637L304.159 311.727C307.783 313.888 307.242 319.287 303.274 320.689L269.717 332.545C266.848 333.559 263.718 333.38 260.969 332.08L244.27 324.075C242.038 323.005 240.23 321.257 239.07 319.075L238.781 317.684L238.739 317.695C231.756 301.131 219.575 276.265 197.942 276.486C170.899 276.763 145.206 224.627 180.795 212.053C182.853 212.061 185.675 211.84 189.032 211.577Z" fill="#00DC9F"/>
<path d="M270.288 285.53C267.437 269.564 250.108 236.211 238.348 216.729C267.214 241.319 282.761 288.025 286.681 296.578C289.817 303.42 301.055 310.357 306.282 312.971C305.332 315.109 302.932 319.528 300.936 320.098C298.442 320.811 270.288 330.433 264.942 331.146C260.666 331.716 259.834 329.245 259.953 327.939C270.787 325.088 279.672 314.396 282.761 309.407C279.791 308.1 273.139 301.496 270.288 285.53Z" fill="#18BF97"/>
<path d="M298.84 315.771C297.14 312.493 294.663 310.519 292.77 311.184C290.489 311.985 289.926 316.309 291.509 320.821L295.053 319.577C296.974 318.925 298.267 317.463 298.84 315.771Z" fill="#56FFD0"/>
<path d="M273.674 317.909C271.393 318.71 270.83 323.035 272.413 327.546L280.681 324.644C279.09 320.112 275.955 317.109 273.674 317.909Z" fill="#56FFD0"/>
<path d="M283.227 314.557C280.946 315.357 280.383 319.682 281.966 324.194L290.234 321.291C288.643 316.76 285.507 313.756 283.227 314.557Z" fill="#56FFD0"/>
<path d="M246.202 222.521C262.446 236.805 278.113 275.837 286.745 297.657C287.625 300.214 289.896 302.768 292.215 304.151L304.036 311.241C307.661 313.402 307.12 318.802 303.152 320.204L269.595 332.06C266.726 333.074 263.596 332.895 260.847 331.594L244.148 323.589C241.916 322.52 239.899 319.878 238.739 317.695M238.739 317.695L238.761 317.689M238.739 317.695C231.756 301.131 219.575 276.265 197.941 276.486" stroke="#350F70" stroke-width="7" stroke-linecap="round" stroke-linejoin="round"/>
<path d="M55.416 246.789V352.625C55.416 354.767 56.0635 356.844 57.2505 358.618L60.1641 362.88C62.1281 365.779 65.4086 367.51 68.9049 367.51H99.2927C104.3 367.51 107.235 361.863 104.365 357.753L99.5301 350.83C98.2784 349.056 97.6309 346.935 97.6309 344.75V324.089C97.6309 324.089 184.564 315.197 167.708 219.508L55.416 246.789Z" fill="#00DC9F"/>
<path d="M57.3496 356.619L62.2335 364.726L87.1764 367.532L103.389 364.726V356.619L96.2181 347.266L97.777 322.947C100.583 322.947 112.493 319.704 137.685 306.734C162.877 293.764 167.72 261.006 166.993 246.248C162.94 289.898 94.0356 313.281 90.606 313.281C87.1764 313.281 84.6821 316.711 84.6821 319.205C84.6821 321.7 84.0585 341.03 84.6821 347.266C85.181 352.254 90.606 354.069 87.1764 356.619H57.3496Z" fill="#18BF97"/>
<path d="M104.261 362.902C103.743 359.246 102.059 356.563 100.052 356.563C97.6349 356.563 95.6709 360.457 95.6709 365.238H99.4262C101.455 365.26 103.16 364.308 104.261 362.902Z" fill="#56FFD0"/>
<path d="M79.808 356.584C77.3907 356.584 75.4268 360.478 75.4268 365.26H84.1891C84.1891 360.457 82.2252 356.584 79.808 356.584Z" fill="#56FFD0"/>
<path d="M89.931 356.585C87.5138 356.585 85.5498 360.479 85.5498 365.26H94.3122C94.3122 360.457 92.3482 356.585 89.931 356.585Z" fill="#56FFD0"/>
<path d="M271.775 356.083C269.582 356.083 267.822 359.59 267.822 363.916H275.742C275.742 359.59 273.967 356.083 271.775 356.083Z" fill="#00DC9F"/>
<path d="M262.619 356.083C260.442 356.083 258.667 359.574 258.667 363.9C258.837 363.916 259.022 363.931 259.192 363.931H266.587C266.587 359.59 264.812 356.083 262.619 356.083Z" fill="#00DC9F"/>
<path d="M285.057 367.51C285.057 361.452 283.282 356.563 281.105 356.563C278.912 356.563 277.152 361.474 277.152 367.531H284.841C284.903 367.531 284.965 367.51 285.057 367.51Z" fill="#350F70"/>
<path d="M55.416 246.789V352.625C55.416 354.767 56.0635 356.844 57.2505 358.618L60.1641 362.88C62.1281 365.779 65.4086 367.51 68.9049 367.51H99.2927C104.3 367.51 107.235 361.863 104.365 357.753L99.5301 350.83C98.2784 349.056 97.6309 346.935 97.6309 344.75V324.089C97.6309 324.089 184.564 315.197 167.708 219.508" stroke="#350F70" stroke-width="7" stroke-linecap="round" stroke-linejoin="round"/>
<path d="M267.551 49.4289C277.739 50.1943 286.618 42.5557 287.384 32.3675C288.149 22.1793 280.51 13.2997 270.322 12.5343C260.134 11.7689 251.255 19.4076 250.489 29.5957C249.724 39.7839 257.362 48.6635 267.551 49.4289Z" fill="#00A07A"/>
<path d="M267.794 46.1899C277.088 46.8881 285.188 39.9202 285.886 30.6265C286.584 21.3329 279.616 13.2329 270.323 12.5347C261.029 11.8365 252.929 18.8045 252.231 28.0981C251.533 37.3918 258.501 45.4917 267.794 46.1899Z" fill="white" stroke="#350F70" stroke-width="3.03587" stroke-miterlimit="10"/>
<path d="M270.389 43.155C278.358 43.7538 285.304 37.7785 285.903 29.809C286.502 21.8394 280.527 14.8935 272.557 14.2948C264.588 13.6961 257.642 19.6713 257.043 27.6408C256.444 35.6104 262.419 42.5563 270.389 43.155Z" stroke="#350F70" stroke-width="3.03587" stroke-miterlimit="10"/>
<path d="M270.698 42.3597C278.53 42.9481 285.356 37.0759 285.945 29.2438C286.533 21.4116 280.661 14.5854 272.829 13.997C264.997 13.4086 258.17 19.2808 257.582 27.113C256.994 34.9451 262.866 41.7713 270.698 42.3597Z" fill="#350F70"/>
<ellipse cx="265.382" cy="18.8848" rx="3.40884" ry="2.01988" transform="rotate(-25.7036 265.382 18.8848)" fill="white"/>
<ellipse cx="277.064" cy="38.673" rx="1.71471" ry="1.10518" transform="rotate(-40.7036 277.064 38.673)" fill="white"/>
<path d="M306.774 49.4289C316.962 50.1943 325.842 42.5557 326.607 32.3675C327.373 22.1793 319.734 13.2997 309.546 12.5343C299.358 11.7689 290.478 19.4076 289.713 29.5957C288.947 39.7839 296.586 48.6635 306.774 49.4289Z" fill="#00A07A"/>
<path d="M307.018 46.1899C316.312 46.8881 324.412 39.9202 325.11 30.6265C325.808 21.3329 318.84 13.2329 309.546 12.5347C300.253 11.8365 292.153 18.8045 291.455 28.0981C290.756 37.3918 297.724 45.4917 307.018 46.1899Z" fill="white" stroke="#350F70" stroke-width="3.03587" stroke-miterlimit="10"/>
<path d="M309.613 43.155C317.582 43.7538 324.528 37.7785 325.127 29.809C325.725 21.8394 319.75 14.8935 311.781 14.2948C303.811 13.6961 296.865 19.6713 296.267 27.6408C295.668 35.6104 301.643 42.5563 309.613 43.155Z" stroke="#350F70" stroke-width="3.03587" stroke-miterlimit="10"/>
<path d="M309.922 42.3597C317.754 42.9481 324.58 37.0759 325.168 29.2438C325.757 21.4116 319.885 14.5854 312.052 13.997C304.22 13.4086 297.394 19.2808 296.806 27.113C296.217 34.9451 302.09 41.7713 309.922 42.3597Z" fill="#350F70"/>
<ellipse cx="304.606" cy="18.8848" rx="3.40884" ry="2.01988" transform="rotate(-25.7036 304.606 18.8848)" fill="white"/>
<ellipse cx="316.287" cy="38.673" rx="1.71471" ry="1.10518" transform="rotate(-40.7036 316.287 38.673)" fill="white"/>
<path d="M288.549 210.162C288.549 219.904 277.52 227.802 263.915 227.802C250.31 227.802 239.281 219.904 239.281 210.162" stroke="#350F70" stroke-width="7" stroke-linecap="round" stroke-linejoin="round"/>
<g clip-path="url(#clip0_602_744)">
<circle cx="295.74" cy="347.49" r="21.7233" transform="rotate(60 295.74 347.49)" fill="#FFDD73"/>
<rect x="294.393" y="328.702" width="2.69458" height="7.60781" rx="1.34729" fill="#FFB916"/>
<rect x="294.393" y="328.702" width="2.69458" height="7.60781" rx="1.34729" fill="#FFB916"/>
<rect x="314.528" y="346.143" width="2.69458" height="7.60781" rx="1.34729" transform="rotate(90 314.528 346.143)" fill="#FFB916"/>
<rect x="314.528" y="346.143" width="2.69458" height="7.60781" rx="1.34729" transform="rotate(90 314.528 346.143)" fill="#FFB916"/>
<rect x="294.393" y="358.671" width="2.69458" height="7.60781" rx="1.34729" fill="#FFB916"/>
<rect x="294.393" y="358.671" width="2.69458" height="7.60781" rx="1.34729" fill="#FFB916"/>
<rect x="284.56" y="346.143" width="2.69458" height="7.60782" rx="1.34729" transform="rotate(90 284.56 346.143)" fill="#FFB916"/>
<rect x="284.56" y="346.143" width="2.69458" height="7.60782" rx="1.34729" transform="rotate(90 284.56 346.143)" fill="#FFB916"/>
<path d="M322.184 351.36L325.721 351.513C327.292 351.581 328.62 350.362 328.687 348.792C328.755 347.221 327.537 345.893 325.966 345.826L322.438 345.673C322.247 342.557 321.51 339.44 320.187 336.464L323.387 334.617L323.476 334.771C324.262 336.132 326.003 336.599 327.364 335.813C328.726 335.027 329.192 333.286 328.406 331.925L325.381 326.686C324.596 325.324 322.855 324.858 321.493 325.644C320.132 326.43 319.665 328.171 320.451 329.532L320.54 329.687L317.341 331.534C309.361 320.565 294.178 317.154 282.174 324.084C269.337 331.496 264.923 347.969 272.334 360.805C279.745 373.642 296.218 378.056 309.055 370.644C316.413 366.396 321.002 359.171 322.184 351.36ZM277.264 357.959C271.423 347.841 274.902 334.856 285.02 329.015C295.138 323.173 308.122 326.652 313.964 336.77C319.806 346.888 316.327 359.873 306.209 365.714C296.09 371.556 283.106 368.077 277.264 357.959Z" fill="#350F70"/>
<path d="M305.064 336.653C303.88 335.62 302.081 335.742 301.048 336.927L293.423 345.666C292.39 346.85 292.512 348.648 293.697 349.682C294.881 350.715 296.679 350.593 297.713 349.408L305.337 340.669C306.371 339.485 306.248 337.687 305.064 336.653Z" fill="#350F70"/>
</g>
<defs>
<clipPath id="clip0_602_744">
<rect width="63" height="63" fill="white" transform="translate(311.144 302.025) rotate(60)"/>
</clipPath>
</defs>
</svg>
