<svg width="90" height="90" viewBox="0 0 360 347" fill="none" xmlns="http://www.w3.org/2000/svg">
<ellipse opacity="0.1" cx="158.438" cy="323.626" rx="140.115" ry="23.3748" fill="black"/>
<path d="M117.591 329.375L95.9233 294.054L130.057 290.492C129.562 295.142 131.303 305.808 142.226 311.269C153.149 316.731 154.296 325.615 153.505 329.375H117.591Z" fill="#F8B05F" stroke="#350F70" stroke-width="8"/>
<path d="M53.5927 230.487C62.8177 217.162 117.228 204.008 143.28 199.096C191.113 189.273 288.189 179.365 293.826 218.315C299.464 257.265 280.373 289.637 270.123 300.955C275.761 306.08 279.306 317.611 280.373 322.736C275.462 324.231 262.308 327.221 248.983 327.221C237.162 327.221 232.861 322.015 231.295 317.262L236.17 335.549C225.408 342.211 204.78 340.887 195.811 339.393L180.436 306.721C144.049 314.408 114.452 306.08 104.202 300.955C93.952 311.205 79.0041 312.486 72.8114 311.846L77.9364 331.064C61.024 334.139 41.848 329.783 34.374 327.221C24.6366 298.008 38.4313 273.195 46.5458 264.44C43.3427 258.674 42.0615 247.143 53.5927 230.487Z" fill="#F8B05F"/>
<path d="M293.22 215.433C293.48 216.362 293.683 217.322 293.826 218.314C299.464 257.264 280.373 289.637 270.123 300.955C275.761 306.08 279.306 317.611 280.373 322.736C275.462 324.231 262.308 327.22 248.983 327.22C237.162 327.22 232.861 322.015 231.295 317.262L236.17 335.548C225.408 342.211 204.78 340.887 195.811 339.392L180.436 306.72C144.049 314.408 114.452 306.08 104.202 300.955C93.952 311.205 79.0041 312.486 72.8114 311.845L77.9364 331.064C61.024 334.139 41.848 329.783 34.374 327.22C26.9695 305.006 33.1722 285.336 40.1373 273.337L40.7398 273.841C42.4809 280.479 48.8359 293.82 60.3274 294.081C70.0631 294.303 72.7503 291.375 75.8091 288.042C77.2632 286.457 78.8014 284.781 81.2208 283.308C88.5892 278.823 91.8706 279.997 96.3098 281.585C96.3942 281.615 96.4791 281.645 96.5644 281.676C97.0621 281.854 98.0186 282.27 99.3718 282.859C110.444 287.679 148.081 304.063 178.336 295.917L183.681 312.311C190.69 314.628 205.92 316.41 210.767 305.005C214.793 295.532 213.232 291.016 211.522 286.071C210.659 283.576 209.758 280.971 209.519 277.564C209.476 276.943 209.427 276.31 209.377 275.667C208.61 265.796 207.668 253.671 224.193 249.135C231.57 247.11 234.521 240.538 237.62 233.638C241.916 224.074 246.496 213.877 263.536 214.278C266.772 214.354 269.794 214.405 272.613 214.453C281.304 214.599 288.064 214.713 293.22 215.433Z" fill="#FBE9C8"/>
<path d="M231.129 315.634C230.769 307.301 231.87 288.412 239.154 279.523" stroke="#350F70" stroke-width="7.5" stroke-linecap="round"/>
<path d="M232.981 296.807C238.537 295.727 251.098 291.282 256.901 282.147" stroke="#350F70" stroke-width="7.5" stroke-linecap="round"/>
<path d="M180.791 307.466C179.159 302.243 176.873 289.12 180.791 278.412" stroke="#350F70" stroke-width="7.5" stroke-linecap="round"/>
<path d="M143.28 199.096C117.228 204.008 62.8177 217.162 53.5927 230.487C42.0615 247.143 43.3427 258.674 46.5458 264.44C38.4313 273.195 24.6366 298.008 34.374 327.221C41.848 329.783 61.024 334.139 77.9364 331.064L72.8114 311.846C79.0041 312.486 93.952 311.205 104.202 300.955C114.452 306.08 144.049 314.408 180.436 306.721L195.811 339.393C204.78 340.887 225.408 342.211 236.17 335.549L230.82 315.481C231.888 320.606 235.658 327.221 248.983 327.221C262.308 327.221 275.462 324.231 280.373 322.736C279.306 317.611 275.761 306.08 270.123 300.955C280.373 289.637 299.464 257.265 293.826 218.315C288.189 179.365 191.113 189.273 143.28 199.096Z" stroke="#350F70" stroke-width="7.5"/>
<path d="M71.0059 244.174C71.0059 244.174 47.3814 239.604 48.4791 216.431L41.2563 215.851C41.2563 215.851 46.6056 176.805 71.7733 162.994C96.941 149.183 114.108 163.629 117.318 167.56C120.527 171.491 131.076 186.273 117.168 210.364C103.259 234.454 78.7071 214.8 77.6568 209.092C76.6066 203.384 79.4016 191.016 90.2109 192.911" fill="#F8B05F"/>
<path d="M71.0059 244.174C71.0059 244.174 47.3814 239.604 48.4791 216.431L41.2563 215.851C41.2563 215.851 46.6056 176.805 71.7733 162.994C96.941 149.183 114.108 163.629 117.318 167.56C120.527 171.491 131.076 186.273 117.168 210.364C103.259 234.454 78.7071 214.8 77.6568 209.092C76.6066 203.384 79.4016 191.016 90.2109 192.911" stroke="#350F70" stroke-width="7.5" stroke-miterlimit="10" stroke-linecap="round" stroke-linejoin="round"/>
<g style="" opacity="0.33">
<path d="M205.937 252.359C294.745 252.359 309.126 181.554 309.565 178.81C310.004 175.955 287.939 126.776 287.939 126.776C287.939 126.776 287.939 97.1367 281.901 81.2193C275.864 65.1921 263.898 68.3756 260.276 77.2674C256.653 86.0494 242.712 105.699 242.712 105.699C212.743 100.54 205.937 101.308 205.937 101.308H206.596C206.596 101.308 199.789 100.54 169.821 105.699C169.821 105.699 155.769 86.0494 152.257 77.2674C148.744 68.4854 136.559 65.1921 130.631 81.2193C124.703 97.2465 124.593 126.776 124.593 126.776C124.593 126.776 102.638 175.955 102.968 178.81C103.297 181.664 117.787 252.359 206.596 252.359" fill="#CC801F"/>
</g>
<path d="M108.363 191.259C116.168 193.438 123.689 195.705 131.028 197.916C151.828 204.184 171.164 210.011 191.349 212.164C219.006 215.115 248.36 211.25 286.336 193.154C286.836 192.916 287.372 192.89 287.797 193.012C288.197 193.126 288.447 193.347 288.589 193.628C293.884 204.111 292.061 212.461 288.22 230.062L288.149 230.387C288.02 230.977 287.631 231.47 287.135 231.721C260.209 245.373 234.812 251.36 207.174 249.776C179.448 248.187 149.201 238.965 112.621 221.758C112.118 221.522 111.762 221.1 111.618 220.651C110.207 216.243 108.739 210.962 107.795 205.726C106.84 200.434 106.472 195.463 107.072 191.566C107.085 191.476 107.108 191.446 107.115 191.436L107.116 191.436C107.128 191.418 107.168 191.373 107.264 191.322C107.477 191.209 107.88 191.124 108.363 191.259Z" fill="#00DC9F" stroke="#15847D" stroke-width="7.71506"/>
<path d="M94.8413 194.649L94.8376 194.648C60.5736 187.524 31.9753 207.02 18.4523 218.771C15.2952 221.514 14.9833 226.382 18.0185 229.998L26.4172 240.002C29.9842 244.251 36.961 244.828 41.9285 241.151C51.9632 233.723 68.0827 224.107 88.0093 220.477L94.8413 194.649ZM94.8413 194.649C102.98 196.333 111.638 199.631 120.92 203.166M94.8413 194.649L120.92 203.166M183.592 213.255L183.894 217.081C184.863 217.004 185.889 217.559 186.407 218.332C186.614 218.641 186.638 218.837 186.641 218.885C186.637 218.892 186.63 218.902 186.62 218.914C186.6 218.94 186.562 218.984 186.498 219.041C183.903 221.332 180.692 223.344 176.675 224.863L176.67 224.865C163.207 229.977 150.192 227.708 135.627 224.504C134.608 224.28 133.582 224.051 132.548 223.821C119.046 220.811 104.236 217.51 88.0118 220.476L183.592 213.255ZM183.592 213.255L183.775 217.088C178.477 217.341 172.979 217.345 167.559 216.831M183.592 213.255L167.559 216.831M120.92 203.166C121.185 203.267 121.45 203.368 121.716 203.469M120.92 203.166L121.716 203.469M121.716 203.469C131.168 207.068 141.201 210.843 151.317 212.897M121.716 203.469L151.317 212.897M151.317 212.897C151.555 212.945 151.734 213.036 152.325 213.337C152.525 213.439 152.773 213.565 153.087 213.722L154.803 210.29L153.254 213.801C158.095 215.936 163.116 216.46 167.559 216.831M151.317 212.897L167.559 216.831" fill="#00DC9F" stroke="#15847D" stroke-width="7.67553"/>
<path d="M147.047 232.092L147.034 232.09C132.847 229.933 122.676 221.537 111.59 211.535C110.821 210.841 110.048 210.14 109.269 209.433C99.0051 200.122 87.7322 189.895 72.1042 184.443C52.9874 177.775 34.2249 178.212 21.8341 179.743C15.6991 180.501 9.90738 176.567 8.8903 171.113L6.51925 158.399C5.65289 153.754 8.32504 149.666 12.4282 148.836C29.9759 145.287 64.4326 142.441 90.8012 165.503L90.8061 165.507C97.0637 170.961 102.863 177.972 109.056 185.458C111.648 188.591 114.309 191.808 117.101 195.029C126.316 205.658 136.783 216.057 150.015 221.176C159.581 224.878 167.495 223.925 173.685 220.803C179.716 217.762 183.765 212.843 186.174 209.119C186.206 209.071 186.262 209.009 186.359 208.95C186.391 208.931 186.425 208.913 186.46 208.898C184.591 212.422 180.604 218.907 174.358 224.196C167.792 229.756 158.84 233.924 147.047 232.092Z" fill="#00DC9F" stroke="#15847D" stroke-width="7.67553"/>
<path d="M282.797 211.882C282.797 222.978 276.379 233.322 265.4 241.011C254.431 248.694 239.122 253.538 222.074 253.538C205.026 253.538 189.716 248.694 178.747 241.011C167.768 233.322 161.35 222.978 161.35 211.882C161.35 200.785 167.768 190.442 178.747 182.752C189.716 175.07 205.026 170.225 222.074 170.225C239.122 170.225 254.431 175.07 265.4 182.752C276.379 190.442 282.797 200.785 282.797 211.882Z" stroke="#350F70" stroke-width="5.82502"/>
<mask id="path-16-outside-1_1721_71" maskUnits="userSpaceOnUse" x="200.177" y="244.138" width="44" height="44" fill="black">
<rect fill="white" x="200.177" y="244.138" width="44" height="44"/>
<path d="M230.118 260.573L230.105 260.568C230.097 260.565 230.09 260.562 230.083 260.556C230.072 260.544 230.064 260.53 230.06 260.515C230.055 260.5 230.054 260.484 230.057 260.469L230.779 256.052L234.167 259.441L230.644 260.94C230.634 260.944 230.624 260.946 230.613 260.945H230.599C230.594 260.942 230.59 260.939 230.58 260.929C230.449 260.783 230.292 260.663 230.118 260.573V260.573ZM235.032 260.304L238.654 263.926C239.406 264.68 239.783 265.055 239.92 265.491C239.941 265.555 239.957 265.62 239.971 265.686L231.314 262.02C231.309 262.018 231.305 262.016 231.3 262.014C231.265 262 231.225 261.985 231.225 261.949C231.225 261.913 231.266 261.897 231.301 261.883L231.312 261.878L235.032 260.304ZM239.823 266.849C239.636 267.2 239.272 267.565 238.655 268.182L234.571 272.265L229.289 271.165L229.261 271.16C229.214 271.152 229.164 271.144 229.164 271.102C229.144 270.884 229.08 270.673 228.974 270.481C228.869 270.289 228.725 270.121 228.552 269.987C228.531 269.965 228.536 269.932 228.543 269.901C228.543 269.896 228.543 269.892 228.545 269.888L229.538 263.789L229.542 263.769C229.548 263.722 229.556 263.668 229.598 263.668C229.811 263.641 230.016 263.573 230.203 263.466C230.389 263.359 230.552 263.216 230.682 263.046C230.691 263.037 230.696 263.027 230.707 263.021C230.737 263.007 230.773 263.021 230.804 263.034L239.822 266.849H239.823ZM233.632 273.205L226.916 279.92L228.065 272.855L228.067 272.846C228.068 272.836 228.07 272.827 228.073 272.819C228.082 272.796 228.107 272.787 228.13 272.777L228.141 272.773C228.393 272.665 228.615 272.5 228.791 272.29C228.813 272.263 228.84 272.238 228.875 272.234C228.884 272.232 228.893 272.232 228.902 272.234L233.631 273.206L233.632 273.205ZM225.495 281.342L224.738 282.099L216.369 270.004C216.366 269.999 216.363 269.995 216.359 269.991C216.346 269.973 216.332 269.955 216.335 269.935C216.335 269.92 216.345 269.907 216.356 269.895L216.365 269.883C216.39 269.846 216.412 269.808 216.435 269.768L216.454 269.736L216.457 269.733C216.47 269.71 216.482 269.689 216.504 269.677C216.524 269.667 216.551 269.671 216.572 269.676L225.844 271.588C225.87 271.592 225.894 271.602 225.915 271.619C225.927 271.631 225.93 271.644 225.933 271.659C225.998 271.904 226.118 272.13 226.285 272.32C226.451 272.511 226.66 272.66 226.894 272.757C226.92 272.77 226.908 272.799 226.896 272.83C226.89 272.843 226.886 272.857 226.882 272.872C226.766 273.582 225.764 279.692 225.495 281.342ZM223.913 282.922C223.355 283.474 223.026 283.767 222.654 283.884C222.288 284 221.894 284 221.527 283.884C221.092 283.746 220.715 283.37 219.963 282.617L211.559 274.213L213.754 270.808C213.764 270.792 213.774 270.777 213.791 270.764C213.815 270.748 213.848 270.755 213.876 270.764C214.38 270.917 214.921 270.889 215.407 270.687C215.432 270.678 215.458 270.671 215.477 270.689C215.487 270.698 215.496 270.708 215.503 270.719L223.913 282.923V282.922ZM210.748 273.403L208.82 271.475L212.628 269.851C212.638 269.846 212.648 269.844 212.659 269.844C212.69 269.844 212.709 269.876 212.726 269.905C212.764 269.964 212.805 270.021 212.847 270.077L212.86 270.092C212.871 270.108 212.863 270.123 212.852 270.138L210.749 273.403H210.748ZM207.967 270.622L205.528 268.182C205.113 267.767 204.812 267.467 204.603 267.208L212.019 268.746C212.029 268.748 212.038 268.749 212.047 268.751C212.093 268.758 212.144 268.766 212.144 268.809C212.144 268.856 212.089 268.878 212.042 268.895L212.02 268.905L207.967 270.622ZM204.177 265.953C204.185 265.796 204.213 265.641 204.261 265.491C204.399 265.055 204.775 264.68 205.528 263.926L208.649 260.805C210.087 262.891 211.528 264.974 212.973 267.054C212.998 267.088 213.026 267.125 212.997 267.153C212.86 267.304 212.724 267.468 212.628 267.647C212.617 267.67 212.601 267.69 212.581 267.705C212.569 267.712 212.556 267.709 212.542 267.707H212.54L204.177 265.953V265.953ZM209.485 259.97L213.68 255.773C214.075 255.946 215.512 256.552 216.795 257.094C217.767 257.505 218.653 257.879 218.931 258.001C218.959 258.012 218.985 258.023 218.997 258.051C219.004 258.068 219 258.089 218.997 258.107C218.93 258.41 218.94 258.725 219.025 259.023C219.111 259.321 219.269 259.593 219.485 259.815C219.513 259.843 219.485 259.884 219.461 259.918L219.448 259.938L215.187 266.539C215.175 266.557 215.165 266.573 215.146 266.585C215.124 266.599 215.092 266.593 215.066 266.586C214.9 266.543 214.73 266.52 214.559 266.517C214.405 266.517 214.239 266.545 214.071 266.576H214.07C214.051 266.579 214.034 266.582 214.019 266.571C214.003 266.558 213.989 266.542 213.977 266.524L209.484 259.97H209.485ZM214.53 254.925L219.963 249.492C220.715 248.739 221.092 248.363 221.527 248.225C221.894 248.109 222.288 248.109 222.654 248.225C223.09 248.363 223.467 248.739 224.219 249.492L225.396 250.669L221.532 256.654C221.523 256.671 221.509 256.687 221.494 256.699C221.47 256.715 221.438 256.708 221.41 256.699C221.105 256.606 220.782 256.589 220.47 256.65C220.157 256.71 219.864 256.845 219.615 257.045C219.59 257.071 219.553 257.056 219.521 257.042C219.016 256.822 215.091 255.163 214.53 254.925V254.925ZM226.217 251.49L229.785 255.058L228.925 260.383V260.397C228.924 260.409 228.922 260.421 228.918 260.432C228.908 260.451 228.89 260.455 228.871 260.46C228.687 260.516 228.514 260.602 228.359 260.715C228.352 260.72 228.346 260.725 228.34 260.731C228.33 260.742 228.32 260.753 228.303 260.755C228.289 260.755 228.275 260.753 228.263 260.748L222.825 258.438L222.815 258.433C222.781 258.419 222.74 258.402 222.74 258.367C222.708 258.064 222.609 257.772 222.45 257.512C222.424 257.469 222.395 257.424 222.417 257.38L226.217 251.49ZM222.542 259.532L227.639 261.691C227.667 261.704 227.698 261.716 227.71 261.745C227.715 261.763 227.715 261.781 227.71 261.799C227.695 261.873 227.682 261.958 227.682 262.044V262.187C227.682 262.223 227.646 262.238 227.612 262.252L227.602 262.256C226.794 262.6 216.266 267.09 216.25 267.09C216.234 267.09 216.217 267.09 216.201 267.074C216.173 267.046 216.201 267.007 216.227 266.971C216.231 266.965 216.236 266.959 216.24 266.953L220.428 260.467L220.436 260.456C220.46 260.416 220.488 260.372 220.533 260.372L220.575 260.379C220.67 260.392 220.755 260.404 220.84 260.404C221.475 260.404 222.064 260.095 222.419 259.566C222.427 259.552 222.438 259.539 222.451 259.529C222.476 259.51 222.513 259.519 222.542 259.532V259.532ZM216.705 268.116L228.181 263.222C228.181 263.222 228.198 263.222 228.214 263.238C228.277 263.3 228.33 263.342 228.381 263.382L228.407 263.398C228.43 263.411 228.453 263.426 228.455 263.45C228.455 263.459 228.455 263.465 228.453 263.473L227.47 269.512L227.466 269.537C227.46 269.583 227.453 269.637 227.409 269.637C227.147 269.654 226.893 269.736 226.67 269.873C226.446 270.011 226.26 270.202 226.126 270.428L226.122 270.436C226.109 270.457 226.096 270.478 226.075 270.489C226.055 270.498 226.03 270.494 226.009 270.49L216.858 268.602C216.848 268.6 216.715 268.117 216.705 268.116V268.116Z"/>
</mask>
<path d="M230.118 260.573L230.105 260.568C230.097 260.565 230.09 260.562 230.083 260.556C230.072 260.544 230.064 260.53 230.06 260.515C230.055 260.5 230.054 260.484 230.057 260.469L230.779 256.052L234.167 259.441L230.644 260.94C230.634 260.944 230.624 260.946 230.613 260.945H230.599C230.594 260.942 230.59 260.939 230.58 260.929C230.449 260.783 230.292 260.663 230.118 260.573V260.573ZM235.032 260.304L238.654 263.926C239.406 264.68 239.783 265.055 239.92 265.491C239.941 265.555 239.957 265.62 239.971 265.686L231.314 262.02C231.309 262.018 231.305 262.016 231.3 262.014C231.265 262 231.225 261.985 231.225 261.949C231.225 261.913 231.266 261.897 231.301 261.883L231.312 261.878L235.032 260.304ZM239.823 266.849C239.636 267.2 239.272 267.565 238.655 268.182L234.571 272.265L229.289 271.165L229.261 271.16C229.214 271.152 229.164 271.144 229.164 271.102C229.144 270.884 229.08 270.673 228.974 270.481C228.869 270.289 228.725 270.121 228.552 269.987C228.531 269.965 228.536 269.932 228.543 269.901C228.543 269.896 228.543 269.892 228.545 269.888L229.538 263.789L229.542 263.769C229.548 263.722 229.556 263.668 229.598 263.668C229.811 263.641 230.016 263.573 230.203 263.466C230.389 263.359 230.552 263.216 230.682 263.046C230.691 263.037 230.696 263.027 230.707 263.021C230.737 263.007 230.773 263.021 230.804 263.034L239.822 266.849H239.823ZM233.632 273.205L226.916 279.92L228.065 272.855L228.067 272.846C228.068 272.836 228.07 272.827 228.073 272.819C228.082 272.796 228.107 272.787 228.13 272.777L228.141 272.773C228.393 272.665 228.615 272.5 228.791 272.29C228.813 272.263 228.84 272.238 228.875 272.234C228.884 272.232 228.893 272.232 228.902 272.234L233.631 273.206L233.632 273.205ZM225.495 281.342L224.738 282.099L216.369 270.004C216.366 269.999 216.363 269.995 216.359 269.991C216.346 269.973 216.332 269.955 216.335 269.935C216.335 269.92 216.345 269.907 216.356 269.895L216.365 269.883C216.39 269.846 216.412 269.808 216.435 269.768L216.454 269.736L216.457 269.733C216.47 269.71 216.482 269.689 216.504 269.677C216.524 269.667 216.551 269.671 216.572 269.676L225.844 271.588C225.87 271.592 225.894 271.602 225.915 271.619C225.927 271.631 225.93 271.644 225.933 271.659C225.998 271.904 226.118 272.13 226.285 272.32C226.451 272.511 226.66 272.66 226.894 272.757C226.92 272.77 226.908 272.799 226.896 272.83C226.89 272.843 226.886 272.857 226.882 272.872C226.766 273.582 225.764 279.692 225.495 281.342ZM223.913 282.922C223.355 283.474 223.026 283.767 222.654 283.884C222.288 284 221.894 284 221.527 283.884C221.092 283.746 220.715 283.37 219.963 282.617L211.559 274.213L213.754 270.808C213.764 270.792 213.774 270.777 213.791 270.764C213.815 270.748 213.848 270.755 213.876 270.764C214.38 270.917 214.921 270.889 215.407 270.687C215.432 270.678 215.458 270.671 215.477 270.689C215.487 270.698 215.496 270.708 215.503 270.719L223.913 282.923V282.922ZM210.748 273.403L208.82 271.475L212.628 269.851C212.638 269.846 212.648 269.844 212.659 269.844C212.69 269.844 212.709 269.876 212.726 269.905C212.764 269.964 212.805 270.021 212.847 270.077L212.86 270.092C212.871 270.108 212.863 270.123 212.852 270.138L210.749 273.403H210.748ZM207.967 270.622L205.528 268.182C205.113 267.767 204.812 267.467 204.603 267.208L212.019 268.746C212.029 268.748 212.038 268.749 212.047 268.751C212.093 268.758 212.144 268.766 212.144 268.809C212.144 268.856 212.089 268.878 212.042 268.895L212.02 268.905L207.967 270.622ZM204.177 265.953C204.185 265.796 204.213 265.641 204.261 265.491C204.399 265.055 204.775 264.68 205.528 263.926L208.649 260.805C210.087 262.891 211.528 264.974 212.973 267.054C212.998 267.088 213.026 267.125 212.997 267.153C212.86 267.304 212.724 267.468 212.628 267.647C212.617 267.67 212.601 267.69 212.581 267.705C212.569 267.712 212.556 267.709 212.542 267.707H212.54L204.177 265.953V265.953ZM209.485 259.97L213.68 255.773C214.075 255.946 215.512 256.552 216.795 257.094C217.767 257.505 218.653 257.879 218.931 258.001C218.959 258.012 218.985 258.023 218.997 258.051C219.004 258.068 219 258.089 218.997 258.107C218.93 258.41 218.94 258.725 219.025 259.023C219.111 259.321 219.269 259.593 219.485 259.815C219.513 259.843 219.485 259.884 219.461 259.918L219.448 259.938L215.187 266.539C215.175 266.557 215.165 266.573 215.146 266.585C215.124 266.599 215.092 266.593 215.066 266.586C214.9 266.543 214.73 266.52 214.559 266.517C214.405 266.517 214.239 266.545 214.071 266.576H214.07C214.051 266.579 214.034 266.582 214.019 266.571C214.003 266.558 213.989 266.542 213.977 266.524L209.484 259.97H209.485ZM214.53 254.925L219.963 249.492C220.715 248.739 221.092 248.363 221.527 248.225C221.894 248.109 222.288 248.109 222.654 248.225C223.09 248.363 223.467 248.739 224.219 249.492L225.396 250.669L221.532 256.654C221.523 256.671 221.509 256.687 221.494 256.699C221.47 256.715 221.438 256.708 221.41 256.699C221.105 256.606 220.782 256.589 220.47 256.65C220.157 256.71 219.864 256.845 219.615 257.045C219.59 257.071 219.553 257.056 219.521 257.042C219.016 256.822 215.091 255.163 214.53 254.925V254.925ZM226.217 251.49L229.785 255.058L228.925 260.383V260.397C228.924 260.409 228.922 260.421 228.918 260.432C228.908 260.451 228.89 260.455 228.871 260.46C228.687 260.516 228.514 260.602 228.359 260.715C228.352 260.72 228.346 260.725 228.34 260.731C228.33 260.742 228.32 260.753 228.303 260.755C228.289 260.755 228.275 260.753 228.263 260.748L222.825 258.438L222.815 258.433C222.781 258.419 222.74 258.402 222.74 258.367C222.708 258.064 222.609 257.772 222.45 257.512C222.424 257.469 222.395 257.424 222.417 257.38L226.217 251.49ZM222.542 259.532L227.639 261.691C227.667 261.704 227.698 261.716 227.71 261.745C227.715 261.763 227.715 261.781 227.71 261.799C227.695 261.873 227.682 261.958 227.682 262.044V262.187C227.682 262.223 227.646 262.238 227.612 262.252L227.602 262.256C226.794 262.6 216.266 267.09 216.25 267.09C216.234 267.09 216.217 267.09 216.201 267.074C216.173 267.046 216.201 267.007 216.227 266.971C216.231 266.965 216.236 266.959 216.24 266.953L220.428 260.467L220.436 260.456C220.46 260.416 220.488 260.372 220.533 260.372L220.575 260.379C220.67 260.392 220.755 260.404 220.84 260.404C221.475 260.404 222.064 260.095 222.419 259.566C222.427 259.552 222.438 259.539 222.451 259.529C222.476 259.51 222.513 259.519 222.542 259.532V259.532ZM216.705 268.116L228.181 263.222C228.181 263.222 228.198 263.222 228.214 263.238C228.277 263.3 228.33 263.342 228.381 263.382L228.407 263.398C228.43 263.411 228.453 263.426 228.455 263.45C228.455 263.459 228.455 263.465 228.453 263.473L227.47 269.512L227.466 269.537C227.46 269.583 227.453 269.637 227.409 269.637C227.147 269.654 226.893 269.736 226.67 269.873C226.446 270.011 226.26 270.202 226.126 270.428L226.122 270.436C226.109 270.457 226.096 270.478 226.075 270.489C226.055 270.498 226.03 270.494 226.009 270.49L216.858 268.602C216.848 268.6 216.715 268.117 216.705 268.116V268.116Z" fill="url(#paint0_radial_1721_71)"/>
<path d="M230.118 260.573L230.105 260.568C230.097 260.565 230.09 260.562 230.083 260.556C230.072 260.544 230.064 260.53 230.06 260.515C230.055 260.5 230.054 260.484 230.057 260.469L230.779 256.052L234.167 259.441L230.644 260.94C230.634 260.944 230.624 260.946 230.613 260.945H230.599C230.594 260.942 230.59 260.939 230.58 260.929C230.449 260.783 230.292 260.663 230.118 260.573V260.573ZM235.032 260.304L238.654 263.926C239.406 264.68 239.783 265.055 239.92 265.491C239.941 265.555 239.957 265.62 239.971 265.686L231.314 262.02C231.309 262.018 231.305 262.016 231.3 262.014C231.265 262 231.225 261.985 231.225 261.949C231.225 261.913 231.266 261.897 231.301 261.883L231.312 261.878L235.032 260.304ZM239.823 266.849C239.636 267.2 239.272 267.565 238.655 268.182L234.571 272.265L229.289 271.165L229.261 271.16C229.214 271.152 229.164 271.144 229.164 271.102C229.144 270.884 229.08 270.673 228.974 270.481C228.869 270.289 228.725 270.121 228.552 269.987C228.531 269.965 228.536 269.932 228.543 269.901C228.543 269.896 228.543 269.892 228.545 269.888L229.538 263.789L229.542 263.769C229.548 263.722 229.556 263.668 229.598 263.668C229.811 263.641 230.016 263.573 230.203 263.466C230.389 263.359 230.552 263.216 230.682 263.046C230.691 263.037 230.696 263.027 230.707 263.021C230.737 263.007 230.773 263.021 230.804 263.034L239.822 266.849H239.823ZM233.632 273.205L226.916 279.92L228.065 272.855L228.067 272.846C228.068 272.836 228.07 272.827 228.073 272.819C228.082 272.796 228.107 272.787 228.13 272.777L228.141 272.773C228.393 272.665 228.615 272.5 228.791 272.29C228.813 272.263 228.84 272.238 228.875 272.234C228.884 272.232 228.893 272.232 228.902 272.234L233.631 273.206L233.632 273.205ZM225.495 281.342L224.738 282.099L216.369 270.004C216.366 269.999 216.363 269.995 216.359 269.991C216.346 269.973 216.332 269.955 216.335 269.935C216.335 269.92 216.345 269.907 216.356 269.895L216.365 269.883C216.39 269.846 216.412 269.808 216.435 269.768L216.454 269.736L216.457 269.733C216.47 269.71 216.482 269.689 216.504 269.677C216.524 269.667 216.551 269.671 216.572 269.676L225.844 271.588C225.87 271.592 225.894 271.602 225.915 271.619C225.927 271.631 225.93 271.644 225.933 271.659C225.998 271.904 226.118 272.13 226.285 272.32C226.451 272.511 226.66 272.66 226.894 272.757C226.92 272.77 226.908 272.799 226.896 272.83C226.89 272.843 226.886 272.857 226.882 272.872C226.766 273.582 225.764 279.692 225.495 281.342ZM223.913 282.922C223.355 283.474 223.026 283.767 222.654 283.884C222.288 284 221.894 284 221.527 283.884C221.092 283.746 220.715 283.37 219.963 282.617L211.559 274.213L213.754 270.808C213.764 270.792 213.774 270.777 213.791 270.764C213.815 270.748 213.848 270.755 213.876 270.764C214.38 270.917 214.921 270.889 215.407 270.687C215.432 270.678 215.458 270.671 215.477 270.689C215.487 270.698 215.496 270.708 215.503 270.719L223.913 282.923V282.922ZM210.748 273.403L208.82 271.475L212.628 269.851C212.638 269.846 212.648 269.844 212.659 269.844C212.69 269.844 212.709 269.876 212.726 269.905C212.764 269.964 212.805 270.021 212.847 270.077L212.86 270.092C212.871 270.108 212.863 270.123 212.852 270.138L210.749 273.403H210.748ZM207.967 270.622L205.528 268.182C205.113 267.767 204.812 267.467 204.603 267.208L212.019 268.746C212.029 268.748 212.038 268.749 212.047 268.751C212.093 268.758 212.144 268.766 212.144 268.809C212.144 268.856 212.089 268.878 212.042 268.895L212.02 268.905L207.967 270.622ZM204.177 265.953C204.185 265.796 204.213 265.641 204.261 265.491C204.399 265.055 204.775 264.68 205.528 263.926L208.649 260.805C210.087 262.891 211.528 264.974 212.973 267.054C212.998 267.088 213.026 267.125 212.997 267.153C212.86 267.304 212.724 267.468 212.628 267.647C212.617 267.67 212.601 267.69 212.581 267.705C212.569 267.712 212.556 267.709 212.542 267.707H212.54L204.177 265.953V265.953ZM209.485 259.97L213.68 255.773C214.075 255.946 215.512 256.552 216.795 257.094C217.767 257.505 218.653 257.879 218.931 258.001C218.959 258.012 218.985 258.023 218.997 258.051C219.004 258.068 219 258.089 218.997 258.107C218.93 258.41 218.94 258.725 219.025 259.023C219.111 259.321 219.269 259.593 219.485 259.815C219.513 259.843 219.485 259.884 219.461 259.918L219.448 259.938L215.187 266.539C215.175 266.557 215.165 266.573 215.146 266.585C215.124 266.599 215.092 266.593 215.066 266.586C214.9 266.543 214.73 266.52 214.559 266.517C214.405 266.517 214.239 266.545 214.071 266.576H214.07C214.051 266.579 214.034 266.582 214.019 266.571C214.003 266.558 213.989 266.542 213.977 266.524L209.484 259.97H209.485ZM214.53 254.925L219.963 249.492C220.715 248.739 221.092 248.363 221.527 248.225C221.894 248.109 222.288 248.109 222.654 248.225C223.09 248.363 223.467 248.739 224.219 249.492L225.396 250.669L221.532 256.654C221.523 256.671 221.509 256.687 221.494 256.699C221.47 256.715 221.438 256.708 221.41 256.699C221.105 256.606 220.782 256.589 220.47 256.65C220.157 256.71 219.864 256.845 219.615 257.045C219.59 257.071 219.553 257.056 219.521 257.042C219.016 256.822 215.091 255.163 214.53 254.925V254.925ZM226.217 251.49L229.785 255.058L228.925 260.383V260.397C228.924 260.409 228.922 260.421 228.918 260.432C228.908 260.451 228.89 260.455 228.871 260.46C228.687 260.516 228.514 260.602 228.359 260.715C228.352 260.72 228.346 260.725 228.34 260.731C228.33 260.742 228.32 260.753 228.303 260.755C228.289 260.755 228.275 260.753 228.263 260.748L222.825 258.438L222.815 258.433C222.781 258.419 222.74 258.402 222.74 258.367C222.708 258.064 222.609 257.772 222.45 257.512C222.424 257.469 222.395 257.424 222.417 257.38L226.217 251.49ZM222.542 259.532L227.639 261.691C227.667 261.704 227.698 261.716 227.71 261.745C227.715 261.763 227.715 261.781 227.71 261.799C227.695 261.873 227.682 261.958 227.682 262.044V262.187C227.682 262.223 227.646 262.238 227.612 262.252L227.602 262.256C226.794 262.6 216.266 267.09 216.25 267.09C216.234 267.09 216.217 267.09 216.201 267.074C216.173 267.046 216.201 267.007 216.227 266.971C216.231 266.965 216.236 266.959 216.24 266.953L220.428 260.467L220.436 260.456C220.46 260.416 220.488 260.372 220.533 260.372L220.575 260.379C220.67 260.392 220.755 260.404 220.84 260.404C221.475 260.404 222.064 260.095 222.419 259.566C222.427 259.552 222.438 259.539 222.451 259.529C222.476 259.51 222.513 259.519 222.542 259.532V259.532ZM216.705 268.116L228.181 263.222C228.181 263.222 228.198 263.222 228.214 263.238C228.277 263.3 228.33 263.342 228.381 263.382L228.407 263.398C228.43 263.411 228.453 263.426 228.455 263.45C228.455 263.459 228.455 263.465 228.453 263.473L227.47 269.512L227.466 269.537C227.46 269.583 227.453 269.637 227.409 269.637C227.147 269.654 226.893 269.736 226.67 269.873C226.446 270.011 226.26 270.202 226.126 270.428L226.122 270.436C226.109 270.457 226.096 270.478 226.075 270.489C226.055 270.498 226.03 270.494 226.009 270.49L216.858 268.602C216.848 268.6 216.715 268.117 216.705 268.116V268.116Z" stroke="#350F70" stroke-width="7.76669" stroke-linecap="round" stroke-linejoin="round" mask="url(#path-16-outside-1_1721_71)"/>
<path d="M214.761 241.731C329.359 241.731 347.916 150.364 348.483 146.822C349.049 143.139 320.577 79.6783 320.577 79.6783C320.577 79.6783 320.577 41.4317 312.786 20.8918C304.995 0.210338 289.554 4.31831 284.88 15.7923C280.205 27.1246 262.215 52.4807 262.215 52.4807C223.544 45.823 214.761 46.8145 214.761 46.8145H215.611C215.611 46.8145 206.828 45.823 168.157 52.4807C168.157 52.4807 150.025 27.1246 145.492 15.7923C140.959 4.45996 125.236 0.210338 117.586 20.8918C109.937 41.5733 109.795 79.6783 109.795 79.6783C109.795 79.6783 81.4645 143.139 81.8895 146.822C82.3145 150.505 101.013 241.731 215.611 241.731" fill="#F8B05F"/>
<path d="M122.372 13.316C122.093 13.4711 121.847 13.6799 121.648 13.9303C119.844 16.2061 118.254 19.1535 116.979 22.583C113.503 31.9145 111.671 44.7202 110.678 55.7062C109.746 66.0211 109.537 74.9492 109.458 78.2872C109.453 78.5234 109.448 78.7316 109.444 78.9103C109.422 79.7863 109.874 80.606 110.627 81.0548C111.38 81.5035 112.316 81.5116 113.076 81.0759C118.49 77.9737 125.323 74.2076 131.956 70.9363C138.641 67.6401 144.947 64.9357 149.367 63.8526L149.341 63.7478C150.078 63.4334 150.806 62.8318 150.999 62.5C151.082 62.2909 151.172 61.9558 151.193 61.8349C151.221 61.6396 151.217 61.4831 151.217 61.4502C151.215 61.3442 151.207 61.2566 151.205 61.2287C151.197 61.1516 151.187 61.0727 151.179 61.0118C151.161 60.8795 151.134 60.7035 151.101 60.4949C151.033 60.073 150.929 59.4688 150.791 58.7131C150.514 57.2002 150.095 55.0588 149.538 52.5214C148.426 47.4554 146.754 40.7637 144.558 34.3299C142.382 27.9585 139.609 21.5861 136.201 17.3429C134.492 15.2155 132.469 13.4271 130.089 12.5676C127.595 11.6666 124.96 11.88 122.372 13.316Z" fill="#EDCEB0" stroke="#350F70" stroke-width="4.85346" stroke-miterlimit="10" stroke-linecap="round" stroke-linejoin="round"/>
<path d="M309.603 13.922C309.403 13.6728 309.157 13.4654 308.877 13.3116C306.274 11.8798 303.628 11.6686 301.123 12.5652C298.73 13.4219 296.691 15.2065 294.966 17.3346C291.527 21.5778 288.729 27.9511 286.533 34.3236C284.316 40.7581 282.63 47.4505 281.508 52.5169C280.945 55.0546 280.522 57.1962 280.243 58.7093C280.103 59.4651 279.999 60.0694 279.93 60.4915C279.896 60.7001 279.869 60.8764 279.851 61.0089C279.843 61.0699 279.833 61.1491 279.825 61.2266C279.823 61.2547 279.814 61.343 279.813 61.4498L279.813 61.4523C279.812 61.4903 279.81 61.6454 279.837 61.8379C279.858 61.9598 279.95 62.2972 280.035 62.5075C280.229 62.8397 280.958 63.4384 281.693 63.7502L281.668 63.8538C286.132 64.938 292.498 67.6439 299.243 70.9401C305.937 74.2118 312.832 77.9782 318.295 81.0806C319.055 81.5126 319.99 81.5017 320.74 81.0522C321.491 80.6028 321.941 79.7842 321.919 78.9097C321.915 78.731 321.91 78.5228 321.904 78.2867C321.825 74.9486 321.614 66.0199 320.674 55.7043C319.672 44.7185 317.823 31.9117 314.315 22.5782L309.603 13.922ZM309.603 13.922C311.424 16.1979 313.028 19.1463 314.315 22.5776L309.603 13.922Z" fill="#EDCEB0" stroke="#350F70" stroke-width="4.85346" stroke-miterlimit="10" stroke-linecap="round" stroke-linejoin="round"/>
<path d="M142.142 63.0005C142.222 61.6425 142.263 60.2682 142.263 58.8799C142.263 38.5162 133.486 21.1533 121.168 14.4551C120.003 16.2677 118.933 18.4304 118.011 20.8895C111.162 39.1071 110.406 71.0994 110.235 78.3163C110.23 78.5629 110.224 78.7805 110.22 78.9677C119.315 73.8028 132.236 66.8578 142.142 63.0005Z" fill="#FBE9C8"/>
<path d="M289.222 63.0005C289.142 61.6425 289.101 60.2682 289.101 58.8799C289.101 38.5162 297.878 21.1533 310.196 14.4551C311.361 16.2677 312.431 18.4304 313.354 20.8895C320.202 39.1071 320.958 71.0994 321.129 78.3163C321.135 78.5629 321.14 78.7805 321.145 78.9677C312.05 73.8028 299.128 66.8578 289.222 63.0005Z" fill="#FBE9C8"/>
<path d="M215.752 241.731C295.079 241.59 328.226 197.535 341.258 169.488C334.883 166.938 330.634 164.53 326.667 158.014C321.143 148.806 320.86 145.973 307.261 137.899C288.562 126.85 278.505 131.524 270.431 133.366C262.356 135.207 261.931 137.19 246.208 133.366C230.626 129.541 215.894 127.133 215.611 126.991C215.469 126.991 200.737 129.541 185.013 133.366C169.29 137.19 168.865 135.066 160.79 133.366C152.716 131.666 142.659 126.85 123.96 137.899C110.362 145.973 109.937 148.806 104.554 158.014C100.587 164.671 96.3378 166.938 89.9634 169.488C103.279 197.677 136.426 241.59 215.752 241.731Z" fill="#FBE9C8"/>
<g style="" opacity="0.15">
<path fill-rule="evenodd" clip-rule="evenodd" d="M346.492 140.257C339.488 162.993 311.04 220.616 215.183 220.805C119.49 220.616 90.8759 163.312 83.8617 140.422C82.5651 143.868 81.8147 146.2 81.8866 146.823C82.311 150.501 100.964 241.505 215.183 241.731C215.041 241.731 214.9 241.731 214.758 241.731H215.608C215.466 241.731 215.325 241.731 215.183 241.731C329.402 241.505 347.914 150.36 348.48 146.823C348.577 146.19 347.817 143.793 346.492 140.257Z" fill="#CC801F"/>
</g>
<g style="" opacity="0.15">
<path d="M215.462 184.006C201.99 184.006 197.545 176.862 197.431 173.29C209.951 179.414 225.895 176.522 232.302 174.311C232.018 177.543 228.934 184.006 215.462 184.006Z" fill="#CC801F"/>
</g>
<g style="" opacity="0.15">
<path d="M180.783 144.338C179.228 149.733 179.675 160.524 193.907 160.524C208.139 160.524 214.322 157.608 215.635 156.149C216.947 157.608 223.13 160.524 237.362 160.524C251.594 160.524 252.041 149.733 250.486 144.338C250.486 148.421 246.84 154.983 238.383 156.149C231.617 157.083 220.398 152.941 215.635 150.754C210.871 152.941 199.652 157.083 192.886 156.149C184.429 154.983 180.783 148.421 180.783 144.338Z" fill="#CC801F"/>
</g>
<path d="M177.505 87.5158C177.505 87.5158 163.623 83.2662 169.573 73.4921C175.522 63.718 189.262 74.0587 190.254 77.7417C191.104 81.5664 190.537 91.7655 177.505 87.5158Z" fill="#FBE9C8"/>
<path d="M235.867 128.974C235.584 125.858 221.277 124.016 215.611 124.016C209.944 124.016 195.496 125.858 195.354 128.974C195.212 132.091 195.354 134.357 198.895 137.19C202.437 140.023 211.786 148.097 215.611 148.097C219.577 148.097 228.926 139.882 232.326 137.19C235.867 134.357 236.15 132.091 235.867 128.974Z" fill="#350F70"/>
<path d="M215.61 148.097C215.61 148.097 214.76 154.897 195.212 154.897C179.205 154.897 181.755 143.281 181.755 143.281" stroke="#350F70" stroke-width="4.99775" stroke-miterlimit="10" stroke-linecap="round"/>
<path d="M231.334 173.454C227.651 175.72 221.843 177.137 215.469 177.137C208.669 177.137 202.578 175.437 198.895 173.029" stroke="#350F70" stroke-width="4.99775" stroke-miterlimit="10" stroke-linecap="round" stroke-linejoin="round"/>
<path d="M253.716 87.5158C253.716 87.5158 267.598 83.2662 261.649 73.4921C255.699 63.718 241.959 74.0587 240.967 77.7417C239.976 81.5664 240.684 91.7655 253.716 87.5158Z" fill="#FBE9C8"/>
<path d="M215.61 148.097C215.61 148.097 216.46 154.897 236.009 154.897C252.015 154.897 249.466 143.281 249.466 143.281" stroke="#350F70" stroke-width="4.99775" stroke-miterlimit="10" stroke-linecap="round"/>
<path d="M214.761 241.731C329.359 241.731 347.916 150.364 348.483 146.823C349.049 143.14 320.577 79.6787 320.577 79.6787C320.577 79.6787 320.577 41.4321 312.786 20.8922C304.995 0.210705 291.241 5.46027 284.88 15.7927C278.519 26.1251 262.215 52.4811 262.215 52.4811C223.544 45.8233 214.761 46.8149 214.761 46.8149H215.611C215.611 46.8149 206.828 45.8233 168.157 52.4811C168.157 52.4811 152.055 26.3065 145.492 15.7927C138.929 5.27879 125.236 0.210705 117.586 20.8922C109.937 41.5737 109.795 79.6787 109.795 79.6787C109.795 79.6787 81.4645 143.14 81.8895 146.823C82.3145 150.506 101.013 241.731 215.611 241.731" stroke="#350F70" stroke-width="8.77203" stroke-miterlimit="10" stroke-linecap="round" stroke-linejoin="round"/>
<g style="">
<path d="M162.429 146.269C173.932 146.269 183.258 136.944 183.258 125.44C183.258 113.936 173.932 104.611 162.429 104.611C150.925 104.611 141.6 113.936 141.6 125.44C141.6 136.944 150.925 146.269 162.429 146.269Z" fill="#EDCEB0"/>
</g>
<path d="M162.428 142.612C172.921 142.612 181.428 134.105 181.428 123.611C181.428 113.118 172.921 104.611 162.428 104.611C151.934 104.611 143.427 113.118 143.427 123.611C143.427 134.105 151.934 142.612 162.428 142.612Z" fill="white" stroke="#350F70" stroke-width="3.85327" stroke-miterlimit="10"/>
<path d="M165.083 138.986C174.081 138.986 181.376 131.691 181.376 122.692C181.376 113.694 174.081 106.399 165.083 106.399C156.084 106.399 148.79 113.694 148.79 122.692C148.79 131.691 156.084 138.986 165.083 138.986Z" stroke="#350F70" stroke-width="3.85327" stroke-miterlimit="10"/>
<path d="M165.364 138.067C174.207 138.067 181.376 130.898 181.376 122.054C181.376 113.211 174.207 106.042 165.364 106.042C156.521 106.042 149.352 113.211 149.352 122.054C149.352 130.898 156.521 138.067 165.364 138.067Z" fill="#350F70"/>
<ellipse cx="157.416" cy="112.158" rx="3.83816" ry="2.27427" transform="rotate(-30 157.416 112.158)" fill="white"/>
<ellipse cx="172.2" cy="133.39" rx="1.93067" ry="1.24437" transform="rotate(-45 172.2 133.39)" fill="white"/>
<g style="">
<path d="M270.276 146.269C281.78 146.269 291.105 136.944 291.105 125.44C291.105 113.936 281.78 104.611 270.276 104.611C258.772 104.611 249.447 113.936 249.447 125.44C249.447 136.944 258.772 146.269 270.276 146.269Z" fill="#EDCEB0"/>
</g>
<path d="M270.276 142.612C280.77 142.612 289.277 134.105 289.277 123.611C289.277 113.118 280.77 104.611 270.276 104.611C259.783 104.611 251.276 113.118 251.276 123.611C251.276 134.105 259.783 142.612 270.276 142.612Z" fill="white" stroke="#350F70" stroke-width="3.85327" stroke-miterlimit="10"/>
<path d="M272.933 138.986C281.931 138.986 289.226 131.691 289.226 122.692C289.226 113.694 281.931 106.399 272.933 106.399C263.934 106.399 256.64 113.694 256.64 122.692C256.64 131.691 263.934 138.986 272.933 138.986Z" stroke="#350F70" stroke-width="3.85327" stroke-miterlimit="10"/>
<path d="M273.213 138.067C282.056 138.067 289.225 130.898 289.225 122.054C289.225 113.211 282.056 106.042 273.213 106.042C264.37 106.042 257.201 113.211 257.201 122.054C257.201 130.898 264.37 138.067 273.213 138.067Z" fill="#350F70"/>
<ellipse cx="265.265" cy="112.158" rx="3.83816" ry="2.27427" transform="rotate(-30 265.265 112.158)" fill="white"/>
<ellipse cx="280.05" cy="133.39" rx="1.93067" ry="1.24437" transform="rotate(-45 280.05 133.39)" fill="white"/>
<g style="" opacity="0.15">
<path d="M96.7111 109.946C95.3408 114.057 74.1016 178.597 108.495 204.495C110.414 205.865 113.017 205.454 114.388 203.399C117.95 197.643 125.35 186.407 131.653 180.241C134.257 177.637 134.805 173.664 133.023 170.512C128.501 162.153 121.924 146.806 128.09 134.748C136.723 117.62 109.044 82.6777 96.9852 109.535C96.8481 109.672 96.7111 109.809 96.7111 109.946Z" fill="#CC801F"/>
</g>
<path d="M93.8329 108.027C91.9146 111.864 62.0426 172.841 92.4627 203.261C94.107 204.906 96.8475 204.906 98.3548 202.987C102.74 197.78 111.509 187.777 118.635 182.433C121.512 180.241 122.609 176.404 121.375 172.978C118.087 164.072 113.702 147.902 121.375 136.94C132.338 121.182 109.728 82.6775 94.1069 107.616C93.9699 107.89 93.97 107.89 93.8329 108.027Z" fill="#946A41" stroke="#350F70" stroke-width="6.446" stroke-miterlimit="10" stroke-linejoin="round"/>
<path d="M104.237 174.611C108.502 166.508 106.856 157.253 100.561 153.94C94.2657 150.628 85.7056 154.511 81.4412 162.614C77.1768 170.717 78.8228 179.971 85.1177 183.284C91.4127 186.597 99.9728 182.714 104.237 174.611Z" fill="#946A41" stroke="#350F70" stroke-width="6.446" stroke-miterlimit="10" stroke-linejoin="round"/>
<path d="M101.901 173.373C106.165 165.27 104.519 156.016 98.2241 152.703C91.9292 149.39 83.3692 153.273 79.1047 161.376C74.8403 169.48 76.4864 178.734 82.7813 182.047C89.0762 185.36 97.6363 181.476 101.901 173.373Z" fill="#B79056" stroke="#350F70" stroke-width="6.446" stroke-miterlimit="10" stroke-linejoin="round"/>
<g style="" opacity="0.15">
<path d="M334.634 109.946C336.005 114.057 357.244 178.597 322.85 204.495C320.932 205.865 318.328 205.454 316.958 203.399C313.395 197.643 305.996 186.407 299.692 180.241C297.089 177.637 296.541 173.664 298.322 170.512C302.844 162.153 309.421 146.806 303.255 134.748C294.622 117.62 322.302 82.6777 334.36 109.535C334.497 109.672 334.634 109.809 334.634 109.946Z" fill="#CC801F"/>
</g>
<path d="M337.512 108.027C339.43 111.864 369.302 172.841 338.882 203.261C337.238 204.906 334.497 204.906 332.99 202.987C328.605 197.78 319.835 187.777 312.71 182.433C309.832 180.241 308.736 176.404 309.969 172.978C313.258 164.072 317.643 147.902 309.969 136.94C299.007 121.182 321.617 82.6775 337.238 107.616C337.375 107.89 337.512 107.89 337.512 108.027Z" fill="#946A41" stroke="#350F70" stroke-width="6.446" stroke-miterlimit="10" stroke-linejoin="round"/>
<path d="M346.264 183.214C352.559 179.901 354.205 170.647 349.941 162.544C345.676 154.441 337.116 150.558 330.821 153.871C324.526 157.183 322.88 166.438 327.145 174.541C331.409 182.644 339.969 186.527 346.264 183.214Z" fill="#946A41" stroke="#350F70" stroke-width="6.446" stroke-miterlimit="10" stroke-linejoin="round"/>
<path d="M348.592 181.985C354.887 178.672 356.533 169.418 352.269 161.315C348.004 153.212 339.444 149.328 333.149 152.641C326.854 155.954 325.208 165.208 329.473 173.312C333.737 181.415 342.297 185.298 348.592 181.985Z" fill="#B79056" stroke="#350F70" stroke-width="6.446" stroke-miterlimit="10" stroke-linejoin="round"/>
<path d="M337.719 106.224C337.719 106.224 309.038 35.6261 215.559 35.6261C122.079 35.6261 93.3979 106.224 93.3979 106.224L215.559 68.9805L337.719 106.224Z" fill="#946A41" stroke="#350F70" stroke-width="6.446" stroke-miterlimit="10" stroke-linejoin="round"/>
<path d="M182.536 39.2059C182.536 39.2059 178.469 35.1399 176.436 34.4138C174.403 33.6877 166.997 34.4138 166.997 34.4138C126.772 41.239 104.409 74.2031 100.778 79.5761C97.148 85.0944 103.828 90.4674 103.828 90.4674L108.039 94.243" fill="#946A41"/>
<path d="M182.536 39.2059C182.536 39.2059 178.469 35.1399 176.436 34.4138C174.403 33.6877 166.997 34.4138 166.997 34.4138C126.772 41.239 104.409 74.2031 100.778 79.5761C97.148 85.0944 103.828 90.4674 103.828 90.4674L108.039 94.243" stroke="#350F70" stroke-width="6.446" stroke-miterlimit="10" stroke-linejoin="round"/>
<path d="M247.624 38.7613C247.624 38.7613 251.762 34.6229 253.832 33.8839C255.901 33.1449 263.439 33.8839 263.439 33.8839C304.38 40.8306 327.142 74.3816 330.837 79.8503C334.532 85.4668 327.733 90.9355 327.733 90.9355L323.446 94.7783" fill="#946A41"/>
<path d="M247.624 38.7613C247.624 38.7613 251.762 34.6229 253.832 33.8839C255.901 33.1449 263.439 33.8839 263.439 33.8839C304.38 40.8306 327.142 74.3816 330.837 79.8503C334.532 85.4668 327.733 90.9355 327.733 90.9355L323.446 94.7783" stroke="#350F70" stroke-width="6.446" stroke-miterlimit="10" stroke-linejoin="round"/>
<path d="M163.489 58.8379C163.489 58.8379 191.716 54.316 215.559 54.316C239.539 54.316 267.629 58.8379 267.629 58.8379C269.822 58.8379 272.014 59.9341 273.11 61.7155L279.825 71.8555C282.565 75.8293 279.413 81.0363 274.343 81.0363H156.637C151.567 81.0363 148.416 75.8293 151.156 71.8555L157.87 61.7155C159.104 59.9341 161.296 58.8379 163.489 58.8379Z" fill="#854934" stroke="#350F70" stroke-width="6.446" stroke-miterlimit="10" stroke-linejoin="round"/>
<path d="M217.752 37.3246V54.3159" stroke="#350F70" stroke-width="6.446" stroke-miterlimit="10" stroke-linejoin="round"/>
<g style="" opacity="0.15">
<path d="M313.364 59.1882C298.218 43.757 215.569 45.3316 215.569 45.3316C215.569 45.3316 132.92 43.757 117.774 59.1882L110.462 62.1275C110.462 62.1275 111.768 76.7189 114.118 79.6582H118.427C118.427 79.6582 121.691 99.6033 149.11 103.592C176.529 107.581 188.411 100.968 194.678 97.1889C200.945 93.5148 205.646 88.1611 207.865 88.1611C210.216 88.1611 215.438 88.1611 215.438 88.1611C215.438 88.1611 220.661 88.1611 223.011 88.1611C225.361 88.1611 229.931 93.5148 236.199 97.1889C242.466 100.863 254.347 107.581 281.767 103.592C309.186 99.6033 312.45 79.6582 312.45 79.6582H316.759C319.109 76.7189 320.415 62.1275 320.415 62.1275L313.364 59.1882ZM199.117 82.9124C191.283 89.2108 176.268 95.7192 157.466 93.5148C138.665 91.3103 130.308 64.4369 133.572 56.9837C133.572 56.9837 160.6 47.641 199.901 50.7903C199.901 50.7903 206.951 76.6139 199.117 82.9124ZM273.671 93.5148C254.739 95.7192 239.724 89.2108 232.02 82.9124C224.186 76.6139 229.67 51.3151 229.67 51.3151C268.971 48.1659 297.565 58.8733 297.565 58.8733C300.83 66.3264 292.604 91.3103 273.671 93.5148Z" fill="#CC801F"/>
</g>
<path d="M313.364 55.3044C298.218 39.8732 215.569 41.4478 215.569 41.4478C215.569 41.4478 132.92 39.8732 117.774 55.3044L110.462 58.2437C110.462 58.2437 111.768 72.8351 114.118 75.7744H118.427C118.427 75.7744 121.691 95.7195 149.11 99.7085C176.529 103.698 188.411 97.0841 194.678 93.3051C200.945 89.631 205.646 84.2773 207.865 84.2773C210.216 84.2773 215.438 84.2773 215.438 84.2773C215.438 84.2773 220.661 84.2773 223.011 84.2773C225.361 84.2773 229.931 89.631 236.199 93.3051C242.466 96.9792 254.347 103.698 281.767 99.7085C309.186 95.7195 312.45 75.7744 312.45 75.7744H316.759C319.109 72.8351 320.415 58.2437 320.415 58.2437L313.364 55.3044ZM199.117 79.0286C191.283 85.327 176.268 91.8354 157.466 89.631C138.665 87.4265 130.308 60.5531 133.572 53.1C133.572 53.1 160.6 43.7573 199.901 46.9065C199.901 46.9065 206.951 72.7301 199.117 79.0286ZM273.671 89.631C254.739 91.8354 239.724 85.327 232.02 79.0286C224.186 72.7301 229.67 47.4314 229.67 47.4314C268.971 44.2821 297.565 54.9895 297.565 54.9895C300.83 62.4427 292.604 87.4265 273.671 89.631Z" fill="#350F70"/>
<path d="M106.544 51.5623L110.592 53.1369L114.248 68.4631C114.117 68.4631 102.366 58.1756 106.544 51.5623Z" fill="#350F70"/>
<path d="M106.544 51.5623C106.544 51.5623 104.064 53.3468 103.933 55.4463C103.672 57.5458 106.153 64.789 109.025 67.6233C111.114 69.6178 110.331 70.5626 113.595 70.5626C114.77 70.5626 116.467 70.4576 118.948 70.2477L118.557 68.5681H114.248C108.372 64.0542 106.544 51.5623 106.544 51.5623Z" fill="#350F70"/>
<path d="M317.019 68.4631C322.764 64.0542 324.722 51.5623 324.722 51.5623C324.722 51.5623 327.203 53.3468 327.334 55.4463C327.595 57.5458 325.114 64.789 322.242 67.6233C319.369 70.3526 321.85 70.9825 312.318 70.2477L312.71 68.5681H317.019V68.4631Z" fill="#350F70"/>
<path d="M313.364 47.993C298.218 32.5618 215.569 34.1364 215.569 34.1364C215.569 34.1364 132.92 32.5618 117.774 47.993L110.462 50.9323C110.462 50.9323 111.768 65.5237 114.118 68.463H118.427C118.427 68.463 121.691 88.4081 149.11 92.3971C176.529 96.3861 188.411 89.7727 194.678 85.9937C200.945 82.3196 205.646 76.9659 207.865 76.9659C210.216 76.9659 215.438 76.9659 215.438 76.9659C215.438 76.9659 220.661 76.9659 223.011 76.9659C225.361 76.9659 229.931 82.3196 236.199 85.9937C242.466 89.6678 254.347 96.3861 281.767 92.3971C309.186 88.4081 312.45 68.463 312.45 68.463H316.759C319.109 65.5237 320.415 50.9323 320.415 50.9323L313.364 47.993ZM199.117 71.7172C191.283 78.0156 176.268 84.524 157.466 82.3196C138.665 80.1151 131.092 60.5899 134.356 53.1367C134.356 53.1367 162.297 41.5896 201.468 44.7388C201.598 44.7388 206.951 65.4187 199.117 71.7172ZM273.671 82.3196C254.739 84.524 239.724 78.0156 232.02 71.7172C224.186 65.4187 229.67 44.7388 229.67 44.7388C268.971 41.5896 296.782 53.1367 296.782 53.1367C300.046 60.5899 292.604 80.1151 273.671 82.3196Z" fill="#E6E6E5" stroke="#350F70" stroke-width="6.14214" stroke-miterlimit="10" stroke-linecap="round" stroke-linejoin="round"/>
<path d="M324.723 51.5623L320.675 53.1369L317.019 68.4631C317.019 68.4631 328.901 58.1756 324.723 51.5623Z" fill="#350F70"/>
<path opacity="0.7" d="M127.435 50.0926C127.435 50.0926 158.118 37.3907 201.466 40.7499C201.466 40.7499 207.473 63.6343 198.855 70.4576C190.238 77.3859 173.786 84.5241 152.895 82.1097C132.004 79.6953 123.779 58.3856 127.435 50.0926Z" fill="#27AAE1"/>
<path opacity="0.7" d="M303.833 50.0926C303.833 50.0926 273.149 37.3907 229.801 40.7499C229.801 40.7499 223.795 63.6343 232.412 70.4576C241.03 77.3859 257.481 84.5241 278.372 82.1097C299.263 79.6953 307.489 58.3856 303.833 50.0926Z" fill="#27AAE1"/>
<path opacity="0.3" d="M153.941 43.059L140.624 78.1203C144.018 80.2198 148.066 81.7944 152.766 82.3193C153.55 82.4243 154.333 82.4243 155.117 82.5292L170.915 40.9595C164.779 41.3794 159.034 42.2192 153.941 43.059Z" fill="white"/>
<path opacity="0.3" d="M188.411 40.2251C185.669 40.2251 182.928 40.2251 180.316 40.3301L164.256 82.6347C167.259 82.5297 170.001 82.1098 172.743 81.6899L188.411 40.2251Z" fill="white"/>
<path opacity="0.3" d="M239.463 75.1813C243.38 77.3857 248.211 79.2753 253.564 80.6399L268.318 41.6945C263.487 41.0647 258.265 40.6448 252.65 40.3298L239.463 75.1813Z" fill="white"/>
<path opacity="0.3" d="M284.509 44.5291C282.159 44.0042 279.678 43.4793 276.936 43.0594L262.052 82.3198C264.533 82.6347 267.274 82.8447 270.016 82.8447L284.509 44.5291Z" fill="white"/>
<path d="M129.132 49.4627C135.922 46.9433 162.688 38.3355 198.464 40.6449C200.292 40.7499 201.728 41.9046 201.989 43.2692C203.295 49.3577 205.645 65.1039 198.855 70.5625C190.238 77.4908 173.786 84.6291 152.896 82.2147C133.441 80.0102 124.954 61.0099 126.913 51.7722C127.043 50.8274 127.827 49.8826 129.132 49.4627Z" stroke="#350F70" stroke-width="4.6066" stroke-miterlimit="10" stroke-linejoin="round"/>
<path d="M302.135 49.5675C295.476 47.1531 268.579 38.3352 232.673 40.6447C230.976 40.7496 229.539 41.7994 229.278 43.164C228.103 49.1476 225.492 64.9987 232.412 70.5623C241.029 77.4906 257.481 84.6288 278.372 82.2144C298.087 79.905 306.444 60.5898 304.355 51.562C304.094 50.7222 303.31 49.8824 302.135 49.5675Z" stroke="#350F70" stroke-width="4.6066" stroke-miterlimit="10" stroke-linejoin="round"/>
<defs>
<radialGradient id="paint0_radial_1721_71" cx="0" cy="0" r="1" gradientUnits="userSpaceOnUse" gradientTransform="translate(202.975 265.549) rotate(90) scale(35.7937 41.3252)">
<stop stop-color="#20C6B7"/>
<stop offset="1" stop-color="#4D9ABF"/>
</radialGradient>
</defs>
</svg>