<svg width="90" height="90" viewBox="0 0 319 357" fill="none" xmlns="http://www.w3.org/2000/svg">
<path fill-rule="evenodd" clip-rule="evenodd" d="M125.195 245.14C130.019 250.616 132.208 256.725 130.694 262.373C129.192 267.977 124.308 272.152 117.475 274.493C118.898 280.32 118.259 286.088 115.186 290.826C107.859 302.122 89.7091 302.992 74.1808 292.739C59.4448 283.263 52.8628 266.977 58.9771 255.698C56.3111 251.348 55.3192 246.783 56.4709 242.485C57.6298 238.159 60.8039 234.686 65.333 232.249C65.4751 219.298 79.3947 208.328 97.0262 207.482C115.6 206.367 130.884 216.196 131.581 229.642C131.879 235.373 129.467 240.768 125.195 245.14Z" fill="#CE9D8E"/>
<path d="M125.195 245.14L123.049 243.044L121.104 245.035L122.944 247.123L125.195 245.14ZM117.475 274.493L116.503 271.655L113.911 272.543L114.561 275.205L117.475 274.493ZM115.186 290.826L117.703 292.459L117.703 292.459L115.186 290.826ZM74.1808 292.739L75.8337 290.236L75.8187 290.226L75.8035 290.216L74.1808 292.739ZM58.9771 255.698L61.6145 257.127L62.4393 255.606L61.5349 254.13L58.9771 255.698ZM65.333 232.249L66.7542 234.891L68.3134 234.052L68.3328 232.282L65.333 232.249ZM97.0262 207.482L97.1698 210.479L97.1879 210.478L97.2059 210.477L97.0262 207.482ZM131.581 229.642L128.585 229.797L131.581 229.642ZM122.944 247.123C127.39 252.169 128.955 257.272 127.796 261.596L133.592 263.149C135.46 256.178 132.649 249.063 127.446 243.157L122.944 247.123ZM127.796 261.596C126.647 265.888 122.792 269.501 116.503 271.655L118.448 277.331C125.824 274.804 131.738 270.067 133.592 263.149L127.796 261.596ZM114.561 275.205C115.827 280.388 115.21 285.276 112.669 289.194L117.703 292.459C121.308 286.901 121.969 280.251 120.39 273.782L114.561 275.205ZM112.669 289.194C109.652 293.846 104.29 296.553 97.6181 296.867C90.9381 297.181 83.1377 295.058 75.8337 290.236L72.5278 295.243C80.7522 300.673 89.7911 303.242 97.9001 302.86C106.017 302.478 113.394 299.102 117.703 292.459L112.669 289.194ZM75.8035 290.216C68.9052 285.78 64.0065 279.804 61.5373 273.76C59.065 267.708 59.087 261.79 61.6145 257.127L56.3396 254.268C52.7529 260.884 53.0088 268.749 55.9829 276.029C58.9601 283.317 64.7204 290.222 72.5581 295.263L75.8035 290.216ZM61.5349 254.13C59.178 250.284 58.4833 246.566 59.3686 243.261L53.5731 241.708C52.1551 247 53.4443 252.411 56.4192 257.265L61.5349 254.13ZM59.3686 243.261C60.2595 239.936 62.7464 237.047 66.7542 234.891L63.9117 229.607C58.8614 232.324 55.0002 236.382 53.5731 241.708L59.3686 243.261ZM96.8825 204.486C87.5052 204.935 79.0065 208.079 72.7709 212.964C66.5406 217.846 62.4166 224.615 62.3332 232.216L68.3328 232.282C68.3915 226.931 71.2983 221.74 76.4713 217.687C81.6387 213.639 88.9156 210.875 97.1698 210.479L96.8825 204.486ZM134.577 229.486C134.167 221.579 129.467 214.966 122.628 210.577C115.796 206.192 106.684 203.897 96.8464 204.488L97.2059 210.477C105.943 209.953 113.759 212.014 119.387 215.627C125.008 219.234 128.298 224.259 128.585 229.797L134.577 229.486ZM127.341 247.237C132.078 242.388 134.926 236.21 134.577 229.486L128.585 229.797C128.831 234.535 126.855 239.148 123.049 243.044L127.341 247.237Z" fill="#350F70"/>
<path d="M93.1127 311.244L92.7672 311.304L92.4405 311.431C89.1706 312.704 84.2984 315.139 80.1728 318.407C76.2257 321.533 72.0274 326.165 72.0273 331.943C72.0273 336.138 74.6415 339.17 77.7612 341.098C80.8615 343.015 84.9044 344.169 89.1103 344.703C97.4806 345.766 107.773 344.522 115.178 340.289C119.168 338.008 121.841 334.668 122.876 330.846C123.91 327.026 123.225 323.011 121.025 319.597C116.598 312.729 106.671 308.896 93.1127 311.244Z" fill="#350F70" stroke="#350F70" stroke-width="7"/>
<path d="M227.212 311.244L227.557 311.304L227.884 311.431C231.154 312.704 236.026 315.139 240.151 318.407C244.099 321.533 248.297 326.165 248.297 331.943C248.297 336.138 245.683 339.17 242.563 341.098C239.463 343.015 235.42 344.169 231.214 344.703C222.844 345.766 212.551 344.522 205.147 340.289C201.156 338.008 198.483 334.668 197.448 330.846C196.414 327.026 197.099 323.011 199.299 319.597C203.726 312.729 213.653 308.896 227.212 311.244Z" fill="#350F70" stroke="#350F70" stroke-width="7"/>
<path d="M211.811 218.719C204.784 202.445 176.23 183.459 160.049 176C143.868 183.459 115.313 202.445 108.286 218.719C106.887 221.958 104.984 225.972 102.827 230.52C91.4397 254.536 67.4096 293.48 78.6816 312.293C92.0887 334.67 108.27 346.197 135.546 324.499H184.551C211.827 346.197 228.008 334.67 241.415 312.293C252.687 293.48 228.657 254.536 217.27 230.521C215.113 225.972 213.21 221.958 211.811 218.719Z" fill="#DDB896"/>
<path d="M160.049 176L161.514 172.821L160.049 172.146L158.583 172.821L160.049 176ZM211.811 218.719L208.598 220.106L211.811 218.719ZM108.286 218.719L105.073 217.331L108.286 218.719ZM102.827 230.52L99.6647 229.021H99.6647L102.827 230.52ZM78.6816 312.293L75.6793 314.092H75.6793L78.6816 312.293ZM135.546 324.499V320.999H134.324L133.367 321.76L135.546 324.499ZM184.551 324.499L186.73 321.76L185.773 320.999H184.551V324.499ZM241.415 312.293L238.413 310.495L241.415 312.293ZM217.27 230.521L220.432 229.021V229.021L217.27 230.521ZM158.583 179.179C166.422 182.792 177.384 189.265 187.23 196.829C197.205 204.492 205.463 212.848 208.598 220.106L215.024 217.331C211.131 208.316 201.6 199.042 191.495 191.278C181.262 183.417 169.856 176.667 161.514 172.821L158.583 179.179ZM111.499 220.106C114.634 212.848 122.893 204.492 132.867 196.829C142.713 189.265 153.675 182.792 161.514 179.179L158.583 172.821C150.241 176.667 138.835 183.417 128.602 191.278C118.497 199.042 108.966 208.316 105.073 217.331L111.499 220.106ZM105.99 232.02C108.137 227.491 110.071 223.415 111.499 220.106L105.073 217.331C103.704 220.502 101.831 224.452 99.6647 229.021L105.99 232.02ZM81.6839 310.495C79.4296 306.732 78.7746 301.671 79.5698 295.397C80.362 289.147 82.5456 282.078 85.5078 274.655C91.4894 259.667 100.126 244.387 105.99 232.02L99.6647 229.021C94.1413 240.67 85.0687 256.87 79.0064 272.061C75.9467 279.728 73.5245 287.423 72.6254 294.517C71.7294 301.586 72.2976 308.448 75.6793 314.092L81.6839 310.495ZM133.367 321.76C120.173 332.256 110.533 334.045 102.994 331.596C95.146 329.046 88.3107 321.555 81.6839 310.495L75.6793 314.092C82.4596 325.409 90.4184 334.87 100.831 338.253C111.554 341.737 123.643 338.44 137.725 327.238L133.367 321.76ZM238.413 310.495C231.786 321.555 224.951 329.046 217.103 331.596C209.564 334.045 199.924 332.256 186.73 321.76L182.372 327.238C196.454 338.44 208.543 341.737 219.266 338.253C229.679 334.87 237.637 325.409 244.418 314.092L238.413 310.495ZM214.107 232.02C219.971 244.387 228.608 259.667 234.589 274.655C237.551 282.078 239.735 289.147 240.527 295.397C241.322 301.671 240.667 306.732 238.413 310.495L244.418 314.092C247.799 308.448 248.368 301.586 247.472 294.517C246.573 287.423 244.15 279.728 241.091 272.061C235.028 256.87 225.956 240.67 220.432 229.021L214.107 232.02ZM208.598 220.106C210.026 223.415 211.96 227.492 214.107 232.02L220.432 229.021C218.266 224.452 216.393 220.502 215.024 217.331L208.598 220.106ZM184.551 320.999H135.546V327.999H184.551V320.999Z" fill="#350F70"/>
<path d="M192.037 320.911H129.899C71.0974 253.208 118.639 227.461 159.926 227.461C201.212 227.461 217.059 236.997 217.059 266.558C217.059 290.206 200.378 312.647 192.037 320.911Z" fill="#E4CCAB"/>
<path d="M103.027 223.191L102.726 223.551L102.53 223.977C97.1447 235.699 91.5487 255.272 92.1126 276.25C92.6747 297.159 99.3803 319.72 118.798 337.073L120.21 339.291L118.168 345.416L117.208 348.296L119.923 349.653C125.77 352.577 140.792 356.389 156.601 349.75L158.745 348.849V346.523V262.776V260.729L156.961 259.725C152.462 257.195 148.525 256.567 145.719 256.232C145.352 256.188 145.029 256.151 144.742 256.118C144.102 256.045 143.638 255.992 143.256 255.928C143.264 255.853 143.274 255.771 143.287 255.681C143.438 254.633 143.856 253.037 144.682 250.6C146.327 245.752 149.326 238.326 154.041 226.759L154.825 224.838L153.515 223.228C152.549 222.041 151.132 221.089 149.732 220.332C148.262 219.536 146.5 218.794 144.568 218.133C140.703 216.81 135.924 215.735 130.954 215.249C125.995 214.764 120.692 214.851 115.833 215.961C110.982 217.07 106.318 219.261 103.027 223.191ZM142.581 255.769C142.581 255.769 142.583 255.769 142.587 255.771C142.583 255.77 142.581 255.769 142.581 255.769Z" fill="#F0E1CE" stroke="#350F70" stroke-width="7"/>
<path d="M133.765 334.985C126.295 331.25 120.148 341.21 118.008 346.657C138.083 359.73 152.44 352.104 157.109 346.657L133.765 334.985Z" fill="#350F70"/>
<path d="M215.039 223.191L215.34 223.551L215.536 223.977C220.922 235.699 226.518 255.272 225.954 276.25C225.392 297.159 218.686 319.72 199.268 337.073L197.857 339.291L199.898 345.416L200.858 348.296L198.143 349.653C192.296 352.577 177.275 356.389 161.466 349.75L159.321 348.849V346.523V262.776V260.729L161.105 259.725C165.604 257.195 169.541 256.567 172.347 256.232C172.714 256.188 173.037 256.151 173.325 256.118C173.965 256.045 174.429 255.992 174.811 255.928C174.802 255.853 174.792 255.771 174.779 255.681C174.628 254.633 174.211 253.037 173.384 250.6C171.739 245.752 168.74 238.326 164.025 226.759L163.242 224.838L164.552 223.228C165.518 222.041 166.934 221.089 168.334 220.332C169.805 219.536 171.566 218.794 173.498 218.133C177.364 216.81 182.142 215.735 187.113 215.249C192.072 214.764 197.374 214.851 202.234 215.961C207.085 217.07 211.749 219.261 215.039 223.191ZM175.485 255.769C175.485 255.769 175.483 255.769 175.479 255.771C175.483 255.77 175.485 255.769 175.485 255.769Z" fill="#F0E1CE" stroke="#350F70" stroke-width="7"/>
<path d="M184.033 335.219C191.503 331.484 197.65 341.444 199.79 346.891C179.714 359.964 165.358 352.338 160.689 346.891L184.033 335.219Z" fill="#350F70"/>
<ellipse cx="158.945" cy="283.091" rx="25.9273" ry="30.4364" fill="#F0E1CE"/>
<path d="M158.945 299.673C109.345 296.9 98.0722 284.455 94.6904 269.8L222.636 278.255C217.28 284.858 214.181 302.761 158.945 299.673Z" fill="#DDB896"/>
<path d="M220.36 252.569C220.36 263.665 213.941 274.009 202.963 281.698C191.993 289.381 176.684 294.225 159.636 294.225C142.588 294.225 127.279 289.381 116.309 281.698C105.331 274.009 98.9125 263.665 98.9125 252.569C98.9125 241.472 105.331 231.129 116.309 223.439C127.279 215.757 142.588 210.913 159.636 210.913C176.684 210.913 191.993 215.757 202.963 223.439C213.941 231.129 220.36 241.472 220.36 252.569Z" stroke="#350F70" stroke-width="5.82502"/>
<mask id="path-15-outside-1_505_77" maskUnits="userSpaceOnUse" x="137.739" y="284.825" width="44" height="44" fill="black">
<rect fill="white" x="137.739" y="284.825" width="44" height="44"/>
<path d="M167.68 301.26L167.667 301.255C167.66 301.252 167.652 301.249 167.646 301.242C167.635 301.231 167.627 301.217 167.622 301.202C167.618 301.187 167.617 301.171 167.619 301.156L168.342 296.739L171.73 300.128L168.206 301.627C168.197 301.631 168.186 301.632 168.176 301.632H168.161C168.157 301.629 168.152 301.626 168.143 301.616C168.012 301.47 167.855 301.35 167.68 301.26V301.26ZM172.594 300.991L176.216 304.613C176.969 305.367 177.345 305.742 177.483 306.178C177.503 306.242 177.52 306.307 177.533 306.373L168.876 302.707C168.872 302.705 168.867 302.703 168.862 302.701C168.828 302.687 168.788 302.671 168.788 302.636C168.788 302.6 168.829 302.584 168.863 302.57L168.875 302.565L172.594 300.991ZM177.385 307.536C177.198 307.887 176.834 308.252 176.217 308.869L172.133 312.952L166.851 311.852L166.823 311.847C166.776 311.839 166.727 311.831 166.727 311.789C166.707 311.571 166.642 311.359 166.537 311.168C166.432 310.976 166.288 310.808 166.115 310.674C166.093 310.652 166.099 310.619 166.105 310.588C166.105 310.583 166.105 310.579 166.107 310.575L167.101 304.476L167.105 304.455C167.11 304.409 167.119 304.354 167.161 304.354C167.373 304.328 167.579 304.259 167.765 304.153C167.951 304.046 168.114 303.903 168.245 303.733C168.253 303.724 168.259 303.713 168.27 303.708C168.3 303.694 168.335 303.708 168.366 303.721L177.384 307.536H177.385ZM171.194 313.891L164.478 320.607L165.628 313.542L165.63 313.533C165.631 313.523 165.633 313.514 165.635 313.506C165.645 313.483 165.669 313.474 165.692 313.464L165.704 313.46C165.955 313.352 166.178 313.187 166.353 312.977C166.376 312.95 166.403 312.925 166.437 312.92C166.446 312.919 166.455 312.919 166.464 312.92L171.193 313.892L171.194 313.891ZM163.057 322.029L162.3 322.785L153.931 310.691C153.928 310.686 153.925 310.682 153.922 310.678C153.909 310.66 153.895 310.642 153.898 310.622C153.898 310.607 153.908 310.593 153.918 310.582L153.928 310.57C153.953 310.533 153.974 310.495 153.998 310.455L154.016 310.422L154.019 310.42C154.032 310.397 154.044 310.376 154.067 310.364C154.086 310.354 154.113 310.358 154.135 310.363L163.407 312.275C163.432 312.279 163.457 312.289 163.478 312.306C163.49 312.318 163.493 312.331 163.495 312.346C163.56 312.59 163.68 312.817 163.847 313.007C164.014 313.198 164.222 313.347 164.456 313.444C164.482 313.457 164.471 313.486 164.459 313.517C164.453 313.53 164.448 313.544 164.445 313.559C164.328 314.269 163.326 320.379 163.057 322.029ZM161.476 323.609C160.918 324.161 160.589 324.454 160.217 324.571C159.85 324.687 159.457 324.687 159.09 324.571C158.654 324.433 158.278 324.057 157.525 323.304L149.121 314.9L151.316 311.495C151.327 311.478 151.337 311.464 151.354 311.451C151.377 311.435 151.411 311.442 151.439 311.451C151.943 311.603 152.484 311.576 152.97 311.374C152.995 311.364 153.02 311.358 153.04 311.376C153.05 311.385 153.058 311.395 153.066 311.406L161.476 323.61V323.609ZM148.311 314.09L146.383 312.162L150.19 310.537C150.2 310.533 150.211 310.531 150.221 310.531C150.253 310.531 150.272 310.563 150.288 310.592C150.327 310.65 150.367 310.708 150.41 310.764L150.422 310.779C150.433 310.794 150.426 310.81 150.415 310.825L148.312 314.09H148.311ZM145.53 311.308L143.091 308.869C142.676 308.454 142.375 308.153 142.165 307.895L149.582 309.433C149.591 309.435 149.601 309.436 149.61 309.437C149.656 309.445 149.706 309.453 149.706 309.496C149.706 309.543 149.651 309.565 149.604 309.582L149.583 309.592L145.53 311.308ZM141.739 306.64C141.748 306.483 141.776 306.328 141.823 306.178C141.962 305.742 142.337 305.367 143.091 304.613L146.212 301.492C147.649 303.578 149.09 305.661 150.535 307.741C150.56 307.775 150.588 307.812 150.559 307.84C150.423 307.991 150.287 308.155 150.19 308.334C150.18 308.357 150.164 308.377 150.144 308.392C150.131 308.399 150.118 308.396 150.104 308.394H150.102L141.739 306.639V306.64ZM147.047 300.657L151.243 296.46C151.638 296.632 153.074 297.239 154.357 297.781C155.329 298.192 156.215 298.566 156.494 298.687C156.522 298.699 156.547 298.71 156.559 298.738C156.567 298.755 156.563 298.776 156.559 298.794C156.493 299.097 156.503 299.412 156.588 299.71C156.673 300.008 156.831 300.28 157.048 300.502C157.076 300.53 157.048 300.571 157.024 300.605L157.011 300.625L152.749 307.225C152.738 307.244 152.728 307.26 152.709 307.272C152.686 307.286 152.655 307.28 152.629 307.273C152.463 307.23 152.292 307.206 152.121 307.204C151.968 307.204 151.801 307.232 151.633 307.263H151.632C151.614 307.266 151.597 307.269 151.582 307.258C151.565 307.245 151.551 307.229 151.54 307.21L147.047 300.657H147.047ZM152.092 295.612L157.525 290.178C158.278 289.426 158.654 289.05 159.09 288.912C159.457 288.796 159.85 288.796 160.217 288.912C160.652 289.05 161.029 289.426 161.781 290.178L162.959 291.356L159.095 297.341C159.085 297.358 159.072 297.373 159.056 297.386C159.033 297.402 159 297.395 158.972 297.386C158.667 297.293 158.345 297.276 158.032 297.337C157.72 297.397 157.426 297.532 157.178 297.731C157.153 297.758 157.115 297.743 157.083 297.729C156.579 297.509 152.654 295.85 152.092 295.612V295.612ZM163.779 292.177L167.347 295.745L166.488 301.07V301.084C166.487 301.096 166.484 301.108 166.48 301.119C166.471 301.138 166.452 301.142 166.434 301.147C166.25 301.203 166.077 301.289 165.921 301.402C165.915 301.407 165.908 301.412 165.903 301.418C165.892 301.429 165.882 301.44 165.865 301.442C165.852 301.442 165.838 301.44 165.825 301.435L160.388 299.125L160.378 299.12C160.343 299.106 160.302 299.089 160.302 299.054C160.27 298.751 160.171 298.459 160.012 298.199C159.986 298.156 159.957 298.111 159.98 298.067L163.779 292.177ZM160.105 300.219L165.202 302.378C165.23 302.391 165.261 302.403 165.273 302.432C165.278 302.45 165.278 302.468 165.273 302.485C165.258 302.56 165.245 302.645 165.245 302.731V302.874C165.245 302.91 165.208 302.925 165.175 302.939L165.164 302.942C164.357 303.287 153.828 307.777 153.813 307.777C153.797 307.777 153.78 307.777 153.764 307.761C153.736 307.733 153.764 307.694 153.789 307.658C153.794 307.652 153.798 307.646 153.802 307.639L157.991 301.154L157.998 301.142C158.023 301.103 158.051 301.059 158.096 301.059L158.138 301.066C158.233 301.079 158.317 301.091 158.402 301.091C159.038 301.091 159.626 300.782 159.981 300.253C159.99 300.239 160.001 300.226 160.013 300.215C160.038 300.197 160.076 300.206 160.105 300.219V300.219ZM154.268 308.803L165.744 303.909C165.744 303.909 165.761 303.909 165.777 303.925C165.839 303.987 165.892 304.029 165.944 304.069L165.969 304.084C165.992 304.097 166.016 304.112 166.018 304.137C166.018 304.146 166.018 304.152 166.016 304.16L165.033 310.199L165.029 310.223C165.022 310.27 165.016 310.323 164.972 310.323C164.71 310.341 164.456 310.422 164.232 310.56C164.009 310.698 163.822 310.889 163.689 311.115L163.684 311.122C163.671 311.144 163.659 311.164 163.637 311.176C163.618 311.185 163.593 311.181 163.572 311.177L154.42 309.289C154.411 309.287 154.278 308.804 154.268 308.803V308.803Z"/>
</mask>
<path d="M167.68 301.26L167.667 301.255C167.66 301.252 167.652 301.249 167.646 301.242C167.635 301.231 167.627 301.217 167.622 301.202C167.618 301.187 167.617 301.171 167.619 301.156L168.342 296.739L171.73 300.128L168.206 301.627C168.197 301.631 168.186 301.632 168.176 301.632H168.161C168.157 301.629 168.152 301.626 168.143 301.616C168.012 301.47 167.855 301.35 167.68 301.26V301.26ZM172.594 300.991L176.216 304.613C176.969 305.367 177.345 305.742 177.483 306.178C177.503 306.242 177.52 306.307 177.533 306.373L168.876 302.707C168.872 302.705 168.867 302.703 168.862 302.701C168.828 302.687 168.788 302.671 168.788 302.636C168.788 302.6 168.829 302.584 168.863 302.57L168.875 302.565L172.594 300.991ZM177.385 307.536C177.198 307.887 176.834 308.252 176.217 308.869L172.133 312.952L166.851 311.852L166.823 311.847C166.776 311.839 166.727 311.831 166.727 311.789C166.707 311.571 166.642 311.359 166.537 311.168C166.432 310.976 166.288 310.808 166.115 310.674C166.093 310.652 166.099 310.619 166.105 310.588C166.105 310.583 166.105 310.579 166.107 310.575L167.101 304.476L167.105 304.455C167.11 304.409 167.119 304.354 167.161 304.354C167.373 304.328 167.579 304.259 167.765 304.153C167.951 304.046 168.114 303.903 168.245 303.733C168.253 303.724 168.259 303.713 168.27 303.708C168.3 303.694 168.335 303.708 168.366 303.721L177.384 307.536H177.385ZM171.194 313.891L164.478 320.607L165.628 313.542L165.63 313.533C165.631 313.523 165.633 313.514 165.635 313.506C165.645 313.483 165.669 313.474 165.692 313.464L165.704 313.46C165.955 313.352 166.178 313.187 166.353 312.977C166.376 312.95 166.403 312.925 166.437 312.92C166.446 312.919 166.455 312.919 166.464 312.92L171.193 313.892L171.194 313.891ZM163.057 322.029L162.3 322.785L153.931 310.691C153.928 310.686 153.925 310.682 153.922 310.678C153.909 310.66 153.895 310.642 153.898 310.622C153.898 310.607 153.908 310.593 153.918 310.582L153.928 310.57C153.953 310.533 153.974 310.495 153.998 310.455L154.016 310.422L154.019 310.42C154.032 310.397 154.044 310.376 154.067 310.364C154.086 310.354 154.113 310.358 154.135 310.363L163.407 312.275C163.432 312.279 163.457 312.289 163.478 312.306C163.49 312.318 163.493 312.331 163.495 312.346C163.56 312.59 163.68 312.817 163.847 313.007C164.014 313.198 164.222 313.347 164.456 313.444C164.482 313.457 164.471 313.486 164.459 313.517C164.453 313.53 164.448 313.544 164.445 313.559C164.328 314.269 163.326 320.379 163.057 322.029ZM161.476 323.609C160.918 324.161 160.589 324.454 160.217 324.571C159.85 324.687 159.457 324.687 159.09 324.571C158.654 324.433 158.278 324.057 157.525 323.304L149.121 314.9L151.316 311.495C151.327 311.478 151.337 311.464 151.354 311.451C151.377 311.435 151.411 311.442 151.439 311.451C151.943 311.603 152.484 311.576 152.97 311.374C152.995 311.364 153.02 311.358 153.04 311.376C153.05 311.385 153.058 311.395 153.066 311.406L161.476 323.61V323.609ZM148.311 314.09L146.383 312.162L150.19 310.537C150.2 310.533 150.211 310.531 150.221 310.531C150.253 310.531 150.272 310.563 150.288 310.592C150.327 310.65 150.367 310.708 150.41 310.764L150.422 310.779C150.433 310.794 150.426 310.81 150.415 310.825L148.312 314.09H148.311ZM145.53 311.308L143.091 308.869C142.676 308.454 142.375 308.153 142.165 307.895L149.582 309.433C149.591 309.435 149.601 309.436 149.61 309.437C149.656 309.445 149.706 309.453 149.706 309.496C149.706 309.543 149.651 309.565 149.604 309.582L149.583 309.592L145.53 311.308ZM141.739 306.64C141.748 306.483 141.776 306.328 141.823 306.178C141.962 305.742 142.337 305.367 143.091 304.613L146.212 301.492C147.649 303.578 149.09 305.661 150.535 307.741C150.56 307.775 150.588 307.812 150.559 307.84C150.423 307.991 150.287 308.155 150.19 308.334C150.18 308.357 150.164 308.377 150.144 308.392C150.131 308.399 150.118 308.396 150.104 308.394H150.102L141.739 306.639V306.64ZM147.047 300.657L151.243 296.46C151.638 296.632 153.074 297.239 154.357 297.781C155.329 298.192 156.215 298.566 156.494 298.687C156.522 298.699 156.547 298.71 156.559 298.738C156.567 298.755 156.563 298.776 156.559 298.794C156.493 299.097 156.503 299.412 156.588 299.71C156.673 300.008 156.831 300.28 157.048 300.502C157.076 300.53 157.048 300.571 157.024 300.605L157.011 300.625L152.749 307.225C152.738 307.244 152.728 307.26 152.709 307.272C152.686 307.286 152.655 307.28 152.629 307.273C152.463 307.23 152.292 307.206 152.121 307.204C151.968 307.204 151.801 307.232 151.633 307.263H151.632C151.614 307.266 151.597 307.269 151.582 307.258C151.565 307.245 151.551 307.229 151.54 307.21L147.047 300.657H147.047ZM152.092 295.612L157.525 290.178C158.278 289.426 158.654 289.05 159.09 288.912C159.457 288.796 159.85 288.796 160.217 288.912C160.652 289.05 161.029 289.426 161.781 290.178L162.959 291.356L159.095 297.341C159.085 297.358 159.072 297.373 159.056 297.386C159.033 297.402 159 297.395 158.972 297.386C158.667 297.293 158.345 297.276 158.032 297.337C157.72 297.397 157.426 297.532 157.178 297.731C157.153 297.758 157.115 297.743 157.083 297.729C156.579 297.509 152.654 295.85 152.092 295.612V295.612ZM163.779 292.177L167.347 295.745L166.488 301.07V301.084C166.487 301.096 166.484 301.108 166.48 301.119C166.471 301.138 166.452 301.142 166.434 301.147C166.25 301.203 166.077 301.289 165.921 301.402C165.915 301.407 165.908 301.412 165.903 301.418C165.892 301.429 165.882 301.44 165.865 301.442C165.852 301.442 165.838 301.44 165.825 301.435L160.388 299.125L160.378 299.12C160.343 299.106 160.302 299.089 160.302 299.054C160.27 298.751 160.171 298.459 160.012 298.199C159.986 298.156 159.957 298.111 159.98 298.067L163.779 292.177ZM160.105 300.219L165.202 302.378C165.23 302.391 165.261 302.403 165.273 302.432C165.278 302.45 165.278 302.468 165.273 302.485C165.258 302.56 165.245 302.645 165.245 302.731V302.874C165.245 302.91 165.208 302.925 165.175 302.939L165.164 302.942C164.357 303.287 153.828 307.777 153.813 307.777C153.797 307.777 153.78 307.777 153.764 307.761C153.736 307.733 153.764 307.694 153.789 307.658C153.794 307.652 153.798 307.646 153.802 307.639L157.991 301.154L157.998 301.142C158.023 301.103 158.051 301.059 158.096 301.059L158.138 301.066C158.233 301.079 158.317 301.091 158.402 301.091C159.038 301.091 159.626 300.782 159.981 300.253C159.99 300.239 160.001 300.226 160.013 300.215C160.038 300.197 160.076 300.206 160.105 300.219V300.219ZM154.268 308.803L165.744 303.909C165.744 303.909 165.761 303.909 165.777 303.925C165.839 303.987 165.892 304.029 165.944 304.069L165.969 304.084C165.992 304.097 166.016 304.112 166.018 304.137C166.018 304.146 166.018 304.152 166.016 304.16L165.033 310.199L165.029 310.223C165.022 310.27 165.016 310.323 164.972 310.323C164.71 310.341 164.456 310.422 164.232 310.56C164.009 310.698 163.822 310.889 163.689 311.115L163.684 311.122C163.671 311.144 163.659 311.164 163.637 311.176C163.618 311.185 163.593 311.181 163.572 311.177L154.42 309.289C154.411 309.287 154.278 308.804 154.268 308.803V308.803Z" fill="#28C0B9"/>
<path d="M167.68 301.26L167.667 301.255C167.66 301.252 167.652 301.249 167.646 301.242C167.635 301.231 167.627 301.217 167.622 301.202C167.618 301.187 167.617 301.171 167.619 301.156L168.342 296.739L171.73 300.128L168.206 301.627C168.197 301.631 168.186 301.632 168.176 301.632H168.161C168.157 301.629 168.152 301.626 168.143 301.616C168.012 301.47 167.855 301.35 167.68 301.26V301.26ZM172.594 300.991L176.216 304.613C176.969 305.367 177.345 305.742 177.483 306.178C177.503 306.242 177.52 306.307 177.533 306.373L168.876 302.707C168.872 302.705 168.867 302.703 168.862 302.701C168.828 302.687 168.788 302.671 168.788 302.636C168.788 302.6 168.829 302.584 168.863 302.57L168.875 302.565L172.594 300.991ZM177.385 307.536C177.198 307.887 176.834 308.252 176.217 308.869L172.133 312.952L166.851 311.852L166.823 311.847C166.776 311.839 166.727 311.831 166.727 311.789C166.707 311.571 166.642 311.359 166.537 311.168C166.432 310.976 166.288 310.808 166.115 310.674C166.093 310.652 166.099 310.619 166.105 310.588C166.105 310.583 166.105 310.579 166.107 310.575L167.101 304.476L167.105 304.455C167.11 304.409 167.119 304.354 167.161 304.354C167.373 304.328 167.579 304.259 167.765 304.153C167.951 304.046 168.114 303.903 168.245 303.733C168.253 303.724 168.259 303.713 168.27 303.708C168.3 303.694 168.335 303.708 168.366 303.721L177.384 307.536H177.385ZM171.194 313.891L164.478 320.607L165.628 313.542L165.63 313.533C165.631 313.523 165.633 313.514 165.635 313.506C165.645 313.483 165.669 313.474 165.692 313.464L165.704 313.46C165.955 313.352 166.178 313.187 166.353 312.977C166.376 312.95 166.403 312.925 166.437 312.92C166.446 312.919 166.455 312.919 166.464 312.92L171.193 313.892L171.194 313.891ZM163.057 322.029L162.3 322.785L153.931 310.691C153.928 310.686 153.925 310.682 153.922 310.678C153.909 310.66 153.895 310.642 153.898 310.622C153.898 310.607 153.908 310.593 153.918 310.582L153.928 310.57C153.953 310.533 153.974 310.495 153.998 310.455L154.016 310.422L154.019 310.42C154.032 310.397 154.044 310.376 154.067 310.364C154.086 310.354 154.113 310.358 154.135 310.363L163.407 312.275C163.432 312.279 163.457 312.289 163.478 312.306C163.49 312.318 163.493 312.331 163.495 312.346C163.56 312.59 163.68 312.817 163.847 313.007C164.014 313.198 164.222 313.347 164.456 313.444C164.482 313.457 164.471 313.486 164.459 313.517C164.453 313.53 164.448 313.544 164.445 313.559C164.328 314.269 163.326 320.379 163.057 322.029ZM161.476 323.609C160.918 324.161 160.589 324.454 160.217 324.571C159.85 324.687 159.457 324.687 159.09 324.571C158.654 324.433 158.278 324.057 157.525 323.304L149.121 314.9L151.316 311.495C151.327 311.478 151.337 311.464 151.354 311.451C151.377 311.435 151.411 311.442 151.439 311.451C151.943 311.603 152.484 311.576 152.97 311.374C152.995 311.364 153.02 311.358 153.04 311.376C153.05 311.385 153.058 311.395 153.066 311.406L161.476 323.61V323.609ZM148.311 314.09L146.383 312.162L150.19 310.537C150.2 310.533 150.211 310.531 150.221 310.531C150.253 310.531 150.272 310.563 150.288 310.592C150.327 310.65 150.367 310.708 150.41 310.764L150.422 310.779C150.433 310.794 150.426 310.81 150.415 310.825L148.312 314.09H148.311ZM145.53 311.308L143.091 308.869C142.676 308.454 142.375 308.153 142.165 307.895L149.582 309.433C149.591 309.435 149.601 309.436 149.61 309.437C149.656 309.445 149.706 309.453 149.706 309.496C149.706 309.543 149.651 309.565 149.604 309.582L149.583 309.592L145.53 311.308ZM141.739 306.64C141.748 306.483 141.776 306.328 141.823 306.178C141.962 305.742 142.337 305.367 143.091 304.613L146.212 301.492C147.649 303.578 149.09 305.661 150.535 307.741C150.56 307.775 150.588 307.812 150.559 307.84C150.423 307.991 150.287 308.155 150.19 308.334C150.18 308.357 150.164 308.377 150.144 308.392C150.131 308.399 150.118 308.396 150.104 308.394H150.102L141.739 306.639V306.64ZM147.047 300.657L151.243 296.46C151.638 296.632 153.074 297.239 154.357 297.781C155.329 298.192 156.215 298.566 156.494 298.687C156.522 298.699 156.547 298.71 156.559 298.738C156.567 298.755 156.563 298.776 156.559 298.794C156.493 299.097 156.503 299.412 156.588 299.71C156.673 300.008 156.831 300.28 157.048 300.502C157.076 300.53 157.048 300.571 157.024 300.605L157.011 300.625L152.749 307.225C152.738 307.244 152.728 307.26 152.709 307.272C152.686 307.286 152.655 307.28 152.629 307.273C152.463 307.23 152.292 307.206 152.121 307.204C151.968 307.204 151.801 307.232 151.633 307.263H151.632C151.614 307.266 151.597 307.269 151.582 307.258C151.565 307.245 151.551 307.229 151.54 307.21L147.047 300.657H147.047ZM152.092 295.612L157.525 290.178C158.278 289.426 158.654 289.05 159.09 288.912C159.457 288.796 159.85 288.796 160.217 288.912C160.652 289.05 161.029 289.426 161.781 290.178L162.959 291.356L159.095 297.341C159.085 297.358 159.072 297.373 159.056 297.386C159.033 297.402 159 297.395 158.972 297.386C158.667 297.293 158.345 297.276 158.032 297.337C157.72 297.397 157.426 297.532 157.178 297.731C157.153 297.758 157.115 297.743 157.083 297.729C156.579 297.509 152.654 295.85 152.092 295.612V295.612ZM163.779 292.177L167.347 295.745L166.488 301.07V301.084C166.487 301.096 166.484 301.108 166.48 301.119C166.471 301.138 166.452 301.142 166.434 301.147C166.25 301.203 166.077 301.289 165.921 301.402C165.915 301.407 165.908 301.412 165.903 301.418C165.892 301.429 165.882 301.44 165.865 301.442C165.852 301.442 165.838 301.44 165.825 301.435L160.388 299.125L160.378 299.12C160.343 299.106 160.302 299.089 160.302 299.054C160.27 298.751 160.171 298.459 160.012 298.199C159.986 298.156 159.957 298.111 159.98 298.067L163.779 292.177ZM160.105 300.219L165.202 302.378C165.23 302.391 165.261 302.403 165.273 302.432C165.278 302.45 165.278 302.468 165.273 302.485C165.258 302.56 165.245 302.645 165.245 302.731V302.874C165.245 302.91 165.208 302.925 165.175 302.939L165.164 302.942C164.357 303.287 153.828 307.777 153.813 307.777C153.797 307.777 153.78 307.777 153.764 307.761C153.736 307.733 153.764 307.694 153.789 307.658C153.794 307.652 153.798 307.646 153.802 307.639L157.991 301.154L157.998 301.142C158.023 301.103 158.051 301.059 158.096 301.059L158.138 301.066C158.233 301.079 158.317 301.091 158.402 301.091C159.038 301.091 159.626 300.782 159.981 300.253C159.99 300.239 160.001 300.226 160.013 300.215C160.038 300.197 160.076 300.206 160.105 300.219V300.219ZM154.268 308.803L165.744 303.909C165.744 303.909 165.761 303.909 165.777 303.925C165.839 303.987 165.892 304.029 165.944 304.069L165.969 304.084C165.992 304.097 166.016 304.112 166.018 304.137C166.018 304.146 166.018 304.152 166.016 304.16L165.033 310.199L165.029 310.223C165.022 310.27 165.016 310.323 164.972 310.323C164.71 310.341 164.456 310.422 164.232 310.56C164.009 310.698 163.822 310.889 163.689 311.115L163.684 311.122C163.671 311.144 163.659 311.164 163.637 311.176C163.618 311.185 163.593 311.181 163.572 311.177L154.42 309.289C154.411 309.287 154.278 308.804 154.268 308.803V308.803Z" stroke="#350F70" stroke-width="7.76669" stroke-linecap="round" stroke-linejoin="round" mask="url(#path-15-outside-1_505_77)"/>
<path d="M178.096 105.952C154.087 129.834 121.259 150.971 98.5938 124.624C79.7333 103.074 79.4112 56.5376 93.8078 31.2389C99.392 21.5922 107.815 11.1175 117.791 7.70168C122.063 6.28704 125.867 11.0853 123.511 14.7265C110.703 37.3676 115.228 74.1541 136.082 96.8944C148.584 110.677 163.97 104.543 180.746 103.027C179.952 104.355 179.209 104.994 178.096 105.952Z" fill="#997A69" stroke="#350F70" stroke-width="7.5"/>
<path d="M85.838 91.0109C89.4452 85.6296 101.743 74.9099 122.079 75.0811" stroke="#350F70" stroke-width="6"/>
<path d="M83.7735 68.3718C88.1585 63.9003 101.146 56.0198 118.016 60.2689" stroke="#350F70" stroke-width="6"/>
<path d="M86.3762 46.2459C90.846 43.412 103.35 39.4508 117.608 46.2781" stroke="#350F70" stroke-width="6"/>
<path d="M94.4527 29.0032C98.8025 26.408 110.159 22.8364 120.786 29.3113" stroke="#350F70" stroke-width="6"/>
<path d="M159.033 104.52C179.204 131.721 208.505 157.526 234.853 134.861C256.721 116.371 263.993 70.405 253.538 43.2393C249.457 32.8666 242.694 21.251 233.34 16.383C229.328 14.346 224.849 18.5219 226.635 22.4743C235.917 46.775 225.945 82.4723 201.928 101.842C187.508 113.601 173.21 105.238 156.85 101.232C157.436 102.664 158.075 103.407 159.033 104.52Z" fill="#997A69" stroke="#350F70" stroke-width="7.5"/>
<path d="M252.486 103.531C249.724 97.6711 239.165 85.2342 219.033 82.3652" stroke="#350F70" stroke-width="6"/>
<path d="M257.91 81.4546C254.242 76.3783 242.578 66.6457 225.262 68.3265" stroke="#350F70" stroke-width="6"/>
<path d="M258.644 59.1882C254.648 55.7182 242.876 49.9334 227.758 54.5537" stroke="#350F70" stroke-width="6"/>
<path d="M253.233 40.9323C249.32 37.7164 238.624 32.4881 227.149 37.3025" stroke="#350F70" stroke-width="6"/>
<path d="M95.7901 151.944C105.723 141.342 99.0741 118.974 80.9393 101.984C62.8045 84.993 40.051 79.814 30.118 90.4159C20.1851 101.018 26.834 123.386 44.9688 140.377C63.1037 157.367 85.8571 162.546 95.7901 151.944Z" fill="#F0E1CE" stroke="#350F70" stroke-width="7.5"/>
<path d="M80.9983 123.177C91.3692 132.981 95.268 145.77 89.6238 151.594C83.9537 157.763 70.9932 154.707 60.6222 144.903C50.2513 135.099 46.3525 122.31 51.9967 116.486C57.6409 110.662 70.6273 113.373 80.9983 123.177Z" fill="#F1B5A6"/>
<path d="M256.19 115.245C235.694 129.326 225.776 150.448 233.921 162.168C242.039 174.232 265.424 172.518 285.92 158.438C306.416 144.358 316.334 123.235 308.189 111.516C299.725 99.4251 276.686 101.165 256.19 115.245Z" fill="#F0E1CE" stroke="#350F70" stroke-width="7.5"/>
<path d="M252.888 136.091C241.169 144.236 235.403 156.298 240.113 162.9C244.798 169.847 258.07 168.762 269.789 160.617C281.509 152.473 287.274 140.41 282.564 133.808C277.853 127.206 264.607 127.947 252.888 136.091Z" fill="#F1B5A6"/>
<path d="M148.562 90.0707C162.356 91.107 176.533 92.1721 190.327 93.2084C221.747 95.5689 256.205 121.086 260.272 149.01C263.021 173.969 263.693 198.89 261.891 222.868C259.856 249.96 233.719 284.997 186.375 284.306C165.606 283.788 144.914 282.234 124.301 279.643C77.3853 273.252 56.3612 235.097 58.4088 207.842C60.2297 183.604 65.0004 159.093 71.4476 134.825C79.6415 107.822 117.525 87.739 148.562 90.0707Z" fill="url(#paint0_linear_505_77)" stroke="#350F70" stroke-width="7.5"/>
<path d="M149.145 94.6365C162.329 95.627 175.88 96.645 189.064 97.6355C219.096 99.8916 252.126 123.009 256.129 148.166C258.859 170.649 259.605 193.088 257.984 214.668C256.152 239.051 231.324 270.486 186.084 269.667C166.238 269.114 146.461 267.628 126.755 265.21C81.9005 259.26 61.6532 224.821 63.496 200.292C65.1348 178.478 69.591 156.43 75.65 134.608C83.3666 110.331 119.48 92.4079 149.145 94.6365Z" fill="#F0E1CE"/>
<path d="M224.453 201.083C212.734 209.227 206.968 221.29 211.679 227.892C216.364 234.839 229.635 233.753 241.355 225.609C253.074 217.464 258.84 205.402 254.129 198.8C249.418 192.198 236.173 192.938 224.453 201.083Z" fill="#F1CBBA"/>
<path d="M100.331 191.758C110.702 201.562 114.601 214.351 108.956 220.175C103.286 226.344 90.3258 223.288 79.9548 213.484C69.5839 203.68 65.6851 190.891 71.3293 185.067C76.9734 179.243 89.9599 181.954 100.331 191.758Z" fill="#F1CBBA"/>
<path fill-rule="evenodd" clip-rule="evenodd" d="M180.09 148.857C175.606 154.614 170.01 157.898 164.179 157.46C158.393 157.026 153.384 153.001 149.815 146.723C144.354 149.203 138.567 149.647 133.341 147.508C120.881 142.406 116.655 124.733 123.845 107.571C130.42 91.3318 145.199 81.8396 157.418 85.7516C161.197 82.3239 165.498 80.5013 169.935 80.8346C174.401 81.1701 178.404 83.6437 181.639 87.6414C194.391 85.3758 207.755 97.0157 211.861 114.183C216.406 132.227 209.587 149.07 196.505 152.253C190.929 153.609 185.18 152.241 180.09 148.857Z" fill="#E3CBAB"/>
<path fill-rule="evenodd" clip-rule="evenodd" d="M181.02 136.491C176.535 142.249 170.939 145.533 165.109 145.095C159.323 144.66 154.313 140.636 150.744 134.358C145.284 136.838 139.497 137.282 134.27 135.142C121.811 130.041 117.585 112.368 124.775 95.2057C131.349 78.9666 146.129 69.4744 158.347 73.3864C162.126 69.9587 166.428 68.136 170.865 68.4694C175.33 68.8049 179.333 71.2784 182.569 75.2761C195.321 73.0106 208.685 84.6505 212.79 101.818C217.336 119.862 210.517 136.705 197.434 139.888C191.859 141.244 186.109 139.876 181.02 136.491Z" fill="url(#paint1_linear_505_77)"/>
<path d="M181.02 136.491L182.681 133.993L180.364 132.452L178.653 134.648L181.02 136.491ZM150.744 134.358L153.353 132.875L151.999 130.494L149.504 131.627L150.744 134.358ZM134.27 135.142L133.134 137.919L133.134 137.919L134.27 135.142ZM124.775 95.2057L127.542 96.3649L127.549 96.3482L127.556 96.3315L124.775 95.2057ZM158.347 73.3864L157.432 76.2435L159.081 76.7713L160.363 75.6085L158.347 73.3864ZM182.569 75.2761L180.236 77.1634L181.35 78.5396L183.093 78.2299L182.569 75.2761ZM212.79 101.818L209.873 102.516L209.877 102.533L209.881 102.551L212.79 101.818ZM197.434 139.888L196.725 136.973L197.434 139.888ZM178.653 134.648C174.521 139.953 169.798 142.439 165.333 142.104L164.884 148.087C172.081 148.627 178.55 144.544 183.387 138.335L178.653 134.648ZM165.333 142.104C160.903 141.771 156.637 138.654 153.353 132.875L148.136 135.841C151.989 142.618 157.743 147.55 164.884 148.087L165.333 142.104ZM149.504 131.627C144.646 133.833 139.729 134.135 135.407 132.366L133.134 137.919C139.265 140.429 145.922 139.843 151.985 137.09L149.504 131.627ZM135.407 132.366C130.275 130.265 126.62 125.499 125.072 119.002C123.523 112.496 124.16 104.437 127.542 96.3649L122.008 94.0464C118.2 103.136 117.355 112.495 119.236 120.392C121.118 128.297 125.806 134.918 133.134 137.919L135.407 132.366ZM127.556 96.3315C130.633 88.7296 135.595 82.8063 141.075 79.2575C146.562 75.7041 152.382 74.6263 157.432 76.2435L159.262 70.5293C152.095 68.2344 144.415 69.9467 137.814 74.2212C131.206 78.5002 125.491 85.4427 121.994 94.0799L127.556 96.3315ZM160.363 75.6085C163.704 72.5782 167.229 71.2047 170.64 71.461L171.09 65.4778C165.626 65.0674 160.549 67.3393 156.332 71.1643L160.363 75.6085ZM170.64 71.461C174.073 71.7188 177.374 73.6257 180.236 77.1634L184.901 73.3889C181.293 68.9311 176.588 65.8909 171.09 65.4778L170.64 71.461ZM215.708 101.12C213.525 91.9898 208.858 84.2229 202.899 79.0031C196.946 73.7878 189.528 70.9928 182.044 72.3224L183.093 78.2299C188.362 77.2939 194.002 79.1861 198.945 83.5163C203.883 87.8419 207.951 94.4787 209.873 102.516L215.708 101.12ZM198.144 142.803C205.837 140.931 211.462 135.084 214.504 127.549C217.544 120.022 218.107 110.642 215.699 101.085L209.881 102.551C212.019 111.038 211.445 119.102 208.941 125.303C206.44 131.496 202.114 135.662 196.725 136.973L198.144 142.803ZM179.359 138.989C185.003 142.743 191.601 144.394 198.144 142.803L196.725 136.973C192.116 138.094 187.216 137.009 182.681 133.993L179.359 138.989Z" fill="#350F70"/>
<path d="M96.6387 207.814C110.339 208.844 122.279 198.572 123.309 184.871C124.338 171.171 114.066 159.231 100.366 158.202C86.6658 157.172 74.7252 167.444 73.696 181.144C72.6667 194.844 82.9385 206.785 96.6387 207.814Z" fill="#E0A480"/>
<path d="M96.9628 203.459C109.46 204.398 120.352 195.028 121.291 182.53C122.23 170.033 112.86 159.141 100.363 158.202C87.8654 157.263 76.9733 166.633 76.0344 179.13C75.0955 191.628 84.4655 202.52 96.9628 203.459Z" fill="white" stroke="#350F70" stroke-width="4.08238" stroke-miterlimit="10"/>
<path d="M100.45 199.378C111.167 200.183 120.507 192.148 121.312 181.431C122.117 170.715 114.082 161.374 103.365 160.569C92.6486 159.764 83.3083 167.799 82.5032 178.516C81.698 189.233 89.733 198.573 100.45 199.378Z" stroke="#350F70" stroke-width="4.08238" stroke-miterlimit="10"/>
<path d="M100.867 198.308C111.399 199.1 120.578 191.203 121.369 180.671C122.16 170.139 114.264 160.96 103.732 160.169C93.2 159.378 84.0207 167.274 83.2295 177.806C82.4382 188.338 90.3347 197.517 100.867 198.308Z" fill="#350F70"/>
<ellipse cx="93.7195" cy="166.741" rx="4.58392" ry="2.71616" transform="rotate(-25.7036 93.7195 166.741)" fill="white"/>
<ellipse cx="109.427" cy="193.35" rx="2.3058" ry="1.48615" transform="rotate(-40.7036 109.427 193.35)" fill="white"/>
<path d="M225.078 217.463C238.778 218.493 250.719 208.221 251.748 194.521C252.777 180.82 242.506 168.88 228.805 167.851C215.105 166.821 203.165 177.093 202.135 190.793C201.106 204.494 211.378 216.434 225.078 217.463Z" fill="#E0A480"/>
<path d="M225.405 213.108C237.902 214.047 248.795 204.677 249.733 192.179C250.672 179.682 241.302 168.79 228.805 167.851C216.308 166.912 205.416 176.282 204.477 188.779C203.538 201.277 212.908 212.169 225.405 213.108Z" fill="white" stroke="#350F70" stroke-width="4.08238" stroke-miterlimit="10"/>
<path d="M228.894 209.027C239.611 209.832 248.951 201.797 249.756 191.08C250.561 180.363 242.526 171.023 231.81 170.218C221.093 169.413 211.753 177.448 210.947 188.165C210.142 198.881 218.177 208.222 228.894 209.027Z" stroke="#350F70" stroke-width="4.08238" stroke-miterlimit="10"/>
<path d="M229.31 207.957C239.842 208.749 249.021 200.852 249.813 190.32C250.604 179.788 242.707 170.609 232.175 169.818C221.643 169.026 212.464 176.923 211.673 187.455C210.882 197.987 218.778 207.166 229.31 207.957Z" fill="#350F70"/>
<ellipse cx="222.162" cy="176.39" rx="4.58392" ry="2.71616" transform="rotate(-25.7036 222.162 176.39)" fill="white"/>
<ellipse cx="237.871" cy="203" rx="2.3058" ry="1.48615" transform="rotate(-40.7036 237.871 203)" fill="white"/>
<path d="M179.655 204.399C179.687 201.052 168.792 198.254 164.418 197.926C160.045 197.597 148.745 198.727 148.385 202.05C148.026 205.372 147.953 207.803 150.459 211.036C152.965 214.269 159.533 223.441 162.485 223.663C165.546 223.893 173.422 215.654 176.262 212.974C179.223 210.152 179.623 207.746 179.655 204.399Z" fill="#350F70"/>
<path d="M138.524 225.277C138.023 224.17 136.72 223.679 135.614 224.18C134.508 224.681 134.017 225.984 134.517 227.09L138.524 225.277ZM164.429 221.665C164.52 220.455 163.612 219.399 162.401 219.308C161.19 219.217 160.134 220.125 160.044 221.336L164.429 221.665ZM134.517 227.09C137.91 234.585 145.179 237.142 151.608 235.878C157.998 234.622 163.837 229.536 164.429 221.665L160.044 221.336C159.623 226.936 155.518 230.628 150.76 231.563C146.041 232.491 140.958 230.654 138.524 225.277L134.517 227.09Z" fill="#E4CCAC"/>
<path d="M185.626 228.815C186.286 227.796 187.647 227.505 188.667 228.166C189.686 228.826 189.976 230.188 189.316 231.207L185.626 228.815ZM160.551 221.374C160.642 220.163 161.697 219.255 162.908 219.346C164.119 219.437 165.027 220.493 164.936 221.704L160.551 221.374ZM189.316 231.207C184.842 238.111 177.272 239.553 171.104 237.343C164.974 235.146 159.96 229.245 160.551 221.374L164.936 221.704C164.515 227.303 168.023 231.567 172.588 233.203C177.115 234.825 182.415 233.769 185.626 228.815L189.316 231.207Z" fill="#E4CCAC"/>
<path d="M138.613 223.071C138.039 222.001 136.705 221.6 135.636 222.175C134.566 222.75 134.165 224.083 134.74 225.153L138.613 223.071ZM164.514 220.542C164.605 219.331 163.697 218.275 162.486 218.184C161.275 218.093 160.219 219.001 160.128 220.212L164.514 220.542ZM134.74 225.153C138.279 231.738 145.54 233.882 151.753 232.899C157.925 231.923 163.978 227.673 164.514 220.542L160.128 220.212C159.798 224.611 156.009 227.774 151.066 228.556C146.163 229.331 141.035 227.577 138.613 223.071L134.74 225.153Z" fill="#350F70"/>
<path d="M185.867 226.621C186.596 225.649 187.974 225.452 188.945 226.18C189.917 226.908 190.115 228.286 189.386 229.258L185.867 226.621ZM160.636 220.25C160.727 219.039 161.782 218.131 162.993 218.222C164.204 218.313 165.112 219.369 165.021 220.58L160.636 220.25ZM189.386 229.258C184.903 235.241 177.403 236.275 171.407 234.376C165.45 232.488 160.1 227.382 160.636 220.25L165.021 220.58C164.69 224.978 167.964 228.672 172.735 230.183C177.467 231.683 182.8 230.715 185.867 226.621L189.386 229.258Z" fill="#350F70"/>
<defs>
<linearGradient id="paint0_linear_505_77" x1="155.974" y1="274.689" x2="169.728" y2="91.6171" gradientUnits="userSpaceOnUse">
<stop stop-color="#E3CBAA"/>
<stop offset="1" stop-color="#F0E1CE"/>
</linearGradient>
<linearGradient id="paint1_linear_505_77" x1="164.378" y1="105.754" x2="214.563" y2="109.524" gradientUnits="userSpaceOnUse">
<stop stop-color="#F0D7B6"/>
<stop offset="1" stop-color="#F0D7B6"/>
</linearGradient>
</defs>
</svg>
