<svg width="90" height="90" viewBox="0 0 288 326" fill="none" xmlns="http://www.w3.org/2000/svg">
<path opacity="0.3" d="M236.16 38.641C210.118 16.7021 154.417 15.077 144.289 15.077C134.162 15.077 78.461 16.7021 52.4189 38.641C26.3769 60.5799 15.8154 84.9565 15.8154 123.417C15.8154 161.878 17.5515 199.526 17.5515 199.526C17.5515 199.526 41.4234 221.871 71.3717 225.528C101.465 229.184 97.8478 222.278 101.899 217.267C105.805 212.256 111.592 210.225 131.558 210.225H144.434H157.31C177.131 210.225 182.918 212.256 186.969 217.267C190.876 222.278 187.404 229.32 217.497 225.528C247.59 221.871 271.317 199.526 271.317 199.526C271.317 199.526 273.053 161.878 273.053 123.417C272.908 84.9565 262.202 60.5799 236.16 38.641Z" fill="#27AAE1"/>
<ellipse opacity="0.1" cx="147.147" cy="314.139" rx="102.75" ry="11.814" fill="black"/>
<path d="M63.8318 313.025C75.6967 318.266 86.2869 305.501 90.0989 298.463L58.9099 285.952C55.6069 292.792 51.967 307.784 63.8318 313.025Z" fill="#350F70"/>
<path d="M90.0989 298.463L93.3212 300.208L95.2796 296.593L91.4633 295.062L90.0989 298.463ZM58.9099 285.952L60.2743 282.551C58.486 281.833 56.4477 282.623 55.6099 284.358L58.9099 285.952ZM86.8767 296.718C85.1464 299.912 81.8638 304.394 77.8026 307.405C73.7863 310.383 69.5872 311.561 65.3126 309.673L62.3511 316.377C69.9413 319.73 76.9697 317.146 82.1678 313.292C87.3209 309.471 91.2395 304.052 93.3212 300.208L86.8767 296.718ZM65.3126 309.673C61.0511 307.791 59.4774 304.294 59.3458 299.977C59.2089 295.486 60.7243 290.622 62.2099 287.545L55.6099 284.358C53.7925 288.122 51.8364 294.175 52.0201 300.2C52.209 306.398 54.7478 313.019 62.3511 316.377L65.3126 309.673ZM91.4633 295.062L60.2743 282.551L57.5456 289.353L88.7346 301.864L91.4633 295.062Z" fill="#350F70"/>
<path d="M229.818 312.835C218.079 318.354 207.192 305.84 203.216 298.894L234.102 285.654C237.565 292.415 241.556 307.317 229.818 312.835Z" fill="#350F70"/>
<path d="M203.216 298.894L200.035 300.715L197.993 297.146L201.772 295.526L203.216 298.894ZM234.102 285.654L232.659 282.286C234.43 281.527 236.486 282.269 237.364 283.983L234.102 285.654ZM206.396 297.074C208.201 300.227 211.588 304.63 215.719 307.545C219.804 310.427 224.03 311.507 228.259 309.519L231.377 316.152C223.867 319.682 216.78 317.264 211.493 313.533C206.252 309.834 202.207 304.508 200.035 300.715L206.396 297.074ZM228.259 309.519C232.475 307.537 233.966 304.005 233.996 299.685C234.027 295.192 232.398 290.366 230.841 287.324L237.364 283.983C239.269 287.704 241.367 293.709 241.325 299.736C241.282 305.938 238.899 312.615 231.377 316.152L228.259 309.519ZM201.772 295.526L232.659 282.286L235.546 289.022L204.66 302.262L201.772 295.526Z" fill="#350F70"/>
<path d="M88.6283 65.7465C91.3377 68.6506 93.5878 71.8515 95.3779 75.2393C110.382 69.1969 126.84 66.0549 144.275 66.0549C161.709 66.0549 178.167 69.1969 193.172 75.2393C194.962 71.8515 197.212 68.6506 199.922 65.7465C215.236 49.329 239.397 48.6114 253.886 64.1436C268.376 79.6759 267.706 105.576 252.391 121.994C251.884 122.538 251.367 123.064 250.84 123.574C267.457 149.364 277.111 183.162 277.111 223.604C277.111 302.379 188.554 319.548 144.275 318.285C99.9963 319.548 11.439 302.379 11.439 223.604C11.439 183.162 21.0933 149.364 37.7096 123.574C37.1831 123.064 36.666 122.538 36.1588 121.994C20.844 105.576 20.174 79.6759 34.6636 64.1436C49.1525 48.6114 73.3134 49.329 88.6283 65.7465Z" fill="#F7C47E"/>
<path d="M267.146 190.025C271.712 205.249 273.975 224.856 270.596 248.77C262.995 302.565 183.739 311.705 144.863 309.55C105.986 311.705 26.7311 302.565 19.1294 248.77C15.7468 224.832 18.0179 205.209 22.5935 189.979C53.204 193.427 61.344 172.265 69.4826 151.103C77.6796 129.791 94.6205 122.14 114.839 128.151C130.025 132.666 140.619 133.039 144.722 132.615V132.523C144.834 132.541 144.954 132.558 145.082 132.574C145.209 132.558 145.329 132.541 145.441 132.523V132.615C149.544 133.039 160.139 132.666 175.324 128.151C195.543 122.14 212.483 129.791 220.681 151.103C228.781 172.167 236.883 193.232 267.146 190.025Z" fill="white"/>
<path d="M149.287 280.927C67.2212 280.927 28.8144 252.311 19.8691 238.004C19.8691 252.467 28.9586 310.787 149.287 310.787C245.549 310.787 269.038 262.265 268.75 238.004C263.123 252.311 231.353 280.927 149.287 280.927Z" fill="#ECECEC"/>
<path d="M144.276 254.833V316.147" stroke="#350F70" stroke-width="6.2588"/>
<path d="M101.402 93.7731C107.333 93.7731 110.59 96.4478 114.311 100.867C118.033 105.286 116.521 110.171 109.427 110.403C102.333 110.636 96.2855 106.798 94.89 102.96C93.4945 99.1226 95.4715 93.7731 101.402 93.7731Z" fill="#FBE9C8"/>
<path d="M189.309 93.7731C183.378 93.7731 180.122 96.4478 176.4 100.867C172.679 105.286 174.191 110.171 181.285 110.403C188.379 110.636 194.426 106.798 195.821 102.96C197.217 99.1226 195.24 93.7731 189.309 93.7731Z" fill="#FBE9C8"/>
<ellipse cx="62.2892" cy="93.7726" rx="14.9113" ry="12.1811" fill="#FFA6A6"/>
<ellipse cx="226.986" cy="93.7726" rx="14.9113" ry="12.1811" fill="#FFA6A6"/>
<path fill-rule="evenodd" clip-rule="evenodd" d="M121.851 143.475C121.354 146.385 122.533 152.206 131.222 152.206C139.909 152.206 143.785 148.942 144.638 147.309C145.491 148.942 149.367 152.206 158.054 152.206C166.743 152.206 167.922 146.385 167.425 143.475C158.736 152.333 148.614 146.173 144.638 141.985V141.984C144.638 141.984 144.638 141.984 144.638 141.984C144.638 141.984 144.638 141.984 144.637 141.984V141.985C140.662 146.173 130.54 152.333 121.851 143.475Z" fill="#ECECEC"/>
<g style="">
<ellipse cx="77.8568" cy="142.161" rx="32.8475" ry="35.6864" transform="rotate(19.331 77.8568 142.161)" fill="#ECECEC"/>
</g>
<g style="">
<ellipse rx="32.8475" ry="35.6864" transform="matrix(-0.943622 0.331025 0.331025 0.943622 211.418 142.161)" fill="#ECECEC"/>
</g>
<path d="M48.6558 85.7668C55.946 82.5856 72.1171 80.2792 78.4793 96.5032" stroke="#38189B" stroke-width="5.86331" stroke-linecap="round" stroke-linejoin="round"/>
<path d="M240.621 85.7668C233.331 82.5856 217.16 80.2792 210.798 96.5032" stroke="#38189B" stroke-width="5.86331" stroke-linecap="round" stroke-linejoin="round"/>
<path d="M123.829 140.527C123.176 139.504 121.816 139.204 120.793 139.857C119.769 140.51 119.469 141.87 120.122 142.893L123.829 140.527ZM146.611 136.702C146.611 135.488 145.627 134.504 144.412 134.504C143.198 134.504 142.214 135.488 142.214 136.702H146.611ZM120.122 142.893C123.762 148.596 130.45 150.022 135.953 148.723C141.416 147.434 146.611 143.201 146.611 136.702H142.214C142.214 140.46 139.195 143.439 134.943 144.443C130.73 145.438 126.199 144.24 123.829 140.527L120.122 142.893Z" fill="#38189B"/>
<path d="M165.446 140.527C166.1 139.504 167.459 139.204 168.483 139.857C169.506 140.51 169.807 141.87 169.153 142.893L165.446 140.527ZM142.664 136.702C142.664 135.488 143.649 134.503 144.863 134.503C146.077 134.503 147.062 135.488 147.062 136.702H142.664ZM169.153 142.893C165.513 148.596 158.826 150.022 153.322 148.723C147.859 147.433 142.664 143.201 142.664 136.702H147.062C147.062 140.46 150.08 143.439 154.333 144.443C158.546 145.438 163.076 144.24 165.446 140.527L169.153 142.893Z" fill="#38189B"/>
<path d="M44.0575 147.536C42.285 146.559 40.0562 147.204 39.0792 148.976C38.1023 150.749 38.7472 152.977 40.5197 153.954L44.0575 147.536ZM56.1356 162.561C57.9081 163.538 60.1369 162.893 61.1139 161.121C62.0908 159.349 61.4459 157.12 59.6734 156.143L56.1356 162.561ZM40.5197 153.954L56.1356 162.561L59.6734 156.143L44.0575 147.536L40.5197 153.954Z" fill="#38189B"/>
<path d="M245.217 147.536C246.99 146.559 249.219 147.204 250.196 148.976C251.173 150.749 250.528 152.977 248.755 153.954L245.217 147.536ZM233.139 162.561C231.367 163.538 229.138 162.893 228.161 161.121C227.184 159.349 227.829 157.12 229.601 156.143L233.139 162.561ZM248.755 153.954L233.139 162.561L229.601 156.143L245.217 147.536L248.755 153.954Z" fill="#38189B"/>
<path d="M37.6627 161.857C35.689 161.409 33.726 162.646 33.2783 164.62C32.8306 166.593 34.0676 168.556 36.0414 169.004L37.6627 161.857ZM53.4305 172.949C55.4042 173.396 57.3672 172.159 57.8149 170.186C58.2626 168.212 57.0256 166.249 55.0518 165.801L53.4305 172.949ZM36.0414 169.004L53.4305 172.949L55.0518 165.801L37.6627 161.857L36.0414 169.004Z" fill="#38189B"/>
<path d="M251.613 161.857C253.587 161.409 255.55 162.646 255.998 164.62C256.445 166.593 255.208 168.556 253.234 169.004L251.613 161.857ZM235.845 172.949C233.872 173.396 231.909 172.159 231.461 170.186C231.013 168.212 232.25 166.249 234.224 165.801L235.845 172.949ZM253.234 169.004L235.845 172.949L234.224 165.801L251.613 161.857L253.234 169.004Z" fill="#38189B"/>
<path d="M104.38 148.469C98.8628 164.198 82.8579 172.425 68.9523 167.547C55.0467 162.669 47.689 146.246 53.2067 130.517C58.7244 114.789 74.7293 106.562 88.6348 111.44C102.54 116.318 109.898 132.74 104.38 148.469Z" fill="white" stroke="#38189B" stroke-width="6.2588"/>
<ellipse cx="75.701" cy="137.103" rx="23.737" ry="25.7886" transform="rotate(19.331 75.701 137.103)" fill="#38189B"/>
<ellipse rx="5.40746" ry="3.3395" transform="matrix(0.734121 -0.679019 0.624644 0.780909 64.0889 124.003)" fill="white"/>
<ellipse rx="2.77811" ry="1.79056" transform="matrix(0.529311 -0.848428 0.801744 0.597668 89.9988 151.471)" fill="white"/>
<path d="M184.894 148.47C190.412 164.198 206.417 172.425 220.323 167.547C234.228 162.669 241.586 146.247 236.068 130.518C230.551 114.789 214.546 106.562 200.64 111.44C186.735 116.318 179.377 132.741 184.894 148.47Z" fill="white" stroke="#38189B" stroke-width="6.2588"/>
<ellipse rx="23.737" ry="25.7886" transform="matrix(-0.943622 0.331025 0.331025 0.943622 213.572 137.103)" fill="#38189B"/>
<ellipse rx="5.40746" ry="3.3395" transform="matrix(-0.679019 0.734121 0.780909 0.624644 200.009 125.723)" fill="white"/>
<ellipse rx="2.77811" ry="1.79056" transform="matrix(-0.848428 0.529311 0.597668 0.801744 227.477 151.633)" fill="white"/>
<path d="M283.18 181.318C282.023 174.663 271.751 165.114 271.751 165.114C271.461 176.11 271.027 183.054 271.027 183.054C271.027 183.054 247.155 206.926 217.207 210.832C187.114 214.739 190.731 207.36 186.68 202.007C182.774 196.654 176.987 194.484 157.021 194.484H144.145H131.268C111.447 194.484 105.66 196.654 101.609 202.007C97.7031 207.36 101.175 214.883 71.0823 210.832C40.9893 206.926 17.2621 183.054 17.2621 183.054C17.2621 183.054 16.9728 176.11 16.5388 165.114C16.5388 165.114 6.26658 174.663 5.10916 181.318C3.95174 187.973 6.98996 193.182 6.98996 193.182C6.98996 193.182 27.1003 249.895 143.855 249.895C240.934 249.895 273.632 210.254 281.878 196.943C283.47 194.484 284.048 191.445 283.759 188.552L283.18 181.318Z" fill="#43B4D8" stroke="#43B4D8" stroke-width="6.32202" stroke-miterlimit="10" stroke-linecap="round" stroke-linejoin="round"/>
<g opacity="0.1">
<path opacity="0.1" d="M275.512 168.881C274.355 162.66 270.593 161.792 270.593 161.792C270.304 172.208 264.083 178.719 264.083 178.719C264.083 178.719 241.513 201.289 213.156 205.05C184.799 208.812 188.127 201.723 184.365 196.659C180.603 191.595 175.25 189.57 156.442 189.57H144.289H132.136C113.328 189.57 107.975 191.595 104.213 196.659C100.452 201.723 103.779 208.812 75.4225 205.05C47.0656 201.289 24.4959 178.719 24.4959 178.719C24.4959 178.719 19.1428 172.208 18.8534 161.792C18.8534 161.792 14.2237 162.66 13.0663 168.881C11.9089 175.102 11.7642 187.689 11.7642 187.689C11.7642 187.689 34.0446 241.799 144.289 241.799C254.679 241.799 276.814 187.689 276.814 187.689C276.814 187.689 276.67 175.102 275.512 168.881Z" fill="#350F70"/>
</g>
<path d="M144.289 3.49817C28.5471 3.49817 15.8154 73.3776 15.8154 111.838C15.8154 150.299 17.5515 187.947 17.5515 187.947C17.5515 187.947 41.4234 210.293 71.3717 213.949C101.465 217.606 97.8478 210.699 101.899 205.688C105.805 200.677 111.592 198.646 131.558 198.646H144.434H157.31C177.131 198.646 182.918 200.677 186.969 205.688C190.876 210.699 187.404 217.741 217.497 213.949C247.59 210.293 271.317 187.947 271.317 187.947C271.317 187.947 273.053 150.299 273.053 111.838C272.908 73.3776 260.032 3.49817 144.289 3.49817Z" stroke="#43B4D8" stroke-width="6.32202" stroke-miterlimit="10" stroke-linecap="round" stroke-linejoin="round"/>
<path fill-rule="evenodd" clip-rule="evenodd" d="M91.5151 85.7912L87.9995 79.138C86.545 76.3852 84.7202 73.7906 82.5265 71.4393L82.5261 71.4389C70.1757 58.1993 51.6296 58.1899 40.7659 69.836L40.7657 69.8361C29.5313 81.8789 29.6646 102.798 42.261 116.301L42.2632 116.304C42.6724 116.743 43.0894 117.167 43.5133 117.578L48.4326 122.339L44.7247 128.094C29.1208 152.312 19.784 184.476 19.784 223.604C19.784 259.029 39.3422 280.54 65.0155 293.51C91.0877 306.682 122.811 310.549 144.037 309.944L144.275 309.937L144.513 309.944C165.739 310.549 197.462 306.682 223.534 293.51C249.208 280.54 268.766 259.029 268.766 223.604C268.766 184.476 259.429 152.312 243.825 128.094L240.117 122.339L245.037 117.578C245.461 117.167 245.877 116.743 246.287 116.304L246.289 116.301C258.885 102.798 259.019 81.8789 247.784 69.8361L247.784 69.836C236.92 58.1899 218.374 58.1993 206.024 71.4389L206.023 71.4393C203.83 73.7906 202.005 76.3852 200.55 79.138L197.035 85.7912L190.055 82.9802C176.093 77.3578 160.699 74.4 144.275 74.4C127.851 74.4 112.457 77.3578 98.4952 82.9802L91.5151 85.7912ZM193.172 75.2393C178.167 69.1969 161.709 66.0549 144.275 66.0549C126.84 66.0549 110.382 69.1969 95.3779 75.2393C93.5878 71.8515 91.3377 68.6506 88.6283 65.7465C73.3134 49.329 49.1525 48.6114 34.6636 64.1436C20.174 79.6759 20.844 105.576 36.1588 121.994C36.666 122.538 37.1831 123.064 37.7096 123.574C21.0933 149.364 11.439 183.162 11.439 223.604C11.439 302.379 99.9963 319.548 144.275 318.285C188.554 319.548 277.111 302.379 277.111 223.604C277.111 183.162 267.457 149.364 250.84 123.574C251.367 123.064 251.884 122.538 252.391 121.994C267.706 105.576 268.376 79.6759 253.886 64.1436C239.397 48.6114 215.236 49.329 199.922 65.7465C197.212 68.6506 194.962 71.8515 193.172 75.2393ZM34.678 64.157L34.6636 64.1436L34.678 64.157Z" fill="url(#paint0_linear_1725_1532)"/>
<path d="M283.183 175.749C282.027 169.107 271.776 168.24 271.776 168.24C271.487 179.214 271.054 186.145 271.054 186.145C271.054 186.145 247.228 209.97 217.339 213.869C187.305 217.768 190.915 210.404 186.872 205.061C182.973 199.718 177.197 197.552 157.271 197.552H144.42H131.568C111.786 197.552 106.011 199.718 101.968 205.061C98.0689 210.404 101.534 217.912 71.5002 213.869C41.4662 209.97 17.7855 186.145 17.7855 186.145C17.7855 186.145 17.4967 179.214 17.0636 168.24C17.0636 168.24 6.8115 169.107 5.65635 175.749C4.50119 182.391 4.2124 195.675 4.2124 195.675C4.2124 195.675 27.7487 252.856 144.275 252.856C260.802 252.856 284.338 195.675 284.338 195.675C284.338 195.675 284.338 182.391 283.183 175.749Z" fill="#F7F8F8" stroke="#350F70" stroke-width="6.78037" stroke-miterlimit="10" stroke-linecap="round" stroke-linejoin="round"/>
<mask id="path-39-outside-1_1725_1532" maskUnits="userSpaceOnUse" x="122.378" y="250.833" width="44" height="44" fill="black">
<rect fill="white" x="122.378" y="250.833" width="44" height="44"/>
<path d="M152.319 267.268L152.306 267.263C152.298 267.26 152.291 267.257 152.284 267.251C152.274 267.239 152.266 267.225 152.261 267.21C152.257 267.195 152.256 267.179 152.258 267.164L152.981 262.747L156.368 266.136L152.845 267.635C152.835 267.639 152.825 267.641 152.814 267.64H152.8C152.795 267.638 152.791 267.634 152.781 267.624C152.65 267.478 152.494 267.358 152.319 267.268ZM157.233 266.999L160.855 270.622C161.607 271.375 161.984 271.75 162.121 272.186C162.142 272.25 162.159 272.315 162.172 272.381L153.515 268.715C153.51 268.713 153.506 268.711 153.501 268.709C153.466 268.695 153.426 268.68 153.426 268.644C153.426 268.609 153.467 268.592 153.502 268.578L153.513 268.573L157.233 266.999ZM162.024 273.544C161.837 273.895 161.473 274.26 160.856 274.877L156.772 278.96L151.49 277.86L151.462 277.855C151.415 277.847 151.366 277.839 151.366 277.797C151.346 277.579 151.281 277.368 151.176 277.176C151.07 276.984 150.927 276.816 150.754 276.682C150.732 276.661 150.738 276.627 150.744 276.596C150.744 276.591 150.744 276.587 150.746 276.583L151.739 270.484L151.743 270.464C151.749 270.417 151.757 270.363 151.799 270.363C152.012 270.336 152.218 270.268 152.404 270.161C152.59 270.054 152.753 269.912 152.883 269.741C152.892 269.732 152.897 269.722 152.909 269.716C152.938 269.702 152.974 269.716 153.005 269.729L162.024 273.544ZM155.833 279.9L149.117 286.615L150.267 279.55L150.268 279.541C150.269 279.531 150.271 279.522 150.274 279.514C150.283 279.491 150.308 279.482 150.331 279.473L150.342 279.468C150.594 279.361 150.817 279.195 150.992 278.985C151.014 278.959 151.041 278.933 151.076 278.929C151.085 278.927 151.094 278.927 151.103 278.929L155.832 279.901L155.833 279.9ZM147.696 288.037L146.939 288.794L138.57 276.699C138.567 276.694 138.564 276.69 138.561 276.686C138.547 276.668 138.533 276.65 138.536 276.63C138.536 276.615 138.547 276.602 138.557 276.59L138.566 276.578C138.591 276.541 138.613 276.504 138.636 276.463L138.655 276.431L138.658 276.428C138.671 276.405 138.683 276.384 138.705 276.372C138.725 276.362 138.752 276.366 138.774 276.371L148.045 278.283C148.071 278.287 148.096 278.298 148.116 278.314C148.128 278.326 148.131 278.339 148.134 278.354C148.199 278.599 148.319 278.825 148.486 279.016C148.652 279.206 148.861 279.355 149.095 279.452C149.121 279.465 149.11 279.494 149.098 279.525C149.091 279.538 149.087 279.553 149.083 279.567C148.967 280.277 147.965 286.387 147.696 288.037ZM146.114 289.617C145.557 290.169 145.228 290.462 144.856 290.58C144.489 290.696 144.095 290.696 143.729 290.58C143.293 290.441 142.916 290.066 142.164 289.312L133.76 280.908L135.955 277.503C135.965 277.487 135.976 277.472 135.992 277.46C136.016 277.443 136.049 277.45 136.078 277.46C136.581 277.612 137.122 277.584 137.608 277.382C137.634 277.373 137.659 277.366 137.678 277.384C137.688 277.393 137.697 277.403 137.705 277.414L146.114 289.617ZM132.95 280.098L131.022 278.17L134.829 276.546C134.839 276.541 134.849 276.539 134.86 276.539C134.892 276.539 134.91 276.571 134.927 276.6C134.965 276.659 135.006 276.716 135.049 276.772L135.061 276.787C135.072 276.803 135.064 276.818 135.053 276.833L132.95 280.098ZM130.168 277.317L127.729 274.877C127.314 274.463 127.013 274.162 126.804 273.903L134.221 275.441C134.23 275.443 134.239 275.444 134.249 275.446C134.294 275.453 134.345 275.462 134.345 275.505C134.345 275.551 134.29 275.573 134.243 275.59L134.222 275.6L130.168 277.317ZM126.378 272.649C126.386 272.491 126.415 272.336 126.462 272.186C126.6 271.75 126.976 271.375 127.729 270.622L130.851 267.5C132.288 269.586 133.729 271.669 135.174 273.749C135.199 273.783 135.227 273.82 135.198 273.849C135.062 273.999 134.925 274.163 134.829 274.342C134.819 274.365 134.802 274.385 134.782 274.4C134.77 274.407 134.757 274.405 134.743 274.402H134.741L126.378 272.649ZM131.686 266.665L135.881 262.468C136.277 262.641 137.713 263.247 138.996 263.789C139.968 264.2 140.854 264.574 141.132 264.696C141.16 264.707 141.186 264.718 141.198 264.746C141.205 264.763 141.202 264.784 141.198 264.802C141.131 265.105 141.141 265.42 141.227 265.718C141.312 266.016 141.47 266.289 141.687 266.511C141.715 266.539 141.687 266.579 141.662 266.613L141.649 266.633L137.388 273.234C137.377 273.252 137.366 273.268 137.348 273.28C137.325 273.294 137.293 273.288 137.267 273.281C137.101 273.238 136.931 273.215 136.76 273.212C136.606 273.212 136.44 273.24 136.272 273.271C136.253 273.274 136.235 273.278 136.22 273.266C136.204 273.253 136.19 273.237 136.178 273.219L131.686 266.665ZM136.731 261.62L142.164 256.187C142.916 255.434 143.293 255.058 143.729 254.92C144.095 254.804 144.489 254.804 144.856 254.92C145.291 255.058 145.668 255.434 146.42 256.187L147.598 257.364L143.733 263.349C143.724 263.366 143.711 263.382 143.695 263.394C143.672 263.41 143.639 263.403 143.611 263.394C143.306 263.301 142.984 263.285 142.671 263.345C142.358 263.405 142.065 263.541 141.817 263.74C141.791 263.766 141.754 263.751 141.722 263.737C141.217 263.517 137.292 261.858 136.731 261.62ZM148.418 258.185L151.986 261.753L151.126 267.078V267.092C151.126 267.104 151.123 267.116 151.119 267.127C151.11 267.146 151.091 267.15 151.072 267.155C150.888 267.211 150.715 267.297 150.56 267.41C150.553 267.415 150.547 267.421 150.541 267.426C150.531 267.438 150.521 267.448 150.504 267.45C150.49 267.45 150.477 267.448 150.464 267.443L145.027 265.133L145.016 265.128C144.982 265.114 144.941 265.097 144.941 265.062C144.909 264.759 144.81 264.467 144.651 264.207C144.625 264.164 144.596 264.119 144.618 264.075L148.418 258.185ZM144.743 266.227L149.84 268.386C149.869 268.399 149.899 268.411 149.911 268.44C149.916 268.458 149.916 268.476 149.911 268.494C149.897 268.568 149.883 268.653 149.883 268.739V268.882C149.883 268.918 149.847 268.933 149.813 268.947L149.803 268.951C148.996 269.295 138.467 273.785 138.451 273.785C138.435 273.785 138.419 273.785 138.403 273.769C138.375 273.741 138.403 273.702 138.428 273.666C138.432 273.66 138.437 273.654 138.441 273.648L142.63 267.162L142.637 267.151C142.661 267.111 142.689 267.067 142.734 267.067L142.776 267.074C142.872 267.087 142.956 267.099 143.041 267.099C143.676 267.099 144.265 266.79 144.62 266.261C144.629 266.247 144.639 266.234 144.652 266.224C144.677 266.205 144.715 266.214 144.743 266.227ZM138.906 274.811L150.383 269.917C150.383 269.917 150.399 269.917 150.415 269.933C150.478 269.995 150.531 270.037 150.582 270.077L150.608 270.093C150.631 270.106 150.654 270.121 150.656 270.145C150.656 270.154 150.656 270.16 150.654 270.168L149.671 276.207L149.668 276.232C149.661 276.278 149.654 276.332 149.611 276.332C149.348 276.349 149.095 276.431 148.871 276.569C148.647 276.706 148.461 276.897 148.327 277.123L148.323 277.131C148.31 277.152 148.298 277.173 148.276 277.184C148.256 277.193 148.231 277.189 148.211 277.185L139.059 275.297C139.049 275.295 138.917 274.812 138.906 274.811Z"/>
</mask>
<path d="M152.319 267.268L152.306 267.263C152.298 267.26 152.291 267.257 152.284 267.251C152.274 267.239 152.266 267.225 152.261 267.21C152.257 267.195 152.256 267.179 152.258 267.164L152.981 262.747L156.368 266.136L152.845 267.635C152.835 267.639 152.825 267.641 152.814 267.64H152.8C152.795 267.638 152.791 267.634 152.781 267.624C152.65 267.478 152.494 267.358 152.319 267.268ZM157.233 266.999L160.855 270.622C161.607 271.375 161.984 271.75 162.121 272.186C162.142 272.25 162.159 272.315 162.172 272.381L153.515 268.715C153.51 268.713 153.506 268.711 153.501 268.709C153.466 268.695 153.426 268.68 153.426 268.644C153.426 268.609 153.467 268.592 153.502 268.578L153.513 268.573L157.233 266.999ZM162.024 273.544C161.837 273.895 161.473 274.26 160.856 274.877L156.772 278.96L151.49 277.86L151.462 277.855C151.415 277.847 151.366 277.839 151.366 277.797C151.346 277.579 151.281 277.368 151.176 277.176C151.07 276.984 150.927 276.816 150.754 276.682C150.732 276.661 150.738 276.627 150.744 276.596C150.744 276.591 150.744 276.587 150.746 276.583L151.739 270.484L151.743 270.464C151.749 270.417 151.757 270.363 151.799 270.363C152.012 270.336 152.218 270.268 152.404 270.161C152.59 270.054 152.753 269.912 152.883 269.741C152.892 269.732 152.897 269.722 152.909 269.716C152.938 269.702 152.974 269.716 153.005 269.729L162.024 273.544ZM155.833 279.9L149.117 286.615L150.267 279.55L150.268 279.541C150.269 279.531 150.271 279.522 150.274 279.514C150.283 279.491 150.308 279.482 150.331 279.473L150.342 279.468C150.594 279.361 150.817 279.195 150.992 278.985C151.014 278.959 151.041 278.933 151.076 278.929C151.085 278.927 151.094 278.927 151.103 278.929L155.832 279.901L155.833 279.9ZM147.696 288.037L146.939 288.794L138.57 276.699C138.567 276.694 138.564 276.69 138.561 276.686C138.547 276.668 138.533 276.65 138.536 276.63C138.536 276.615 138.547 276.602 138.557 276.59L138.566 276.578C138.591 276.541 138.613 276.504 138.636 276.463L138.655 276.431L138.658 276.428C138.671 276.405 138.683 276.384 138.705 276.372C138.725 276.362 138.752 276.366 138.774 276.371L148.045 278.283C148.071 278.287 148.096 278.298 148.116 278.314C148.128 278.326 148.131 278.339 148.134 278.354C148.199 278.599 148.319 278.825 148.486 279.016C148.652 279.206 148.861 279.355 149.095 279.452C149.121 279.465 149.11 279.494 149.098 279.525C149.091 279.538 149.087 279.553 149.083 279.567C148.967 280.277 147.965 286.387 147.696 288.037ZM146.114 289.617C145.557 290.169 145.228 290.462 144.856 290.58C144.489 290.696 144.095 290.696 143.729 290.58C143.293 290.441 142.916 290.066 142.164 289.312L133.76 280.908L135.955 277.503C135.965 277.487 135.976 277.472 135.992 277.46C136.016 277.443 136.049 277.45 136.078 277.46C136.581 277.612 137.122 277.584 137.608 277.382C137.634 277.373 137.659 277.366 137.678 277.384C137.688 277.393 137.697 277.403 137.705 277.414L146.114 289.617ZM132.95 280.098L131.022 278.17L134.829 276.546C134.839 276.541 134.849 276.539 134.86 276.539C134.892 276.539 134.91 276.571 134.927 276.6C134.965 276.659 135.006 276.716 135.049 276.772L135.061 276.787C135.072 276.803 135.064 276.818 135.053 276.833L132.95 280.098ZM130.168 277.317L127.729 274.877C127.314 274.463 127.013 274.162 126.804 273.903L134.221 275.441C134.23 275.443 134.239 275.444 134.249 275.446C134.294 275.453 134.345 275.462 134.345 275.505C134.345 275.551 134.29 275.573 134.243 275.59L134.222 275.6L130.168 277.317ZM126.378 272.649C126.386 272.491 126.415 272.336 126.462 272.186C126.6 271.75 126.976 271.375 127.729 270.622L130.851 267.5C132.288 269.586 133.729 271.669 135.174 273.749C135.199 273.783 135.227 273.82 135.198 273.849C135.062 273.999 134.925 274.163 134.829 274.342C134.819 274.365 134.802 274.385 134.782 274.4C134.77 274.407 134.757 274.405 134.743 274.402H134.741L126.378 272.649ZM131.686 266.665L135.881 262.468C136.277 262.641 137.713 263.247 138.996 263.789C139.968 264.2 140.854 264.574 141.132 264.696C141.16 264.707 141.186 264.718 141.198 264.746C141.205 264.763 141.202 264.784 141.198 264.802C141.131 265.105 141.141 265.42 141.227 265.718C141.312 266.016 141.47 266.289 141.687 266.511C141.715 266.539 141.687 266.579 141.662 266.613L141.649 266.633L137.388 273.234C137.377 273.252 137.366 273.268 137.348 273.28C137.325 273.294 137.293 273.288 137.267 273.281C137.101 273.238 136.931 273.215 136.76 273.212C136.606 273.212 136.44 273.24 136.272 273.271C136.253 273.274 136.235 273.278 136.22 273.266C136.204 273.253 136.19 273.237 136.178 273.219L131.686 266.665ZM136.731 261.62L142.164 256.187C142.916 255.434 143.293 255.058 143.729 254.92C144.095 254.804 144.489 254.804 144.856 254.92C145.291 255.058 145.668 255.434 146.42 256.187L147.598 257.364L143.733 263.349C143.724 263.366 143.711 263.382 143.695 263.394C143.672 263.41 143.639 263.403 143.611 263.394C143.306 263.301 142.984 263.285 142.671 263.345C142.358 263.405 142.065 263.541 141.817 263.74C141.791 263.766 141.754 263.751 141.722 263.737C141.217 263.517 137.292 261.858 136.731 261.62ZM148.418 258.185L151.986 261.753L151.126 267.078V267.092C151.126 267.104 151.123 267.116 151.119 267.127C151.11 267.146 151.091 267.15 151.072 267.155C150.888 267.211 150.715 267.297 150.56 267.41C150.553 267.415 150.547 267.421 150.541 267.426C150.531 267.438 150.521 267.448 150.504 267.45C150.49 267.45 150.477 267.448 150.464 267.443L145.027 265.133L145.016 265.128C144.982 265.114 144.941 265.097 144.941 265.062C144.909 264.759 144.81 264.467 144.651 264.207C144.625 264.164 144.596 264.119 144.618 264.075L148.418 258.185ZM144.743 266.227L149.84 268.386C149.869 268.399 149.899 268.411 149.911 268.44C149.916 268.458 149.916 268.476 149.911 268.494C149.897 268.568 149.883 268.653 149.883 268.739V268.882C149.883 268.918 149.847 268.933 149.813 268.947L149.803 268.951C148.996 269.295 138.467 273.785 138.451 273.785C138.435 273.785 138.419 273.785 138.403 273.769C138.375 273.741 138.403 273.702 138.428 273.666C138.432 273.66 138.437 273.654 138.441 273.648L142.63 267.162L142.637 267.151C142.661 267.111 142.689 267.067 142.734 267.067L142.776 267.074C142.872 267.087 142.956 267.099 143.041 267.099C143.676 267.099 144.265 266.79 144.62 266.261C144.629 266.247 144.639 266.234 144.652 266.224C144.677 266.205 144.715 266.214 144.743 266.227ZM138.906 274.811L150.383 269.917C150.383 269.917 150.399 269.917 150.415 269.933C150.478 269.995 150.531 270.037 150.582 270.077L150.608 270.093C150.631 270.106 150.654 270.121 150.656 270.145C150.656 270.154 150.656 270.16 150.654 270.168L149.671 276.207L149.668 276.232C149.661 276.278 149.654 276.332 149.611 276.332C149.348 276.349 149.095 276.431 148.871 276.569C148.647 276.706 148.461 276.897 148.327 277.123L148.323 277.131C148.31 277.152 148.298 277.173 148.276 277.184C148.256 277.193 148.231 277.189 148.211 277.185L139.059 275.297C139.049 275.295 138.917 274.812 138.906 274.811Z" fill="url(#paint1_radial_1725_1532)"/>
<path d="M152.319 267.268L152.306 267.263C152.298 267.26 152.291 267.257 152.284 267.251C152.274 267.239 152.266 267.225 152.261 267.21C152.257 267.195 152.256 267.179 152.258 267.164L152.981 262.747L156.368 266.136L152.845 267.635C152.835 267.639 152.825 267.641 152.814 267.64H152.8C152.795 267.638 152.791 267.634 152.781 267.624C152.65 267.478 152.494 267.358 152.319 267.268ZM157.233 266.999L160.855 270.622C161.607 271.375 161.984 271.75 162.121 272.186C162.142 272.25 162.159 272.315 162.172 272.381L153.515 268.715C153.51 268.713 153.506 268.711 153.501 268.709C153.466 268.695 153.426 268.68 153.426 268.644C153.426 268.609 153.467 268.592 153.502 268.578L153.513 268.573L157.233 266.999ZM162.024 273.544C161.837 273.895 161.473 274.26 160.856 274.877L156.772 278.96L151.49 277.86L151.462 277.855C151.415 277.847 151.366 277.839 151.366 277.797C151.346 277.579 151.281 277.368 151.176 277.176C151.07 276.984 150.927 276.816 150.754 276.682C150.732 276.661 150.738 276.627 150.744 276.596C150.744 276.591 150.744 276.587 150.746 276.583L151.739 270.484L151.743 270.464C151.749 270.417 151.757 270.363 151.799 270.363C152.012 270.336 152.218 270.268 152.404 270.161C152.59 270.054 152.753 269.912 152.883 269.741C152.892 269.732 152.897 269.722 152.909 269.716C152.938 269.702 152.974 269.716 153.005 269.729L162.024 273.544ZM155.833 279.9L149.117 286.615L150.267 279.55L150.268 279.541C150.269 279.531 150.271 279.522 150.274 279.514C150.283 279.491 150.308 279.482 150.331 279.473L150.342 279.468C150.594 279.361 150.817 279.195 150.992 278.985C151.014 278.959 151.041 278.933 151.076 278.929C151.085 278.927 151.094 278.927 151.103 278.929L155.832 279.901L155.833 279.9ZM147.696 288.037L146.939 288.794L138.57 276.699C138.567 276.694 138.564 276.69 138.561 276.686C138.547 276.668 138.533 276.65 138.536 276.63C138.536 276.615 138.547 276.602 138.557 276.59L138.566 276.578C138.591 276.541 138.613 276.504 138.636 276.463L138.655 276.431L138.658 276.428C138.671 276.405 138.683 276.384 138.705 276.372C138.725 276.362 138.752 276.366 138.774 276.371L148.045 278.283C148.071 278.287 148.096 278.298 148.116 278.314C148.128 278.326 148.131 278.339 148.134 278.354C148.199 278.599 148.319 278.825 148.486 279.016C148.652 279.206 148.861 279.355 149.095 279.452C149.121 279.465 149.11 279.494 149.098 279.525C149.091 279.538 149.087 279.553 149.083 279.567C148.967 280.277 147.965 286.387 147.696 288.037ZM146.114 289.617C145.557 290.169 145.228 290.462 144.856 290.58C144.489 290.696 144.095 290.696 143.729 290.58C143.293 290.441 142.916 290.066 142.164 289.312L133.76 280.908L135.955 277.503C135.965 277.487 135.976 277.472 135.992 277.46C136.016 277.443 136.049 277.45 136.078 277.46C136.581 277.612 137.122 277.584 137.608 277.382C137.634 277.373 137.659 277.366 137.678 277.384C137.688 277.393 137.697 277.403 137.705 277.414L146.114 289.617ZM132.95 280.098L131.022 278.17L134.829 276.546C134.839 276.541 134.849 276.539 134.86 276.539C134.892 276.539 134.91 276.571 134.927 276.6C134.965 276.659 135.006 276.716 135.049 276.772L135.061 276.787C135.072 276.803 135.064 276.818 135.053 276.833L132.95 280.098ZM130.168 277.317L127.729 274.877C127.314 274.463 127.013 274.162 126.804 273.903L134.221 275.441C134.23 275.443 134.239 275.444 134.249 275.446C134.294 275.453 134.345 275.462 134.345 275.505C134.345 275.551 134.29 275.573 134.243 275.59L134.222 275.6L130.168 277.317ZM126.378 272.649C126.386 272.491 126.415 272.336 126.462 272.186C126.6 271.75 126.976 271.375 127.729 270.622L130.851 267.5C132.288 269.586 133.729 271.669 135.174 273.749C135.199 273.783 135.227 273.82 135.198 273.849C135.062 273.999 134.925 274.163 134.829 274.342C134.819 274.365 134.802 274.385 134.782 274.4C134.77 274.407 134.757 274.405 134.743 274.402H134.741L126.378 272.649ZM131.686 266.665L135.881 262.468C136.277 262.641 137.713 263.247 138.996 263.789C139.968 264.2 140.854 264.574 141.132 264.696C141.16 264.707 141.186 264.718 141.198 264.746C141.205 264.763 141.202 264.784 141.198 264.802C141.131 265.105 141.141 265.42 141.227 265.718C141.312 266.016 141.47 266.289 141.687 266.511C141.715 266.539 141.687 266.579 141.662 266.613L141.649 266.633L137.388 273.234C137.377 273.252 137.366 273.268 137.348 273.28C137.325 273.294 137.293 273.288 137.267 273.281C137.101 273.238 136.931 273.215 136.76 273.212C136.606 273.212 136.44 273.24 136.272 273.271C136.253 273.274 136.235 273.278 136.22 273.266C136.204 273.253 136.19 273.237 136.178 273.219L131.686 266.665ZM136.731 261.62L142.164 256.187C142.916 255.434 143.293 255.058 143.729 254.92C144.095 254.804 144.489 254.804 144.856 254.92C145.291 255.058 145.668 255.434 146.42 256.187L147.598 257.364L143.733 263.349C143.724 263.366 143.711 263.382 143.695 263.394C143.672 263.41 143.639 263.403 143.611 263.394C143.306 263.301 142.984 263.285 142.671 263.345C142.358 263.405 142.065 263.541 141.817 263.74C141.791 263.766 141.754 263.751 141.722 263.737C141.217 263.517 137.292 261.858 136.731 261.62ZM148.418 258.185L151.986 261.753L151.126 267.078V267.092C151.126 267.104 151.123 267.116 151.119 267.127C151.11 267.146 151.091 267.15 151.072 267.155C150.888 267.211 150.715 267.297 150.56 267.41C150.553 267.415 150.547 267.421 150.541 267.426C150.531 267.438 150.521 267.448 150.504 267.45C150.49 267.45 150.477 267.448 150.464 267.443L145.027 265.133L145.016 265.128C144.982 265.114 144.941 265.097 144.941 265.062C144.909 264.759 144.81 264.467 144.651 264.207C144.625 264.164 144.596 264.119 144.618 264.075L148.418 258.185ZM144.743 266.227L149.84 268.386C149.869 268.399 149.899 268.411 149.911 268.44C149.916 268.458 149.916 268.476 149.911 268.494C149.897 268.568 149.883 268.653 149.883 268.739V268.882C149.883 268.918 149.847 268.933 149.813 268.947L149.803 268.951C148.996 269.295 138.467 273.785 138.451 273.785C138.435 273.785 138.419 273.785 138.403 273.769C138.375 273.741 138.403 273.702 138.428 273.666C138.432 273.66 138.437 273.654 138.441 273.648L142.63 267.162L142.637 267.151C142.661 267.111 142.689 267.067 142.734 267.067L142.776 267.074C142.872 267.087 142.956 267.099 143.041 267.099C143.676 267.099 144.265 266.79 144.62 266.261C144.629 266.247 144.639 266.234 144.652 266.224C144.677 266.205 144.715 266.214 144.743 266.227ZM138.906 274.811L150.383 269.917C150.383 269.917 150.399 269.917 150.415 269.933C150.478 269.995 150.531 270.037 150.582 270.077L150.608 270.093C150.631 270.106 150.654 270.121 150.656 270.145C150.656 270.154 150.656 270.16 150.654 270.168L149.671 276.207L149.668 276.232C149.661 276.278 149.654 276.332 149.611 276.332C149.348 276.349 149.095 276.431 148.871 276.569C148.647 276.706 148.461 276.897 148.327 277.123L148.323 277.131C148.31 277.152 148.298 277.173 148.276 277.184C148.256 277.193 148.231 277.189 148.211 277.185L139.059 275.297C139.049 275.295 138.917 274.812 138.906 274.811Z" stroke="#350F70" stroke-width="7.76669" stroke-linecap="round" stroke-linejoin="round" mask="url(#path-39-outside-1_1725_1532)"/>
<path d="M144.29 217.782H161.94C161.94 217.782 164.544 217.637 164.544 220.531C164.544 223.569 167.004 237.313 145.447 237.313H144.29H143.132C121.575 237.313 124.035 223.569 124.035 220.531C124.035 217.492 126.639 217.782 126.639 217.782H144.29Z" fill="#A3A9AC" stroke="#350F70" stroke-width="6.32202" stroke-miterlimit="10" stroke-linecap="round" stroke-linejoin="round"/>
<path d="M144.29 217.782H161.94C161.94 217.782 163.677 217.637 163.677 219.663C163.677 221.688 159.77 231.092 145.013 231.092H144.29H143.566C128.809 231.092 124.903 221.688 124.903 219.663C124.903 217.637 126.639 217.782 126.639 217.782H144.29Z" fill="#350F70" stroke="#350F70" stroke-width="1.64988" stroke-miterlimit="10" stroke-linecap="round" stroke-linejoin="round"/>
<path d="M51.8333 222.13C53.4876 218.848 51.0111 214.263 46.3017 211.889C41.5924 209.515 36.4336 210.252 34.7792 213.534C33.1248 216.816 35.6014 221.401 40.3107 223.775C45.0201 226.149 50.1789 225.412 51.8333 222.13Z" fill="#A3A9AC" stroke="#350F70" stroke-width="4.94965" stroke-miterlimit="10" stroke-linecap="round" stroke-linejoin="round"/>
<path d="M51.4586 218.762C52.5376 216.622 50.9249 213.633 47.8567 212.086C44.7885 210.54 41.4266 211.021 40.3476 213.162C39.2687 215.303 40.8813 218.292 43.9495 219.838C47.0177 221.385 50.3797 220.903 51.4586 218.762Z" fill="#350F70"/>
<path d="M248.457 223.862C253.167 221.488 255.643 216.903 253.989 213.621C252.335 210.339 247.176 209.602 242.466 211.976C237.757 214.349 235.281 218.934 236.935 222.217C238.589 225.499 243.748 226.235 248.457 223.862Z" fill="#A3A9AC" stroke="#350F70" stroke-width="4.94965" stroke-miterlimit="10" stroke-linecap="round" stroke-linejoin="round"/>
<path d="M244.632 219.788C247.701 218.242 249.313 215.253 248.234 213.112C247.156 210.972 243.794 210.49 240.725 212.036C237.657 213.583 236.045 216.572 237.124 218.712C238.202 220.853 241.564 221.335 244.632 219.788Z" fill="#350F70"/>
<g style="">
<path d="M120.268 249.48C120.268 237.933 104.148 235.125 97.4346 236.803C115.829 241.503 107.52 261.918 100.527 270.646C106.286 273.245 120.268 261.027 120.268 249.48Z" fill="#ECECEC"/>
</g>
<path d="M98.6976 268.359C75.5051 268.359 73.9738 251.918 76.1072 243.698C81.4724 238.395 94.556 230.144 103.969 239.556C113.381 248.969 104.377 262.68 98.6976 268.359Z" fill="white"/>
<path d="M73.0932 241.664C71.5517 242.976 71.3652 245.288 72.6767 246.83C73.9881 248.371 76.3009 248.558 77.8424 247.246L73.0932 241.664ZM105.221 240.361L102.63 242.952L102.63 242.952L105.221 240.361ZM97.5327 264.707C96.0539 266.089 95.9753 268.408 97.3571 269.886C98.7389 271.365 101.058 271.444 102.537 270.062L97.5327 264.707ZM77.8424 247.246C80.6094 244.892 85.2888 241.898 90.1633 240.557C94.9839 239.23 99.3253 239.647 102.63 242.952L107.812 237.769C101.945 231.902 94.4577 231.773 88.2187 233.49C82.0336 235.193 76.4223 238.832 73.0932 241.664L77.8424 247.246ZM102.63 242.952C105.924 246.246 106.129 250.075 104.693 254.149C103.198 258.386 100.029 262.374 97.5327 264.707L102.537 270.062C105.59 267.208 109.6 262.271 111.605 256.586C113.667 250.737 113.69 243.647 107.812 237.769L102.63 242.952Z" fill="#350F70"/>
<g style="">
<path d="M168.715 249.829C168.715 238.282 184.835 235.474 191.549 237.153C173.154 241.852 181.463 262.267 188.457 270.995C182.698 273.594 168.715 261.376 168.715 249.829Z" fill="#ECECEC"/>
</g>
<path d="M190.286 268.708C213.478 268.708 215.01 252.267 212.876 244.047C207.511 238.744 194.427 230.492 185.015 239.905C175.602 249.318 184.607 263.029 190.286 268.708Z" fill="white"/>
<path d="M215.891 242.013C217.432 243.325 217.619 245.637 216.307 247.179C214.996 248.72 212.683 248.907 211.142 247.595L215.891 242.013ZM183.763 240.71L186.354 243.301L186.354 243.301L183.763 240.71ZM191.451 265.056C192.93 266.438 193.009 268.757 191.627 270.235C190.245 271.714 187.926 271.793 186.447 270.411L191.451 265.056ZM211.142 247.595C208.374 245.241 203.695 242.247 198.821 240.906C194 239.579 189.659 239.996 186.354 243.301L181.172 238.118C187.039 232.251 194.526 232.122 200.765 233.839C206.95 235.542 212.562 239.181 215.891 242.013L211.142 247.595ZM186.354 243.301C183.06 246.595 182.855 250.424 184.291 254.498C185.785 258.735 188.955 262.723 191.451 265.056L186.447 270.411C183.393 267.557 179.384 262.62 177.379 256.935C175.317 251.086 175.294 243.996 181.172 238.118L186.354 243.301Z" fill="#350F70"/>
<defs>
<linearGradient id="paint0_linear_1725_1532" x1="144.275" y1="52.9481" x2="144.275" y2="318.348" gradientUnits="userSpaceOnUse">
<stop stop-color="#38189B"/>
<stop offset="1" stop-color="#350F70"/>
</linearGradient>
<radialGradient id="paint1_radial_1725_1532" cx="0" cy="0" r="1" gradientUnits="userSpaceOnUse" gradientTransform="translate(125.176 272.244) rotate(90) scale(35.7937 41.3252)">
<stop stop-color="#20C6B7"/>
<stop offset="1" stop-color="#4D9ABF"/>
</radialGradient>
</defs>
</svg>