<svg width="90" height="90" viewBox="0 0 241 265" fill="none" xmlns="http://www.w3.org/2000/svg">
<path d="M54.8967 23.9556C60.1212 15.2222 71.4363 12.3776 80.1697 17.6021L95.2659 26.6328C103.999 31.8573 106.844 43.1724 101.619 51.9059V51.9059C96.395 60.6393 85.0798 63.4839 76.3464 58.2594L61.2503 49.2287C52.5168 44.0042 49.6722 32.6891 54.8967 23.9556V23.9556Z" fill="#D3735D"/>
<path fill-rule="evenodd" clip-rule="evenodd" d="M51.6786 22.0304C57.9663 11.5197 71.5841 8.09621 82.0949 14.3839L97.191 23.4146C107.702 29.7023 111.125 43.3202 104.838 53.831C98.5499 64.3417 84.9321 67.7652 74.4213 61.4775L59.3252 52.4468C48.8144 46.1591 45.3909 32.5412 51.6786 22.0304ZM78.2446 20.8202C71.2885 16.6589 62.2761 18.9246 58.1149 25.8807C53.9536 32.8368 56.2193 41.8492 63.1754 46.0105L78.2716 55.0412C85.2277 59.2025 94.2401 56.9368 98.4013 49.9807C102.563 43.0246 100.297 34.0122 93.3408 29.8509L78.2446 20.8202Z" fill="#350F70"/>
<path d="M74.4065 35.3756C76.4418 31.9732 80.8499 30.8651 84.2523 32.9004L92.4773 37.8207C95.8797 39.8561 96.9878 44.2642 94.9525 47.6665V47.6665C92.9172 51.0688 88.5091 52.177 85.1067 50.1417L76.8817 45.2214C73.4794 43.186 72.3712 38.7779 74.4065 35.3756V35.3756Z" fill="#B84B33"/>
<path opacity="0.1" d="M0.413086 250.833C0.413086 243.481 6.3735 237.52 13.7261 237.52H194.662C202.014 237.52 207.975 243.481 207.975 250.833V250.833C207.975 258.186 202.014 264.146 194.662 264.146H13.7261C6.37352 264.146 0.413086 258.186 0.413086 250.833V250.833Z" fill="black"/>
<path d="M73.2994 142.834H62.1344C47.2418 142.834 35.1689 154.907 35.1689 169.799V226.992C35.1689 241.884 47.2418 253.957 62.1344 253.957H73.2994C88.192 253.957 100.265 241.884 100.265 226.992V169.799C100.265 154.907 88.192 142.834 73.2994 142.834Z" fill="#D3735D"/>
<path fill-rule="evenodd" clip-rule="evenodd" d="M62.1344 146.584C49.3129 146.584 38.9189 156.978 38.9189 169.799V226.992C38.9189 239.813 49.3129 250.207 62.1344 250.207H73.2994C86.1209 250.207 96.5149 239.813 96.5149 226.992V169.799C96.5149 156.978 86.1209 146.584 73.2994 146.584H62.1344ZM31.4189 169.799C31.4189 152.835 45.1707 139.084 62.1344 139.084H73.2994C90.2631 139.084 104.015 152.835 104.015 169.799V226.992C104.015 243.955 90.2631 257.707 73.2994 257.707H62.1344C45.1707 257.707 31.4189 243.955 31.4189 226.992V169.799Z" fill="#350F70"/>
<path d="M156.773 139.999L145.776 141.926C131.107 144.496 121.298 158.471 123.869 173.141L133.739 229.475C136.309 244.144 150.284 253.952 164.953 251.382L175.951 249.455C190.62 246.885 200.428 232.91 197.858 218.241L187.988 161.906C185.418 147.237 171.442 137.429 156.773 139.999Z" fill="#D3735D"/>
<path fill-rule="evenodd" clip-rule="evenodd" d="M146.423 145.62C133.794 147.833 125.35 159.864 127.562 172.493L137.433 228.828C139.645 241.457 151.677 249.901 164.306 247.688L175.304 245.762C187.933 243.549 196.377 231.517 194.164 218.888L184.294 162.554C182.081 149.924 170.05 141.48 157.42 143.693L146.423 145.62ZM120.175 173.788C117.247 157.079 128.419 141.16 145.129 138.232L156.126 136.306C172.835 133.378 188.754 144.55 191.682 161.259L201.552 217.594C204.479 234.303 193.307 250.221 176.598 253.149L165.601 255.076C148.891 258.003 132.973 246.831 130.045 230.122L120.175 173.788Z" fill="#350F70"/>
<path fill-rule="evenodd" clip-rule="evenodd" d="M150.164 120.755H72.2458C39.0798 120.755 12.1537 149.404 12.1537 184.692C12.1537 189.27 12.78 193.693 13.9463 197.87L8.33355 220.735C4.78323 235.199 13.6299 249.801 28.0932 253.352L38.9362 256.013C53.3995 259.564 68.0024 250.717 71.5527 236.254L72.8562 230.943H95.9585L96.5644 234.788C98.8827 249.5 112.688 259.546 127.399 257.228L138.428 255.49C151.529 253.425 160.93 242.251 161.194 229.439C179.852 224.24 193.633 206.167 193.633 184.692V167.006C193.633 141.477 174.157 120.755 150.164 120.755Z" fill="#F7964F"/>
<path fill-rule="evenodd" clip-rule="evenodd" d="M72.2458 124.505C41.3665 124.505 15.9036 151.252 15.9036 184.692C15.9036 188.927 16.4829 193.011 17.558 196.862L17.8225 197.809L11.9753 221.629C8.91875 234.081 16.5352 246.653 28.9871 249.71L39.8301 252.372C52.282 255.428 64.8541 247.812 67.9107 235.36L69.9153 227.193H99.1637L100.269 234.205C102.264 246.87 114.15 255.519 126.815 253.523L137.844 251.785C149.119 250.008 157.217 240.389 157.444 229.362L157.502 226.575L160.187 225.827C177.133 221.105 189.883 204.579 189.883 184.692V167.006C189.883 143.326 171.87 124.505 150.164 124.505H72.2458ZM8.40365 184.692C8.40365 147.555 36.7929 117.005 72.2458 117.005H150.164C176.444 117.005 197.383 139.629 197.383 167.006V184.692C197.383 206.775 183.802 225.703 164.763 232.254C163.275 245.677 152.996 256.99 139.011 259.194L127.982 260.932C111.226 263.573 95.5007 252.129 92.86 235.372L92.753 234.693H75.797L75.1945 237.148C71.1504 253.622 54.5168 263.699 38.0421 259.655L27.1991 256.994C10.7245 252.95 0.64752 236.316 4.69157 219.841L10.0745 197.912C8.98445 193.696 8.40365 189.262 8.40365 184.692Z" fill="#350F70"/>
<path d="M103.682 103.257H153.093C175.469 103.257 193.635 118.522 193.635 137.324V154.784C193.635 177.364 171.82 195.691 144.954 195.691H96.3733C68.0374 195.691 45.0322 176.36 45.0322 152.549C45.0217 125.343 71.3057 103.257 103.682 103.257Z" fill="#F6904B"/>
<path d="M110.118 81.3977H159.146C181.348 81.3977 199.373 98.1944 199.373 118.883V138.096C199.373 162.941 177.727 183.107 151.07 183.107H102.866C74.7496 183.107 51.9229 161.836 51.9229 135.636C51.9124 105.7 77.9926 81.3977 110.118 81.3977Z" fill="#F48745"/>
<path d="M117.067 81.3977H164.002C185.256 81.3977 202.512 96.5094 202.512 115.123V132.408C202.512 154.761 181.79 172.904 156.27 172.904H110.125C83.2087 172.904 61.3564 153.767 61.3564 130.195C61.3464 103.262 86.3132 81.3977 117.067 81.3977Z" fill="#EE7D3F"/>
<path fill-rule="evenodd" clip-rule="evenodd" d="M72.2458 124.505C41.3665 124.505 15.9036 151.252 15.9036 184.692C15.9036 188.927 16.4829 193.011 17.558 196.862L17.8225 197.809L11.9753 221.629C8.91875 234.081 16.5352 246.653 28.9871 249.71L39.8301 252.372C52.282 255.428 64.8541 247.812 67.9107 235.36L69.9153 227.193H99.1637L100.269 234.205C102.264 246.87 114.15 255.519 126.815 253.523L137.844 251.785C149.119 250.008 157.217 240.389 157.444 229.362L157.502 226.575L160.187 225.827C177.133 221.105 189.883 204.579 189.883 184.692V167.006C189.883 143.326 171.87 124.505 150.164 124.505H72.2458ZM8.40365 184.692C8.40365 147.555 36.7929 117.005 72.2458 117.005H150.164C176.444 117.005 197.383 139.629 197.383 167.006V184.692C197.383 206.775 183.802 225.703 164.763 232.254C163.275 245.677 152.996 256.99 139.011 259.194L127.982 260.932C111.226 263.573 95.5007 252.129 92.86 235.372L92.753 234.693H75.797L75.1945 237.148C71.1504 253.622 54.5168 263.699 38.0421 259.655L27.1991 256.994C10.7245 252.95 0.64752 236.316 4.69157 219.841L10.0745 197.912C8.98445 193.696 8.40365 189.262 8.40365 184.692Z" fill="#350F70"/>
<path d="M125.199 19.8391H186.632C214.453 19.8391 237.039 42.4254 237.039 70.2457V96.0803C237.039 129.49 209.916 156.606 176.513 156.606H116.112C80.8811 156.606 52.2783 128.004 52.2783 92.7729C52.2652 52.5186 84.9446 19.8391 125.199 19.8391Z" fill="#F7964F"/>
<path fill-rule="evenodd" clip-rule="evenodd" d="M125.199 23.5891C87.0155 23.5891 56.0158 54.5896 56.0283 92.7716L56.0283 92.7729C56.0283 125.933 82.9521 152.856 116.112 152.856H176.513C207.845 152.856 233.289 127.418 233.289 96.0803V70.2457C233.289 44.4965 212.382 23.5891 186.632 23.5891H125.199ZM48.5283 92.7729C48.5152 50.4469 82.8742 16.0891 125.199 16.0891H186.632C216.524 16.0891 240.789 40.3544 240.789 70.2457V96.0803C240.789 131.561 211.986 160.356 176.513 160.356H116.112C78.8104 160.356 48.529 130.075 48.5283 92.7741" fill="#350F70"/>
<path fill-rule="evenodd" clip-rule="evenodd" d="M106.413 75.1084C101.751 75.1084 97.9678 78.8914 97.9678 83.5536C97.9678 87.6957 94.6099 91.0536 90.4678 91.0536C86.3256 91.0536 82.9678 87.6957 82.9678 83.5536C82.9678 70.6071 93.4665 60.1084 106.413 60.1084C119.36 60.1084 129.858 70.6071 129.858 83.5536C129.858 87.6957 126.5 91.0536 122.358 91.0536C118.216 91.0536 114.858 87.6957 114.858 83.5536C114.858 78.8914 111.075 75.1084 106.413 75.1084Z" fill="#EE7D3F"/>
<path d="M168.794 58.9441C168.794 40.1985 183.99 25.0022 202.736 25.0022V25.0022C221.481 25.0022 236.678 40.1985 236.678 58.9441V106.95C236.678 129.95 218.032 148.596 195.031 148.596V148.596C180.541 148.596 168.794 136.849 168.794 122.359V58.9441Z" fill="#F8A76F"/>
<path d="M183.759 60.7842C183.759 47.1714 194.794 36.136 208.407 36.136V36.136C222.02 36.136 233.055 47.1713 233.055 60.7841V112.814C233.055 126.427 222.02 137.462 208.407 137.462V137.462C194.794 137.462 183.759 126.427 183.759 112.814V60.7842Z" fill="#F9D3C2"/>
<path fill-rule="evenodd" clip-rule="evenodd" d="M125.199 23.7026C87.0784 23.7026 56.1296 54.6523 56.142 92.7716L56.142 92.7728C56.142 125.87 83.015 152.743 116.112 152.743H176.513C207.782 152.743 233.176 127.356 233.176 96.0802V70.2457C233.176 44.5591 212.319 23.7026 186.633 23.7026H125.199ZM48.415 92.7741C48.4012 50.3848 82.8113 15.9756 125.199 15.9756H186.633C216.587 15.9756 240.903 40.2916 240.903 70.2457V96.0802C240.903 131.624 212.049 160.47 176.513 160.47H116.112C78.7475 160.47 48.415 130.137 48.415 92.7741Z" fill="#350F70"/>
<path d="M23.4511 36.7586C27.0879 27.2538 37.7413 22.4968 47.2461 26.1336L63.6757 32.42C73.1805 36.0567 77.9375 46.7102 74.3007 56.215V56.215C70.6639 65.7198 60.0105 70.4768 50.5057 66.84L34.0762 60.5536C24.5713 56.9168 19.8143 46.2634 23.4511 36.7586V36.7586Z" fill="#D3735D"/>
<path fill-rule="evenodd" clip-rule="evenodd" d="M19.9489 35.4184C24.3258 23.9793 37.1473 18.2542 48.5864 22.6312L65.016 28.9175C76.4551 33.2944 82.1802 46.1159 77.8033 57.555C73.4263 68.9942 60.6049 74.7192 49.1658 70.3423L32.7362 64.056C21.2971 59.679 15.572 46.8576 19.9489 35.4184ZM45.9062 29.6359C38.3357 26.7392 29.8504 30.5281 26.9537 38.0986C24.057 45.6692 27.8459 54.1545 35.4164 57.0512L51.846 63.3376C59.4165 66.2342 67.9018 62.4453 70.7985 54.8748C73.6952 47.3043 69.9063 38.819 62.3358 35.9223L45.9062 29.6359Z" fill="#350F70"/>
<path d="M44.6407 44.6355C46.0575 40.9327 50.2078 39.0795 53.9107 40.4963L62.8622 43.9214C66.5651 45.3382 68.4183 49.4885 67.0015 53.1913V53.1913C65.5846 56.8942 61.4343 58.7474 57.7315 57.3306L48.7799 53.9055C45.0771 52.4887 43.2239 48.3384 44.6407 44.6355V44.6355Z" fill="#C05740"/>
<path d="M215.823 59.6121C218.544 59.6121 220.749 61.8175 220.749 64.538L220.749 78.6279C220.749 81.3484 218.544 83.5538 215.823 83.5538V83.5538C213.103 83.5538 210.897 81.3484 210.897 78.6279L210.897 64.538C210.897 61.8175 213.103 59.6121 215.823 59.6121V59.6121Z" fill="#D3735D"/>
<path fill-rule="evenodd" clip-rule="evenodd" d="M215.823 55.8621C220.615 55.8621 224.499 59.7464 224.499 64.538L224.499 78.6279C224.499 83.4194 220.615 87.3038 215.823 87.3038C211.032 87.3038 207.147 83.4194 207.147 78.6279L207.147 64.538C207.147 59.7464 211.032 55.8621 215.823 55.8621ZM216.999 64.538C216.999 63.8885 216.473 63.3621 215.823 63.3621C215.174 63.3621 214.647 63.8885 214.647 64.538L214.647 78.6279C214.647 79.2773 215.174 79.8038 215.823 79.8038C216.473 79.8038 216.999 79.2773 216.999 78.6279L216.999 64.538Z" fill="#F7964F"/>
<path fill-rule="evenodd" clip-rule="evenodd" d="M106.413 70.4524C100.37 70.4524 95.4678 75.3546 95.4678 81.3976C95.4678 84.159 93.2292 86.3976 90.4678 86.3976C87.7063 86.3976 85.4678 84.159 85.4678 81.3976C85.4678 69.8318 94.8472 60.4524 106.413 60.4524C117.979 60.4524 127.358 69.8318 127.358 81.3976C127.358 84.159 125.12 86.3976 122.358 86.3976C119.597 86.3976 117.358 84.159 117.358 81.3976C117.358 75.3546 112.456 70.4524 106.413 70.4524Z" fill="#350F70"/>
<path d="M166.047 157.724C171.677 164.816 185.417 177.838 195.339 173.19C205.262 168.542 206.205 155.002 205.437 148.813" stroke="#350F70" stroke-width="6"/>
<mask id="path-28-outside-1_1721_909" maskUnits="userSpaceOnUse" x="183.82" y="157.817" width="30" height="38" fill="black">
<rect fill="white" x="183.82" y="157.817" width="30" height="38"/>
<path d="M201.935 169.772L201.925 169.77C201.919 169.77 201.913 169.769 201.907 169.765C201.896 169.757 201.887 169.747 201.879 169.735C201.871 169.723 201.865 169.71 201.862 169.696L200.907 165.683L204.184 167.82L202.392 169.965C202.387 169.971 202.381 169.975 202.374 169.977L202.365 169.981C202.361 169.979 202.357 169.977 202.348 169.971C202.217 169.876 202.076 169.808 201.935 169.772ZM205.019 168.364L208.523 170.648C209.251 171.124 209.615 171.36 209.843 171.706C209.877 171.757 209.909 171.809 209.939 171.864L203.173 170.744C203.169 170.744 203.165 170.743 203.162 170.743C203.135 170.739 203.104 170.735 203.092 170.704C203.081 170.673 203.102 170.648 203.12 170.628L203.126 170.621L205.019 168.364ZM210.218 172.91C210.21 173.26 210.092 173.664 209.893 174.349L208.572 178.874L204.809 179.18L204.789 179.182C204.757 179.186 204.722 179.191 204.709 179.154C204.625 178.97 204.516 178.801 204.386 178.66C204.256 178.518 204.109 178.406 203.955 178.331C203.934 178.317 203.927 178.287 203.921 178.258C203.919 178.254 203.918 178.25 203.918 178.247L202.596 172.707L202.592 172.688C202.58 172.646 202.568 172.597 202.596 172.587C202.724 172.513 202.835 172.404 202.921 172.267C203.007 172.13 203.066 171.967 203.095 171.787C203.098 171.777 203.098 171.767 203.103 171.759C203.118 171.74 203.146 171.744 203.17 171.748L210.218 172.91ZM208.268 179.915L206.096 187.359L204.564 180.941L204.562 180.933C204.559 180.924 204.558 180.916 204.557 180.908C204.556 180.886 204.568 180.872 204.58 180.858L204.586 180.851C204.714 180.698 204.804 180.501 204.85 180.276C204.856 180.248 204.865 180.22 204.886 180.207C204.891 180.204 204.897 180.202 204.903 180.201L208.268 179.916L208.268 179.915ZM205.636 188.934L205.391 189.773L196.098 181.256C196.094 181.253 196.091 181.25 196.088 181.247C196.073 181.235 196.059 181.223 196.054 181.204C196.049 181.191 196.051 181.177 196.054 181.165L196.057 181.152C196.061 181.114 196.063 181.076 196.065 181.035L196.066 181.003L196.067 180.999C196.068 180.977 196.069 180.955 196.08 180.939C196.09 180.926 196.108 180.923 196.124 180.922L202.722 180.37C202.74 180.367 202.759 180.371 202.778 180.38C202.79 180.387 202.796 180.398 202.802 180.41C202.923 180.608 203.073 180.776 203.242 180.902C203.411 181.028 203.594 181.108 203.776 181.136C203.797 181.141 203.799 181.169 203.801 181.198C203.801 181.212 203.803 181.225 203.806 181.238C203.959 181.884 205.279 187.436 205.636 188.934ZM205.124 190.686C204.942 191.299 204.824 191.632 204.622 191.824C204.422 192.012 204.168 192.106 203.894 192.093C203.569 192.077 203.205 191.84 202.477 191.365L194.348 186.065L194.669 182.58C194.671 182.563 194.672 182.548 194.679 182.533C194.689 182.513 194.713 182.511 194.734 182.513C195.108 182.525 195.449 182.372 195.697 182.08C195.71 182.066 195.725 182.054 195.743 182.065C195.752 182.07 195.761 182.077 195.769 182.084L205.124 190.686ZM193.565 185.554L191.7 184.338L193.634 182.016C193.639 182.01 193.645 182.006 193.652 182.003C193.673 181.996 193.695 182.019 193.715 182.04C193.759 182.082 193.803 182.122 193.849 182.161L193.861 182.171C193.874 182.182 193.874 182.197 193.872 182.213L193.565 185.554ZM190.875 183.8L188.516 182.262C188.114 182 187.823 181.811 187.605 181.636L192.886 181.201C192.893 181.201 192.899 181.2 192.906 181.199C192.938 181.194 192.973 181.19 192.987 181.227C193.002 181.268 192.973 181.299 192.949 181.326L192.938 181.339L190.875 183.8ZM186.926 180.647C186.881 180.508 186.849 180.366 186.832 180.225C186.781 179.813 186.902 179.396 187.146 178.562L188.156 175.102C189.754 176.572 191.355 178.039 192.957 179.503C192.984 179.526 193.014 179.552 193.004 179.583C192.965 179.747 192.93 179.922 192.925 180.1C192.926 180.123 192.922 180.144 192.914 180.162C192.908 180.171 192.899 180.172 192.889 180.173L192.888 180.173L186.926 180.647ZM188.426 174.176L189.782 169.525C190.093 169.58 191.215 169.765 192.218 169.929C192.977 170.055 193.669 170.168 193.888 170.207C193.91 170.21 193.93 170.214 193.947 170.236C193.957 170.248 193.961 170.268 193.965 170.284C194.019 170.564 194.127 170.835 194.278 171.074C194.429 171.313 194.619 171.512 194.83 171.653C194.857 171.671 194.852 171.712 194.847 171.748L194.845 171.768L194.22 178.525C194.218 178.544 194.217 178.561 194.209 178.576C194.199 178.593 194.176 178.595 194.157 178.596C194.036 178.598 193.919 178.618 193.807 178.657C193.708 178.693 193.61 178.758 193.511 178.825C193.5 178.831 193.49 178.839 193.477 178.833C193.462 178.825 193.447 178.814 193.434 178.801L188.426 174.176ZM190.058 168.585L191.815 162.562C192.059 161.729 192.18 161.311 192.417 161.088C192.616 160.899 192.87 160.805 193.144 160.818C193.47 160.834 193.834 161.071 194.562 161.546L195.7 162.288L195.133 168.415C195.132 168.433 195.129 168.449 195.123 168.463C195.113 168.483 195.09 168.485 195.068 168.483C194.842 168.476 194.628 168.538 194.446 168.665C194.264 168.792 194.118 168.98 194.022 169.213C194.014 169.241 193.985 169.237 193.96 169.233C193.564 169.162 190.497 168.658 190.058 168.585ZM196.494 162.806L199.945 165.056L201.104 169.891L201.109 169.903C201.112 169.914 201.114 169.925 201.115 169.936C201.115 169.955 201.104 169.962 201.094 169.972C200.993 170.064 200.909 170.18 200.846 170.316C200.843 170.321 200.841 170.328 200.839 170.334C200.836 170.346 200.832 170.358 200.822 170.363C200.813 170.367 200.804 170.368 200.794 170.367L196.542 169.657L196.534 169.656C196.507 169.652 196.475 169.647 196.464 169.616C196.345 169.36 196.188 169.13 196.001 168.942C195.971 168.911 195.937 168.879 195.938 168.835L196.494 162.806ZM196.711 170.677L200.695 171.336C200.718 171.341 200.741 171.344 200.759 171.366C200.767 171.38 200.773 171.396 200.776 171.412C200.79 171.481 200.809 171.558 200.837 171.633L200.883 171.757C200.894 171.788 200.876 171.81 200.858 171.83L200.853 171.836C200.443 172.328 195.094 178.747 195.083 178.751C195.073 178.755 195.062 178.759 195.047 178.749C195.02 178.731 195.025 178.69 195.03 178.653C195.031 178.647 195.032 178.64 195.032 178.634L195.648 171.994L195.649 171.983C195.652 171.943 195.656 171.898 195.685 171.887L195.714 171.883C195.78 171.871 195.838 171.862 195.893 171.841C196.303 171.69 196.584 171.28 196.643 170.735C196.643 170.721 196.646 170.707 196.651 170.695C196.661 170.673 196.688 170.672 196.711 170.677ZM195.707 179.534L201.538 172.537C201.538 172.537 201.549 172.533 201.564 172.543C201.625 172.583 201.673 172.607 201.718 172.629L201.74 172.636C201.759 172.642 201.779 172.65 201.788 172.67C201.791 172.678 201.793 172.683 201.794 172.691L203.104 178.177L203.109 178.199C203.12 178.241 203.133 178.289 203.104 178.299C202.941 178.377 202.803 178.509 202.703 178.682C202.603 178.855 202.544 179.065 202.531 179.294L202.53 179.302C202.529 179.324 202.528 179.344 202.517 179.359C202.508 179.372 202.49 179.375 202.476 179.376L195.962 179.92C195.955 179.921 195.714 179.533 195.707 179.534Z"/>
</mask>
<path d="M201.935 169.772L201.925 169.77C201.919 169.77 201.913 169.769 201.907 169.765C201.896 169.757 201.887 169.747 201.879 169.735C201.871 169.723 201.865 169.71 201.862 169.696L200.907 165.683L204.184 167.82L202.392 169.965C202.387 169.971 202.381 169.975 202.374 169.977L202.365 169.981C202.361 169.979 202.357 169.977 202.348 169.971C202.217 169.876 202.076 169.808 201.935 169.772ZM205.019 168.364L208.523 170.648C209.251 171.124 209.615 171.36 209.843 171.706C209.877 171.757 209.909 171.809 209.939 171.864L203.173 170.744C203.169 170.744 203.165 170.743 203.162 170.743C203.135 170.739 203.104 170.735 203.092 170.704C203.081 170.673 203.102 170.648 203.12 170.628L203.126 170.621L205.019 168.364ZM210.218 172.91C210.21 173.26 210.092 173.664 209.893 174.349L208.572 178.874L204.809 179.18L204.789 179.182C204.757 179.186 204.722 179.191 204.709 179.154C204.625 178.97 204.516 178.801 204.386 178.66C204.256 178.518 204.109 178.406 203.955 178.331C203.934 178.317 203.927 178.287 203.921 178.258C203.919 178.254 203.918 178.25 203.918 178.247L202.596 172.707L202.592 172.688C202.58 172.646 202.568 172.597 202.596 172.587C202.724 172.513 202.835 172.404 202.921 172.267C203.007 172.13 203.066 171.967 203.095 171.787C203.098 171.777 203.098 171.767 203.103 171.759C203.118 171.74 203.146 171.744 203.17 171.748L210.218 172.91ZM208.268 179.915L206.096 187.359L204.564 180.941L204.562 180.933C204.559 180.924 204.558 180.916 204.557 180.908C204.556 180.886 204.568 180.872 204.58 180.858L204.586 180.851C204.714 180.698 204.804 180.501 204.85 180.276C204.856 180.248 204.865 180.22 204.886 180.207C204.891 180.204 204.897 180.202 204.903 180.201L208.268 179.916L208.268 179.915ZM205.636 188.934L205.391 189.773L196.098 181.256C196.094 181.253 196.091 181.25 196.088 181.247C196.073 181.235 196.059 181.223 196.054 181.204C196.049 181.191 196.051 181.177 196.054 181.165L196.057 181.152C196.061 181.114 196.063 181.076 196.065 181.035L196.066 181.003L196.067 180.999C196.068 180.977 196.069 180.955 196.08 180.939C196.09 180.926 196.108 180.923 196.124 180.922L202.722 180.37C202.74 180.367 202.759 180.371 202.778 180.38C202.79 180.387 202.796 180.398 202.802 180.41C202.923 180.608 203.073 180.776 203.242 180.902C203.411 181.028 203.594 181.108 203.776 181.136C203.797 181.141 203.799 181.169 203.801 181.198C203.801 181.212 203.803 181.225 203.806 181.238C203.959 181.884 205.279 187.436 205.636 188.934ZM205.124 190.686C204.942 191.299 204.824 191.632 204.622 191.824C204.422 192.012 204.168 192.106 203.894 192.093C203.569 192.077 203.205 191.84 202.477 191.365L194.348 186.065L194.669 182.58C194.671 182.563 194.672 182.548 194.679 182.533C194.689 182.513 194.713 182.511 194.734 182.513C195.108 182.525 195.449 182.372 195.697 182.08C195.71 182.066 195.725 182.054 195.743 182.065C195.752 182.07 195.761 182.077 195.769 182.084L205.124 190.686ZM193.565 185.554L191.7 184.338L193.634 182.016C193.639 182.01 193.645 182.006 193.652 182.003C193.673 181.996 193.695 182.019 193.715 182.04C193.759 182.082 193.803 182.122 193.849 182.161L193.861 182.171C193.874 182.182 193.874 182.197 193.872 182.213L193.565 185.554ZM190.875 183.8L188.516 182.262C188.114 182 187.823 181.811 187.605 181.636L192.886 181.201C192.893 181.201 192.899 181.2 192.906 181.199C192.938 181.194 192.973 181.19 192.987 181.227C193.002 181.268 192.973 181.299 192.949 181.326L192.938 181.339L190.875 183.8ZM186.926 180.647C186.881 180.508 186.849 180.366 186.832 180.225C186.781 179.813 186.902 179.396 187.146 178.562L188.156 175.102C189.754 176.572 191.355 178.039 192.957 179.503C192.984 179.526 193.014 179.552 193.004 179.583C192.965 179.747 192.93 179.922 192.925 180.1C192.926 180.123 192.922 180.144 192.914 180.162C192.908 180.171 192.899 180.172 192.889 180.173L192.888 180.173L186.926 180.647ZM188.426 174.176L189.782 169.525C190.093 169.58 191.215 169.765 192.218 169.929C192.977 170.055 193.669 170.168 193.888 170.207C193.91 170.21 193.93 170.214 193.947 170.236C193.957 170.248 193.961 170.268 193.965 170.284C194.019 170.564 194.127 170.835 194.278 171.074C194.429 171.313 194.619 171.512 194.83 171.653C194.857 171.671 194.852 171.712 194.847 171.748L194.845 171.768L194.22 178.525C194.218 178.544 194.217 178.561 194.209 178.576C194.199 178.593 194.176 178.595 194.157 178.596C194.036 178.598 193.919 178.618 193.807 178.657C193.708 178.693 193.61 178.758 193.511 178.825C193.5 178.831 193.49 178.839 193.477 178.833C193.462 178.825 193.447 178.814 193.434 178.801L188.426 174.176ZM190.058 168.585L191.815 162.562C192.059 161.729 192.18 161.311 192.417 161.088C192.616 160.899 192.87 160.805 193.144 160.818C193.47 160.834 193.834 161.071 194.562 161.546L195.7 162.288L195.133 168.415C195.132 168.433 195.129 168.449 195.123 168.463C195.113 168.483 195.09 168.485 195.068 168.483C194.842 168.476 194.628 168.538 194.446 168.665C194.264 168.792 194.118 168.98 194.022 169.213C194.014 169.241 193.985 169.237 193.96 169.233C193.564 169.162 190.497 168.658 190.058 168.585ZM196.494 162.806L199.945 165.056L201.104 169.891L201.109 169.903C201.112 169.914 201.114 169.925 201.115 169.936C201.115 169.955 201.104 169.962 201.094 169.972C200.993 170.064 200.909 170.18 200.846 170.316C200.843 170.321 200.841 170.328 200.839 170.334C200.836 170.346 200.832 170.358 200.822 170.363C200.813 170.367 200.804 170.368 200.794 170.367L196.542 169.657L196.534 169.656C196.507 169.652 196.475 169.647 196.464 169.616C196.345 169.36 196.188 169.13 196.001 168.942C195.971 168.911 195.937 168.879 195.938 168.835L196.494 162.806ZM196.711 170.677L200.695 171.336C200.718 171.341 200.741 171.344 200.759 171.366C200.767 171.38 200.773 171.396 200.776 171.412C200.79 171.481 200.809 171.558 200.837 171.633L200.883 171.757C200.894 171.788 200.876 171.81 200.858 171.83L200.853 171.836C200.443 172.328 195.094 178.747 195.083 178.751C195.073 178.755 195.062 178.759 195.047 178.749C195.02 178.731 195.025 178.69 195.03 178.653C195.031 178.647 195.032 178.64 195.032 178.634L195.648 171.994L195.649 171.983C195.652 171.943 195.656 171.898 195.685 171.887L195.714 171.883C195.78 171.871 195.838 171.862 195.893 171.841C196.303 171.69 196.584 171.28 196.643 170.735C196.643 170.721 196.646 170.707 196.651 170.695C196.661 170.673 196.688 170.672 196.711 170.677ZM195.707 179.534L201.538 172.537C201.538 172.537 201.549 172.533 201.564 172.543C201.625 172.583 201.673 172.607 201.718 172.629L201.74 172.636C201.759 172.642 201.779 172.65 201.788 172.67C201.791 172.678 201.793 172.683 201.794 172.691L203.104 178.177L203.109 178.199C203.12 178.241 203.133 178.289 203.104 178.299C202.941 178.377 202.803 178.509 202.703 178.682C202.603 178.855 202.544 179.065 202.531 179.294L202.53 179.302C202.529 179.324 202.528 179.344 202.517 179.359C202.508 179.372 202.49 179.375 202.476 179.376L195.962 179.92C195.955 179.921 195.714 179.533 195.707 179.534Z" fill="#350F70"/>
<path d="M201.935 169.772L201.925 169.77C201.919 169.77 201.913 169.769 201.907 169.765C201.896 169.757 201.887 169.747 201.879 169.735C201.871 169.723 201.865 169.71 201.862 169.696L200.907 165.683L204.184 167.82L202.392 169.965C202.387 169.971 202.381 169.975 202.374 169.977L202.365 169.981C202.361 169.979 202.357 169.977 202.348 169.971C202.217 169.876 202.076 169.808 201.935 169.772ZM205.019 168.364L208.523 170.648C209.251 171.124 209.615 171.36 209.843 171.706C209.877 171.757 209.909 171.809 209.939 171.864L203.173 170.744C203.169 170.744 203.165 170.743 203.162 170.743C203.135 170.739 203.104 170.735 203.092 170.704C203.081 170.673 203.102 170.648 203.12 170.628L203.126 170.621L205.019 168.364ZM210.218 172.91C210.21 173.26 210.092 173.664 209.893 174.349L208.572 178.874L204.809 179.18L204.789 179.182C204.757 179.186 204.722 179.191 204.709 179.154C204.625 178.97 204.516 178.801 204.386 178.66C204.256 178.518 204.109 178.406 203.955 178.331C203.934 178.317 203.927 178.287 203.921 178.258C203.919 178.254 203.918 178.25 203.918 178.247L202.596 172.707L202.592 172.688C202.58 172.646 202.568 172.597 202.596 172.587C202.724 172.513 202.835 172.404 202.921 172.267C203.007 172.13 203.066 171.967 203.095 171.787C203.098 171.777 203.098 171.767 203.103 171.759C203.118 171.74 203.146 171.744 203.17 171.748L210.218 172.91ZM208.268 179.915L206.096 187.359L204.564 180.941L204.562 180.933C204.559 180.924 204.558 180.916 204.557 180.908C204.556 180.886 204.568 180.872 204.58 180.858L204.586 180.851C204.714 180.698 204.804 180.501 204.85 180.276C204.856 180.248 204.865 180.22 204.886 180.207C204.891 180.204 204.897 180.202 204.903 180.201L208.268 179.916L208.268 179.915ZM205.636 188.934L205.391 189.773L196.098 181.256C196.094 181.253 196.091 181.25 196.088 181.247C196.073 181.235 196.059 181.223 196.054 181.204C196.049 181.191 196.051 181.177 196.054 181.165L196.057 181.152C196.061 181.114 196.063 181.076 196.065 181.035L196.066 181.003L196.067 180.999C196.068 180.977 196.069 180.955 196.08 180.939C196.09 180.926 196.108 180.923 196.124 180.922L202.722 180.37C202.74 180.367 202.759 180.371 202.778 180.38C202.79 180.387 202.796 180.398 202.802 180.41C202.923 180.608 203.073 180.776 203.242 180.902C203.411 181.028 203.594 181.108 203.776 181.136C203.797 181.141 203.799 181.169 203.801 181.198C203.801 181.212 203.803 181.225 203.806 181.238C203.959 181.884 205.279 187.436 205.636 188.934ZM205.124 190.686C204.942 191.299 204.824 191.632 204.622 191.824C204.422 192.012 204.168 192.106 203.894 192.093C203.569 192.077 203.205 191.84 202.477 191.365L194.348 186.065L194.669 182.58C194.671 182.563 194.672 182.548 194.679 182.533C194.689 182.513 194.713 182.511 194.734 182.513C195.108 182.525 195.449 182.372 195.697 182.08C195.71 182.066 195.725 182.054 195.743 182.065C195.752 182.07 195.761 182.077 195.769 182.084L205.124 190.686ZM193.565 185.554L191.7 184.338L193.634 182.016C193.639 182.01 193.645 182.006 193.652 182.003C193.673 181.996 193.695 182.019 193.715 182.04C193.759 182.082 193.803 182.122 193.849 182.161L193.861 182.171C193.874 182.182 193.874 182.197 193.872 182.213L193.565 185.554ZM190.875 183.8L188.516 182.262C188.114 182 187.823 181.811 187.605 181.636L192.886 181.201C192.893 181.201 192.899 181.2 192.906 181.199C192.938 181.194 192.973 181.19 192.987 181.227C193.002 181.268 192.973 181.299 192.949 181.326L192.938 181.339L190.875 183.8ZM186.926 180.647C186.881 180.508 186.849 180.366 186.832 180.225C186.781 179.813 186.902 179.396 187.146 178.562L188.156 175.102C189.754 176.572 191.355 178.039 192.957 179.503C192.984 179.526 193.014 179.552 193.004 179.583C192.965 179.747 192.93 179.922 192.925 180.1C192.926 180.123 192.922 180.144 192.914 180.162C192.908 180.171 192.899 180.172 192.889 180.173L192.888 180.173L186.926 180.647ZM188.426 174.176L189.782 169.525C190.093 169.58 191.215 169.765 192.218 169.929C192.977 170.055 193.669 170.168 193.888 170.207C193.91 170.21 193.93 170.214 193.947 170.236C193.957 170.248 193.961 170.268 193.965 170.284C194.019 170.564 194.127 170.835 194.278 171.074C194.429 171.313 194.619 171.512 194.83 171.653C194.857 171.671 194.852 171.712 194.847 171.748L194.845 171.768L194.22 178.525C194.218 178.544 194.217 178.561 194.209 178.576C194.199 178.593 194.176 178.595 194.157 178.596C194.036 178.598 193.919 178.618 193.807 178.657C193.708 178.693 193.61 178.758 193.511 178.825C193.5 178.831 193.49 178.839 193.477 178.833C193.462 178.825 193.447 178.814 193.434 178.801L188.426 174.176ZM190.058 168.585L191.815 162.562C192.059 161.729 192.18 161.311 192.417 161.088C192.616 160.899 192.87 160.805 193.144 160.818C193.47 160.834 193.834 161.071 194.562 161.546L195.7 162.288L195.133 168.415C195.132 168.433 195.129 168.449 195.123 168.463C195.113 168.483 195.09 168.485 195.068 168.483C194.842 168.476 194.628 168.538 194.446 168.665C194.264 168.792 194.118 168.98 194.022 169.213C194.014 169.241 193.985 169.237 193.96 169.233C193.564 169.162 190.497 168.658 190.058 168.585ZM196.494 162.806L199.945 165.056L201.104 169.891L201.109 169.903C201.112 169.914 201.114 169.925 201.115 169.936C201.115 169.955 201.104 169.962 201.094 169.972C200.993 170.064 200.909 170.18 200.846 170.316C200.843 170.321 200.841 170.328 200.839 170.334C200.836 170.346 200.832 170.358 200.822 170.363C200.813 170.367 200.804 170.368 200.794 170.367L196.542 169.657L196.534 169.656C196.507 169.652 196.475 169.647 196.464 169.616C196.345 169.36 196.188 169.13 196.001 168.942C195.971 168.911 195.937 168.879 195.938 168.835L196.494 162.806ZM196.711 170.677L200.695 171.336C200.718 171.341 200.741 171.344 200.759 171.366C200.767 171.38 200.773 171.396 200.776 171.412C200.79 171.481 200.809 171.558 200.837 171.633L200.883 171.757C200.894 171.788 200.876 171.81 200.858 171.83L200.853 171.836C200.443 172.328 195.094 178.747 195.083 178.751C195.073 178.755 195.062 178.759 195.047 178.749C195.02 178.731 195.025 178.69 195.03 178.653C195.031 178.647 195.032 178.64 195.032 178.634L195.648 171.994L195.649 171.983C195.652 171.943 195.656 171.898 195.685 171.887L195.714 171.883C195.78 171.871 195.838 171.862 195.893 171.841C196.303 171.69 196.584 171.28 196.643 170.735C196.643 170.721 196.646 170.707 196.651 170.695C196.661 170.673 196.688 170.672 196.711 170.677ZM195.707 179.534L201.538 172.537C201.538 172.537 201.549 172.533 201.564 172.543C201.625 172.583 201.673 172.607 201.718 172.629L201.74 172.636C201.759 172.642 201.779 172.65 201.788 172.67C201.791 172.678 201.793 172.683 201.794 172.691L203.104 178.177L203.109 178.199C203.12 178.241 203.133 178.289 203.104 178.299C202.941 178.377 202.803 178.509 202.703 178.682C202.603 178.855 202.544 179.065 202.531 179.294L202.53 179.302C202.529 179.324 202.528 179.344 202.517 179.359C202.508 179.372 202.49 179.375 202.476 179.376L195.962 179.92C195.955 179.921 195.714 179.533 195.707 179.534Z" stroke="#350F70" stroke-width="6" stroke-linecap="round" stroke-linejoin="round" mask="url(#path-28-outside-1_1721_909)"/>
<path d="M201.946 169.772L201.935 169.77C201.93 169.77 201.924 169.769 201.918 169.765C201.907 169.757 201.898 169.747 201.89 169.735C201.882 169.723 201.876 169.71 201.873 169.696L200.917 165.683L204.194 167.82L202.403 169.965C202.398 169.971 202.392 169.975 202.385 169.977L202.376 169.98C202.372 169.979 202.368 169.977 202.359 169.971C202.227 169.876 202.087 169.808 201.946 169.772V169.772ZM205.03 168.364L208.534 170.648C209.261 171.124 209.625 171.36 209.854 171.706C209.888 171.757 209.92 171.809 209.95 171.864L203.183 170.744C203.18 170.744 203.176 170.743 203.172 170.743C203.146 170.739 203.115 170.734 203.103 170.704C203.092 170.673 203.113 170.648 203.131 170.628L203.136 170.621L205.03 168.364ZM210.229 172.91C210.221 173.26 210.103 173.664 209.904 174.349L208.583 178.874L204.82 179.18L204.8 179.182C204.768 179.186 204.733 179.191 204.719 179.154C204.636 178.969 204.526 178.801 204.397 178.659C204.267 178.518 204.12 178.406 203.965 178.331C203.945 178.317 203.937 178.287 203.932 178.258C203.93 178.254 203.929 178.25 203.929 178.247L202.607 172.707L202.603 172.688C202.591 172.646 202.579 172.597 202.606 172.587C202.735 172.513 202.846 172.404 202.932 172.267C203.017 172.13 203.077 171.967 203.106 171.787C203.108 171.777 203.109 171.767 203.114 171.759C203.129 171.74 203.156 171.744 203.18 171.748L210.228 172.91L210.229 172.91ZM208.279 179.915L206.107 187.359L204.574 180.941L204.573 180.932C204.57 180.924 204.568 180.916 204.567 180.908C204.566 180.886 204.579 180.872 204.591 180.858L204.597 180.851C204.725 180.698 204.815 180.501 204.86 180.276C204.866 180.248 204.876 180.22 204.897 180.207C204.902 180.204 204.908 180.202 204.914 180.201L208.279 179.916L208.279 179.915ZM205.647 188.934L205.402 189.773L196.109 181.256C196.105 181.253 196.102 181.25 196.098 181.247C196.084 181.235 196.069 181.222 196.065 181.204C196.06 181.191 196.062 181.177 196.065 181.165L196.067 181.152C196.072 181.114 196.073 181.076 196.076 181.035L196.077 181.003L196.078 180.999C196.079 180.977 196.08 180.955 196.091 180.939C196.1 180.926 196.119 180.923 196.134 180.922L202.733 180.37C202.751 180.367 202.77 180.371 202.789 180.38C202.8 180.387 202.807 180.398 202.813 180.41C202.934 180.608 203.084 180.776 203.253 180.902C203.422 181.027 203.604 181.108 203.787 181.136C203.808 181.141 203.81 181.169 203.812 181.198C203.812 181.212 203.814 181.225 203.816 181.238C203.969 181.884 205.29 187.436 205.647 188.934ZM205.135 190.686C204.953 191.299 204.835 191.632 204.632 191.824C204.433 192.012 204.179 192.106 203.905 192.093C203.58 192.077 203.216 191.84 202.488 191.365L194.359 186.065L194.68 182.58C194.681 182.563 194.683 182.548 194.69 182.533C194.7 182.513 194.724 182.511 194.745 182.513C195.119 182.525 195.459 182.372 195.708 182.08C195.721 182.066 195.735 182.054 195.754 182.065C195.763 182.07 195.772 182.077 195.78 182.084L205.135 190.687L205.135 190.686ZM193.576 185.554L191.711 184.338L193.645 182.016C193.65 182.01 193.656 182.006 193.663 182.003C193.683 181.996 193.706 182.019 193.726 182.04C193.769 182.082 193.814 182.122 193.86 182.161L193.872 182.171C193.885 182.182 193.885 182.197 193.882 182.213L193.576 185.554L193.576 185.554ZM190.886 183.8L188.527 182.262C188.125 182 187.834 181.811 187.616 181.635L192.897 181.201C192.903 181.201 192.91 181.2 192.917 181.199C192.948 181.194 192.984 181.189 192.998 181.227C193.013 181.267 192.984 181.299 192.96 181.326L192.949 181.339L190.886 183.8ZM186.937 180.647C186.892 180.508 186.86 180.366 186.842 180.224C186.792 179.813 186.913 179.396 187.157 178.562L188.166 175.102C189.765 176.572 191.366 178.039 192.968 179.503C192.995 179.526 193.025 179.552 193.015 179.583C192.976 179.747 192.94 179.922 192.936 180.1C192.936 180.123 192.932 180.144 192.924 180.162C192.919 180.171 192.91 180.172 192.9 180.173L192.898 180.173L186.937 180.646L186.937 180.647ZM188.437 174.176L189.793 169.525C190.104 169.58 191.226 169.765 192.228 169.929C192.988 170.055 193.68 170.168 193.899 170.207C193.921 170.21 193.94 170.214 193.957 170.236C193.968 170.248 193.972 170.268 193.975 170.284C194.03 170.564 194.138 170.835 194.289 171.074C194.44 171.313 194.629 171.512 194.841 171.653C194.868 171.671 194.863 171.712 194.858 171.748L194.856 171.768L194.23 178.525C194.229 178.544 194.228 178.561 194.219 178.576C194.209 178.593 194.187 178.595 194.168 178.596C194.047 178.598 193.929 178.618 193.818 178.657C193.719 178.693 193.621 178.757 193.522 178.824L193.522 178.825C193.51 178.832 193.501 178.839 193.488 178.833C193.473 178.825 193.458 178.814 193.445 178.801L188.436 174.176L188.437 174.176ZM190.068 168.585L191.826 162.562C192.069 161.729 192.191 161.311 192.428 161.088C192.627 160.899 192.881 160.805 193.155 160.818C193.48 160.834 193.845 161.071 194.572 161.546L195.711 162.288L195.144 168.415C195.143 168.433 195.14 168.449 195.133 168.463C195.123 168.483 195.1 168.485 195.079 168.483C194.853 168.476 194.639 168.538 194.457 168.665C194.274 168.792 194.129 168.98 194.033 169.213C194.025 169.241 193.996 169.237 193.971 169.233C193.574 169.162 190.508 168.658 190.068 168.585V168.585ZM196.505 162.806L199.956 165.056L201.115 169.891L201.119 169.903C201.123 169.914 201.125 169.925 201.126 169.936C201.126 169.954 201.115 169.962 201.105 169.972C201.004 170.064 200.92 170.18 200.856 170.316C200.854 170.321 200.851 170.328 200.85 170.334C200.846 170.346 200.843 170.358 200.833 170.363C200.824 170.367 200.815 170.368 200.805 170.367L196.553 169.657L196.544 169.656C196.518 169.652 196.486 169.647 196.474 169.616C196.356 169.36 196.198 169.13 196.012 168.942C195.981 168.911 195.948 168.879 195.949 168.835L196.505 162.806ZM196.722 170.676L200.706 171.336C200.728 171.341 200.752 171.344 200.769 171.366C200.778 171.38 200.784 171.396 200.787 171.412C200.801 171.481 200.82 171.558 200.848 171.633L200.894 171.757C200.905 171.788 200.886 171.81 200.869 171.83L200.864 171.836C200.454 172.328 195.104 178.747 195.094 178.751C195.084 178.755 195.073 178.759 195.058 178.749C195.03 178.731 195.036 178.69 195.041 178.653C195.042 178.647 195.042 178.64 195.043 178.634L195.659 171.994L195.66 171.982C195.663 171.943 195.667 171.898 195.696 171.887L195.725 171.883C195.791 171.871 195.849 171.862 195.904 171.841C196.314 171.69 196.594 171.28 196.653 170.735C196.654 170.721 196.657 170.707 196.662 170.695C196.672 170.673 196.699 170.672 196.722 170.676V170.676ZM195.718 179.534L201.549 172.537C201.549 172.537 201.559 172.533 201.575 172.543C201.635 172.583 201.683 172.607 201.729 172.629L201.75 172.636C201.77 172.642 201.79 172.65 201.799 172.67C201.802 172.678 201.804 172.683 201.805 172.691L203.114 178.177L203.12 178.199C203.131 178.241 203.143 178.289 203.115 178.299C202.952 178.377 202.814 178.509 202.714 178.682C202.614 178.855 202.555 179.065 202.542 179.294L202.541 179.302C202.54 179.323 202.538 179.344 202.528 179.359C202.519 179.372 202.501 179.375 202.486 179.376L195.973 179.92C195.966 179.921 195.725 179.533 195.718 179.534V179.534Z" fill="url(#paint0_radial_1721_909)"/>
<defs>
<radialGradient id="paint0_radial_1721_909" cx="0" cy="0" r="1" gradientUnits="userSpaceOnUse" gradientTransform="translate(186.032 180.582) rotate(69.6868) scale(33.1859 28.4366)">
<stop stop-color="#20C6B7"/>
<stop offset="1" stop-color="#4D9ABF"/>
</radialGradient>
</defs>
</svg>