<svg width="90" height="90" viewBox="0 0 302 309" fill="none" xmlns="http://www.w3.org/2000/svg">
<ellipse opacity="0.1" cx="154.217" cy="288.932" rx="140.262" ry="19.4994" fill="black"/>
<path d="M281.047 157.54C271.81 154.988 262.242 160.368 259.676 169.557C254.941 186.512 239.28 198.354 221.59 198.354H191.982V232.891H221.59C254.816 232.891 284.233 210.648 293.126 178.801C295.692 169.612 290.284 160.093 281.047 157.54Z" fill="#9F3EFF"/>
<path fill-rule="evenodd" clip-rule="evenodd" d="M252.452 167.54C256.139 154.339 269.852 146.665 283.045 150.311C296.251 153.961 304.04 167.601 300.35 180.818C290.546 215.929 258.158 240.391 221.59 240.391H184.482V190.854H221.59C235.938 190.854 248.629 181.232 252.452 167.54ZM191.982 232.891V198.354H221.59C239.28 198.354 254.941 186.512 259.676 169.557C262.242 160.368 271.81 154.988 281.047 157.54C290.284 160.093 295.692 169.612 293.126 178.801C284.233 210.648 254.816 232.891 221.59 232.891H191.982Z" fill="#350F70"/>
<path d="M281.801 157.831C282.554 160.686 282.58 163.771 281.729 166.82C272.836 198.667 243.42 220.909 210.194 220.909H191.888V232.923H221.496C254.722 232.923 284.139 210.681 293.031 178.833C295.517 169.93 290.517 160.717 281.801 157.831Z" fill="#8E2AF3"/>
<path d="M20.7023 157.54C29.9394 154.988 39.507 160.368 42.0733 169.557C46.8081 186.512 62.4691 198.354 80.1588 198.354H109.767V232.891H80.1588C46.9328 232.891 17.5157 210.648 8.62292 178.801C6.05723 169.612 11.4653 160.093 20.7023 157.54Z" fill="#9F3EFF"/>
<path fill-rule="evenodd" clip-rule="evenodd" d="M49.2969 167.54C45.6104 154.339 31.8968 146.665 18.7044 150.311C5.49811 153.961 -2.29095 167.601 1.39919 180.818C11.2032 215.929 43.5907 240.391 80.1588 240.391H117.267V190.854H80.1588C65.8114 190.854 53.1204 181.232 49.2969 167.54ZM109.767 232.891V198.354H80.1588C62.4691 198.354 46.8081 186.512 42.0733 169.557C39.507 160.368 29.9394 154.988 20.7023 157.54C11.4653 160.093 6.05723 169.612 8.62292 178.801C17.5157 210.648 46.9328 232.891 80.1588 232.891H109.767Z" fill="#350F70"/>
<path d="M19.9481 157.831C19.1953 160.686 19.1688 163.771 20.0201 166.82C28.9128 198.667 58.3294 220.909 91.5554 220.909H109.861V232.923H80.253C47.0271 232.923 17.6104 210.681 8.71768 178.833C6.23164 169.93 11.232 160.717 19.9481 157.831Z" fill="#8E2AF3"/>
<path d="M187.122 188.942C188.808 189.565 189.544 191.177 189.544 192.449C189.544 192.856 189.469 193.298 189.312 193.73C188.306 193.342 187.294 192.97 186.276 192.617L186.134 191.46L186.104 191.213L185.796 188.697L122.835 188.699L122.213 188.699L121.625 188.9C101.686 195.7 84.2841 208.913 70.2868 227.883L70.2867 227.883C61.3968 239.932 47.3016 247.102 32.6275 247.102H32.585C21.2176 247.102 11.4419 255.976 11.1234 267.532C10.7954 279.426 20.3882 289.139 32.2238 289.139H32.6275C60.7268 289.139 87.511 275.538 104.309 252.772L101.698 250.845L104.309 252.772C117.731 234.58 134.507 225.632 154.312 225.632C174.118 225.632 190.893 234.58 204.315 252.772L207.333 250.545L204.315 252.772C221.115 275.539 247.898 289.139 275.997 289.139H276.401C288.237 289.139 297.83 279.426 297.502 267.532C297.183 255.977 287.407 247.103 276.04 247.103H275.997C261.324 247.103 247.228 239.932 238.338 227.883C224.369 208.952 207.01 195.755 187.122 188.942ZM187.122 188.942C187.062 188.919 187.001 188.899 186.939 188.879M187.122 188.942C187.084 188.928 187.045 188.915 187.007 188.902L186.939 188.879M186.939 188.879C186.861 188.855 186.782 188.832 186.701 188.812L186.856 188.851L186.939 188.879Z" fill="#8952FF" stroke="#350F70" stroke-width="7.5"/>
<path d="M15.2603 268.822C17.7423 270.418 20.6668 271.394 23.8271 271.522C56.8419 272.862 87.0455 251.703 97.2776 220.067L102.915 202.638L114.336 206.337L105.218 234.528C94.9858 266.164 64.7822 287.324 31.7675 285.983C22.5376 285.608 15.3191 278.01 15.2603 268.822Z" fill="#6D3DF5"/>
<path d="M293.555 268.822C291.073 270.418 288.149 271.393 284.988 271.522C251.974 272.862 221.77 251.703 211.538 220.067L205.901 202.638L194.48 206.337L203.597 234.528C213.83 266.164 244.033 287.324 277.048 285.983C286.278 285.608 293.496 278.01 293.555 268.822Z" fill="#6D3DF5"/>
<path d="M212.303 234.071L212.303 234.07C208.424 222.015 202.908 211.927 195.895 204.12C233.053 188.114 259.073 151.304 259.073 108.423C259.073 50.8376 212.152 4.18848 154.312 4.18848C96.4724 4.18848 49.5508 50.8376 49.5508 108.424C49.5508 151.305 75.5713 188.115 112.73 204.121C105.717 211.928 100.201 222.016 96.3214 234.071L96.3214 234.072C93.6017 242.525 85.9265 248.144 77.2608 248.144H77.1927C65.8427 248.144 56.6078 257.303 56.6078 268.641C56.6078 279.98 65.842 289.139 77.1927 289.139H77.2608C103.923 289.139 127.342 272.023 135.529 246.58L131.96 245.431L135.529 246.58C138.994 235.813 143.158 231.023 146.405 228.829C149.601 226.669 152.418 226.657 154.313 226.657C156.208 226.657 159.024 226.669 162.221 228.829C165.467 231.023 169.632 235.813 173.096 246.579C181.283 272.023 204.702 289.139 231.364 289.139H231.432C242.782 289.139 252.017 279.98 252.017 268.641C252.017 257.303 242.782 248.144 231.432 248.144H231.364C222.698 248.144 215.023 242.525 212.303 234.071Z" fill="#BC87FF" stroke="#350F70" stroke-width="7.5"/>
<path d="M131.959 245.431C139.207 222.906 150.181 222.906 154.313 222.906C158.444 222.906 169.418 222.906 176.666 245.43C184.356 269.331 206.338 285.389 231.364 285.389H231.432C240.73 285.389 248.267 277.89 248.267 268.641C248.267 259.392 240.73 251.894 231.432 251.894H231.364C221.037 251.894 211.942 245.193 208.734 235.219C204.278 221.37 197.662 210.438 189.254 202.732C77.0608 185.764 53.2898 61.7745 93.1266 28.4729C68.9247 46.8307 53.3018 75.8096 53.3018 108.424C53.3018 151.701 80.8047 188.586 119.372 202.732C110.964 210.438 104.349 221.37 99.8921 235.22C96.6837 245.193 87.5883 251.894 77.2618 251.894H77.1937C67.8962 251.894 60.3588 259.392 60.3588 268.641C60.3588 277.89 67.8951 285.389 77.1932 285.389H77.2613C102.287 285.389 124.269 269.331 131.959 245.431V245.431Z" fill="#AE71FD"/>
<path d="M154.313 209.396C150.182 209.396 139.208 209.396 131.96 231.92C124.269 255.82 102.288 271.878 77.2619 271.878H77.1938C70.3726 271.878 64.4996 267.842 61.8546 262.041C60.8942 264.147 60.3594 266.487 60.3594 268.95C60.3594 278.199 67.8957 285.698 77.1938 285.698H77.2619C102.288 285.698 124.269 269.64 131.96 245.74C139.208 223.216 150.182 223.216 154.313 223.216C158.444 223.216 169.419 223.216 176.666 245.739C184.357 269.64 206.338 285.698 231.365 285.698H231.433C240.731 285.698 248.268 278.199 248.268 268.95C248.268 266.487 247.733 264.147 246.773 262.04C244.127 267.842 238.254 271.878 231.433 271.878H231.365C206.338 271.878 184.357 255.82 176.666 231.919C169.419 209.396 158.444 209.396 154.313 209.396Z" fill="#8E40F0"/>
<path d="M102.037 87.321C94.2885 87.321 88.0072 81.0724 88.0072 73.3645C88.0072 65.6565 94.2885 59.408 102.037 59.408C109.785 59.408 116.066 65.6565 116.066 73.3645C116.066 81.0724 109.785 87.321 102.037 87.321Z" fill="#AE71FD"/>
<path d="M132.632 51.0002C127.983 51.0002 124.214 47.2511 124.214 42.6263C124.214 38.0016 127.983 34.2524 132.632 34.2524C137.281 34.2524 141.05 38.0016 141.05 42.6263C141.05 47.2511 137.281 51.0002 132.632 51.0002Z" fill="#AE71FD"/>
<path d="M212.917 54.9642C211.552 55.1335 210.124 54.7427 209.009 53.7672C207.373 52.3361 205.647 50.9675 203.879 49.6987C201.641 48.0929 201.132 44.9818 202.741 42.7498C204.351 40.5178 207.469 40.01 209.707 41.6148C211.734 43.0696 213.714 44.6392 215.59 46.2799C217.662 48.0928 217.869 51.2378 216.052 53.3054C215.213 54.261 214.088 54.8189 212.917 54.9642Z" fill="#DBBFFF"/>
<path d="M235.527 92.0345C233.052 92.3415 230.683 90.759 230.072 88.2832C228.284 81.0427 225.326 74.2002 221.28 67.9448C219.785 65.6343 220.451 62.553 222.767 61.0621C225.084 59.5706 228.173 60.2355 229.667 62.5457C234.314 69.7299 237.711 77.5881 239.764 85.902C240.423 88.5716 238.787 91.2694 236.111 91.9265C235.917 91.9746 235.722 92.0103 235.527 92.0345V92.0345Z" fill="#DBBFFF"/>
<g style="" opacity="0.24">
<path d="M175.563 151.251C175.306 150.745 174.923 150.313 174.45 149.997C173.978 149.681 173.431 149.492 172.864 149.447C172.82 149.441 172.775 149.441 172.731 149.447C172.684 149.441 172.636 149.441 172.589 149.447C171.984 149.488 171.405 149.709 170.926 150.08C170.448 150.451 170.091 150.957 169.902 151.531L169.881 151.552C169.535 151.974 169.612 152.762 169.375 153.261C168.924 154.282 168.141 155.12 167.153 155.641C164.889 156.857 161.453 156.272 159.364 154.917C158.892 154.507 158.471 154.04 158.112 153.527C157.87 153.131 157.816 152.668 157.55 152.264C157.249 151.78 156.814 151.393 156.298 151.151C155.876 150.965 155.42 150.869 154.959 150.869C154.498 150.869 154.042 150.965 153.62 151.151C152.451 151.72 152.315 152.665 151.717 153.681C150.238 156.205 146.219 156.65 143.635 155.968C143.011 155.797 142.429 155.499 141.925 155.092C141.421 154.686 141.007 154.18 140.709 153.607C140.392 153.016 140.386 152.396 140.164 151.797C140.136 151.717 140.087 151.645 140.022 151.59C139.188 149.368 136.368 148.638 134.681 150.728C133.728 151.909 134.228 153.559 134.639 154.861C135.182 156.515 136.123 158.01 137.38 159.216C141.963 163.67 150.211 163.142 154.955 159.216C159.16 162.667 165.8 163.366 170.529 160.639C172.712 159.349 174.375 157.34 175.232 154.959C175.622 153.902 176.096 152.328 175.563 151.251Z" fill="#605DE0"/>
</g>
<path d="M175.563 149.298C175.306 148.791 174.923 148.36 174.45 148.044C173.978 147.728 173.431 147.538 172.864 147.494C172.82 147.488 172.775 147.488 172.731 147.494C172.684 147.488 172.636 147.488 172.589 147.494C171.984 147.535 171.405 147.755 170.926 148.127C170.448 148.498 170.091 149.003 169.902 149.578L169.881 149.599C169.535 150.021 169.612 150.809 169.375 151.308C168.924 152.328 168.141 153.167 167.153 153.687C164.889 154.904 161.453 154.319 159.364 152.964C158.892 152.553 158.471 152.086 158.112 151.574C157.87 151.178 157.816 150.715 157.55 150.31C157.249 149.827 156.814 149.44 156.298 149.197C155.876 149.012 155.42 148.916 154.959 148.916C154.498 148.916 154.042 149.012 153.62 149.197C152.451 149.767 152.315 150.712 151.717 151.727C150.238 154.251 146.219 154.697 143.635 154.015C143.011 153.844 142.429 153.545 141.925 153.139C141.421 152.733 141.007 152.227 140.709 151.653C140.392 151.063 140.386 150.443 140.164 149.844C140.136 149.763 140.087 149.692 140.022 149.637C139.188 147.414 136.368 146.685 134.681 148.775C133.728 149.956 134.228 151.606 134.639 152.908C135.182 154.561 136.123 156.056 137.38 157.262C141.963 161.717 150.211 161.189 154.955 157.262C159.16 160.713 165.8 161.413 170.529 158.685C172.712 157.396 174.375 155.387 175.232 153.005C175.622 151.949 176.096 150.375 175.563 149.298Z" fill="#350F70"/>
<g style="" opacity="0.24">
<path d="M207.526 161.239C192.299 162.378 179.025 150.983 177.878 135.787C176.731 120.592 188.146 107.35 203.374 106.211C218.601 105.072 231.875 116.468 233.022 131.663C234.168 146.858 222.754 160.1 207.526 161.239Z" fill="#605DE0"/>
</g>
<path d="M207.167 156.412C193.278 157.449 181.17 147.051 180.122 133.188C179.074 119.324 189.483 107.245 203.371 106.208C217.26 105.172 229.368 115.569 230.416 129.433C231.464 143.296 221.055 155.375 207.167 156.412Z" fill="white" stroke="#350F70" stroke-width="4" stroke-miterlimit="10"/>
<path d="M203.286 151.885C191.376 152.774 180.993 143.857 180.094 131.969C179.195 120.081 188.121 109.723 200.031 108.834C211.941 107.945 222.324 116.861 223.223 128.749C224.122 140.638 215.196 150.996 203.286 151.885Z" stroke="#350F70" stroke-width="2.91819" stroke-miterlimit="10"/>
<path d="M202.823 150.699C191.119 151.573 180.915 142.81 180.031 131.127C179.148 119.444 187.92 109.264 199.625 108.39C211.329 107.516 221.533 116.279 222.417 127.962C223.3 139.646 214.528 149.825 202.823 150.699Z" fill="#350F70"/>
<ellipse rx="5.0932" ry="3.01306" transform="matrix(-0.901678 -0.433082 -0.434348 0.90042 210.764 115.686)" fill="white"/>
<ellipse rx="2.56043" ry="1.64967" transform="matrix(-0.75912 -0.651469 -0.652821 0.757066 193.303 145.194)" fill="white"/>
<g style="" opacity="0.24">
<path d="M105.251 161.239C90.0235 162.378 76.7495 150.983 75.6028 135.787C74.456 120.592 85.8707 107.35 101.098 106.211C116.326 105.072 129.6 116.468 130.746 131.663C131.893 146.858 120.478 160.1 105.251 161.239Z" fill="#605DE0"/>
</g>
<path d="M104.893 156.412C91.0047 157.449 78.8963 147.051 77.8482 133.188C76.8001 119.324 87.2093 107.245 101.098 106.208C114.986 105.172 127.095 115.569 128.143 129.433C129.191 143.296 118.782 155.375 104.893 156.412Z" fill="white" stroke="#350F70" stroke-width="4" stroke-miterlimit="10"/>
<path d="M101.012 151.885C89.1027 152.774 78.7193 143.857 77.8206 131.969C76.9219 120.081 85.848 109.723 97.7578 108.834C109.668 107.945 120.051 116.861 120.95 128.749C121.848 140.638 112.922 150.996 101.012 151.885Z" stroke="#350F70" stroke-width="2.91819" stroke-miterlimit="10"/>
<path d="M100.55 150.699C88.8454 151.572 78.6411 142.81 77.7578 131.126C76.8746 119.443 85.6468 109.264 97.3512 108.39C109.056 107.516 119.26 116.279 120.143 127.962C121.026 139.645 112.254 149.825 100.55 150.699Z" fill="#350F70"/>
<ellipse rx="5.0932" ry="3.01306" transform="matrix(-0.901678 -0.433082 -0.434348 0.90042 108.49 115.686)" fill="white"/>
<ellipse rx="2.56043" ry="1.64967" transform="matrix(-0.75912 -0.651469 -0.652821 0.757066 91.0292 145.194)" fill="white"/>
<path d="M198.203 203.317C198.203 210.49 178.51 216.304 154.217 216.304C129.924 216.304 110.23 210.49 110.23 203.317" stroke="#350F70" stroke-width="7" stroke-linecap="round"/>
<mask id="path-33-outside-1_1725_1375" maskUnits="userSpaceOnUse" x="133.637" y="202.337" width="42" height="42" fill="black">
<rect fill="white" x="133.637" y="202.337" width="42" height="42"/>
<path d="M161.669 217.866L161.657 217.861C161.65 217.858 161.643 217.856 161.637 217.85C161.627 217.839 161.62 217.826 161.615 217.812C161.611 217.798 161.61 217.784 161.613 217.769L162.282 213.674L165.42 216.816L162.156 218.206C162.147 218.21 162.137 218.211 162.128 218.211H162.115C162.11 218.209 162.106 218.205 162.097 218.196C161.976 218.061 161.831 217.949 161.669 217.866V217.866ZM166.221 217.617L169.577 220.975C170.274 221.673 170.623 222.022 170.75 222.426C170.769 222.485 170.785 222.545 170.797 222.607L162.777 219.208C162.773 219.206 162.768 219.204 162.764 219.202C162.732 219.189 162.695 219.175 162.695 219.142C162.695 219.109 162.733 219.093 162.765 219.08L162.775 219.076L166.221 217.617ZM170.66 223.685C170.487 224.01 170.149 224.348 169.578 224.921L165.794 228.706L160.901 227.687L160.875 227.681C160.832 227.675 160.786 227.667 160.786 227.628C160.767 227.426 160.707 227.23 160.61 227.052C160.512 226.874 160.379 226.718 160.219 226.594C160.199 226.574 160.204 226.543 160.21 226.514C160.21 226.51 160.21 226.506 160.212 226.502L161.132 220.848L161.136 220.829C161.141 220.785 161.149 220.735 161.187 220.735C161.385 220.711 161.575 220.647 161.747 220.548C161.92 220.449 162.071 220.317 162.192 220.159C162.2 220.15 162.205 220.141 162.215 220.136C162.243 220.123 162.276 220.136 162.304 220.148L170.659 223.685H170.66ZM164.924 229.577L158.703 235.804L159.768 229.253L159.769 229.245C159.77 229.236 159.772 229.227 159.775 229.219C159.783 229.199 159.806 229.19 159.827 229.181L159.838 229.177C160.071 229.077 160.277 228.924 160.439 228.729C160.46 228.705 160.485 228.681 160.517 228.677C160.526 228.676 160.534 228.676 160.542 228.677L164.923 229.578L164.924 229.577ZM157.386 237.121L156.685 237.823L148.932 226.61C148.929 226.606 148.926 226.602 148.923 226.598C148.911 226.581 148.898 226.565 148.9 226.546C148.9 226.532 148.91 226.52 148.919 226.509L148.928 226.498C148.952 226.463 148.971 226.429 148.993 226.391L149.01 226.361L149.013 226.358C149.025 226.338 149.036 226.318 149.057 226.306C149.075 226.298 149.1 226.301 149.12 226.306L157.71 228.078C157.734 228.082 157.756 228.092 157.775 228.107C157.787 228.118 157.789 228.13 157.792 228.144C157.852 228.371 157.963 228.581 158.118 228.758C158.272 228.934 158.465 229.073 158.682 229.162C158.706 229.174 158.696 229.201 158.685 229.23C158.679 229.242 158.675 229.255 158.672 229.269C158.563 229.927 157.635 235.592 157.386 237.121ZM155.921 238.587C155.404 239.099 155.099 239.37 154.755 239.479C154.415 239.587 154.05 239.587 153.711 239.479C153.307 239.351 152.958 239.003 152.261 238.304L144.475 230.512L146.509 227.356C146.519 227.34 146.528 227.326 146.544 227.315C146.565 227.299 146.597 227.306 146.623 227.315C147.089 227.456 147.591 227.43 148.041 227.243C148.064 227.234 148.087 227.228 148.106 227.245C148.115 227.253 148.123 227.262 148.13 227.272L155.921 238.587V238.587ZM143.725 229.761L141.939 227.973L145.466 226.468C145.475 226.464 145.485 226.462 145.494 226.461C145.524 226.461 145.541 226.491 145.557 226.518C145.592 226.572 145.63 226.626 145.669 226.677L145.681 226.691C145.691 226.706 145.684 226.721 145.674 226.734L143.726 229.761H143.725ZM141.148 227.182L138.889 224.921C138.504 224.536 138.225 224.257 138.032 224.017L144.902 225.443C144.911 225.445 144.92 225.446 144.928 225.448C144.971 225.455 145.017 225.462 145.017 225.502C145.017 225.546 144.966 225.566 144.923 225.582L144.903 225.591L141.148 227.182ZM137.637 222.854C137.645 222.709 137.671 222.565 137.715 222.426C137.843 222.022 138.191 221.673 138.889 220.975L141.78 218.081C143.112 220.015 144.447 221.946 145.785 223.875C145.809 223.906 145.835 223.941 145.808 223.967C145.681 224.106 145.555 224.259 145.466 224.424C145.456 224.446 145.441 224.464 145.423 224.478C145.411 224.485 145.399 224.483 145.386 224.48H145.385L137.637 222.854V222.854ZM142.554 217.307L146.441 213.415C146.807 213.576 148.138 214.138 149.326 214.64C150.227 215.022 151.048 215.368 151.306 215.481C151.332 215.491 151.355 215.502 151.366 215.528C151.373 215.543 151.37 215.563 151.366 215.58C151.305 215.861 151.314 216.152 151.393 216.429C151.472 216.705 151.618 216.958 151.819 217.164C151.845 217.19 151.819 217.227 151.796 217.259L151.784 217.277L147.836 223.397C147.826 223.414 147.816 223.429 147.799 223.44C147.778 223.453 147.749 223.447 147.725 223.441C147.571 223.401 147.413 223.379 147.255 223.377C147.113 223.377 146.958 223.403 146.803 223.432H146.802C146.784 223.434 146.769 223.438 146.755 223.427C146.74 223.415 146.727 223.4 146.716 223.383L142.553 217.307H142.554ZM147.228 212.629L152.261 207.592C152.958 206.894 153.307 206.545 153.711 206.418C154.05 206.31 154.415 206.31 154.755 206.418C155.158 206.545 155.507 206.894 156.204 207.592L157.295 208.684L153.715 214.232C153.706 214.249 153.694 214.263 153.679 214.274C153.658 214.289 153.628 214.283 153.602 214.274C153.319 214.188 153.02 214.173 152.731 214.229C152.441 214.284 152.169 214.41 151.939 214.595C151.916 214.619 151.881 214.605 151.852 214.592C151.384 214.388 147.748 212.85 147.228 212.629V212.629ZM158.055 209.444L161.361 212.752L160.564 217.69V217.703C160.563 217.714 160.561 217.725 160.557 217.735C160.549 217.753 160.531 217.756 160.514 217.761C160.344 217.813 160.183 217.893 160.039 217.998C160.033 218.002 160.027 218.007 160.022 218.013C160.013 218.023 160.003 218.033 159.988 218.034C159.975 218.035 159.962 218.033 159.95 218.028L154.913 215.886L154.904 215.882C154.872 215.869 154.834 215.854 154.834 215.821C154.804 215.54 154.712 215.269 154.565 215.028C154.541 214.988 154.514 214.946 154.535 214.906L158.055 209.444ZM154.651 216.901L159.373 218.903C159.399 218.915 159.427 218.926 159.439 218.953C159.443 218.969 159.443 218.986 159.439 219.002C159.425 219.072 159.413 219.15 159.413 219.23V219.363C159.413 219.396 159.379 219.409 159.348 219.422L159.338 219.426C158.59 219.746 148.836 223.908 148.822 223.908C148.807 223.908 148.791 223.908 148.777 223.893C148.751 223.867 148.777 223.831 148.8 223.798C148.804 223.792 148.808 223.787 148.812 223.781L152.693 217.768L152.699 217.757C152.722 217.721 152.748 217.68 152.789 217.68L152.828 217.686C152.917 217.698 152.995 217.709 153.073 217.709C153.662 217.709 154.208 217.423 154.537 216.932C154.544 216.919 154.554 216.907 154.566 216.898C154.589 216.88 154.624 216.889 154.651 216.901V216.901ZM149.243 224.859L159.875 220.322C159.875 220.322 159.891 220.322 159.905 220.337C159.963 220.395 160.013 220.434 160.06 220.47L160.084 220.485C160.105 220.497 160.127 220.511 160.129 220.533C160.129 220.542 160.129 220.547 160.127 220.555L159.216 226.154L159.213 226.176C159.207 226.22 159.201 226.269 159.16 226.269C158.917 226.286 158.682 226.361 158.475 226.489C158.268 226.617 158.095 226.793 157.971 227.003L157.967 227.01C157.955 227.03 157.943 227.049 157.924 227.059C157.905 227.068 157.882 227.065 157.863 227.06L149.384 225.31C149.376 225.308 149.253 224.86 149.243 224.859V224.859Z"/>
</mask>
<path d="M161.669 217.866L161.657 217.861C161.65 217.858 161.643 217.856 161.637 217.85C161.627 217.839 161.62 217.826 161.615 217.812C161.611 217.798 161.61 217.784 161.613 217.769L162.282 213.674L165.42 216.816L162.156 218.206C162.147 218.21 162.137 218.211 162.128 218.211H162.115C162.11 218.209 162.106 218.205 162.097 218.196C161.976 218.061 161.831 217.949 161.669 217.866V217.866ZM166.221 217.617L169.577 220.975C170.274 221.673 170.623 222.022 170.75 222.426C170.769 222.485 170.785 222.545 170.797 222.607L162.777 219.208C162.773 219.206 162.768 219.204 162.764 219.202C162.732 219.189 162.695 219.175 162.695 219.142C162.695 219.109 162.733 219.093 162.765 219.08L162.775 219.076L166.221 217.617ZM170.66 223.685C170.487 224.01 170.149 224.348 169.578 224.921L165.794 228.706L160.901 227.687L160.875 227.681C160.832 227.675 160.786 227.667 160.786 227.628C160.767 227.426 160.707 227.23 160.61 227.052C160.512 226.874 160.379 226.718 160.219 226.594C160.199 226.574 160.204 226.543 160.21 226.514C160.21 226.51 160.21 226.506 160.212 226.502L161.132 220.848L161.136 220.829C161.141 220.785 161.149 220.735 161.187 220.735C161.385 220.711 161.575 220.647 161.747 220.548C161.92 220.449 162.071 220.317 162.192 220.159C162.2 220.15 162.205 220.141 162.215 220.136C162.243 220.123 162.276 220.136 162.304 220.148L170.659 223.685H170.66ZM164.924 229.577L158.703 235.804L159.768 229.253L159.769 229.245C159.77 229.236 159.772 229.227 159.775 229.219C159.783 229.199 159.806 229.19 159.827 229.181L159.838 229.177C160.071 229.077 160.277 228.924 160.439 228.729C160.46 228.705 160.485 228.681 160.517 228.677C160.526 228.676 160.534 228.676 160.542 228.677L164.923 229.578L164.924 229.577ZM157.386 237.121L156.685 237.823L148.932 226.61C148.929 226.606 148.926 226.602 148.923 226.598C148.911 226.581 148.898 226.565 148.9 226.546C148.9 226.532 148.91 226.52 148.919 226.509L148.928 226.498C148.952 226.463 148.971 226.429 148.993 226.391L149.01 226.361L149.013 226.358C149.025 226.338 149.036 226.318 149.057 226.306C149.075 226.298 149.1 226.301 149.12 226.306L157.71 228.078C157.734 228.082 157.756 228.092 157.775 228.107C157.787 228.118 157.789 228.13 157.792 228.144C157.852 228.371 157.963 228.581 158.118 228.758C158.272 228.934 158.465 229.073 158.682 229.162C158.706 229.174 158.696 229.201 158.685 229.23C158.679 229.242 158.675 229.255 158.672 229.269C158.563 229.927 157.635 235.592 157.386 237.121ZM155.921 238.587C155.404 239.099 155.099 239.37 154.755 239.479C154.415 239.587 154.05 239.587 153.711 239.479C153.307 239.351 152.958 239.003 152.261 238.304L144.475 230.512L146.509 227.356C146.519 227.34 146.528 227.326 146.544 227.315C146.565 227.299 146.597 227.306 146.623 227.315C147.089 227.456 147.591 227.43 148.041 227.243C148.064 227.234 148.087 227.228 148.106 227.245C148.115 227.253 148.123 227.262 148.13 227.272L155.921 238.587V238.587ZM143.725 229.761L141.939 227.973L145.466 226.468C145.475 226.464 145.485 226.462 145.494 226.461C145.524 226.461 145.541 226.491 145.557 226.518C145.592 226.572 145.63 226.626 145.669 226.677L145.681 226.691C145.691 226.706 145.684 226.721 145.674 226.734L143.726 229.761H143.725ZM141.148 227.182L138.889 224.921C138.504 224.536 138.225 224.257 138.032 224.017L144.902 225.443C144.911 225.445 144.92 225.446 144.928 225.448C144.971 225.455 145.017 225.462 145.017 225.502C145.017 225.546 144.966 225.566 144.923 225.582L144.903 225.591L141.148 227.182ZM137.637 222.854C137.645 222.709 137.671 222.565 137.715 222.426C137.843 222.022 138.191 221.673 138.889 220.975L141.78 218.081C143.112 220.015 144.447 221.946 145.785 223.875C145.809 223.906 145.835 223.941 145.808 223.967C145.681 224.106 145.555 224.259 145.466 224.424C145.456 224.446 145.441 224.464 145.423 224.478C145.411 224.485 145.399 224.483 145.386 224.48H145.385L137.637 222.854V222.854ZM142.554 217.307L146.441 213.415C146.807 213.576 148.138 214.138 149.326 214.64C150.227 215.022 151.048 215.368 151.306 215.481C151.332 215.491 151.355 215.502 151.366 215.528C151.373 215.543 151.37 215.563 151.366 215.58C151.305 215.861 151.314 216.152 151.393 216.429C151.472 216.705 151.618 216.958 151.819 217.164C151.845 217.19 151.819 217.227 151.796 217.259L151.784 217.277L147.836 223.397C147.826 223.414 147.816 223.429 147.799 223.44C147.778 223.453 147.749 223.447 147.725 223.441C147.571 223.401 147.413 223.379 147.255 223.377C147.113 223.377 146.958 223.403 146.803 223.432H146.802C146.784 223.434 146.769 223.438 146.755 223.427C146.74 223.415 146.727 223.4 146.716 223.383L142.553 217.307H142.554ZM147.228 212.629L152.261 207.592C152.958 206.894 153.307 206.545 153.711 206.418C154.05 206.31 154.415 206.31 154.755 206.418C155.158 206.545 155.507 206.894 156.204 207.592L157.295 208.684L153.715 214.232C153.706 214.249 153.694 214.263 153.679 214.274C153.658 214.289 153.628 214.283 153.602 214.274C153.319 214.188 153.02 214.173 152.731 214.229C152.441 214.284 152.169 214.41 151.939 214.595C151.916 214.619 151.881 214.605 151.852 214.592C151.384 214.388 147.748 212.85 147.228 212.629V212.629ZM158.055 209.444L161.361 212.752L160.564 217.69V217.703C160.563 217.714 160.561 217.725 160.557 217.735C160.549 217.753 160.531 217.756 160.514 217.761C160.344 217.813 160.183 217.893 160.039 217.998C160.033 218.002 160.027 218.007 160.022 218.013C160.013 218.023 160.003 218.033 159.988 218.034C159.975 218.035 159.962 218.033 159.95 218.028L154.913 215.886L154.904 215.882C154.872 215.869 154.834 215.854 154.834 215.821C154.804 215.54 154.712 215.269 154.565 215.028C154.541 214.988 154.514 214.946 154.535 214.906L158.055 209.444ZM154.651 216.901L159.373 218.903C159.399 218.915 159.427 218.926 159.439 218.953C159.443 218.969 159.443 218.986 159.439 219.002C159.425 219.072 159.413 219.15 159.413 219.23V219.363C159.413 219.396 159.379 219.409 159.348 219.422L159.338 219.426C158.59 219.746 148.836 223.908 148.822 223.908C148.807 223.908 148.791 223.908 148.777 223.893C148.751 223.867 148.777 223.831 148.8 223.798C148.804 223.792 148.808 223.787 148.812 223.781L152.693 217.768L152.699 217.757C152.722 217.721 152.748 217.68 152.789 217.68L152.828 217.686C152.917 217.698 152.995 217.709 153.073 217.709C153.662 217.709 154.208 217.423 154.537 216.932C154.544 216.919 154.554 216.907 154.566 216.898C154.589 216.88 154.624 216.889 154.651 216.901V216.901ZM149.243 224.859L159.875 220.322C159.875 220.322 159.891 220.322 159.905 220.337C159.963 220.395 160.013 220.434 160.06 220.47L160.084 220.485C160.105 220.497 160.127 220.511 160.129 220.533C160.129 220.542 160.129 220.547 160.127 220.555L159.216 226.154L159.213 226.176C159.207 226.22 159.201 226.269 159.16 226.269C158.917 226.286 158.682 226.361 158.475 226.489C158.268 226.617 158.095 226.793 157.971 227.003L157.967 227.01C157.955 227.03 157.943 227.049 157.924 227.059C157.905 227.068 157.882 227.065 157.863 227.06L149.384 225.31C149.376 225.308 149.253 224.86 149.243 224.859V224.859Z" fill="url(#paint0_radial_1725_1375)"/>
<path d="M161.669 217.866L161.657 217.861C161.65 217.858 161.643 217.856 161.637 217.85C161.627 217.839 161.62 217.826 161.615 217.812C161.611 217.798 161.61 217.784 161.613 217.769L162.282 213.674L165.42 216.816L162.156 218.206C162.147 218.21 162.137 218.211 162.128 218.211H162.115C162.11 218.209 162.106 218.205 162.097 218.196C161.976 218.061 161.831 217.949 161.669 217.866V217.866ZM166.221 217.617L169.577 220.975C170.274 221.673 170.623 222.022 170.75 222.426C170.769 222.485 170.785 222.545 170.797 222.607L162.777 219.208C162.773 219.206 162.768 219.204 162.764 219.202C162.732 219.189 162.695 219.175 162.695 219.142C162.695 219.109 162.733 219.093 162.765 219.08L162.775 219.076L166.221 217.617ZM170.66 223.685C170.487 224.01 170.149 224.348 169.578 224.921L165.794 228.706L160.901 227.687L160.875 227.681C160.832 227.675 160.786 227.667 160.786 227.628C160.767 227.426 160.707 227.23 160.61 227.052C160.512 226.874 160.379 226.718 160.219 226.594C160.199 226.574 160.204 226.543 160.21 226.514C160.21 226.51 160.21 226.506 160.212 226.502L161.132 220.848L161.136 220.829C161.141 220.785 161.149 220.735 161.187 220.735C161.385 220.711 161.575 220.647 161.747 220.548C161.92 220.449 162.071 220.317 162.192 220.159C162.2 220.15 162.205 220.141 162.215 220.136C162.243 220.123 162.276 220.136 162.304 220.148L170.659 223.685H170.66ZM164.924 229.577L158.703 235.804L159.768 229.253L159.769 229.245C159.77 229.236 159.772 229.227 159.775 229.219C159.783 229.199 159.806 229.19 159.827 229.181L159.838 229.177C160.071 229.077 160.277 228.924 160.439 228.729C160.46 228.705 160.485 228.681 160.517 228.677C160.526 228.676 160.534 228.676 160.542 228.677L164.923 229.578L164.924 229.577ZM157.386 237.121L156.685 237.823L148.932 226.61C148.929 226.606 148.926 226.602 148.923 226.598C148.911 226.581 148.898 226.565 148.9 226.546C148.9 226.532 148.91 226.52 148.919 226.509L148.928 226.498C148.952 226.463 148.971 226.429 148.993 226.391L149.01 226.361L149.013 226.358C149.025 226.338 149.036 226.318 149.057 226.306C149.075 226.298 149.1 226.301 149.12 226.306L157.71 228.078C157.734 228.082 157.756 228.092 157.775 228.107C157.787 228.118 157.789 228.13 157.792 228.144C157.852 228.371 157.963 228.581 158.118 228.758C158.272 228.934 158.465 229.073 158.682 229.162C158.706 229.174 158.696 229.201 158.685 229.23C158.679 229.242 158.675 229.255 158.672 229.269C158.563 229.927 157.635 235.592 157.386 237.121ZM155.921 238.587C155.404 239.099 155.099 239.37 154.755 239.479C154.415 239.587 154.05 239.587 153.711 239.479C153.307 239.351 152.958 239.003 152.261 238.304L144.475 230.512L146.509 227.356C146.519 227.34 146.528 227.326 146.544 227.315C146.565 227.299 146.597 227.306 146.623 227.315C147.089 227.456 147.591 227.43 148.041 227.243C148.064 227.234 148.087 227.228 148.106 227.245C148.115 227.253 148.123 227.262 148.13 227.272L155.921 238.587V238.587ZM143.725 229.761L141.939 227.973L145.466 226.468C145.475 226.464 145.485 226.462 145.494 226.461C145.524 226.461 145.541 226.491 145.557 226.518C145.592 226.572 145.63 226.626 145.669 226.677L145.681 226.691C145.691 226.706 145.684 226.721 145.674 226.734L143.726 229.761H143.725ZM141.148 227.182L138.889 224.921C138.504 224.536 138.225 224.257 138.032 224.017L144.902 225.443C144.911 225.445 144.92 225.446 144.928 225.448C144.971 225.455 145.017 225.462 145.017 225.502C145.017 225.546 144.966 225.566 144.923 225.582L144.903 225.591L141.148 227.182ZM137.637 222.854C137.645 222.709 137.671 222.565 137.715 222.426C137.843 222.022 138.191 221.673 138.889 220.975L141.78 218.081C143.112 220.015 144.447 221.946 145.785 223.875C145.809 223.906 145.835 223.941 145.808 223.967C145.681 224.106 145.555 224.259 145.466 224.424C145.456 224.446 145.441 224.464 145.423 224.478C145.411 224.485 145.399 224.483 145.386 224.48H145.385L137.637 222.854V222.854ZM142.554 217.307L146.441 213.415C146.807 213.576 148.138 214.138 149.326 214.64C150.227 215.022 151.048 215.368 151.306 215.481C151.332 215.491 151.355 215.502 151.366 215.528C151.373 215.543 151.37 215.563 151.366 215.58C151.305 215.861 151.314 216.152 151.393 216.429C151.472 216.705 151.618 216.958 151.819 217.164C151.845 217.19 151.819 217.227 151.796 217.259L151.784 217.277L147.836 223.397C147.826 223.414 147.816 223.429 147.799 223.44C147.778 223.453 147.749 223.447 147.725 223.441C147.571 223.401 147.413 223.379 147.255 223.377C147.113 223.377 146.958 223.403 146.803 223.432H146.802C146.784 223.434 146.769 223.438 146.755 223.427C146.74 223.415 146.727 223.4 146.716 223.383L142.553 217.307H142.554ZM147.228 212.629L152.261 207.592C152.958 206.894 153.307 206.545 153.711 206.418C154.05 206.31 154.415 206.31 154.755 206.418C155.158 206.545 155.507 206.894 156.204 207.592L157.295 208.684L153.715 214.232C153.706 214.249 153.694 214.263 153.679 214.274C153.658 214.289 153.628 214.283 153.602 214.274C153.319 214.188 153.02 214.173 152.731 214.229C152.441 214.284 152.169 214.41 151.939 214.595C151.916 214.619 151.881 214.605 151.852 214.592C151.384 214.388 147.748 212.85 147.228 212.629V212.629ZM158.055 209.444L161.361 212.752L160.564 217.69V217.703C160.563 217.714 160.561 217.725 160.557 217.735C160.549 217.753 160.531 217.756 160.514 217.761C160.344 217.813 160.183 217.893 160.039 217.998C160.033 218.002 160.027 218.007 160.022 218.013C160.013 218.023 160.003 218.033 159.988 218.034C159.975 218.035 159.962 218.033 159.95 218.028L154.913 215.886L154.904 215.882C154.872 215.869 154.834 215.854 154.834 215.821C154.804 215.54 154.712 215.269 154.565 215.028C154.541 214.988 154.514 214.946 154.535 214.906L158.055 209.444ZM154.651 216.901L159.373 218.903C159.399 218.915 159.427 218.926 159.439 218.953C159.443 218.969 159.443 218.986 159.439 219.002C159.425 219.072 159.413 219.15 159.413 219.23V219.363C159.413 219.396 159.379 219.409 159.348 219.422L159.338 219.426C158.59 219.746 148.836 223.908 148.822 223.908C148.807 223.908 148.791 223.908 148.777 223.893C148.751 223.867 148.777 223.831 148.8 223.798C148.804 223.792 148.808 223.787 148.812 223.781L152.693 217.768L152.699 217.757C152.722 217.721 152.748 217.68 152.789 217.68L152.828 217.686C152.917 217.698 152.995 217.709 153.073 217.709C153.662 217.709 154.208 217.423 154.537 216.932C154.544 216.919 154.554 216.907 154.566 216.898C154.589 216.88 154.624 216.889 154.651 216.901V216.901ZM149.243 224.859L159.875 220.322C159.875 220.322 159.891 220.322 159.905 220.337C159.963 220.395 160.013 220.434 160.06 220.47L160.084 220.485C160.105 220.497 160.127 220.511 160.129 220.533C160.129 220.542 160.129 220.547 160.127 220.555L159.216 226.154L159.213 226.176C159.207 226.22 159.201 226.269 159.16 226.269C158.917 226.286 158.682 226.361 158.475 226.489C158.268 226.617 158.095 226.793 157.971 227.003L157.967 227.01C157.955 227.03 157.943 227.049 157.924 227.059C157.905 227.068 157.882 227.065 157.863 227.06L149.384 225.31C149.376 225.308 149.253 224.86 149.243 224.859V224.859Z" stroke="#350F70" stroke-width="8" stroke-linecap="round" stroke-linejoin="round" mask="url(#path-33-outside-1_1725_1375)"/>
<defs>
<radialGradient id="paint0_radial_1725_1375" cx="0" cy="0" r="1" gradientUnits="userSpaceOnUse" gradientTransform="translate(136.523 222.48) rotate(90) scale(33.1859 38.2844)">
<stop stop-color="#20C6B7"/>
<stop offset="1" stop-color="#4D9ABF"/>
</radialGradient>
</defs>
</svg>