<svg width="90" height="90" viewBox="0 0 394 394" fill="none" xmlns="http://www.w3.org/2000/svg">
<path fill-rule="evenodd" clip-rule="evenodd" d="M173.601 9.78647C186.347 -2.95876 207.011 -2.95878 219.756 9.78646L383.768 173.799C396.513 186.544 396.513 207.208 383.768 219.953L219.756 383.965C207.011 396.711 186.347 396.711 173.601 383.965L9.58921 219.953C-3.15602 207.208 -3.15605 186.544 9.58919 173.799L173.601 9.78647ZM209.881 19.6618C202.589 12.3705 190.768 12.3705 183.477 19.6618L19.4645 183.674C12.1732 190.965 12.1732 202.787 19.4645 210.078L183.477 374.09C190.768 381.381 202.589 381.381 209.881 374.09L373.893 210.078C381.184 202.787 381.184 190.965 373.893 183.674L209.881 19.6618Z" fill="#B1FFFA"/>
<path fill-rule="evenodd" clip-rule="evenodd" d="M383.449 206.23L102.142 86.4798L106.12 77.1344L387.428 196.885L383.449 206.23Z" fill="#B1FFFA"/>
<path fill-rule="evenodd" clip-rule="evenodd" d="M242.794 42.359L83.3629 288.946L74.8335 283.431L234.265 36.8442L242.794 42.359Z" fill="#B1FFFA"/>
<path fill-rule="evenodd" clip-rule="evenodd" d="M288.852 80.8826L242.794 352.978L232.78 351.283L278.837 79.1875L288.852 80.8826Z" fill="#B1FFFA"/>
<path fill-rule="evenodd" clip-rule="evenodd" d="M334.043 134.385L52.0267 254.844L48.037 245.504L330.054 125.045L334.043 134.385Z" fill="#B1FFFA"/>
<path fill-rule="evenodd" clip-rule="evenodd" d="M64.962 127.376L232.896 370.42L224.54 376.194L56.6058 133.15L64.962 127.376Z" fill="#B1FFFA"/>
<path fill-rule="evenodd" clip-rule="evenodd" d="M7.28785 192.079L331.11 258.9L329.058 268.847L5.23521 202.026L7.28785 192.079Z" fill="#B1FFFA"/>
<path d="M204.069 118.292C204.069 129.243 195.192 138.121 184.241 138.121C173.29 138.121 164.413 129.243 164.413 118.292C164.413 107.342 173.29 98.4643 184.241 98.4643C195.192 98.4643 204.069 107.342 204.069 118.292Z" fill="#B1FFFA"/>
<path d="M142.928 221.704C142.928 234.215 132.786 244.357 120.275 244.357C107.764 244.357 97.6213 234.215 97.6213 221.704C97.6213 209.193 107.764 199.05 120.275 199.05C132.786 199.05 142.928 209.193 142.928 221.704Z" fill="#B1FFFA"/>
<path d="M269.261 247.289C269.261 256.562 261.744 264.079 252.471 264.079C243.198 264.079 235.681 256.562 235.681 247.289C235.681 238.016 243.198 230.499 252.471 230.499C261.744 230.499 269.261 238.016 269.261 247.289Z" fill="#B1FFFA"/>
<path d="M287.385 153.473C287.385 162.746 279.868 170.263 270.595 170.263C261.322 170.263 253.805 162.746 253.805 153.473C253.805 144.2 261.322 136.683 270.595 136.683C279.868 136.683 287.385 144.2 287.385 153.473Z" fill="#B1FFFA"/>
<path d="M247.1 279.861C247.1 288.923 241.86 297.403 232.827 303.729C223.802 310.05 211.191 314.045 197.133 314.045C183.075 314.045 170.464 310.05 161.439 303.729C152.407 297.403 147.166 288.923 147.166 279.861C147.166 270.799 152.407 262.319 161.439 255.993C170.464 249.672 183.075 245.677 197.133 245.677C211.191 245.677 223.802 249.672 232.827 255.993C241.86 262.319 247.1 270.799 247.1 279.861Z" stroke="#350F70" stroke-width="5.4173"/>
<mask id="path-3-outside-1_1721_620" maskUnits="userSpaceOnUse" x="178.318" y="305.873" width="38" height="38" fill="black">
<rect fill="white" x="178.318" y="305.873" width="38" height="38"/>
<path d="M203.791 320.167L203.781 320.162C203.774 320.16 203.768 320.157 203.763 320.152C203.754 320.142 203.747 320.131 203.744 320.118C203.74 320.106 203.739 320.093 203.741 320.08L204.339 316.424L207.143 319.229L204.227 320.47C204.219 320.473 204.21 320.475 204.201 320.474H204.19C204.186 320.472 204.182 320.469 204.174 320.461C204.066 320.34 203.936 320.241 203.791 320.167V320.167ZM207.859 319.944L210.857 322.942C211.48 323.566 211.792 323.877 211.906 324.237C211.923 324.291 211.937 324.344 211.947 324.399L204.782 321.364C204.778 321.362 204.774 321.361 204.77 321.359C204.741 321.348 204.708 321.335 204.708 321.305C204.708 321.276 204.742 321.262 204.771 321.25L204.78 321.247L207.859 319.944ZM211.825 325.361C211.67 325.652 211.369 325.954 210.858 326.465L207.478 329.845L203.105 328.934L203.082 328.93C203.043 328.924 203.002 328.917 203.002 328.882C202.986 328.701 202.932 328.526 202.845 328.368C202.758 328.209 202.639 328.07 202.496 327.959C202.478 327.941 202.483 327.913 202.488 327.888C202.488 327.884 202.488 327.88 202.49 327.877L203.312 322.828L203.315 322.811C203.32 322.773 203.327 322.728 203.361 322.728C203.538 322.706 203.708 322.649 203.862 322.561C204.016 322.473 204.151 322.354 204.259 322.213C204.266 322.206 204.27 322.197 204.28 322.193C204.304 322.181 204.334 322.193 204.359 322.203L211.824 325.361H211.825ZM206.7 330.622L201.141 336.181L202.093 330.333L202.094 330.325C202.095 330.318 202.097 330.31 202.099 330.303C202.107 330.284 202.127 330.277 202.146 330.269L202.155 330.265C202.364 330.176 202.548 330.039 202.693 329.865C202.712 329.843 202.734 329.822 202.763 329.819C202.77 329.817 202.778 329.817 202.785 329.819L206.699 330.623L206.7 330.622ZM199.965 337.358L199.338 337.985L192.411 327.973C192.408 327.969 192.405 327.966 192.403 327.962C192.392 327.947 192.38 327.933 192.383 327.916C192.383 327.903 192.391 327.892 192.4 327.883L192.407 327.873C192.428 327.842 192.446 327.811 192.465 327.778L192.481 327.751L192.483 327.748C192.494 327.73 192.504 327.712 192.523 327.702C192.539 327.694 192.561 327.697 192.579 327.701L200.254 329.284C200.275 329.287 200.296 329.296 200.313 329.31C200.323 329.32 200.325 329.33 200.327 329.343C200.381 329.545 200.481 329.733 200.618 329.89C200.756 330.048 200.929 330.172 201.123 330.252C201.144 330.263 201.135 330.287 201.125 330.312C201.12 330.323 201.116 330.335 201.113 330.347C201.017 330.935 200.187 335.993 199.965 337.358ZM198.656 338.666C198.194 339.123 197.922 339.365 197.614 339.463C197.31 339.559 196.984 339.559 196.681 339.463C196.32 339.348 196.008 339.037 195.386 338.414L188.429 331.457L190.246 328.639C190.255 328.625 190.263 328.613 190.277 328.603C190.296 328.589 190.324 328.595 190.347 328.603C190.764 328.728 191.212 328.706 191.615 328.538C191.635 328.531 191.656 328.525 191.673 328.54C191.681 328.547 191.688 328.556 191.694 328.565L198.656 338.667V338.666ZM187.758 330.786L186.162 329.19L189.314 327.846C189.322 327.842 189.331 327.841 189.339 327.841C189.366 327.841 189.381 327.867 189.395 327.891C189.427 327.94 189.46 327.987 189.496 328.033L189.506 328.046C189.515 328.059 189.509 328.072 189.5 328.084L187.759 330.786H187.758ZM185.456 328.484L183.437 326.465C183.093 326.122 182.844 325.873 182.671 325.658L188.81 326.932C188.818 326.933 188.826 326.934 188.833 326.935C188.871 326.942 188.913 326.949 188.913 326.984C188.913 327.023 188.868 327.041 188.829 327.055L188.811 327.063L185.456 328.484ZM182.318 324.62C182.325 324.49 182.349 324.361 182.388 324.237C182.502 323.877 182.813 323.566 183.437 322.942L186.021 320.358C187.21 322.085 188.403 323.809 189.599 325.531C189.62 325.559 189.643 325.59 189.619 325.613C189.506 325.738 189.394 325.874 189.314 326.022C189.305 326.041 189.292 326.057 189.275 326.07C189.265 326.076 189.254 326.074 189.243 326.071H189.241L182.318 324.619V324.62ZM186.712 319.667L190.185 316.193C190.512 316.336 191.701 316.838 192.763 317.287C193.568 317.627 194.301 317.936 194.532 318.037C194.555 318.046 194.576 318.055 194.586 318.079C194.592 318.093 194.589 318.11 194.586 318.125C194.531 318.376 194.539 318.636 194.61 318.883C194.68 319.13 194.811 319.355 194.99 319.539C195.014 319.562 194.99 319.596 194.97 319.624L194.959 319.641L191.432 325.104C191.423 325.12 191.414 325.133 191.399 325.143C191.38 325.155 191.354 325.149 191.332 325.144C191.195 325.108 191.054 325.089 190.912 325.087C190.785 325.087 190.648 325.11 190.508 325.135H190.508C190.492 325.138 190.478 325.141 190.466 325.131C190.452 325.12 190.44 325.107 190.431 325.092L186.712 319.667H186.712ZM190.888 315.491L195.386 310.993C196.008 310.371 196.32 310.059 196.681 309.945C196.984 309.849 197.31 309.849 197.614 309.945C197.974 310.059 198.286 310.371 198.909 310.993L199.883 311.968L196.685 316.922C196.677 316.937 196.666 316.949 196.653 316.959C196.634 316.972 196.606 316.967 196.583 316.959C196.331 316.883 196.064 316.869 195.805 316.919C195.546 316.969 195.304 317.081 195.098 317.246C195.077 317.267 195.046 317.255 195.02 317.243C194.602 317.061 191.353 315.688 190.888 315.491V315.491ZM200.563 312.647L203.516 315.601L202.804 320.009V320.02C202.804 320.03 202.802 320.04 202.798 320.05C202.79 320.065 202.775 320.068 202.76 320.073C202.607 320.119 202.464 320.19 202.336 320.284C202.33 320.288 202.325 320.292 202.32 320.297C202.312 320.307 202.303 320.315 202.289 320.317C202.278 320.317 202.267 320.315 202.256 320.311L197.755 318.399L197.747 318.395C197.718 318.383 197.684 318.37 197.684 318.34C197.658 318.089 197.576 317.848 197.444 317.632C197.423 317.597 197.399 317.56 197.417 317.523L200.563 312.647ZM197.521 319.305L201.74 321.092C201.763 321.103 201.789 321.113 201.799 321.137C201.803 321.151 201.803 321.166 201.799 321.181C201.786 321.243 201.776 321.313 201.776 321.384V321.503C201.776 321.532 201.745 321.544 201.718 321.556L201.709 321.559C201.041 321.844 192.325 325.561 192.312 325.561C192.299 325.561 192.285 325.561 192.272 325.548C192.249 325.524 192.272 325.492 192.293 325.463C192.297 325.457 192.3 325.452 192.304 325.447L195.771 320.078L195.777 320.069C195.797 320.037 195.82 320 195.858 320L195.892 320.006C195.971 320.017 196.041 320.027 196.111 320.027C196.637 320.027 197.125 319.771 197.419 319.333C197.426 319.321 197.435 319.311 197.445 319.302C197.466 319.286 197.497 319.294 197.521 319.305V319.305ZM192.689 326.41L202.189 322.359C202.189 322.359 202.203 322.359 202.216 322.372C202.268 322.424 202.312 322.459 202.354 322.491L202.375 322.504C202.394 322.515 202.414 322.528 202.415 322.548C202.415 322.555 202.415 322.56 202.414 322.567L201.6 327.566L201.597 327.586C201.591 327.625 201.586 327.669 201.55 327.669C201.333 327.683 201.123 327.751 200.937 327.865C200.752 327.979 200.598 328.137 200.488 328.324L200.484 328.33C200.473 328.348 200.463 328.365 200.445 328.374C200.429 328.382 200.408 328.379 200.391 328.375L192.815 326.812C192.807 326.811 192.698 326.411 192.689 326.41V326.41Z"/>
</mask>
<path d="M203.791 320.167L203.781 320.162C203.774 320.16 203.768 320.157 203.763 320.152C203.754 320.142 203.747 320.131 203.744 320.118C203.74 320.106 203.739 320.093 203.741 320.08L204.339 316.424L207.143 319.229L204.227 320.47C204.219 320.473 204.21 320.475 204.201 320.474H204.19C204.186 320.472 204.182 320.469 204.174 320.461C204.066 320.34 203.936 320.241 203.791 320.167V320.167ZM207.859 319.944L210.857 322.942C211.48 323.566 211.792 323.877 211.906 324.237C211.923 324.291 211.937 324.344 211.947 324.399L204.782 321.364C204.778 321.362 204.774 321.361 204.77 321.359C204.741 321.348 204.708 321.335 204.708 321.305C204.708 321.276 204.742 321.262 204.771 321.25L204.78 321.247L207.859 319.944ZM211.825 325.361C211.67 325.652 211.369 325.954 210.858 326.465L207.478 329.845L203.105 328.934L203.082 328.93C203.043 328.924 203.002 328.917 203.002 328.882C202.986 328.701 202.932 328.526 202.845 328.368C202.758 328.209 202.639 328.07 202.496 327.959C202.478 327.941 202.483 327.913 202.488 327.888C202.488 327.884 202.488 327.88 202.49 327.877L203.312 322.828L203.315 322.811C203.32 322.773 203.327 322.728 203.361 322.728C203.538 322.706 203.708 322.649 203.862 322.561C204.016 322.473 204.151 322.354 204.259 322.213C204.266 322.206 204.27 322.197 204.28 322.193C204.304 322.181 204.334 322.193 204.359 322.203L211.824 325.361H211.825ZM206.7 330.622L201.141 336.181L202.093 330.333L202.094 330.325C202.095 330.318 202.097 330.31 202.099 330.303C202.107 330.284 202.127 330.277 202.146 330.269L202.155 330.265C202.364 330.176 202.548 330.039 202.693 329.865C202.712 329.843 202.734 329.822 202.763 329.819C202.77 329.817 202.778 329.817 202.785 329.819L206.699 330.623L206.7 330.622ZM199.965 337.358L199.338 337.985L192.411 327.973C192.408 327.969 192.405 327.966 192.403 327.962C192.392 327.947 192.38 327.933 192.383 327.916C192.383 327.903 192.391 327.892 192.4 327.883L192.407 327.873C192.428 327.842 192.446 327.811 192.465 327.778L192.481 327.751L192.483 327.748C192.494 327.73 192.504 327.712 192.523 327.702C192.539 327.694 192.561 327.697 192.579 327.701L200.254 329.284C200.275 329.287 200.296 329.296 200.313 329.31C200.323 329.32 200.325 329.33 200.327 329.343C200.381 329.545 200.481 329.733 200.618 329.89C200.756 330.048 200.929 330.172 201.123 330.252C201.144 330.263 201.135 330.287 201.125 330.312C201.12 330.323 201.116 330.335 201.113 330.347C201.017 330.935 200.187 335.993 199.965 337.358ZM198.656 338.666C198.194 339.123 197.922 339.365 197.614 339.463C197.31 339.559 196.984 339.559 196.681 339.463C196.32 339.348 196.008 339.037 195.386 338.414L188.429 331.457L190.246 328.639C190.255 328.625 190.263 328.613 190.277 328.603C190.296 328.589 190.324 328.595 190.347 328.603C190.764 328.728 191.212 328.706 191.615 328.538C191.635 328.531 191.656 328.525 191.673 328.54C191.681 328.547 191.688 328.556 191.694 328.565L198.656 338.667V338.666ZM187.758 330.786L186.162 329.19L189.314 327.846C189.322 327.842 189.331 327.841 189.339 327.841C189.366 327.841 189.381 327.867 189.395 327.891C189.427 327.94 189.46 327.987 189.496 328.033L189.506 328.046C189.515 328.059 189.509 328.072 189.5 328.084L187.759 330.786H187.758ZM185.456 328.484L183.437 326.465C183.093 326.122 182.844 325.873 182.671 325.658L188.81 326.932C188.818 326.933 188.826 326.934 188.833 326.935C188.871 326.942 188.913 326.949 188.913 326.984C188.913 327.023 188.868 327.041 188.829 327.055L188.811 327.063L185.456 328.484ZM182.318 324.62C182.325 324.49 182.349 324.361 182.388 324.237C182.502 323.877 182.813 323.566 183.437 322.942L186.021 320.358C187.21 322.085 188.403 323.809 189.599 325.531C189.62 325.559 189.643 325.59 189.619 325.613C189.506 325.738 189.394 325.874 189.314 326.022C189.305 326.041 189.292 326.057 189.275 326.07C189.265 326.076 189.254 326.074 189.243 326.071H189.241L182.318 324.619V324.62ZM186.712 319.667L190.185 316.193C190.512 316.336 191.701 316.838 192.763 317.287C193.568 317.627 194.301 317.936 194.532 318.037C194.555 318.046 194.576 318.055 194.586 318.079C194.592 318.093 194.589 318.11 194.586 318.125C194.531 318.376 194.539 318.636 194.61 318.883C194.68 319.13 194.811 319.355 194.99 319.539C195.014 319.562 194.99 319.596 194.97 319.624L194.959 319.641L191.432 325.104C191.423 325.12 191.414 325.133 191.399 325.143C191.38 325.155 191.354 325.149 191.332 325.144C191.195 325.108 191.054 325.089 190.912 325.087C190.785 325.087 190.648 325.11 190.508 325.135H190.508C190.492 325.138 190.478 325.141 190.466 325.131C190.452 325.12 190.44 325.107 190.431 325.092L186.712 319.667H186.712ZM190.888 315.491L195.386 310.993C196.008 310.371 196.32 310.059 196.681 309.945C196.984 309.849 197.31 309.849 197.614 309.945C197.974 310.059 198.286 310.371 198.909 310.993L199.883 311.968L196.685 316.922C196.677 316.937 196.666 316.949 196.653 316.959C196.634 316.972 196.606 316.967 196.583 316.959C196.331 316.883 196.064 316.869 195.805 316.919C195.546 316.969 195.304 317.081 195.098 317.246C195.077 317.267 195.046 317.255 195.02 317.243C194.602 317.061 191.353 315.688 190.888 315.491V315.491ZM200.563 312.647L203.516 315.601L202.804 320.009V320.02C202.804 320.03 202.802 320.04 202.798 320.05C202.79 320.065 202.775 320.068 202.76 320.073C202.607 320.119 202.464 320.19 202.336 320.284C202.33 320.288 202.325 320.292 202.32 320.297C202.312 320.307 202.303 320.315 202.289 320.317C202.278 320.317 202.267 320.315 202.256 320.311L197.755 318.399L197.747 318.395C197.718 318.383 197.684 318.37 197.684 318.34C197.658 318.089 197.576 317.848 197.444 317.632C197.423 317.597 197.399 317.56 197.417 317.523L200.563 312.647ZM197.521 319.305L201.74 321.092C201.763 321.103 201.789 321.113 201.799 321.137C201.803 321.151 201.803 321.166 201.799 321.181C201.786 321.243 201.776 321.313 201.776 321.384V321.503C201.776 321.532 201.745 321.544 201.718 321.556L201.709 321.559C201.041 321.844 192.325 325.561 192.312 325.561C192.299 325.561 192.285 325.561 192.272 325.548C192.249 325.524 192.272 325.492 192.293 325.463C192.297 325.457 192.3 325.452 192.304 325.447L195.771 320.078L195.777 320.069C195.797 320.037 195.82 320 195.858 320L195.892 320.006C195.971 320.017 196.041 320.027 196.111 320.027C196.637 320.027 197.125 319.771 197.419 319.333C197.426 319.321 197.435 319.311 197.445 319.302C197.466 319.286 197.497 319.294 197.521 319.305V319.305ZM192.689 326.41L202.189 322.359C202.189 322.359 202.203 322.359 202.216 322.372C202.268 322.424 202.312 322.459 202.354 322.491L202.375 322.504C202.394 322.515 202.414 322.528 202.415 322.548C202.415 322.555 202.415 322.56 202.414 322.567L201.6 327.566L201.597 327.586C201.591 327.625 201.586 327.669 201.55 327.669C201.333 327.683 201.123 327.751 200.937 327.865C200.752 327.979 200.598 328.137 200.488 328.324L200.484 328.33C200.473 328.348 200.463 328.365 200.445 328.374C200.429 328.382 200.408 328.379 200.391 328.375L192.815 326.812C192.807 326.811 192.698 326.411 192.689 326.41V326.41Z" fill="url(#paint0_radial_1721_620)"/>
<path d="M203.791 320.167L203.781 320.162C203.774 320.16 203.768 320.157 203.763 320.152C203.754 320.142 203.747 320.131 203.744 320.118C203.74 320.106 203.739 320.093 203.741 320.08L204.339 316.424L207.143 319.229L204.227 320.47C204.219 320.473 204.21 320.475 204.201 320.474H204.19C204.186 320.472 204.182 320.469 204.174 320.461C204.066 320.34 203.936 320.241 203.791 320.167V320.167ZM207.859 319.944L210.857 322.942C211.48 323.566 211.792 323.877 211.906 324.237C211.923 324.291 211.937 324.344 211.947 324.399L204.782 321.364C204.778 321.362 204.774 321.361 204.77 321.359C204.741 321.348 204.708 321.335 204.708 321.305C204.708 321.276 204.742 321.262 204.771 321.25L204.78 321.247L207.859 319.944ZM211.825 325.361C211.67 325.652 211.369 325.954 210.858 326.465L207.478 329.845L203.105 328.934L203.082 328.93C203.043 328.924 203.002 328.917 203.002 328.882C202.986 328.701 202.932 328.526 202.845 328.368C202.758 328.209 202.639 328.07 202.496 327.959C202.478 327.941 202.483 327.913 202.488 327.888C202.488 327.884 202.488 327.88 202.49 327.877L203.312 322.828L203.315 322.811C203.32 322.773 203.327 322.728 203.361 322.728C203.538 322.706 203.708 322.649 203.862 322.561C204.016 322.473 204.151 322.354 204.259 322.213C204.266 322.206 204.27 322.197 204.28 322.193C204.304 322.181 204.334 322.193 204.359 322.203L211.824 325.361H211.825ZM206.7 330.622L201.141 336.181L202.093 330.333L202.094 330.325C202.095 330.318 202.097 330.31 202.099 330.303C202.107 330.284 202.127 330.277 202.146 330.269L202.155 330.265C202.364 330.176 202.548 330.039 202.693 329.865C202.712 329.843 202.734 329.822 202.763 329.819C202.77 329.817 202.778 329.817 202.785 329.819L206.699 330.623L206.7 330.622ZM199.965 337.358L199.338 337.985L192.411 327.973C192.408 327.969 192.405 327.966 192.403 327.962C192.392 327.947 192.38 327.933 192.383 327.916C192.383 327.903 192.391 327.892 192.4 327.883L192.407 327.873C192.428 327.842 192.446 327.811 192.465 327.778L192.481 327.751L192.483 327.748C192.494 327.73 192.504 327.712 192.523 327.702C192.539 327.694 192.561 327.697 192.579 327.701L200.254 329.284C200.275 329.287 200.296 329.296 200.313 329.31C200.323 329.32 200.325 329.33 200.327 329.343C200.381 329.545 200.481 329.733 200.618 329.89C200.756 330.048 200.929 330.172 201.123 330.252C201.144 330.263 201.135 330.287 201.125 330.312C201.12 330.323 201.116 330.335 201.113 330.347C201.017 330.935 200.187 335.993 199.965 337.358ZM198.656 338.666C198.194 339.123 197.922 339.365 197.614 339.463C197.31 339.559 196.984 339.559 196.681 339.463C196.32 339.348 196.008 339.037 195.386 338.414L188.429 331.457L190.246 328.639C190.255 328.625 190.263 328.613 190.277 328.603C190.296 328.589 190.324 328.595 190.347 328.603C190.764 328.728 191.212 328.706 191.615 328.538C191.635 328.531 191.656 328.525 191.673 328.54C191.681 328.547 191.688 328.556 191.694 328.565L198.656 338.667V338.666ZM187.758 330.786L186.162 329.19L189.314 327.846C189.322 327.842 189.331 327.841 189.339 327.841C189.366 327.841 189.381 327.867 189.395 327.891C189.427 327.94 189.46 327.987 189.496 328.033L189.506 328.046C189.515 328.059 189.509 328.072 189.5 328.084L187.759 330.786H187.758ZM185.456 328.484L183.437 326.465C183.093 326.122 182.844 325.873 182.671 325.658L188.81 326.932C188.818 326.933 188.826 326.934 188.833 326.935C188.871 326.942 188.913 326.949 188.913 326.984C188.913 327.023 188.868 327.041 188.829 327.055L188.811 327.063L185.456 328.484ZM182.318 324.62C182.325 324.49 182.349 324.361 182.388 324.237C182.502 323.877 182.813 323.566 183.437 322.942L186.021 320.358C187.21 322.085 188.403 323.809 189.599 325.531C189.62 325.559 189.643 325.59 189.619 325.613C189.506 325.738 189.394 325.874 189.314 326.022C189.305 326.041 189.292 326.057 189.275 326.07C189.265 326.076 189.254 326.074 189.243 326.071H189.241L182.318 324.619V324.62ZM186.712 319.667L190.185 316.193C190.512 316.336 191.701 316.838 192.763 317.287C193.568 317.627 194.301 317.936 194.532 318.037C194.555 318.046 194.576 318.055 194.586 318.079C194.592 318.093 194.589 318.11 194.586 318.125C194.531 318.376 194.539 318.636 194.61 318.883C194.68 319.13 194.811 319.355 194.99 319.539C195.014 319.562 194.99 319.596 194.97 319.624L194.959 319.641L191.432 325.104C191.423 325.12 191.414 325.133 191.399 325.143C191.38 325.155 191.354 325.149 191.332 325.144C191.195 325.108 191.054 325.089 190.912 325.087C190.785 325.087 190.648 325.11 190.508 325.135H190.508C190.492 325.138 190.478 325.141 190.466 325.131C190.452 325.12 190.44 325.107 190.431 325.092L186.712 319.667H186.712ZM190.888 315.491L195.386 310.993C196.008 310.371 196.32 310.059 196.681 309.945C196.984 309.849 197.31 309.849 197.614 309.945C197.974 310.059 198.286 310.371 198.909 310.993L199.883 311.968L196.685 316.922C196.677 316.937 196.666 316.949 196.653 316.959C196.634 316.972 196.606 316.967 196.583 316.959C196.331 316.883 196.064 316.869 195.805 316.919C195.546 316.969 195.304 317.081 195.098 317.246C195.077 317.267 195.046 317.255 195.02 317.243C194.602 317.061 191.353 315.688 190.888 315.491V315.491ZM200.563 312.647L203.516 315.601L202.804 320.009V320.02C202.804 320.03 202.802 320.04 202.798 320.05C202.79 320.065 202.775 320.068 202.76 320.073C202.607 320.119 202.464 320.19 202.336 320.284C202.33 320.288 202.325 320.292 202.32 320.297C202.312 320.307 202.303 320.315 202.289 320.317C202.278 320.317 202.267 320.315 202.256 320.311L197.755 318.399L197.747 318.395C197.718 318.383 197.684 318.37 197.684 318.34C197.658 318.089 197.576 317.848 197.444 317.632C197.423 317.597 197.399 317.56 197.417 317.523L200.563 312.647ZM197.521 319.305L201.74 321.092C201.763 321.103 201.789 321.113 201.799 321.137C201.803 321.151 201.803 321.166 201.799 321.181C201.786 321.243 201.776 321.313 201.776 321.384V321.503C201.776 321.532 201.745 321.544 201.718 321.556L201.709 321.559C201.041 321.844 192.325 325.561 192.312 325.561C192.299 325.561 192.285 325.561 192.272 325.548C192.249 325.524 192.272 325.492 192.293 325.463C192.297 325.457 192.3 325.452 192.304 325.447L195.771 320.078L195.777 320.069C195.797 320.037 195.82 320 195.858 320L195.892 320.006C195.971 320.017 196.041 320.027 196.111 320.027C196.637 320.027 197.125 319.771 197.419 319.333C197.426 319.321 197.435 319.311 197.445 319.302C197.466 319.286 197.497 319.294 197.521 319.305V319.305ZM192.689 326.41L202.189 322.359C202.189 322.359 202.203 322.359 202.216 322.372C202.268 322.424 202.312 322.459 202.354 322.491L202.375 322.504C202.394 322.515 202.414 322.528 202.415 322.548C202.415 322.555 202.415 322.56 202.414 322.567L201.6 327.566L201.597 327.586C201.591 327.625 201.586 327.669 201.55 327.669C201.333 327.683 201.123 327.751 200.937 327.865C200.752 327.979 200.598 328.137 200.488 328.324L200.484 328.33C200.473 328.348 200.463 328.365 200.445 328.374C200.429 328.382 200.408 328.379 200.391 328.375L192.815 326.812C192.807 326.811 192.698 326.411 192.689 326.41V326.41Z" stroke="#350F70" stroke-width="7.22306" stroke-linecap="round" stroke-linejoin="round" mask="url(#path-3-outside-1_1721_620)"/>
<path d="M46.2401 251.301L46.2404 251.301C49.0282 253.89 52.5692 255.172 56.0929 255.172C59.9728 255.172 63.8544 253.616 66.7077 250.544C69.149 247.916 76.0202 243.533 84.8838 240.479C93.6777 237.448 103.768 235.962 112.6 238.411L112.6 238.411C120.304 240.547 128.287 236.035 130.425 228.327L130.425 228.326C132.563 220.619 128.047 212.638 120.34 210.5L120.34 210.5C104.634 206.145 88.4739 208.517 75.1096 213.225C61.7973 217.916 50.8307 225.077 45.4843 230.834C40.0411 236.695 40.3807 245.858 46.2401 251.301Z" fill="#7AE1E8" stroke="#350F70" stroke-width="6.4189"/>
<path d="M107.069 195.396C80.4906 195.396 55.8861 178.624 48.1198 168.547C44.3192 163.615 45.2365 156.537 50.1677 152.737C55.0996 148.937 62.1789 149.853 65.9776 154.785C71.2592 161.638 93.8546 175.855 113.675 172.276C119.8 171.17 125.665 175.239 126.772 181.366C127.878 187.492 123.809 193.356 117.682 194.463C114.133 195.103 110.582 195.396 107.069 195.396Z" fill="#7AE1E8"/>
<path d="M102.015 81.9674C88.577 98.3018 83.3672 114.66 87.7101 130.334L87.7101 130.334C92.3181 146.961 107.625 160.141 129.698 167.991L129.698 167.992C131.297 168.56 132.935 168.831 134.551 168.831C140.501 168.831 146.084 165.135 148.196 159.2L148.196 159.199C150.875 151.663 146.94 143.381 139.403 140.701C132.523 138.254 126.947 135.291 122.889 132.102C118.805 128.894 116.461 125.622 115.623 122.599L115.623 122.599C114.176 117.379 116.421 110.046 124.383 100.369L124.383 100.369C129.464 94.1927 128.578 85.0667 122.401 79.9848C116.223 74.9025 107.097 75.7905 102.015 81.9674ZM102.015 81.9674L104.494 84.0065L102.015 81.9674Z" fill="#7AE1E8" stroke="#350F70" stroke-width="6.4189"/>
<path d="M196.679 288.682C252.437 288.682 299.157 258.081 299.157 200.664C299.157 143.247 252.437 102.058 196.679 102.058C140.921 102.058 94.2012 143.247 94.2012 200.664C94.2012 258.081 140.921 288.682 196.679 288.682Z" fill="#B4FFED"/>
<path d="M86.0387 311.099L86.0395 311.099C87.2126 311.391 88.3919 311.532 89.5551 311.532C96.0456 311.532 101.954 307.141 103.597 300.554C106.175 290.227 109.434 282.585 113.718 276.806C117.964 271.079 123.335 267.02 130.42 264.033L130.42 264.033C137.789 260.925 141.246 252.432 138.138 245.062C135.032 237.692 126.54 234.236 119.168 237.343L119.168 237.343C96.1373 247.053 82.6993 264.674 75.4946 293.54L75.4945 293.54C73.5585 301.3 78.2785 309.162 86.0387 311.099Z" fill="#7AE1E8" stroke="#350F70" stroke-width="6.4189"/>
<path d="M120.414 240.301C110.561 244.455 102.536 250.12 96.0439 257.652C100.335 263.843 105.423 269.545 111.284 274.706C115.887 268.568 121.697 264.227 129.172 261.075C134.909 258.657 137.598 252.045 135.18 246.308C132.762 240.572 126.152 237.882 120.414 240.301V240.301Z" fill="#5FB5C8"/>
<path d="M307.301 311.099L307.3 311.099C306.127 311.391 304.948 311.532 303.785 311.532C297.294 311.532 291.386 307.141 289.743 300.554C287.165 290.227 283.906 282.585 279.622 276.806C275.376 271.079 270.005 267.02 262.92 264.033L262.92 264.033C255.551 260.925 252.094 252.432 255.202 245.062C258.308 237.692 266.8 234.236 274.172 237.343L274.172 237.343C297.203 247.053 310.641 264.674 317.845 293.54L317.845 293.54C319.781 301.3 315.061 309.162 307.301 311.099Z" fill="#7AE1E8" stroke="#350F70" stroke-width="6.4189"/>
<path d="M272.926 240.301C282.779 244.455 290.804 250.12 297.296 257.652C293.005 263.843 287.917 269.545 282.056 274.706C277.453 268.568 271.643 264.227 264.168 261.075C258.431 258.657 255.741 252.045 258.16 246.308C260.578 240.572 267.188 237.882 272.926 240.301V240.301Z" fill="#5FB5C8"/>
<path d="M119.481 213.593C106.057 209.87 92.1649 211.319 80.0527 214.992C81.0215 222.69 82.785 230.026 85.3216 236.954C94.1099 234.139 104.274 232.773 113.456 235.319C119.453 236.981 125.666 233.468 127.331 227.469C128.995 221.47 125.48 215.257 119.481 213.593Z" fill="#5FB5C8"/>
<path fill-rule="evenodd" clip-rule="evenodd" d="M54.4408 158.281C56.3123 156.84 58.9952 157.19 60.4326 159.056ZM71.5225 150.512C65.3625 142.516 53.8879 141.035 45.8961 147.191L45.8953 147.192C37.9021 153.352 36.4149 164.826 42.5756 172.819M71.5234 150.513C73.1814 152.663 78.994 157.336 87.2529 161.062C95.3668 164.722 104.459 166.827 112.431 165.387L112.431 165.387C122.36 163.595 131.866 170.19 133.661 180.121L133.661 180.122C135.453 190.052 128.858 199.557 118.927 201.351L118.924 201.352C114.941 202.07 110.973 202.396 107.069 202.396C92.3565 202.396 78.4452 197.774 67.3005 191.956C56.2567 186.19 47.2557 178.892 42.5758 172.82M54.44 158.282C52.5717 159.722 52.2245 162.405 53.6645 164.273L53.6648 164.274C56.7512 168.279 63.9355 174.406 73.7798 179.545C83.5235 184.632 95.2036 188.396 107.069 188.396C110.191 188.396 113.324 188.135 116.438 187.574M81.4962 173.823C72.1835 169.622 64.0581 163.761 60.4334 159.057L60.4326 159.056M81.4962 173.823C90.9553 178.09 103.07 181.304 114.919 179.165ZM114.919 179.165C117.241 178.746 119.464 180.289 119.884 182.611ZM119.884 182.611C120.302 184.933 118.76 187.154 116.44 187.574Z" fill="#350F70"/>
<path d="M107.069 195.396C80.4906 195.396 55.8861 178.624 48.1198 168.547C44.3192 163.615 45.2365 156.537 50.1677 152.737C55.0996 148.937 62.1789 149.853 65.9776 154.785C71.2592 161.638 93.8546 175.855 113.675 172.276C119.8 171.17 125.665 175.239 126.772 181.366C127.878 187.492 123.809 193.356 117.682 194.463C114.133 195.103 110.582 195.396 107.069 195.396Z" fill="#7AE1E8"/>
<path d="M113.673 172.275C103.647 174.086 92.9145 171.34 84.0691 167.3C81.8574 174.581 80.379 182.142 79.668 189.901C88.0728 193.188 97.4382 195.396 107.068 195.396C110.581 195.396 114.132 195.103 117.68 194.462C123.807 193.355 127.877 187.492 126.77 181.365C125.664 175.239 119.799 171.169 113.673 172.275V172.275Z" fill="#5FB5C8"/>
<path fill-rule="evenodd" clip-rule="evenodd" d="M338.29 158.281C336.418 156.84 333.735 157.19 332.298 159.056ZM321.208 150.512C327.368 142.516 338.843 141.035 346.834 147.191L346.835 147.192C354.828 153.352 356.316 164.826 350.155 172.819M321.207 150.513C319.549 152.663 313.736 157.336 305.478 161.062C297.364 164.722 288.271 166.827 280.299 165.387L280.299 165.387C270.371 163.595 260.864 170.19 259.07 180.121L259.069 180.122C257.277 190.052 263.872 199.557 273.804 201.351L273.806 201.352C277.79 202.07 281.758 202.396 285.661 202.396C300.374 202.396 314.285 197.774 325.43 191.956C336.474 186.19 345.475 178.892 350.155 172.82M338.29 158.282C340.159 159.722 340.506 162.405 339.066 164.273L339.066 164.274C335.979 168.279 328.795 174.406 318.951 179.545C309.207 184.632 297.527 188.396 285.661 188.396C282.54 188.396 279.406 188.135 276.292 187.574M311.234 173.823C320.547 169.622 328.672 163.761 332.297 159.057L332.298 159.056M311.234 173.823C301.775 178.09 289.66 181.304 277.812 179.165ZM277.812 179.165C275.49 178.746 273.266 180.289 272.847 182.611ZM272.847 182.611C272.428 184.933 273.97 187.154 276.29 187.574Z" fill="#350F70"/>
<path d="M285.662 195.396C312.24 195.396 336.844 178.624 344.611 168.547C348.411 163.615 347.494 156.537 342.563 152.737C337.631 148.937 330.552 149.853 326.753 154.785C321.471 161.638 298.876 175.855 279.056 172.276C272.931 171.17 267.066 175.239 265.959 181.366C264.853 187.492 268.922 193.356 275.048 194.463C278.598 195.103 282.149 195.396 285.662 195.396Z" fill="#7AE1E8"/>
<path d="M279.057 172.275C289.083 174.086 299.816 171.34 308.661 167.3C310.873 174.581 312.352 182.142 313.062 189.901C304.658 193.188 295.292 195.396 285.662 195.396C282.149 195.396 278.599 195.103 275.05 194.462C268.924 193.355 264.854 187.492 265.96 181.365C267.067 175.239 272.932 171.169 279.057 172.275V172.275Z" fill="#5FB5C8"/>
<path d="M138.327 143.725C124.099 138.665 114.696 131.277 112.529 123.456C112.305 122.647 112.157 121.814 112.075 120.96C105.94 127.024 100.603 133.688 96.1162 140.834C102.952 150.948 114.851 159.305 130.772 164.967C132.021 165.411 133.296 165.622 134.55 165.622C139.185 165.622 143.529 162.74 145.171 158.123C147.257 152.258 144.193 145.811 138.327 143.725V143.725Z" fill="#5FB5C8"/>
<path d="M344.933 248.949C342.762 250.966 340.01 251.962 337.265 251.962C334.24 251.962 331.223 250.752 329.001 248.36C323.113 242.021 299.305 229.938 279.9 235.319C273.903 236.981 267.69 233.468 266.025 227.469C264.361 221.469 267.876 215.257 273.875 213.593C303.632 205.341 335.719 222.463 345.522 233.018C349.758 237.58 349.494 244.713 344.933 248.949Z" fill="#7AE1E8"/>
<path fill-rule="evenodd" clip-rule="evenodd" d="M349.527 253.895L349.526 253.896C346.058 257.116 341.646 258.712 337.264 258.712C332.441 258.712 327.606 256.777 324.056 252.954C322.169 250.923 315.908 246.786 307.32 243.826C298.879 240.917 289.576 239.64 281.704 241.823L281.703 241.824C272.115 244.482 262.182 238.866 259.521 229.273L259.52 229.273C256.86 219.681 262.48 209.749 272.071 207.089L272.071 207.089C288.689 202.48 305.621 205.023 319.424 209.886C333.118 214.711 344.63 222.139 350.467 228.425C357.241 235.719 356.819 247.122 349.527 253.895ZM344.933 248.949C342.762 250.966 340.01 251.962 337.264 251.962C334.24 251.962 331.222 250.752 329.001 248.36C323.113 242.021 299.305 229.938 279.9 235.319C273.903 236.981 267.689 233.468 266.025 227.469C264.361 221.469 267.876 215.257 273.875 213.593C303.632 205.341 335.719 222.463 345.521 233.018C349.758 237.58 349.494 244.713 344.933 248.949Z" fill="#350F70"/>
<path d="M337.265 251.962C340.01 251.962 342.762 250.966 344.933 248.949C349.494 244.713 349.758 237.58 345.522 233.018C335.719 222.463 303.632 205.341 273.875 213.593C267.876 215.257 264.361 221.469 266.025 227.469C267.69 233.468 273.903 236.981 279.9 235.319C299.305 229.938 323.113 242.021 329.001 248.36C331.223 250.752 334.24 251.962 337.265 251.962V251.962Z" fill="#7AE1E8"/>
<path d="M263.659 167.991L263.66 167.991C285.733 160.141 301.04 146.961 305.648 130.333L305.648 130.333C309.991 114.66 304.781 98.3017 291.342 81.9673C286.261 75.7904 277.135 74.9024 270.957 79.9846C264.78 85.0666 263.894 94.1926 268.974 100.369L268.975 100.369C276.936 110.046 279.182 117.379 277.735 122.599L277.735 122.599C276.897 125.622 274.552 128.894 270.469 132.102C266.411 135.29 260.835 138.254 253.955 140.701C246.418 143.381 242.482 151.663 245.162 159.199L245.162 159.2C247.274 165.135 252.856 168.831 258.807 168.831C260.423 168.831 262.061 168.559 263.659 167.991Z" fill="#7AE1E8" stroke="#350F70" stroke-width="6.4189"/>
<path d="M273.875 213.593C287.299 209.87 301.192 211.319 313.304 214.992C312.335 222.69 310.572 230.026 308.034 236.954C299.246 234.139 289.081 232.773 279.9 235.319C273.902 236.981 267.69 233.468 266.025 227.469C264.361 221.47 267.876 215.257 273.875 213.593V213.593Z" fill="#5FB5C8"/>
<path d="M255.03 143.725C269.258 138.665 278.661 131.277 280.828 123.456C281.052 122.647 281.2 121.814 281.282 120.96C287.417 127.024 292.754 133.688 297.241 140.834C290.405 150.948 278.506 159.305 262.585 164.967C261.336 165.411 260.061 165.622 258.807 165.622C254.172 165.622 249.828 162.74 248.186 158.123C246.1 152.258 249.164 145.811 255.03 143.725V143.725Z" fill="#5FB5C8"/>
<path d="M196.679 292.605C225.229 292.605 251.773 284.775 271.268 269.275C290.863 253.696 303.079 230.556 303.079 200.664C303.079 140.844 254.359 98.1353 196.679 98.1353C138.999 98.1353 90.2785 140.844 90.2785 200.664C90.2785 230.556 102.494 253.696 122.09 269.275C141.585 284.775 168.129 292.605 196.679 292.605Z" fill="#B4FFED" stroke="#350F70" stroke-width="7.84533"/>
<path d="M291.2 238.176C137.654 261.738 139.281 149.112 163.044 107.3C123.335 120.113 94.2012 155.326 94.2012 200.664C94.2012 258.081 140.921 288.682 196.679 288.682C238.692 288.682 275.57 271.305 291.2 238.176V238.176Z" fill="#76EFD9"/>
<path d="M227.968 138.39C220.607 124.194 239.756 119.955 243.631 108.849C229.491 104.471 213.497 102.058 196.679 102.058C179.86 102.058 163.866 104.471 149.727 108.849C153.601 119.955 172.75 124.194 165.39 138.39C159.475 149.799 162.36 165.622 196.679 165.622C230.999 165.622 233.884 149.799 227.968 138.39V138.39Z" fill="#350F70"/>
<path d="M123.821 245.561L123.821 245.561C121.052 264.771 129.518 281.485 143.438 293.231C157.311 304.938 176.752 311.888 196.678 311.888C216.604 311.888 236.045 304.938 249.919 293.231C263.838 281.485 272.305 264.771 269.535 245.561C267.042 228.268 258.823 214.225 246.082 204.547C233.382 194.899 216.427 189.764 196.678 189.764C176.929 189.764 159.975 194.899 147.274 204.547C134.534 214.225 126.314 228.268 123.821 245.561Z" fill="#B4FFED" stroke="#350F70" stroke-width="7.13212"/>
<path d="M157.699 200.73C157.699 200.73 171.252 187.572 189.604 184.749L190.395 189.888C190.395 189.888 196.267 179.328 217.048 178.481V185.314L232.182 183.62V200.786" fill="#B4FFED"/>
<path d="M157.699 200.73C157.699 200.73 171.252 187.572 189.604 184.749L190.395 189.888C190.395 189.888 196.267 179.328 217.048 178.481V185.314L232.182 183.62V200.786" stroke="#350F70" stroke-width="7.13212" stroke-miterlimit="10" stroke-linecap="round"/>
<path d="M159.936 300.603C174.495 301.697 187.184 290.781 188.278 276.222C189.372 261.663 178.456 248.974 163.897 247.88C149.338 246.786 136.648 257.702 135.555 272.261C134.461 286.82 145.377 299.509 159.936 300.603Z" fill="#76EFD9"/>
<path d="M154.45 299.199C167.73 300.197 179.305 290.239 180.303 276.958C181.301 263.678 171.343 252.103 158.063 251.105C144.782 250.107 133.207 260.064 132.209 273.345C131.211 286.626 141.169 298.201 154.45 299.199Z" fill="white" stroke="#350F70" stroke-width="4.87414" stroke-miterlimit="10"/>
<path d="M158.155 294.862C169.544 295.718 179.47 287.179 180.326 275.79C181.181 264.402 172.642 254.476 161.254 253.62C149.865 252.765 139.939 261.303 139.084 272.692C138.228 284.081 146.767 294.007 158.155 294.862Z" stroke="#350F70" stroke-width="4.87414" stroke-miterlimit="10"/>
<path d="M158.598 293.726C169.791 294.567 179.545 286.175 180.386 274.983C181.227 263.791 172.836 254.036 161.643 253.195C150.451 252.354 140.696 260.746 139.855 271.938C139.015 283.13 147.406 292.885 158.598 293.726Z" fill="#350F70"/>
<ellipse cx="151.003" cy="260.179" rx="4.8713" ry="2.88644" transform="rotate(-25.7036 151.003 260.179)" fill="white"/>
<ellipse cx="167.695" cy="288.457" rx="2.45036" ry="1.57932" transform="rotate(-40.7036 167.695 288.457)" fill="white"/>
<path d="M229.042 301.068C243.601 302.162 256.291 291.246 257.384 276.687C258.478 262.128 247.562 249.438 233.003 248.345C218.444 247.251 205.755 258.167 204.661 272.726C203.567 287.285 214.483 299.974 229.042 301.068Z" fill="#76EFD9"/>
<path d="M235.63 299.199C248.911 300.197 260.486 290.239 261.484 276.958C262.481 263.678 252.524 252.103 239.243 251.105C225.962 250.107 214.387 260.064 213.39 273.345C212.392 286.626 222.349 298.201 235.63 299.199Z" fill="white" stroke="#350F70" stroke-width="4.87414" stroke-miterlimit="10"/>
<path d="M239.336 294.862C250.725 295.718 260.651 287.179 261.506 275.79C262.362 264.402 253.823 254.476 242.434 253.62C231.046 252.765 221.12 261.303 220.264 272.692C219.409 284.081 227.947 294.007 239.336 294.862Z" stroke="#350F70" stroke-width="4.87414" stroke-miterlimit="10"/>
<path d="M239.779 293.726C250.971 294.567 260.726 286.175 261.567 274.983C262.408 263.791 254.016 254.036 242.824 253.195C231.632 252.354 221.877 260.746 221.036 271.938C220.195 283.13 228.587 292.885 239.779 293.726Z" fill="#350F70"/>
<ellipse cx="232.183" cy="260.179" rx="4.8713" ry="2.88644" transform="rotate(-25.7036 232.183 260.179)" fill="white"/>
<ellipse cx="248.876" cy="288.457" rx="2.45036" ry="1.57932" transform="rotate(-40.7036 248.876 288.457)" fill="white"/>
<path d="M144.457 238.531C150.079 232.909 159.144 232.909 164.723 238.531" stroke="#350F70" stroke-width="11.4114" stroke-miterlimit="10" stroke-linecap="round"/>
<path d="M228.613 238.531C234.235 232.909 243.301 232.909 248.879 238.531" stroke="#350F70" stroke-width="11.4114" stroke-miterlimit="10" stroke-linecap="round"/>
<path d="M187.932 278.389C187.932 277.879 188.345 277.466 188.855 277.466H205.251C205.761 277.466 206.174 277.879 206.174 278.389V292.121C206.174 297.159 202.091 301.243 197.053 301.243V301.243C192.015 301.243 187.932 297.159 187.932 292.121V278.389Z" fill="#350F70"/>
<path d="M203.967 298.62C205.545 297.724 199.94 296.411 196.411 296.411C192.715 296.411 189.643 297.404 188.729 298.78C188.729 298.78 196.411 303.006 203.967 298.62Z" fill="#E075BC"/>
<path d="M202.509 299.008C203.78 298.287 199.267 297.23 196.425 297.23C193.45 297.23 190.977 298.029 190.241 299.137C190.241 299.137 196.425 302.539 202.509 299.008Z" fill="#C45DAD"/>
<path d="M187.932 278.389C187.932 277.879 188.345 277.466 188.855 277.466H205.251C205.761 277.466 206.174 277.879 206.174 278.389V292.121C206.174 297.159 202.091 301.243 197.053 301.243V301.243C192.015 301.243 187.932 297.159 187.932 292.121V278.389Z" stroke="#350F70" stroke-width="4.99248"/>
<defs>
<radialGradient id="paint0_radial_1721_620" cx="0" cy="0" r="1" gradientUnits="userSpaceOnUse" gradientTransform="translate(181.324 324.286) rotate(90) scale(29.629 34.2077)">
<stop stop-color="#20C6B7"/>
<stop offset="1" stop-color="#4D9ABF"/>
</radialGradient>
</defs>
</svg>