<svg width="90" height="90" viewBox="0 0 249 308" fill="none" xmlns="http://www.w3.org/2000/svg">
<path d="M78.9258 150.194H75.1758V153.944V185.674V189.424H78.9258H158.634H162.384V185.674V153.944V150.194H158.634H78.9258Z" fill="#F49AAB" stroke="#350F70" stroke-width="7.5"/>
<path d="M158.635 161.443V178.698H141.432V161.454C147.849 161.448 153.738 161.443 158.635 161.443Z" fill="#F78198"/>
<path d="M178.095 144.367L178.095 144.367C177.09 137.682 175.063 128.265 170.973 117.61L167.472 118.954L170.973 117.61C169.743 114.405 173.559 111.633 176.228 113.804C176.228 113.804 176.229 113.804 176.229 113.805L176.593 114.101L176.593 114.101C181.667 118.229 188.355 119.793 194.731 118.346L194.736 118.345L194.786 118.333L194.789 118.333C208.084 115.278 215.183 100.638 209.191 88.3341L209.191 88.3339C199.275 67.9729 178.681 35.7757 139.002 10.2098L139.002 10.2097C132.976 6.32778 125.959 4.2439 118.78 4.2439C111.6 4.2439 104.583 6.32778 98.5577 10.2097L98.5576 10.2098C58.8785 35.7757 38.2842 67.9729 28.3686 88.3341C22.3763 100.638 29.4754 115.279 42.7709 118.333L42.7737 118.333L42.8224 118.345L42.8278 118.346C49.2039 119.793 55.8928 118.228 60.9665 114.101L60.9671 114.101L61.3313 113.805C61.3315 113.804 61.3316 113.804 61.3317 113.804C63.9772 111.653 67.8273 114.374 66.5762 117.636C62.5075 128.247 60.4839 137.704 59.4763 144.407L63.1847 144.964L59.4763 144.407C58.3565 151.857 64.1286 158.555 71.6636 158.545C91.0344 158.518 146.568 158.494 165.922 158.491C173.435 158.489 179.214 151.814 178.095 144.367Z" fill="#FFDCE1" stroke="#350F70" stroke-width="7.5"/>
<path d="M104.488 25.1682C71.5929 46.3628 54.5403 73.0387 46.3438 89.8699" stroke="url(#paint0_linear_1503_83)" stroke-width="7.5" stroke-linecap="round"/>
<path d="M165.923 154.743C146.569 154.743 152.709 154.699 148.72 154.743C153.949 154.738 157.964 150.093 157.184 144.926C156.209 138.458 154.242 129.311 150.268 118.955C147.659 112.159 155.745 106.304 161.393 110.898L161.76 111.19C163.428 112.549 165.309 113.57 167.305 114.229C166.834 115.652 166.823 117.274 167.471 118.955C171.445 129.311 173.412 138.457 174.387 144.926C175.166 150.093 171.152 154.737 165.923 154.743Z" fill="#FFC0C6"/>
<path d="M193.952 114.677H193.947C189.663 115.663 185.202 114.992 181.434 112.871C189.256 108.484 192.782 98.5287 188.613 89.9787C178.911 70.046 158.72 38.4611 119.766 13.3616C116.796 11.4517 113.561 10.024 110.178 9.12388C112.971 8.37798 115.861 7.9939 118.78 7.9939C125.232 7.9939 131.545 9.86922 136.969 13.361C175.923 38.4605 196.114 70.0454 205.817 89.9781C210.748 100.088 204.916 112.159 193.952 114.677Z" fill="#FFC0C6"/>
<mask id="mask0_1503_83" style="mask-type:alpha" maskUnits="userSpaceOnUse" x="0" y="171" width="238" height="137">
<path d="M150.253 291.138L150.252 291.183C150.09 298.002 144.516 303.443 137.696 303.443C130.893 303.443 125.331 298.029 125.141 291.235L121.206 210.417L121.204 210.371L121.203 210.325C121.168 208.853 119.965 207.679 118.493 207.679C117.022 207.679 115.819 208.853 115.784 210.325L115.782 210.371L115.78 210.417L111.846 291.235C111.656 298.029 106.093 303.443 99.2904 303.443C92.4712 303.443 86.8972 298.002 86.7337 291.184L86.7326 291.139L86.7327 291.094L86.746 208.227C86.7261 207.92 86.471 207.679 86.1609 207.679C85.9119 207.679 85.6923 207.836 85.6092 208.067L75.5289 258.81L75.5088 258.911L75.4831 259.011C71.3759 275.017 56.9492 286.24 40.4156 286.24H40.4061C20.4167 286.24 4.21227 270.035 4.21289 250.046V249.474C4.21289 241.611 9.10414 234.578 16.475 231.841C16.4753 231.841 16.4757 231.84 16.4761 231.84L17.0021 231.645L17.0032 231.644C24.1626 228.986 31.782 234.278 31.782 241.919V249.607C31.782 254.612 35.8397 258.67 40.8459 258.67H40.8475C45.0224 258.67 48.6541 255.819 49.6505 251.771L62.3952 186.788L62.4096 186.714L62.4271 186.641C64.0595 179.786 70.185 174.948 77.2318 174.948H160.327C167.374 174.948 173.5 179.786 175.131 186.641L175.149 186.714L175.163 186.788L187.908 251.771C188.904 255.819 192.536 258.67 196.711 258.67C201.718 258.67 205.776 254.612 205.776 249.605C205.776 249.605 205.776 249.605 205.776 249.605V249.59V249.575V249.56V249.545V249.53V249.515V249.5V249.485V249.47V249.455V249.44V249.425V249.41V249.395V249.38V249.365V249.35V249.335V249.32V249.305V249.29V249.275V249.26V249.245V249.23V249.215V249.199V249.184V249.169V249.154V249.139V249.124V249.109V249.094V249.079V249.064V249.049V249.034V249.019V249.004V248.989V248.973V248.958V248.943V248.928V248.913V248.898V248.883V248.868V248.853V248.838V248.823V248.807V248.792V248.777V248.762V248.747V248.732V248.717V248.702V248.687V248.672V248.656V248.641V248.626V248.611V248.596V248.581V248.566V248.551V248.535V248.52V248.505V248.49V248.475V248.46V248.445V248.43V248.414V248.399V248.384V248.369V248.354V248.339V248.324V248.308V248.293V248.278V248.263V248.248V248.233V248.218V248.202V248.187V248.172V248.157V248.142V248.127V248.111V248.096V248.081V248.066V248.051V248.036V248.02V248.005V247.99V247.975V247.96V247.945V247.929V247.914V247.899V247.884V247.869V247.854V247.838V247.823V247.808V247.793V247.778V247.763V247.747V247.732V247.717V247.702V247.687V247.672V247.656V247.641V247.626V247.611V247.596V247.58V247.565V247.55V247.535V247.52V247.504V247.489V247.474V247.459V247.444V247.429V247.413V247.398V247.383V247.368V247.353V247.337V247.322V247.307V247.292V247.277V247.261V247.246V247.231V247.216V247.201V247.185V247.17V247.155V247.14V247.125V247.11V247.094V247.079V247.064V247.049V247.034V247.018V247.003V246.988V246.973V246.958V246.942V246.927V246.912V246.897V246.882V246.866V246.851V246.836V246.821V246.806V246.79V246.775V246.76V246.745V246.73V246.714V246.699V246.684V246.669V246.654V246.639V246.623V246.608V246.593V246.578V246.563V246.547V246.532V246.517V246.502V246.487V246.471V246.456V246.441V246.426V246.411V246.396V246.38V246.365V246.35V246.335V246.32V246.304V246.289V246.274V246.259V246.244V246.229V246.213V246.198V246.183V246.168V246.153V246.137V246.122V246.107V246.092V246.077V246.062V246.046V246.031V246.016V246.001V245.986V245.971V245.955V245.94V245.925V245.91V245.895V245.88V245.864V245.849V245.834V245.819V245.804V245.789V245.773V245.758V245.743V245.728V245.713V245.698V245.683V245.667V245.652V245.637V245.622V245.607V245.592V245.577V245.561V245.546V245.531V245.516V245.501V245.486V245.471V245.456V245.44V245.425V245.41V245.395V245.38V245.365V245.35V245.335V245.319V245.304V245.289V245.274V245.259V245.244V245.229V245.214V245.199V245.183V245.168V245.153V245.138V245.123V245.108V245.093V245.078V245.063V245.048V245.033V245.017V245.002V244.987V244.972V244.957V244.942V244.927V244.912V244.897V244.882V244.867V244.852V244.837V244.821V244.806V244.791V244.776V244.761V244.746V244.731V244.716V244.701V244.686V244.671V244.656V244.641V244.626V244.611V244.596V244.581V244.566V244.551V244.536V244.521V244.506V244.491V244.476V244.461V244.446V244.431V244.416V244.401V244.386V244.371V244.356V244.341V244.326V244.311V244.296V244.281V244.266V244.251V244.236V244.221V244.206V244.191V244.176V244.161V244.146V244.131V244.116V244.101V244.086V244.071V244.056V244.041V244.026V244.011V243.996V243.981V243.966V243.951V243.937V243.922V243.907V243.892V243.877V243.862V243.847V243.832V243.817V243.802V243.787V243.772V243.758V243.743V243.728V243.713V243.698V243.683V243.668V243.653V243.639V243.624V243.609V243.594V243.579V243.564V243.549V243.535V243.52V243.505V243.49V243.475V243.46V243.445V243.431V243.416V243.401V243.386V243.371V243.356V243.342V243.327V243.312V243.297V243.282V243.268V243.253V243.238V243.223V243.209V243.194V243.179V243.164V243.149V243.135V243.12V243.105V243.09V243.076V243.061V243.046V243.031V243.017V243.002V242.987V242.972V242.958V242.943V242.928V242.914V242.899V242.884V242.869V242.855V242.84V242.825V242.811V242.796V242.781V242.767V242.752V242.737V242.723V242.708V242.693V242.679V242.664V242.649V242.635V242.62V242.605V242.591V242.576V242.561V242.547V242.532V242.518V242.503V242.488V242.474V242.459V242.445V242.43V242.415V242.401V242.386V242.372V242.357V242.343V242.328V242.313V242.299V242.284V242.27V242.255V242.241V242.226V242.212V242.197V242.183V242.168V242.154V242.139V242.124V242.11V242.095V242.081V242.067V242.052V242.038V242.023V242.009V241.994V241.98V241.965V241.951V241.936V241.922C205.776 234.276 213.401 228.988 220.561 231.648L220.561 231.648L220.862 231.76C220.862 231.76 220.862 231.76 220.862 231.76C228.367 234.548 233.347 241.71 233.347 249.717V250.037C233.347 270.027 217.146 286.233 197.156 286.24H197.154H197.143C180.61 286.24 166.183 275.017 162.076 259.01L162.05 258.91L162.03 258.809L151.95 208.066C151.867 207.835 151.647 207.678 151.398 207.678H150.826L150.253 291.138ZM150.253 291.138V291.093M150.253 291.138V291.093M150.253 291.093L150.24 208.227M150.253 291.093L150.24 208.227M150.24 208.227C150.26 207.92 150.515 207.679 150.825 207.678L150.24 208.227Z" fill="#FFC0C6" stroke="#350F70" stroke-width="7.5"/>
</mask>
<g mask="url(#mask0_1503_83)">
<path d="M146.49 208.161L146.503 291.094C146.389 295.876 142.48 299.693 137.696 299.693C132.913 299.693 129.003 295.876 128.889 291.094L124.952 210.235C124.868 206.728 122.001 203.929 118.493 203.929C114.985 203.929 112.119 206.728 112.035 210.235L108.098 291.094C107.983 295.876 104.074 299.693 99.2904 299.693C94.5072 299.693 90.5973 295.876 90.4827 291.094L90.496 208.162C90.4398 205.808 88.5155 203.929 86.1609 203.929C84.1809 203.929 82.4525 205.27 81.9605 207.188L71.8508 258.079C68.168 272.431 55.2328 282.49 40.4156 282.49H40.4061C22.4879 282.49 7.96233 267.964 7.96289 250.046V249.474C7.96289 243.179 11.8794 237.547 17.7815 235.356L18.3086 235.16C23.02 233.41 28.032 236.893 28.032 241.919V249.607C28.032 256.684 33.7693 262.42 40.8459 262.42H40.8475C46.7819 262.42 51.9397 258.346 53.3146 252.573L66.0751 187.51C67.3052 182.344 71.9215 178.698 77.2318 178.698H160.327C165.637 178.698 170.254 182.344 171.483 187.51L184.244 252.573C185.618 258.346 190.776 262.42 196.711 262.42C203.789 262.42 209.526 256.683 209.526 249.605C209.526 247.046 209.526 244.387 209.526 241.922C209.526 236.893 214.541 233.412 219.255 235.163L219.556 235.275C225.592 237.518 229.597 243.277 229.597 249.717V250.037C229.597 267.956 215.074 282.484 197.154 282.49H197.143C182.327 282.49 169.391 272.431 165.708 258.078L155.598 207.187C155.106 205.269 153.378 203.928 151.398 203.928H150.825C148.471 203.929 146.547 205.808 146.49 208.161Z" fill="#FFC0C6"/>
<path d="M7.9625 249.718V250.039C7.9625 267.954 22.488 282.485 40.408 282.49H40.4135C43.3726 282.49 46.251 282.089 48.998 281.332C35.2585 277.553 25.166 264.972 25.166 250.039V249.718C25.166 246.478 26.1808 243.41 27.9587 240.876C27.3163 236.426 22.6829 233.536 18.3077 235.164L18.0037 235.273C11.9647 237.515 7.9625 243.278 7.9625 249.718Z" fill="#F49AAB"/>
<rect x="87.7764" y="251.51" width="21.3857" height="52.5898" rx="10.6929" fill="#F49AAB"/>
<rect x="87.7764" y="275.154" width="21.3857" height="28.9463" rx="10.6929" fill="#F78198"/>
<rect x="126.776" y="251.51" width="21.3857" height="52.5898" rx="10.6929" fill="#F49AAB"/>
<rect x="126.776" y="275.154" width="21.3857" height="28.9463" rx="10.6929" fill="#F78198"/>
<path d="M150.253 291.138L150.252 291.183C150.09 298.002 144.516 303.443 137.696 303.443C130.893 303.443 125.331 298.029 125.141 291.235L121.206 210.417L121.204 210.371L121.203 210.325C121.168 208.853 119.965 207.679 118.493 207.679C117.022 207.679 115.819 208.853 115.784 210.325L115.782 210.371L115.78 210.417L111.846 291.235C111.656 298.029 106.093 303.443 99.2904 303.443C92.4712 303.443 86.8972 298.002 86.7337 291.184L86.7326 291.139L86.7327 291.094L86.746 208.227C86.7261 207.92 86.471 207.679 86.1609 207.679C85.9119 207.679 85.6923 207.836 85.6092 208.067L75.5289 258.81L75.5088 258.911L75.4831 259.011C71.3759 275.017 56.9492 286.24 40.4156 286.24H40.4061C20.4167 286.24 4.21227 270.035 4.21289 250.046V249.474C4.21289 241.611 9.10414 234.578 16.475 231.841C16.4753 231.841 16.4757 231.84 16.4761 231.84L17.0021 231.645L17.0032 231.644C24.1626 228.986 31.782 234.278 31.782 241.919V249.607C31.782 254.612 35.8397 258.67 40.8459 258.67H40.8475C45.0224 258.67 48.6541 255.819 49.6505 251.771L62.3952 186.788L62.4096 186.714L62.4271 186.641C64.0595 179.786 70.185 174.948 77.2318 174.948H160.327C167.374 174.948 173.5 179.786 175.131 186.641L175.149 186.714L175.163 186.788L187.908 251.771C188.904 255.819 192.536 258.67 196.711 258.67C201.718 258.67 205.776 254.612 205.776 249.605C205.776 249.605 205.776 249.605 205.776 249.605V249.59V249.575V249.56V249.545V249.53V249.515V249.5V249.485V249.47V249.455V249.44V249.425V249.41V249.395V249.38V249.365V249.35V249.335V249.32V249.305V249.29V249.275V249.26V249.245V249.23V249.215V249.199V249.184V249.169V249.154V249.139V249.124V249.109V249.094V249.079V249.064V249.049V249.034V249.019V249.004V248.989V248.973V248.958V248.943V248.928V248.913V248.898V248.883V248.868V248.853V248.838V248.823V248.807V248.792V248.777V248.762V248.747V248.732V248.717V248.702V248.687V248.672V248.656V248.641V248.626V248.611V248.596V248.581V248.566V248.551V248.535V248.52V248.505V248.49V248.475V248.46V248.445V248.43V248.414V248.399V248.384V248.369V248.354V248.339V248.324V248.308V248.293V248.278V248.263V248.248V248.233V248.218V248.202V248.187V248.172V248.157V248.142V248.127V248.111V248.096V248.081V248.066V248.051V248.036V248.02V248.005V247.99V247.975V247.96V247.945V247.929V247.914V247.899V247.884V247.869V247.854V247.838V247.823V247.808V247.793V247.778V247.763V247.747V247.732V247.717V247.702V247.687V247.672V247.656V247.641V247.626V247.611V247.596V247.58V247.565V247.55V247.535V247.52V247.504V247.489V247.474V247.459V247.444V247.429V247.413V247.398V247.383V247.368V247.353V247.337V247.322V247.307V247.292V247.277V247.261V247.246V247.231V247.216V247.201V247.185V247.17V247.155V247.14V247.125V247.11V247.094V247.079V247.064V247.049V247.034V247.018V247.003V246.988V246.973V246.958V246.942V246.927V246.912V246.897V246.882V246.866V246.851V246.836V246.821V246.806V246.79V246.775V246.76V246.745V246.73V246.714V246.699V246.684V246.669V246.654V246.639V246.623V246.608V246.593V246.578V246.563V246.547V246.532V246.517V246.502V246.487V246.471V246.456V246.441V246.426V246.411V246.396V246.38V246.365V246.35V246.335V246.32V246.304V246.289V246.274V246.259V246.244V246.229V246.213V246.198V246.183V246.168V246.153V246.137V246.122V246.107V246.092V246.077V246.062V246.046V246.031V246.016V246.001V245.986V245.971V245.955V245.94V245.925V245.91V245.895V245.88V245.864V245.849V245.834V245.819V245.804V245.789V245.773V245.758V245.743V245.728V245.713V245.698V245.683V245.667V245.652V245.637V245.622V245.607V245.592V245.577V245.561V245.546V245.531V245.516V245.501V245.486V245.471V245.456V245.44V245.425V245.41V245.395V245.38V245.365V245.35V245.335V245.319V245.304V245.289V245.274V245.259V245.244V245.229V245.214V245.199V245.183V245.168V245.153V245.138V245.123V245.108V245.093V245.078V245.063V245.048V245.033V245.017V245.002V244.987V244.972V244.957V244.942V244.927V244.912V244.897V244.882V244.867V244.852V244.837V244.821V244.806V244.791V244.776V244.761V244.746V244.731V244.716V244.701V244.686V244.671V244.656V244.641V244.626V244.611V244.596V244.581V244.566V244.551V244.536V244.521V244.506V244.491V244.476V244.461V244.446V244.431V244.416V244.401V244.386V244.371V244.356V244.341V244.326V244.311V244.296V244.281V244.266V244.251V244.236V244.221V244.206V244.191V244.176V244.161V244.146V244.131V244.116V244.101V244.086V244.071V244.056V244.041V244.026V244.011V243.996V243.981V243.966V243.951V243.937V243.922V243.907V243.892V243.877V243.862V243.847V243.832V243.817V243.802V243.787V243.772V243.758V243.743V243.728V243.713V243.698V243.683V243.668V243.653V243.639V243.624V243.609V243.594V243.579V243.564V243.549V243.535V243.52V243.505V243.49V243.475V243.46V243.445V243.431V243.416V243.401V243.386V243.371V243.356V243.342V243.327V243.312V243.297V243.282V243.268V243.253V243.238V243.223V243.209V243.194V243.179V243.164V243.149V243.135V243.12V243.105V243.09V243.076V243.061V243.046V243.031V243.017V243.002V242.987V242.972V242.958V242.943V242.928V242.914V242.899V242.884V242.869V242.855V242.84V242.825V242.811V242.796V242.781V242.767V242.752V242.737V242.723V242.708V242.693V242.679V242.664V242.649V242.635V242.62V242.605V242.591V242.576V242.561V242.547V242.532V242.518V242.503V242.488V242.474V242.459V242.445V242.43V242.415V242.401V242.386V242.372V242.357V242.343V242.328V242.313V242.299V242.284V242.27V242.255V242.241V242.226V242.212V242.197V242.183V242.168V242.154V242.139V242.124V242.11V242.095V242.081V242.067V242.052V242.038V242.023V242.009V241.994V241.98V241.965V241.951V241.936V241.922C205.776 234.276 213.401 228.988 220.561 231.648L220.561 231.648L220.862 231.76C220.862 231.76 220.862 231.76 220.862 231.76C228.367 234.548 233.347 241.71 233.347 249.717V250.037C233.347 270.027 217.146 286.233 197.156 286.24H197.154H197.143C180.61 286.24 166.183 275.017 162.076 259.01L162.05 258.91L162.03 258.809L151.95 208.066C151.867 207.835 151.647 207.678 151.398 207.678H150.826L150.253 291.138ZM150.253 291.138V291.093M150.253 291.138V291.093M150.253 291.093L150.24 208.227M150.253 291.093L150.24 208.227M150.24 208.227C150.26 207.92 150.515 207.679 150.825 207.678L150.24 208.227Z" stroke="#350F70" stroke-width="7.5"/>
</g>
<path d="M229.597 249.718V250.039C229.597 267.954 215.072 282.485 197.152 282.49H197.146C194.187 282.49 191.309 282.089 188.562 281.332C202.301 277.553 212.394 264.972 212.394 250.039V249.718C212.394 246.478 211.379 243.41 209.601 240.876C210.243 236.426 214.877 233.536 219.252 235.164L219.556 235.273C225.595 237.515 229.597 243.278 229.597 249.718Z" fill="#F49AAB"/>
<path d="M189.115 119.875L189.101 119.896C188.365 120.996 187.282 121.663 186.014 121.914L171.587 124.77L171.538 124.78L171.489 124.787C170.659 124.909 169.817 124.856 169.007 124.564L168.962 124.548L168.918 124.53C168.168 124.22 167.51 123.748 166.989 123.11C166.469 122.474 166.137 121.739 165.98 120.945C165.807 120.074 165.891 119.209 166.156 118.387L166.242 118.12L166.328 117.991L172.746 103.074L167.415 104.129C166.163 104.377 164.949 104.138 163.877 103.46L164.94 101.78L163.877 103.46C162.738 102.739 162.033 101.652 161.775 100.353C161.52 99.0617 161.776 97.8127 162.506 96.7223L189.115 119.875ZM189.115 119.875L189.129 119.853C189.829 118.747 190.033 117.5 189.782 116.233C189.534 114.98 188.851 113.949 187.815 113.216C186.715 112.438 185.441 112.2 184.142 112.457L178.796 113.515L185.355 98.5099L185.379 98.4558L185.399 98.4005C185.707 97.564 185.823 96.6666 185.643 95.7557C185.481 94.9373 185.131 94.1795 184.57 93.5387M189.115 119.875L184.57 93.5387M184.57 93.5387C184.04 92.8765 183.36 92.3952 182.579 92.0935C181.773 91.7655 180.924 91.6758 180.074 91.798L180.022 91.8055L179.971 91.8157L165.543 94.6719C164.258 94.9263 163.223 95.6502 162.506 96.7223L184.57 93.5387Z" fill="url(#paint1_linear_1503_83)" stroke="white" stroke-width="4"/>
<path d="M219.209 105.013L219.191 105.031C218.033 106.189 216.561 106.744 214.931 106.744H194.063H194.013L193.963 106.741C192.893 106.688 191.872 106.414 190.959 105.866L190.918 105.841L190.879 105.815C190.028 105.248 189.341 104.512 188.86 103.61C188.38 102.71 188.151 101.732 188.151 100.712C188.151 99.6148 188.459 98.5721 188.995 97.6069L189.131 97.3621L189.258 97.2349L203.247 76.8648H193.945C192.353 76.8648 190.934 76.284 189.781 75.1884L191.131 73.7673L189.781 75.1884C188.571 74.0388 187.973 72.5557 187.973 70.8928C187.973 69.2498 188.583 67.7943 189.744 66.633L219.209 105.013ZM219.209 105.013L219.227 104.995C220.35 103.812 220.903 102.342 220.903 100.712C220.903 99.1204 220.322 97.7017 219.227 96.5486C218.077 95.3384 216.594 94.7404 214.931 94.7404H205.596M219.209 105.013L205.596 94.7404M205.596 94.7404L219.774 74.3465L219.808 74.2981L219.839 74.2478C220.432 73.2771 220.784 72.2094 220.784 71.0707C220.784 70.0152 220.536 69.0053 220.005 68.0924C219.52 67.1529 218.806 66.3972 217.913 65.8332C217.01 65.2382 215.996 64.9211 214.918 64.8643L214.865 64.8616H214.812H193.945C192.32 64.8616 190.89 65.4874 189.744 66.633L205.596 94.7404Z" fill="url(#paint2_linear_1503_83)" stroke="white" stroke-width="4"/>
<path d="M239.968 121.722L239.989 121.708L240.01 121.693C241.132 120.902 241.829 119.777 242.095 118.445C242.357 117.132 242.109 115.861 241.398 114.734C240.645 113.541 239.51 112.801 238.146 112.529L232.054 111.314L245.047 98.8042L245.09 98.7633L245.13 98.72C245.767 98.0294 246.238 97.2066 246.427 96.2555C246.599 95.3948 246.563 94.5206 246.276 93.6762C246.028 92.8219 245.563 92.0828 244.926 91.476C244.277 90.8356 243.491 90.4081 242.617 90.1854L242.566 90.1724L242.514 90.1621L226.905 87.0495C225.56 86.7813 224.27 87.0665 223.143 87.8187C221.997 88.5832 221.25 89.6888 220.98 91.0427C220.708 92.4067 220.957 93.739 221.77 94.8918L223.351 93.7763L221.77 94.8918C222.537 95.9802 223.616 96.6968 224.929 96.9587L231.003 98.1698L218.178 110.66L218.045 110.749L217.864 110.963C217.274 111.657 216.847 112.463 216.665 113.374C216.499 114.209 216.527 115.054 216.775 115.877C217.024 116.703 217.472 117.423 218.075 118.026L218.109 118.06L218.144 118.092C218.811 118.697 219.606 119.087 220.464 119.303L220.512 119.316L220.561 119.325L236.17 122.438C237.502 122.704 238.816 122.491 239.968 121.722Z" fill="url(#paint3_linear_1503_83)" stroke="white" stroke-width="4"/>
<path d="M98.6272 136.251C93.1867 141.692 84.366 141.692 78.9255 136.251" stroke="#350F70" stroke-width="7.5" stroke-linecap="round" stroke-linejoin="round"/>
<path d="M159.328 136.251C153.888 141.692 145.067 141.692 139.627 136.251" stroke="#350F70" stroke-width="7.5" stroke-linecap="round" stroke-linejoin="round"/>
<rect x="110.792" y="126.024" width="16.6697" height="31.2196" rx="8.33483" fill="#EA739A" stroke="#FFDCE1" stroke-width="5"/>
<rect x="112.428" y="129.072" width="13.3988" height="23.8704" rx="6.69938" fill="#EA739A" stroke="#350F70" stroke-width="5"/>
<rect x="114.928" y="134.175" width="8.39875" height="16.2676" rx="4.19938" fill="#350F70" fill-opacity="0.2"/>
<path d="M166.114 163.838C166.114 169.718 145.077 174.485 119.127 174.485C93.1765 174.485 72.1396 169.718 72.1396 163.838" stroke="#350F70" stroke-width="4" stroke-linecap="round"/>
<mask id="path-25-outside-1_1503_83" maskUnits="userSpaceOnUse" x="101.45" y="165.747" width="36" height="36" fill="black">
<rect fill="white" x="101.45" y="165.747" width="36" height="36"/>
<path d="M125.274 179.257L125.264 179.253C125.258 179.251 125.252 179.248 125.247 179.243C125.239 179.235 125.233 179.224 125.229 179.213C125.226 179.201 125.225 179.189 125.227 179.177L125.779 175.799L128.368 178.391L125.676 179.537C125.668 179.54 125.66 179.542 125.652 179.541H125.641C125.638 179.539 125.634 179.536 125.627 179.529C125.527 179.418 125.407 179.325 125.274 179.257ZM129.029 179.051L131.797 181.821C132.371 182.397 132.659 182.685 132.764 183.018C132.78 183.067 132.793 183.116 132.803 183.167L126.188 180.363C126.184 180.362 126.181 180.36 126.177 180.359C126.15 180.348 126.12 180.336 126.12 180.309C126.12 180.282 126.151 180.269 126.178 180.258L126.186 180.255L129.029 179.051ZM132.69 184.056C132.547 184.325 132.269 184.604 131.797 185.076L128.676 188.199L124.64 187.358L124.619 187.353C124.583 187.348 124.545 187.341 124.545 187.309C124.53 187.142 124.48 186.981 124.4 186.834C124.319 186.687 124.21 186.559 124.077 186.456C124.061 186.44 124.065 186.414 124.07 186.391C124.07 186.387 124.07 186.383 124.072 186.381L124.831 181.716L124.834 181.701C124.838 181.665 124.844 181.623 124.876 181.623C125.039 181.603 125.196 181.551 125.338 181.469C125.481 181.388 125.605 181.278 125.705 181.148C125.711 181.141 125.716 181.133 125.724 181.129C125.747 181.118 125.774 181.129 125.798 181.139L132.689 184.056H132.69ZM127.959 188.917L122.827 194.053L123.705 188.65L123.707 188.643C123.707 188.635 123.709 188.628 123.711 188.622C123.718 188.605 123.737 188.598 123.755 188.59L123.763 188.587C123.955 188.505 124.126 188.378 124.259 188.217C124.277 188.197 124.297 188.178 124.324 188.174C124.331 188.173 124.338 188.173 124.344 188.174L127.958 188.918L127.959 188.917ZM121.741 195.14L121.162 195.719L114.767 186.469C114.765 186.466 114.762 186.462 114.76 186.459C114.75 186.446 114.739 186.432 114.741 186.416C114.741 186.405 114.749 186.395 114.757 186.386L114.764 186.377C114.783 186.348 114.8 186.32 114.818 186.289L114.832 186.264L114.834 186.262C114.844 186.245 114.853 186.228 114.871 186.219C114.886 186.212 114.906 186.215 114.923 186.218L122.008 187.681C122.028 187.684 122.046 187.692 122.062 187.704C122.071 187.713 122.073 187.723 122.076 187.735C122.125 187.922 122.217 188.095 122.344 188.241C122.472 188.387 122.631 188.501 122.81 188.575C122.83 188.585 122.821 188.607 122.812 188.63C122.807 188.641 122.804 188.652 122.801 188.663C122.712 189.206 121.946 193.879 121.741 195.14ZM120.532 196.349C120.106 196.771 119.855 196.995 119.57 197.085C119.29 197.173 118.989 197.173 118.709 197.085C118.376 196.979 118.088 196.692 117.514 196.116L111.091 189.688L112.769 187.085C112.777 187.072 112.784 187.06 112.797 187.051C112.815 187.038 112.841 187.044 112.862 187.051C113.247 187.167 113.661 187.146 114.032 186.992C114.051 186.984 114.071 186.979 114.086 186.993C114.093 187 114.1 187.008 114.106 187.016L120.532 196.349V196.349ZM110.472 189.069L108.999 187.594L111.908 186.352C111.916 186.349 111.924 186.347 111.932 186.347C111.956 186.347 111.97 186.371 111.983 186.393C112.012 186.438 112.043 186.482 112.076 186.525L112.085 186.536C112.094 186.548 112.088 186.561 112.08 186.572L110.473 189.069H110.472ZM108.347 186.942L106.483 185.076C106.166 184.759 105.936 184.529 105.776 184.331L111.443 185.507C111.45 185.508 111.458 185.51 111.465 185.511C111.5 185.516 111.538 185.523 111.538 185.556C111.538 185.591 111.496 185.608 111.46 185.622L111.444 185.629L108.347 186.942ZM105.45 183.372C105.457 183.251 105.478 183.133 105.514 183.018C105.62 182.685 105.907 182.397 106.483 181.821L108.868 179.434C109.966 181.029 111.068 182.623 112.172 184.214C112.191 184.239 112.212 184.268 112.19 184.289C112.086 184.404 111.982 184.53 111.908 184.667C111.9 184.684 111.888 184.699 111.873 184.711C111.863 184.717 111.853 184.715 111.843 184.712H111.841L105.45 183.371V183.372ZM109.507 178.795L112.712 175.586C113.014 175.718 114.112 176.182 115.093 176.596C115.835 176.911 116.512 177.197 116.725 177.289C116.747 177.298 116.766 177.307 116.775 177.328C116.781 177.341 116.778 177.357 116.775 177.371C116.724 177.603 116.732 177.843 116.797 178.071C116.862 178.299 116.983 178.508 117.149 178.677C117.17 178.699 117.149 178.73 117.13 178.756L117.12 178.771L113.864 183.819C113.855 183.833 113.847 183.845 113.833 183.855C113.816 183.865 113.791 183.86 113.771 183.855C113.645 183.822 113.515 183.804 113.384 183.803C113.267 183.803 113.139 183.824 113.011 183.848H113.01C112.996 183.85 112.983 183.853 112.972 183.844C112.959 183.834 112.948 183.821 112.939 183.808L109.506 178.795H109.507ZM113.362 174.937L117.514 170.782C118.088 170.207 118.376 169.919 118.709 169.814C118.989 169.725 119.29 169.725 119.57 169.814C119.903 169.919 120.191 170.207 120.766 170.782L121.666 171.683L118.713 176.26C118.705 176.273 118.695 176.285 118.683 176.294C118.666 176.306 118.641 176.301 118.619 176.294C118.386 176.223 118.14 176.21 117.901 176.256C117.662 176.302 117.438 176.406 117.248 176.558C117.229 176.578 117.2 176.567 117.176 176.556C116.79 176.388 113.791 175.12 113.362 174.937ZM122.293 172.31L125.019 175.039L124.362 179.111V179.122C124.362 179.131 124.36 179.14 124.357 179.149C124.349 179.163 124.335 179.166 124.321 179.171C124.18 179.213 124.048 179.279 123.929 179.366C123.924 179.369 123.92 179.373 123.915 179.378C123.907 179.386 123.899 179.394 123.887 179.396C123.876 179.396 123.866 179.394 123.856 179.391L119.701 177.624L119.693 177.62C119.667 177.61 119.635 177.597 119.635 177.57C119.611 177.338 119.535 177.115 119.414 176.916C119.394 176.883 119.372 176.848 119.389 176.815L122.293 172.31ZM119.485 178.461L123.38 180.112C123.401 180.122 123.425 180.131 123.434 180.153C123.438 180.167 123.438 180.181 123.434 180.194C123.422 180.251 123.412 180.316 123.412 180.382V180.491C123.412 180.518 123.385 180.53 123.359 180.541L123.351 180.544C122.734 180.807 114.688 184.241 114.676 184.241C114.664 184.241 114.651 184.241 114.639 184.229C114.618 184.207 114.639 184.177 114.658 184.15C114.662 184.145 114.665 184.14 114.668 184.136L117.869 179.176L117.875 179.167C117.894 179.137 117.915 179.103 117.949 179.103L117.981 179.108C118.054 179.118 118.118 179.128 118.183 179.128C118.669 179.128 119.119 178.891 119.39 178.487C119.397 178.476 119.405 178.466 119.415 178.458C119.434 178.444 119.462 178.451 119.485 178.461ZM115.024 185.025L123.794 181.283C123.794 181.283 123.807 181.283 123.819 181.295C123.867 181.343 123.907 181.375 123.947 181.405L123.966 181.417C123.984 181.427 124.002 181.438 124.003 181.457C124.003 181.464 124.003 181.468 124.002 181.475L123.25 186.093L123.247 186.112C123.242 186.148 123.237 186.188 123.204 186.188C123.004 186.202 122.81 186.264 122.639 186.369C122.468 186.475 122.325 186.621 122.223 186.794L122.22 186.799C122.21 186.816 122.201 186.832 122.184 186.84C122.169 186.847 122.15 186.844 122.134 186.841L115.14 185.397C115.133 185.396 115.032 185.026 115.024 185.025Z"/>
</mask>
<path d="M125.274 179.257L125.264 179.253C125.258 179.251 125.252 179.248 125.247 179.243C125.239 179.235 125.233 179.224 125.229 179.213C125.226 179.201 125.225 179.189 125.227 179.177L125.779 175.799L128.368 178.391L125.676 179.537C125.668 179.54 125.66 179.542 125.652 179.541H125.641C125.638 179.539 125.634 179.536 125.627 179.529C125.527 179.418 125.407 179.325 125.274 179.257ZM129.029 179.051L131.797 181.821C132.371 182.397 132.659 182.685 132.764 183.018C132.78 183.067 132.793 183.116 132.803 183.167L126.188 180.363C126.184 180.362 126.181 180.36 126.177 180.359C126.15 180.348 126.12 180.336 126.12 180.309C126.12 180.282 126.151 180.269 126.178 180.258L126.186 180.255L129.029 179.051ZM132.69 184.056C132.547 184.325 132.269 184.604 131.797 185.076L128.676 188.199L124.64 187.358L124.619 187.353C124.583 187.348 124.545 187.341 124.545 187.309C124.53 187.142 124.48 186.981 124.4 186.834C124.319 186.687 124.21 186.559 124.077 186.456C124.061 186.44 124.065 186.414 124.07 186.391C124.07 186.387 124.07 186.383 124.072 186.381L124.831 181.716L124.834 181.701C124.838 181.665 124.844 181.623 124.876 181.623C125.039 181.603 125.196 181.551 125.338 181.469C125.481 181.388 125.605 181.278 125.705 181.148C125.711 181.141 125.716 181.133 125.724 181.129C125.747 181.118 125.774 181.129 125.798 181.139L132.689 184.056H132.69ZM127.959 188.917L122.827 194.053L123.705 188.65L123.707 188.643C123.707 188.635 123.709 188.628 123.711 188.622C123.718 188.605 123.737 188.598 123.755 188.59L123.763 188.587C123.955 188.505 124.126 188.378 124.259 188.217C124.277 188.197 124.297 188.178 124.324 188.174C124.331 188.173 124.338 188.173 124.344 188.174L127.958 188.918L127.959 188.917ZM121.741 195.14L121.162 195.719L114.767 186.469C114.765 186.466 114.762 186.462 114.76 186.459C114.75 186.446 114.739 186.432 114.741 186.416C114.741 186.405 114.749 186.395 114.757 186.386L114.764 186.377C114.783 186.348 114.8 186.32 114.818 186.289L114.832 186.264L114.834 186.262C114.844 186.245 114.853 186.228 114.871 186.219C114.886 186.212 114.906 186.215 114.923 186.218L122.008 187.681C122.028 187.684 122.046 187.692 122.062 187.704C122.071 187.713 122.073 187.723 122.076 187.735C122.125 187.922 122.217 188.095 122.344 188.241C122.472 188.387 122.631 188.501 122.81 188.575C122.83 188.585 122.821 188.607 122.812 188.63C122.807 188.641 122.804 188.652 122.801 188.663C122.712 189.206 121.946 193.879 121.741 195.14ZM120.532 196.349C120.106 196.771 119.855 196.995 119.57 197.085C119.29 197.173 118.989 197.173 118.709 197.085C118.376 196.979 118.088 196.692 117.514 196.116L111.091 189.688L112.769 187.085C112.777 187.072 112.784 187.06 112.797 187.051C112.815 187.038 112.841 187.044 112.862 187.051C113.247 187.167 113.661 187.146 114.032 186.992C114.051 186.984 114.071 186.979 114.086 186.993C114.093 187 114.1 187.008 114.106 187.016L120.532 196.349V196.349ZM110.472 189.069L108.999 187.594L111.908 186.352C111.916 186.349 111.924 186.347 111.932 186.347C111.956 186.347 111.97 186.371 111.983 186.393C112.012 186.438 112.043 186.482 112.076 186.525L112.085 186.536C112.094 186.548 112.088 186.561 112.08 186.572L110.473 189.069H110.472ZM108.347 186.942L106.483 185.076C106.166 184.759 105.936 184.529 105.776 184.331L111.443 185.507C111.45 185.508 111.458 185.51 111.465 185.511C111.5 185.516 111.538 185.523 111.538 185.556C111.538 185.591 111.496 185.608 111.46 185.622L111.444 185.629L108.347 186.942ZM105.45 183.372C105.457 183.251 105.478 183.133 105.514 183.018C105.62 182.685 105.907 182.397 106.483 181.821L108.868 179.434C109.966 181.029 111.068 182.623 112.172 184.214C112.191 184.239 112.212 184.268 112.19 184.289C112.086 184.404 111.982 184.53 111.908 184.667C111.9 184.684 111.888 184.699 111.873 184.711C111.863 184.717 111.853 184.715 111.843 184.712H111.841L105.45 183.371V183.372ZM109.507 178.795L112.712 175.586C113.014 175.718 114.112 176.182 115.093 176.596C115.835 176.911 116.512 177.197 116.725 177.289C116.747 177.298 116.766 177.307 116.775 177.328C116.781 177.341 116.778 177.357 116.775 177.371C116.724 177.603 116.732 177.843 116.797 178.071C116.862 178.299 116.983 178.508 117.149 178.677C117.17 178.699 117.149 178.73 117.13 178.756L117.12 178.771L113.864 183.819C113.855 183.833 113.847 183.845 113.833 183.855C113.816 183.865 113.791 183.86 113.771 183.855C113.645 183.822 113.515 183.804 113.384 183.803C113.267 183.803 113.139 183.824 113.011 183.848H113.01C112.996 183.85 112.983 183.853 112.972 183.844C112.959 183.834 112.948 183.821 112.939 183.808L109.506 178.795H109.507ZM113.362 174.937L117.514 170.782C118.088 170.207 118.376 169.919 118.709 169.814C118.989 169.725 119.29 169.725 119.57 169.814C119.903 169.919 120.191 170.207 120.766 170.782L121.666 171.683L118.713 176.26C118.705 176.273 118.695 176.285 118.683 176.294C118.666 176.306 118.641 176.301 118.619 176.294C118.386 176.223 118.14 176.21 117.901 176.256C117.662 176.302 117.438 176.406 117.248 176.558C117.229 176.578 117.2 176.567 117.176 176.556C116.79 176.388 113.791 175.12 113.362 174.937ZM122.293 172.31L125.019 175.039L124.362 179.111V179.122C124.362 179.131 124.36 179.14 124.357 179.149C124.349 179.163 124.335 179.166 124.321 179.171C124.18 179.213 124.048 179.279 123.929 179.366C123.924 179.369 123.92 179.373 123.915 179.378C123.907 179.386 123.899 179.394 123.887 179.396C123.876 179.396 123.866 179.394 123.856 179.391L119.701 177.624L119.693 177.62C119.667 177.61 119.635 177.597 119.635 177.57C119.611 177.338 119.535 177.115 119.414 176.916C119.394 176.883 119.372 176.848 119.389 176.815L122.293 172.31ZM119.485 178.461L123.38 180.112C123.401 180.122 123.425 180.131 123.434 180.153C123.438 180.167 123.438 180.181 123.434 180.194C123.422 180.251 123.412 180.316 123.412 180.382V180.491C123.412 180.518 123.385 180.53 123.359 180.541L123.351 180.544C122.734 180.807 114.688 184.241 114.676 184.241C114.664 184.241 114.651 184.241 114.639 184.229C114.618 184.207 114.639 184.177 114.658 184.15C114.662 184.145 114.665 184.14 114.668 184.136L117.869 179.176L117.875 179.167C117.894 179.137 117.915 179.103 117.949 179.103L117.981 179.108C118.054 179.118 118.118 179.128 118.183 179.128C118.669 179.128 119.119 178.891 119.39 178.487C119.397 178.476 119.405 178.466 119.415 178.458C119.434 178.444 119.462 178.451 119.485 178.461ZM115.024 185.025L123.794 181.283C123.794 181.283 123.807 181.283 123.819 181.295C123.867 181.343 123.907 181.375 123.947 181.405L123.966 181.417C123.984 181.427 124.002 181.438 124.003 181.457C124.003 181.464 124.003 181.468 124.002 181.475L123.25 186.093L123.247 186.112C123.242 186.148 123.237 186.188 123.204 186.188C123.004 186.202 122.81 186.264 122.639 186.369C122.468 186.475 122.325 186.621 122.223 186.794L122.22 186.799C122.21 186.816 122.201 186.832 122.184 186.84C122.169 186.847 122.15 186.844 122.134 186.841L115.14 185.397C115.133 185.396 115.032 185.026 115.024 185.025Z" fill="url(#paint4_radial_1503_83)"/>
<path d="M125.274 179.257L125.264 179.253C125.258 179.251 125.252 179.248 125.247 179.243C125.239 179.235 125.233 179.224 125.229 179.213C125.226 179.201 125.225 179.189 125.227 179.177L125.779 175.799L128.368 178.391L125.676 179.537C125.668 179.54 125.66 179.542 125.652 179.541H125.641C125.638 179.539 125.634 179.536 125.627 179.529C125.527 179.418 125.407 179.325 125.274 179.257ZM129.029 179.051L131.797 181.821C132.371 182.397 132.659 182.685 132.764 183.018C132.78 183.067 132.793 183.116 132.803 183.167L126.188 180.363C126.184 180.362 126.181 180.36 126.177 180.359C126.15 180.348 126.12 180.336 126.12 180.309C126.12 180.282 126.151 180.269 126.178 180.258L126.186 180.255L129.029 179.051ZM132.69 184.056C132.547 184.325 132.269 184.604 131.797 185.076L128.676 188.199L124.64 187.358L124.619 187.353C124.583 187.348 124.545 187.341 124.545 187.309C124.53 187.142 124.48 186.981 124.4 186.834C124.319 186.687 124.21 186.559 124.077 186.456C124.061 186.44 124.065 186.414 124.07 186.391C124.07 186.387 124.07 186.383 124.072 186.381L124.831 181.716L124.834 181.701C124.838 181.665 124.844 181.623 124.876 181.623C125.039 181.603 125.196 181.551 125.338 181.469C125.481 181.388 125.605 181.278 125.705 181.148C125.711 181.141 125.716 181.133 125.724 181.129C125.747 181.118 125.774 181.129 125.798 181.139L132.689 184.056H132.69ZM127.959 188.917L122.827 194.053L123.705 188.65L123.707 188.643C123.707 188.635 123.709 188.628 123.711 188.622C123.718 188.605 123.737 188.598 123.755 188.59L123.763 188.587C123.955 188.505 124.126 188.378 124.259 188.217C124.277 188.197 124.297 188.178 124.324 188.174C124.331 188.173 124.338 188.173 124.344 188.174L127.958 188.918L127.959 188.917ZM121.741 195.14L121.162 195.719L114.767 186.469C114.765 186.466 114.762 186.462 114.76 186.459C114.75 186.446 114.739 186.432 114.741 186.416C114.741 186.405 114.749 186.395 114.757 186.386L114.764 186.377C114.783 186.348 114.8 186.32 114.818 186.289L114.832 186.264L114.834 186.262C114.844 186.245 114.853 186.228 114.871 186.219C114.886 186.212 114.906 186.215 114.923 186.218L122.008 187.681C122.028 187.684 122.046 187.692 122.062 187.704C122.071 187.713 122.073 187.723 122.076 187.735C122.125 187.922 122.217 188.095 122.344 188.241C122.472 188.387 122.631 188.501 122.81 188.575C122.83 188.585 122.821 188.607 122.812 188.63C122.807 188.641 122.804 188.652 122.801 188.663C122.712 189.206 121.946 193.879 121.741 195.14ZM120.532 196.349C120.106 196.771 119.855 196.995 119.57 197.085C119.29 197.173 118.989 197.173 118.709 197.085C118.376 196.979 118.088 196.692 117.514 196.116L111.091 189.688L112.769 187.085C112.777 187.072 112.784 187.06 112.797 187.051C112.815 187.038 112.841 187.044 112.862 187.051C113.247 187.167 113.661 187.146 114.032 186.992C114.051 186.984 114.071 186.979 114.086 186.993C114.093 187 114.1 187.008 114.106 187.016L120.532 196.349V196.349ZM110.472 189.069L108.999 187.594L111.908 186.352C111.916 186.349 111.924 186.347 111.932 186.347C111.956 186.347 111.97 186.371 111.983 186.393C112.012 186.438 112.043 186.482 112.076 186.525L112.085 186.536C112.094 186.548 112.088 186.561 112.08 186.572L110.473 189.069H110.472ZM108.347 186.942L106.483 185.076C106.166 184.759 105.936 184.529 105.776 184.331L111.443 185.507C111.45 185.508 111.458 185.51 111.465 185.511C111.5 185.516 111.538 185.523 111.538 185.556C111.538 185.591 111.496 185.608 111.46 185.622L111.444 185.629L108.347 186.942ZM105.45 183.372C105.457 183.251 105.478 183.133 105.514 183.018C105.62 182.685 105.907 182.397 106.483 181.821L108.868 179.434C109.966 181.029 111.068 182.623 112.172 184.214C112.191 184.239 112.212 184.268 112.19 184.289C112.086 184.404 111.982 184.53 111.908 184.667C111.9 184.684 111.888 184.699 111.873 184.711C111.863 184.717 111.853 184.715 111.843 184.712H111.841L105.45 183.371V183.372ZM109.507 178.795L112.712 175.586C113.014 175.718 114.112 176.182 115.093 176.596C115.835 176.911 116.512 177.197 116.725 177.289C116.747 177.298 116.766 177.307 116.775 177.328C116.781 177.341 116.778 177.357 116.775 177.371C116.724 177.603 116.732 177.843 116.797 178.071C116.862 178.299 116.983 178.508 117.149 178.677C117.17 178.699 117.149 178.73 117.13 178.756L117.12 178.771L113.864 183.819C113.855 183.833 113.847 183.845 113.833 183.855C113.816 183.865 113.791 183.86 113.771 183.855C113.645 183.822 113.515 183.804 113.384 183.803C113.267 183.803 113.139 183.824 113.011 183.848H113.01C112.996 183.85 112.983 183.853 112.972 183.844C112.959 183.834 112.948 183.821 112.939 183.808L109.506 178.795H109.507ZM113.362 174.937L117.514 170.782C118.088 170.207 118.376 169.919 118.709 169.814C118.989 169.725 119.29 169.725 119.57 169.814C119.903 169.919 120.191 170.207 120.766 170.782L121.666 171.683L118.713 176.26C118.705 176.273 118.695 176.285 118.683 176.294C118.666 176.306 118.641 176.301 118.619 176.294C118.386 176.223 118.14 176.21 117.901 176.256C117.662 176.302 117.438 176.406 117.248 176.558C117.229 176.578 117.2 176.567 117.176 176.556C116.79 176.388 113.791 175.12 113.362 174.937ZM122.293 172.31L125.019 175.039L124.362 179.111V179.122C124.362 179.131 124.36 179.14 124.357 179.149C124.349 179.163 124.335 179.166 124.321 179.171C124.18 179.213 124.048 179.279 123.929 179.366C123.924 179.369 123.92 179.373 123.915 179.378C123.907 179.386 123.899 179.394 123.887 179.396C123.876 179.396 123.866 179.394 123.856 179.391L119.701 177.624L119.693 177.62C119.667 177.61 119.635 177.597 119.635 177.57C119.611 177.338 119.535 177.115 119.414 176.916C119.394 176.883 119.372 176.848 119.389 176.815L122.293 172.31ZM119.485 178.461L123.38 180.112C123.401 180.122 123.425 180.131 123.434 180.153C123.438 180.167 123.438 180.181 123.434 180.194C123.422 180.251 123.412 180.316 123.412 180.382V180.491C123.412 180.518 123.385 180.53 123.359 180.541L123.351 180.544C122.734 180.807 114.688 184.241 114.676 184.241C114.664 184.241 114.651 184.241 114.639 184.229C114.618 184.207 114.639 184.177 114.658 184.15C114.662 184.145 114.665 184.14 114.668 184.136L117.869 179.176L117.875 179.167C117.894 179.137 117.915 179.103 117.949 179.103L117.981 179.108C118.054 179.118 118.118 179.128 118.183 179.128C118.669 179.128 119.119 178.891 119.39 178.487C119.397 178.476 119.405 178.466 119.415 178.458C119.434 178.444 119.462 178.451 119.485 178.461ZM115.024 185.025L123.794 181.283C123.794 181.283 123.807 181.283 123.819 181.295C123.867 181.343 123.907 181.375 123.947 181.405L123.966 181.417C123.984 181.427 124.002 181.438 124.003 181.457C124.003 181.464 124.003 181.468 124.002 181.475L123.25 186.093L123.247 186.112C123.242 186.148 123.237 186.188 123.204 186.188C123.004 186.202 122.81 186.264 122.639 186.369C122.468 186.475 122.325 186.621 122.223 186.794L122.22 186.799C122.21 186.816 122.201 186.832 122.184 186.84C122.169 186.847 122.15 186.844 122.134 186.841L115.14 185.397C115.133 185.396 115.032 185.026 115.024 185.025Z" stroke="#350F70" stroke-width="8" stroke-linecap="round" stroke-linejoin="round" mask="url(#path-25-outside-1_1503_83)"/>
<defs>
<linearGradient id="paint0_linear_1503_83" x1="71.9282" y1="95.522" x2="67.4915" y2="13.1957" gradientUnits="userSpaceOnUse">
<stop stop-color="#FFFDFD"/>
<stop offset="1" stop-color="#FFFDFD" stop-opacity="0"/>
</linearGradient>
<linearGradient id="paint1_linear_1503_83" x1="175.779" y1="84.0057" x2="158.76" y2="132.124" gradientUnits="userSpaceOnUse">
<stop stop-color="#350F70"/>
<stop offset="1" stop-color="#7B30F0"/>
</linearGradient>
<linearGradient id="paint2_linear_1503_83" x1="204.438" y1="66.8616" x2="204.438" y2="104.744" gradientUnits="userSpaceOnUse">
<stop stop-color="#350F70"/>
<stop offset="1" stop-color="#7B30F0"/>
</linearGradient>
<linearGradient id="paint3_linear_1503_83" x1="234.363" y1="90.5761" x2="228.712" y2="118.912" gradientUnits="userSpaceOnUse">
<stop stop-color="#350F70"/>
<stop offset="1" stop-color="#7B30F0"/>
</linearGradient>
<radialGradient id="paint4_radial_1503_83" cx="0" cy="0" r="1" gradientUnits="userSpaceOnUse" gradientTransform="translate(104.532 183.063) rotate(90) scale(27.374 31.5795)">
<stop stop-color="#20C6B7"/>
<stop offset="1" stop-color="#4D9ABF"/>
</radialGradient>
</defs>
</svg>
